/* XPM */
static const char *crosslines_v[]={
"32 32 2 1",			    
". c None",			    
"# c #000000",			    
"..........#...............#.....", 
".........#.#.............#.#....", 
"........#...#...........#...#...", 
".......#.....#.........#.....#..", 
"......#.......#.......#.......#.", 
".....#.........#.....#.........#", 
"#...#...........#...#...........", 
".#.#.............#.#............", 
"..#...............#.............", 
".#.#.............#.#............", 
"#...#...........#...#...........", 
".....#.........#.....#.........#", 
"......#.......#.......#.......#.", 
".......#.....#.........#.....#..", 
"........#...#...........#...#...", 
".........#.#.............#.#....", 
"..........#...............#.....", 
".........#.#.............#.#....", 
"........#...#...........#...#...", 
".......#.....#.........#.....#..", 
"......#.......#.......#.......#.", 
".....#.........#.....#.........#", 
"#...#...........#...#...........", 
".#.#.............#.#............", 
"..#...............#.............", 
".#.#.............#.#............", 
"#...#...........#...#...........", 
".....#.........#.....#.........#", 
"......#.......#.......#.......#.", 
".......#.....#.........#.....#..", 
"........#...#...........#...#...", 
".........#.#.............#.#...."};
		        	 
