/* XPM */
static const char *square_diag_thin[]={
"32 32 2 1",			    
". c None",			    
"# c #000000",			    
"..#...............#.............", 
".#...............#..............", 
"#...............#...............", 
"...............#...............#", 
"..............#...............#.", 
".............#...............#..", 
"............#...............#...", 
"...........#...............#....", 
"..........#...............#.....", 
".........#...............#......", 
"........#...............#.......", 
".......#...............#........", 
"......#...............#.........", 
".....#...............#..........", 
"....#...............#...........", 
"...#...............#............", 
"..#...............#.............", 
".#...............#..............", 
"#...............#...............", 
"...............#...............#", 
"..............#...............#.", 
".............#...............#..", 
"............#...............#...", 
"...........#...............#....", 
"..........#...............#.....", 
".........#...............#......", 
"........#...............#.......", 
".......#...............#........", 
"......#...............#.........", 
".....#...............#..........", 
"....#...............#...........", 
"...#...............#............"};
		        	 
