/* XPM */
static char * dot_opposite_1_0_xpm[] = {
"32 32 2 1",
" 	c None",
".	c #000000",
"        ........        ........",
"        ........        ........",
"        ........        ........",
"        ........        ........",
"        ........        ........",
"        ........        ........",
"        ........        ........",
"        ........        ........",
"........        ........        ",
"........        ........        ",
"........        ........        ",
"........        ........        ",
"........        ........        ",
"........        ........        ",
"........        ........        ",
"........        ........        ",
"        ........        ........",
"        ........        ........",
"        ........        ........",
"        ........        ........",
"        ........        ........",
"        ........        ........",
"        ........        ........",
"        ........        ........",
"........        ........        ",
"........        ........        ",
"........        ........        ",
"........        ........        ",
"........        ........        ",
"........        ........        ",
"........        ........        ",
"........        ........        "};
