/* XPM */
static char * dot_opposite_0_3_xpm[] = {
"32 32 2 1",
" 	c None",
".	c #000000",
"                                ",
"                                ",
"          ....            ....  ",
"          ....            ....  ",
"          ....            ....  ",
"          ....            ....  ",
"                                ",
"                                ",
"                                ",
"                                ",
"  ....            ....          ",
"  ....            ....          ",
"  ....            ....          ",
"  ....            ....          ",
"                                ",
"                                ",
"                                ",
"                                ",
"          ....            ....  ",
"          ....            ....  ",
"          ....            ....  ",
"          ....            ....  ",
"                                ",
"                                ",
"                                ",
"                                ",
"  ....            ....          ",
"  ....            ....          ",
"  ....            ....          ",
"  ....            ....          ",
"                                ",
"                                "};
