/* XPM */                          
static const char *horizontal={    
"32 32 2 1",		        
". c None",		        
"# c #000000",        	       	  	     	   
"................................",
"................................",
"................................",
"................................",
"................................",
"................................",
"................................",
"################################",
"................................",
"................................",
"................................",
"................................",
"................................",
"................................",
"................................",
"################################",
"................................",
"................................",
"................................",
"................................",
"................................",
"................................",
"................................",
"################################",
"................................",
"................................",
"................................",
"................................",
"................................",
"................................",
"................................",
"################################",
"................................",
"................................",
"................................",
"................................",
"................................",
"................................",
"................................",
"################################",
