/* XPM */
static char * sector_0_45_xpm[] = {
"32 32 2 1",
" 	c None",
".	c #000000",
"        ...                     ",
"        .....                   ",
"        ......                  ",
"        .......                 ",
"        .......                 ",
"        ........                ",
"        ........                ",
"        ........                ",
"        ........                ",
"        ........                ",
"         .......                ",
"         ......                 ",
"         ......                 ",
"          ....                  ",
"          ...                   ",
"          .                     ",
"                        ...     ",
"                        .....   ",
"                        ......  ",
"                        ....... ",
"                        ....... ",
"                        ........",
"                        ........",
"                        ........",
"                        ........",
"                        ........",
"                         .......",
"                         ...... ",
"                         ...... ",
"                          ....  ",
"                          ...   ",
"                          .     "};
