/* XPM */
static char * sector_0_85_xpm[] = {
"32 32 2 1",
" 	c None",
".	c #000000",
"        ...                     ",
"        .....                   ",
"        ......                  ",
" ..     .......                 ",
" ...    .......                 ",
".....   ........                ",
"......  ........                ",
"....... ........                ",
"................                ",
"................                ",
"................                ",
" ..............                 ",
" ..............                 ",
"  ............                  ",
"   ..........                   ",
"     ......                     ",
"                        ...     ",
"                        .....   ",
"                        ......  ",
"                 ..     ....... ",
"                 ...    ....... ",
"                .....   ........",
"                ......  ........",
"                ....... ........",
"                ................",
"                ................",
"                ................",
"                 .............. ",
"                 .............. ",
"                  ............  ",
"                   ..........   ",
"                     ......     "};
