/* XPM */
static const char *vertical_broken={
"32 32 2 1",
". c None",  	   	        			
"# c #000000",
"......##......##......##......##",
"......##......##......##......##",
"......##......##......##......##",
"......##......##......##......##",
"......##......##......##......##",
"......##......##......##......##",
"................................",
"................................",
"......##......##......##......##",
"......##......##......##......##",
"......##......##......##......##",
"......##......##......##......##",
"......##......##......##......##",
"......##......##......##......##",
"................................",
"................................",
"......##......##......##......##",
"......##......##......##......##",
"......##......##......##......##",
"......##......##......##......##",
"......##......##......##......##",
"......##......##......##......##",
"................................",
"................................",
"......##......##......##......##",
"......##......##......##......##",
"......##......##......##......##",
"......##......##......##......##",
"......##......##......##......##",
"......##......##......##......##",
"................................",
"................................"};
        			 
 
   
   

