/* XPM */
static const char *autoupdate_xpm[] = {
"32 32 124 2",
"  	c None",
". 	c #B2D3D5",
"+ 	c #0D0D0D",
"@ 	c #000000",
"# 	c #060606",
"$ 	c #A7A7A7",
"% 	c #E5E5E5",
"& 	c #DDDDDD",
"* 	c #E1E1E1",
"= 	c #C0C0C0",
"- 	c #D8D8D8",
"; 	c #FFFFFF",
"> 	c #F8F8F8",
", 	c #5A5A5A",
"' 	c #7E7E7E",
") 	c #737373",
"! 	c #C2C2C2",
"~ 	c #D2D2D2",
"{ 	c #747474",
"] 	c #7C7C7C",
"^ 	c #696969",
"/ 	c #212121",
"( 	c #080808",
"_ 	c #7A7A7A",
": 	c #9F9F9F",
"< 	c #010101",
"[ 	c #020202",
"} 	c #171717",
"| 	c #808080",
"1 	c #A2A2A2",
"2 	c #6A6A6A",
"3 	c #686A6A",
"4 	c #9BB3B5",
"5 	c #869596",
"6 	c #9D9D9D",
"7 	c #242424",
"8 	c #CFCFCF",
"9 	c #D6D6D6",
"0 	c #686868",
"a 	c #A6A6A6",
"b 	c #D4D4D4",
"c 	c #323232",
"d 	c #969696",
"e 	c #202020",
"f 	c #F5F5F5",
"g 	c #E0E0E0",
"h 	c #DCDCDC",
"i 	c #D0D0D0",
"j 	c #CCCCCC",
"k 	c #6D6D6D",
"l 	c #B1B1B1",
"m 	c #606060",
"n 	c #8F8F8F",
"o 	c #FDFDFD",
"p 	c #949494",
"q 	c #3D3D3D",
"r 	c #8C8C8C",
"s 	c #878787",
"t 	c #868686",
"u 	c #D9D9D9",
"v 	c #DBDBDB",
"w 	c #717171",
"x 	c #AEAEAE",
"y 	c #575757",
"z 	c #555555",
"A 	c #5D5D5D",
"B 	c #5B5B5B",
"C 	c #DEDEDE",
"D 	c #707070",
"E 	c #ECECEC",
"F 	c #525252",
"G 	c #5F5F5F",
"H 	c #B3B3B3",
"I 	c #959595",
"J 	c #929292",
"K 	c #E8E8E8",
"L 	c #626262",
"M 	c #F6F6F6",
"N 	c #C9C9C9",
"O 	c #252525",
"P 	c #6B6B6B",
"Q 	c #E3E3E3",
"R 	c #EDEDED",
"S 	c #6F6F6F",
"T 	c #434343",
"U 	c #EAEAEA",
"V 	c #6E6E6E",
"W 	c #4C4C4C",
"X 	c #C7C7C7",
"Y 	c #040404",
"Z 	c #DFDFDF",
"` 	c #727272",
" .	c #B4B4B4",
"..	c #2B2B2B",
"+.	c #848484",
"@.	c #BFBFBF",
"#.	c #3A3A3A",
"$.	c #282828",
"%.	c #F7F7F7",
"&.	c #616161",
"*.	c #DADADA",
"=.	c #E9E9E9",
"-.	c #B7B7B7",
";.	c #888888",
">.	c #9C9C9C",
",.	c #EEEEEE",
"'.	c #222222",
").	c #F4F4F4",
"!.	c #D7D7D7",
"~.	c #B8B8B8",
"{.	c #676767",
"].	c #7D7D7D",
"^.	c #666666",
"/.	c #797979",
"(.	c #B6B6B6",
"_.	c #BBBBBB",
":.	c #D3D3D3",
"<.	c #C1C1C1",
"[.	c #E4E4E4",
"}.	c #E2E2E2",
"|.	c #A6C3C5",
"1.	c #ABABAB",
"2.	c #A5A5A5",
"3.	c #ACACAC",
". . . . . . . . . . . . . . . . . . . . . . . . . . . . . . . . ",
". . . . . . . . . . . . . . . . . . . . . . . . . . . . . . . . ",
". . . . . . . . . . . . . . . . . . . . . . . . . . . . . . . . ",
". . . . . . . . . . . . . . . . . . . . . . . . . . . . . . . . ",
". . . . . . . + @ @ @ @ @ @ @ @ @ # . . . . . . . . . . . . . . ",
". . . . . . . @ $ % & & & & & * = @ . . . . . . . . . . . . . . ",
". . . . . . . @ - ; ; ; ; ; ; ; > @ . . . . . . . . . . . . . . ",
". . . . . . . @ , ' ) ! ; ~ { ] ^ @ . . . . . . . . . . . . . . ",
". . . . . . . / ( # @ _ ; : @ < [ } . . . . . . . . . . . . . . ",
". . . . . . . . . . + | ; 1 ( 2 3 3 4 4 4 5 . . . . . . . . . . ",
". . . . . . . . . . + | ; 6 7 & 8 8 8 8 8 9 0 . . . . . . . . . ",
". . . . . . . . a b c _ ; d e f g g g g h i j k . . . . . . . . ",
". . . . . . . . l * ! m n o p q r s s t 9 u v w . . . . . . . . ",
". . . . . . . . x v f y z ; = @ 2 A A B ~ C u D . . . . . . . . ",
". . . . . . . . x h E F G ; H @ ] I p J 9 & u D . . . . . . . . ",
". . . . . . . . x h K ) L M N O P K Q Q h h u D . . . . . . . . ",
". . . . . . . . x h v R S T ; 8 ( % v v v h u D . . . . . . . . ",
". . . . . . . . x h h U V W ; X Y E Z v v h u D . . . . . . . . ",
". . . . . . . . x h h U ` @ D ;  ...+.u v h u D . . . . . . . . ",
". . . . . . . . x h h g @.#.$.; %.@ &.- h h u D . . . . . . . . ",
". . . . . . . . x h h *.=.-.G p ;.A >.*.v h u D . . . . . . . . ",
". . . . . . . . x h v & & ,.l @ '.).Q v v h u D . . . . . . . . ",
". . . . . . . . x h h !.~ !.~.{.].Z v v v h u D . . . . . . . . ",
". . . . . . . . x h Q 1 ^.V k 0 /.g v v v h u D . . . . . . . . ",
". . . . . . . . x h % >., L L &.` g v v v & u D . . . . . . . . ",
". . . . . . . . -.- *.N  .-.-.(._.C h h h :.Z ) . . . . . . . . ",
". . . . . . . . ] <.h g [.Q Q Q }.h h h h u 1 |.. . . . . . . . ",
". . . . . . . . . s 1.2.2.2.2.2.2.2.2.2.2.3.. . . . . . . . . . ",
". . . . . . . . . . . . . . . . . . . . . . . . . . . . . . . . ",
". . . . . . . . . . . . . . . . . . . . . . . . . . . . . . . . ",
". . . . . . . . . . . . . . . . . . . . . . . . . . . . . . . . ",
". . . . . . . . . . . . . . . . . . . . . . . . . . . . . . . . "
};
