/* XPM */
static const char * dialoger_xpm[] = {
"32 32 89 1",
" 	c None",
".	c #000000",
"+	c #808080",
"@	c #FFFFFF",
"#	c #FDFDFD",
"$	c #FF0000",
"%	c #800000",
"&	c #FAFAFA",
"*	c #F9F9F9",
"=	c #000080",
"-	c #F8F8F8",
";	c #FBFBFB",
">	c #F6F6F6",
",	c #F5F5F5",
"'	c #F3F3F3",
")	c #F2F2F2",
"!	c #FCFCFC",
"~	c #FEFEFE",
"{	c #F7F7F7",
"]	c #F0F0F0",
"^	c #EBEBEB",
"/	c #AA00FF",
"(	c #4A0073",
"_	c #EEEEEE",
":	c #E8E8E8",
"<	c #E5E5E5",
"[	c #EFEFEF",
"}	c #E7E7E7",
"|	c #DFDFDF",
"1	c #F4F4F4",
"2	c #E3E3E3",
"3	c #DBDBDB",
"4	c #D8D8D8",
"5	c #F1F1F1",
"6	c #00FF00",
"7	c #008000",
"8	c #D2D2D2",
"9	c #CFCFCF",
"0	c #CCCCCC",
"a	c #EDEDED",
"b	c #E9E9E9",
"c	c #E1E1E1",
"d	c #D5D5D5",
"e	c #C6C6C6",
"f	c #EAEAEA",
"g	c #0000FF",
"h	c #C2C2C2",
"i	c #C0C0C0",
"j	c #003196",
"k	c #0A3A9C",
"l	c #1543A2",
"m	c #204CA9",
"n	c #2B55AF",
"o	c #365EB5",
"p	c #4168BC",
"q	c #3760B6",
"r	c #4269BC",
"s	c #4D72C3",
"t	c #587CCA",
"u	c #6385D0",
"v	c #6E8ED6",
"w	c #7997DD",
"x	c #6F8FD7",
"y	c #7A98DD",
"z	c #85A1E4",
"A	c #90ABEB",
"B	c #9BB4F1",
"C	c #A6BDF8",
"D	c #B1C7FF",
"E	c #ECECEC",
"F	c #E6E6E6",
"G	c #D7D7D7",
"H	c #DCDCDC",
"I	c #DADADA",
"J	c #D3D3D3",
"K	c #E0E0E0",
"L	c #DEDEDE",
"M	c #CBCBCB",
"N	c #E2E2E2",
"O	c #C7C7C7",
"P	c #DDDDDD",
"Q	c #D9D9D9",
"R	c #C3C3C3",
"S	c #E4E4E4",
"T	c #D1D1D1",
"U	c #CDCDCD",
"V	c #C9C9C9",
"W	c #C5C5C5",
"X	c #C1C1C1",
"        +++++++++++++++++++     ",
"        +@@@@@@@@@@@@@@@@@.+    ",
"        +##$$$$$$$$$$%&*=-.+    ",
"+++++++++;;%%%%%%%%%%%>,').+    ",
"+@@@@@@@+**&;!!#~@!&{,)]=^.+    ",
"+~~~@~#!+{-//////(;-,)_^:<.+    ",
"+#======+>{(((((((;{'[^}=|.+    ",
"+!#~@!*>+111,,,>>{'[^}2|34.+    ",
"+;!#@;{'+)56666666666667=8.+    ",
"+&======+5[777777777777790.+    ",
"+&;#@*'a+[a^b}<2c|34d890=e.+    ",
"+*;#@-5f+_^gggggggggggg=hi.+    ",
"+-==+++++++++++++++++++++++++++ ",
"+{*!+@@@@@@@@@@@@@@@@@@@@@@@@@.+",
"+>*!+#====#~~~~~~@~~~###!!!;;;.+",
"+>==+!!!!####~~~~@~#jklmmnop.{.+",
"+,{*+;;;!!!###~~~@~#qrsttuvw.'.+",
"+1,>+&jklmmnop.~~...xyzAABCD.[.+",
"+'==+*qrsttuvw.~~.#;.........^.+",
"+')5+-xyzAABCD....#;*{,'5[a^b}.+",
"+)]_+{.........#~.!&jklmmnop.2.+",
"+5==+>>{-**&;!!#~.!*qrsttuvw.|.+",
"+]E:+,,,>>{{{--**...xyzAABCD.3.+",
"+]^F+1===11111111.)].........G.+",
"+[==+'))))5555]]].a^:F2c|HIGdJ.+",
"+_}K+)========EE^.:Fjklmmnop.9.+",
"+_FL+5][_aE^fb:}F.2cqrsttuvw.M.+",
"....+]==E======2N...xyzAABCD.O.+",
" ++++[a^f:}<2NK|PHQG.........R.+",
"    +_Ef:FSNKLHI4GdJT9UMVOWRXi.+",
"    ...........................+",
"     +++++++++++++++++++++++++++"};
