/* XPM */
static const char * down12x14_xpm[]={
"12 14 2 1",
". c #000000",
"# c None",
"............",
".##########.",
".####..####.",
".####..####.",
".####..####.",
".####..####.",
".####..####.",
".####..####.",
".#........#.",
".##......##.",
".###....###.",
".####..####.",
".##########.",
"............"};
