/* XPM */
static const char * earth3_xpm[] = {
"32 32 5 1",
" 	c None",
".	c #9B9B9B9B9B9B",
"X	c #3F3F4F4F6161",
"o	c #00000000FFFF",
"O	c #1010B0B01010",
"                                ",
"            ..XXXX..            ",
"          XXooOoooooXX          ",
"        XXOOOOooOOooooXX        ",
"       XOOOOOooOoOOoooOOX       ",
"      XOOOOOoOoOOOOooooOOX      ",
"     XOOOOOOOOOOOOoooooOOOX     ",
"    XoOOOOOOOOOOOOoooooOOOOX    ",
"    XoOOOOOOOOOOOOoooooooOOX    ",
"   XooOOOOOOOOOOOoooooooooooX   ",
"   XooOOOOOOOOOOoooooooooooOX   ",
"  .XooOOOOOOOOOOooooooooooOOX.  ",
"  .ooooOOOOOoooOOooooooooOOOO.  ",
"  XoooooOOOoooooOooooooooOOOOX  ",
"  XoooooOOOooooooooooooooOOOOX  ",
"  XooooooOOOooooOOooooooooOOOX  ",
"  XoooooooOOooooooOoOooooooOOX  ",
"  XooooooooOOoOOOOooooooooooOX  ",
"  XoooooooooOOOOOOOOOOooooooOX  ",
"  .oooooooooOOOOOOOOOOOoooooO.  ",
"  .XooooooooOOOOOOOOOOOoooooX.  ",
"   XooooooooOOOOOOOOOOooooooX   ",
"   XoooooooooOOOOOOOOoooooooX   ",
"    XoooooooooOOOOOOoooooooX    ",
"    XoooooooooooOOOOoooooooX    ",
"     XooooooooooOOOOooooooX     ",
"      XooooooooooOOooooooX      ",
"       XoooooooooOOoooooX       ",
"        XXoooooooOOoooXX        ",
"          XXooooooOoXX          ",
"            ..XXXX..            ",
"                                "};
