/* XPM */
static const char * editundo_xpm[] = {
"21 20 2 1",
" 	c None",
".	c #000000000000",
"                     ",
"                     ",
"                     ",
"                     ",
"        .....        ",
"       .     .       ",
"   .  .       .      ",
"   ...         .     ",
"   ...         .     ",
"   ....        .     ",
"              .      ",
"             .       ",
"            .        ",
"                     ",
"   ........ . . .    ",
"                     ",
"                     ",
"                     ",
"                     ",
"                     "};
