/* XPM */
static const char * face_grin_xpm[] = {
"32 32 7 1",
" 	c None",
".	c #000000000000",
"X	c #0E0E23232323",
"o	c #C7C7C7C7C7C7",
"O	c #FFFFFFFFFFFF",
"+	c #3F3F4F4F6161",
"@	c #9B9B9B9B9B9B",
"          ...       ...         ",
"        ...  .     .  ...       ",
"      ...    .    .     ..      ",
"    ..        .          ..     ",
"       ....         ....   XX   ",
"     ..oOOo..     ..oOoo..      ",
"    .OOOOOOo+.   .OOOOOOo+.     ",
"   .oOOOOOOOo+. .oOOOOOOoo+.    ",
"   .OOOOOOOOo@. .OOOOOOOOo@.    ",
"  .oOOOOOOOOo@+.OOOOOOOOOo@+.   ",
"  .oOOOO..OOo@+.OOOO..OOOo@+.   ",
"  .oOOOO..Oo@@+.oOOO..OOo@@+.   ",
"  .ooOOOOOOo@+X.oOOOOOOOo@+X.   ",
"   .ooOOOoo@@+. .ooOOOoo@@+.    ",
"   .+oooo@@@+X. .+@ooo@@@+X.    ",
"    .++@@@++X.   .+@@@@++X.     ",
"     ..+++X..     ..+++X..      ",
"       ....         ....        ",
" .                            . ",
".O.                         ..O.",
".oX...                  X...oXO.",
".XXOOX..           X...XoOXOoXX.",
".OXOoXOoX.........XoOXOOo@XOXXO.",
" .XX@XOoOOXOOOOOXOOo@XOo@@XXOX. ",
" .XOXXO@@@XOoo@@XOo@@XO@@XXOoX. ",
"  .OOXXX@+XOo@@+XO@@+XXXXOXOoX  ",
"  .OoXOOXXXXXXXXXXXXXXOOOoXO@.  ",
"   .@XOoOOXOOOOOXOOOOXOo@@Xo.   ",
"    ..Oo@@XOoo@@XOo@@XOo@+X.    ",
"      ..@+XOo@@@XO@@+Xo@...     ",
"        X...o@@+XO@@...X        ",
"            X......X            "};
