/* XPM */
static const char * fet_object_tmp_xpm[] = {
"24 24 38 1",
" 	c None",
".	c #D4A0FF",
"+	c #CC9CFF",
"@	c #BB98FF",
"#	c #BA97FF",
"$	c #BD9BFF",
"%	c #B792FF",
"&	c #B194FF",
"*	c #B395FF",
"=	c #C297FF",
"-	c #A890FF",
";	c #9B89FF",
">	c #A68EFF",
",	c #9D8BFF",
"'	c #616161",
")	c #A78FFF",
"!	c #8F84FE",
"~	c #8782FF",
"{	c #9085FF",
"]	c #E7E4E9",
"^	c #B092FE",
"/	c #9287FF",
"(	c #837FFE",
"_	c #9988FD",
":	c #DBA3FE",
"<	c #D19EFD",
"[	c #7A7EFF",
"}	c #DDA5FF",
"|	c #8480FF",
"1	c #C899FE",
"2	c #D5A1FF",
"3	c #C095FF",
"4	c #585858",
"5	c #FF0000",
"6	c #CD9DFF",
"7	c #E6AAFF",
"8	c #DEA6FF",
"9	c #E0A8FF",
"        ...+....        ",
"      .+@@#@#@@+..      ",
"     +@$%&*%&#*#++.     ",
"    +@=%-;>,'''-*@+.    ",
"   +@&)>;!~{']',^*@+.   ",
"  +@%>,/!(~'']''_)*@+:  ",
" .<*%,!([[(']]]'/;^*@.} ",
" +#%,{|[~~[']]]'~_,%1+. ",
"2+*%;|~~(~(']]''[!,-*+.}",
"2#3,_(~[([~']]]'~|/>=@.}",
".=*)44444~[']]''[~/,@$.}",
".<%;{~4([[('555'(|{>&+2}",
"++%%{(4(~(['5'''(|/;&#.}",
"2+3,_(4[[(('555'[~_&*62}",
".+=%_/4~4[['55''(/;&#6}7",
"2+=-%/~[(~~'555''_>%#68}",
" .+*%>/(''']555]'''@669 ",
" 8.+^%>_']]55555]]'+$87 ",
"  2+#=%%']5555555]'28}  ",
"   ..+*>']]55555]]'28   ",
"    ..+#''']]]]]'''8    ",
"     }}.++'''''''88     ",
"      98:.....8887      ",
"        77799987        "};
