/* XPM */
static const char * fet_object_wind_xpm[] = {
"24 24 176 2",
"  	c None",
". 	c #D4A0FF",
"+ 	c #CC9CFF",
"@ 	c #BB98FF",
"# 	c #BA97FF",
"$ 	c #BD9BFF",
"% 	c #B792FF",
"& 	c #B194FF",
"* 	c #B395FF",
"= 	c #C297FF",
"- 	c #A890FF",
"; 	c #9B89FF",
"> 	c #A68EFF",
", 	c #9D8BFF",
"' 	c #A78FFF",
") 	c #8F84FE",
"! 	c #8782FF",
"~ 	c #9085FF",
"{ 	c #9287FF",
"] 	c #B092FE",
"^ 	c #837FFE",
"/ 	c #8480FF",
"( 	c #9988FD",
"_ 	c #DBA3FE",
": 	c #D19EFD",
"< 	c #7A7EFF",
"[ 	c #DDA5FF",
"} 	c #9E8CFF",
"| 	c #F2ECFF",
"1 	c #CCA1FE",
"2 	c #CFA3FF",
"3 	c #D5A1FF",
"4 	c #7B7FFF",
"5 	c #9287FE",
"6 	c #F3F1FF",
"7 	c #B4A0FF",
"8 	c #F9F6FF",
"9 	c #CEA0FF",
"0 	c #C095FF",
"a 	c #8D88FF",
"b 	c #EDEDFF",
"c 	c #EEECFF",
"d 	c #F4F2FF",
"e 	c #C9A3FF",
"f 	c #FAF8FF",
"g 	c #D5A2FF",
"h 	c #EFF0FF",
"i 	c #9692FF",
"j 	c #A198FF",
"k 	c #F1EFFF",
"l 	c #F7F2FF",
"m 	c #BF9EFF",
"n 	c #D6A5FF",
"o 	c #8380FE",
"p 	c #EFEFFE",
"q 	c #8B87FF",
"r 	c #F4F3FF",
"s 	c #AC96FF",
"t 	c #FDFCFF",
"u 	c #CC9DFF",
"v 	c #F6ECFF",
"w 	c #9186FF",
"x 	c #8581FE",
"y 	c #7C80FF",
"z 	c #7D81FF",
"A 	c #8480FE",
"B 	c #8A85FF",
"C 	c #908CFE",
"D 	c #978DFF",
"E 	c #AB9CFF",
"F 	c #F9F7FF",
"G 	c #BD9CFF",
"H 	c #D6A4FF",
"I 	c #9F8DFF",
"J 	c #9E8EFD",
"K 	c #8A86FE",
"L 	c #908DFE",
"M 	c #8C87FF",
"N 	c #8488FF",
"O 	c #878AFF",
"P 	c #8F8CFE",
"Q 	c #9396FF",
"R 	c #928DFF",
"S 	c #F1EFFE",
"T 	c #F4F0FF",
"U 	c #BCA1FF",
"V 	c #D1A5FF",
"W 	c #D5A3FF",
"X 	c #FFFFFF",
"Y 	c #F5F0FF",
"Z 	c #F4F2FE",
"` 	c #F4F3FE",
" .	c #F3F3FF",
"..	c #F6F6FE",
"+.	c #EFEFFF",
"@.	c #EBEBFF",
"#.	c #ECEDFF",
"$.	c #EDECFE",
"%.	c #EEEDFF",
"&.	c #FDFCFE",
"*.	c #E7E6FE",
"=.	c #ECEBFE",
"-.	c #F5F4FF",
";.	c #A291FF",
">.	c #B89EFF",
",.	c #F8F5FF",
"'.	c #CE9FFF",
").	c #F8EEFF",
"!.	c #E6AAFF",
"~.	c #C399FF",
"{.	c #AA92FF",
"].	c #918DFF",
"^.	c #868AFF",
"/.	c #8985FE",
"(.	c #9590FF",
"_.	c #9793FF",
":.	c #918CFF",
"<.	c #9699FF",
"[.	c #DCDAFF",
"}.	c #E2E1FF",
"|.	c #ACA9FE",
"1.	c #F9F8FE",
"2.	c #A891FF",
"3.	c #BE9DFF",
"4.	c #D2A8FF",
"5.	c #DEA8FF",
"6.	c #FDFDFF",
"7.	c #F3F2FF",
"8.	c #F3F3FE",
"9.	c #F1F1FE",
"0.	c #F0EFFE",
"a.	c #E9EAFF",
"b.	c #F5F5FF",
"c.	c #F0F0FF",
"d.	c #F3F1FE",
"e.	c #F6F6FF",
"f.	c #F7F5FE",
"g.	c #AC95FF",
"h.	c #C2A3FF",
"i.	c #F8F1FF",
"j.	c #CD9EFF",
"k.	c #E0A8FF",
"l.	c #DEA6FF",
"m.	c #B194FE",
"n.	c #B996FF",
"o.	c #B09AFF",
"p.	c #A191FD",
"q.	c #9792FF",
"r.	c #9C98FF",
"s.	c #8B86FF",
"t.	c #9B98FE",
"u.	c #9E94FF",
"v.	c #A59CFF",
"w.	c #FAF9FF",
"x.	c #BC9AFF",
"y.	c #FBF8FF",
"z.	c #FCFBFF",
"A.	c #F8F4FF",
"B.	c #F7F3FF",
"C.	c #F5F2FF",
"D.	c #F1EEFE",
"E.	c #F7F5FF",
"F.	c #F4EFFF",
"G.	c #FBF9FF",
"H.	c #CFA2FF",
"I.	c #FBF7FF",
"J.	c #DEA7FF",
"K.	c #B699FF",
"L.	c #AB95FF",
"M.	c #B894FF",
"N.	c #A992FF",
"O.	c #B9A0FF",
"P.	c #D7A6FF",
"Q.	c #B396FF",
"R.	c #B497FF",
"S.	c #FEFEFF",
"                . . . + . . . .                 ",
"            . + @ @ # @ # @ @ + . .             ",
"          + @ $ % & * % & # * # + + .           ",
"        + @ = % - ; > , ; > - - * @ + .         ",
"      + @ & ' > ; ) ! ~ ) { ; , ] * @ + .       ",
"    + @ % > , { ) ^ ! ! ^ / ! ~ ( ' * @ + _     ",
"  . : * % , ) ^ < < ^ < ^ ! / ! { ; ] * @ . [   ",
"  + # % , ~ / < ! ! < < ! ^ ! ^ ! ( } | 1 2 .   ",
"3 + * % ; / ! ! ^ ! ^ < ^ < < ! 4 5 6 7 8 9 . [ ",
"3 # 0 , ( ^ ! < ^ < ! ! ^ ! ^ 4 a b c d e f g [ ",
". = * ' ) < < ^ ! ! < < < ! ! ! h i j k l m n [ ",
". : % ; ~ ! o ^ < < ^ ^ ! 4 4 < p q r s t u v [ ",
"+ + % % w x y ^ ! o z ! A B ! a C b D E F G H [ ",
"3 + 0 I J K a z z ^ L M N O 4 P Q R S T U V W [ ",
". + X Y Z r `  ...+.@.#.$.%.&.*.=.-.;.>.,.'.).!.",
"3 + ~.{.% D ].^./.(._._.:.<.[.}.|.1.2.f 3.4.5.[ ",
"  . u * % 6.7.8.9.0.a.%.b.+.c.d.e.f.g.h.i.j.k.  ",
"  l.. + m.n.o.p.:.q.r.R s.t.u.v.w.x.y.V F l.!.  ",
"    3 + z.A.z.B.C.c c X D.d.E.F.E.G.H.I.J.[     ",
"      . g j.K.L.% x.M.> N.@ x.O.= X X P.l.      ",
"        . . u @ # Q.* * R.R.~.y.@ X l.l.        ",
"          [ [ . + + + + = + + S.X l.l.          ",
"            k.l._ . . . . . l.l.l.!.            ",
"                !.!.!.k.k.k.l.!.                "};
