/* XPM */
static const char * front_xpm[] = {
"32 32 5 1",
" 	c None",
".	c #FFFF00000000",
"X	c #000000000000",
"o	c #FFFF0000FFFF",
"O	c #00000000FFFF",
"                                ",
"                                ",
"                   ..  ..  ..   ",
"              .. .............  ",
"            .....X............  ",
"           .....XXXXXXXXXXXXXX  ",
"          ...XXX                ",
"       oooOOOOOOOOOO            ",
"       ooooOOOOOOOOO            ",
"    ooooXXXXXXXXOOOX            ",
"   oooooX       XOOO            ",
"   ooooX        XOOOO           ",
"    ooX         XOOOOO          ",
"                 XOOOX          ",
"                 XOOX           ",
"     OO          XOO            ",
"    XOO          XOOO           ",
"    XOO          XOOOO          ",
"    XOO          XOOOX          ",
"    XOO          XOOX           ",
"    XOO          XOO            ",
"    XOOOOOO      XOOO           ",
"    XOOOOOO      XOOOO          ",
"    XXXXXX       XOOOX          ",
"                 XOOX           ",
"                 XOOO           ",
"                XOOOOO          ",
"                XOOOOX          ",
"                OOOXX           ",
"               XOXX             ",
"                                ",
"                                "};
