/* XPM */
static const char * linear_copy_xpm[] = {
"32 32 21 1",
" 	c None",
".	c #000000",
"+	c #FAF5E1",
"@	c #F6E9BD",
"#	c #F4E5B1",
"$	c #EED889",
"%	c #E8C85B",
"&	c #CBA41C",
"*	c #D1A81C",
"=	c #CCA31A",
"-	c #CBA319",
";	c #CAA21A",
">	c #C49E19",
",	c #BD9817",
"'	c #BD9818",
")	c #B49117",
"!	c #B18F17",
"~	c #A68617",
"{	c #A38316",
"]	c #907413",
"^	c #67530E",
"                                ",
"                                ",
"                                ",
"                                ",
"                                ",
"                                ",
"                                ",
"                                ",
"                                ",
"                                ",
"                                ",
"                                ",
"                                ",
"                                ",
"     ......................     ",
"    .+@@@@@@@@@@@@@@@@@@@#$.    ",
"    .%&***=-**;>,,')!~~~{]^.    ",
"     ......................     ",
"                                ",
"                                ",
"                                ",
"                                ",
"                                ",
"                                ",
"                                ",
"                                ",
"                                ",
"                                ",
"                                ",
"                                ",
"                                ",
"                                "};
