/* XPM */
static const char * paint_undo_xpm[] = {
"32 32 296 2",
"  	c None",
". 	c #6998FF",
"+ 	c #477DE9",
"@ 	c #396CD5",
"# 	c #4870D0",
"$ 	c #7E96DC",
"% 	c #75A4F2",
"& 	c #2462E7",
"* 	c #0148F0",
"= 	c #0044FC",
"- 	c #0049FF",
"; 	c #0441FC",
"> 	c #1A46E3",
", 	c #495EBB",
"' 	c #5F8FF1",
") 	c #114EDA",
"! 	c #0042EA",
"~ 	c #004EFD",
"{ 	c #0052F4",
"] 	c #004EF4",
"^ 	c #004EFF",
"/ 	c #0447FA",
"( 	c #1C4AD4",
"_ 	c #455EBB",
": 	c #6092E9",
"< 	c #0945DB",
"[ 	c #0040F7",
"} 	c #0654FF",
"| 	c #004CFF",
"1 	c #004DFE",
"2 	c #0244FF",
"3 	c #0B43F8",
"4 	c #153ECA",
"5 	c #7185CE",
"6 	c #6398F6",
"7 	c #1050D8",
"8 	c #054CFC",
"9 	c #044DFF",
"0 	c #0040FA",
"a 	c #0448FF",
"b 	c #0443FF",
"c 	c #0E48FF",
"d 	c #093CEF",
"e 	c #1B4FFB",
"f 	c #0A46F4",
"g 	c #0B42DB",
"h 	c #1D46B2",
"i 	c #81ACFA",
"j 	c #215CE4",
"k 	c #0042EC",
"l 	c #0048FE",
"m 	c #004AFF",
"n 	c #0547FD",
"o 	c #0A48F5",
"p 	c #0B4AE3",
"q 	c #0032AF",
"r 	c #4372C4",
"s 	c #6392E0",
"t 	c #5090FE",
"u 	c #195AD8",
"v 	c #0D47C4",
"w 	c #3C65C1",
"x 	c #3C73E7",
"y 	c #0042D4",
"z 	c #0052FF",
"A 	c #0044FF",
"B 	c #0547FF",
"C 	c #0041FF",
"D 	c #104DF5",
"E 	c #132C93",
"F 	c #7C9FF0",
"G 	c #0D50DF",
"H 	c #0040C8",
"I 	c #608CF9",
"J 	c #1650E2",
"K 	c #0048E6",
"L 	c #004CF1",
"M 	c #044CF6",
"N 	c #0549EC",
"O 	c #1054E7",
"P 	c #0032A4",
"Q 	c #859DDB",
"R 	c #3876EF",
"S 	c #124DCB",
"T 	c #617FBF",
"U 	c #8CBDFF",
"V 	c #1E58EA",
"W 	c #003BF4",
"X 	c #024AFF",
"Y 	c #014AFF",
"Z 	c #024AF6",
"` 	c #0746DF",
" .	c #0E3FBF",
"..	c #3C5CB1",
"+.	c #83B6FF",
"@.	c #1C50BE",
"#.	c #224394",
"$.	c #3E7CE9",
"%.	c #0048EA",
"&.	c #0048FF",
"*.	c #0148FF",
"=.	c #0449FF",
"-.	c #0045FC",
";.	c #144CE9",
">.	c #1030A1",
",.	c #436FD0",
"'.	c #1839A2",
").	c #7BAEFF",
"!.	c #0D51DA",
"~.	c #0044E9",
"{.	c #0550FF",
"].	c #0147FE",
"^.	c #0245F6",
"/.	c #074CF2",
"(.	c #1247C7",
"_.	c #5069A9",
":.	c #7598EC",
"<.	c #1F47C1",
"[.	c #4D6ED7",
"}.	c #366EE7",
"|.	c #0245EB",
"1.	c #0349F7",
"2.	c #0148FC",
"3.	c #0248FF",
"4.	c #0447F8",
"5.	c #0F4BEA",
"6.	c #0631A2",
"7.	c #2656D6",
"8.	c #1943B9",
"9.	c #71AAF7",
"0.	c #094BDF",
"a.	c #074BFF",
"b.	c #0B4BFF",
"c.	c #0242FB",
"d.	c #0349FF",
"e.	c #0D4CF9",
"f.	c #0E43CF",
"g.	c #3556B7",
"h.	c #3A70EA",
"i.	c #073EB5",
"j.	c #1C4FC4",
"k.	c #2B5CE9",
"l.	c #7188FC",
"m.	c #86BBFF",
"n.	c #3176F8",
"o.	c #0046FA",
"p.	c #0545FE",
"q.	c #0948F7",
"r.	c #0B4EDD",
"s.	c #093DA2",
"t.	c #8EACE8",
"u.	c #5691FF",
"v.	c #0E49C1",
"w.	c #7E9EC7",
"x.	c #266DE1",
"y.	c #004AE8",
"z.	c #034EF7",
"A.	c #0546FA",
"B.	c #0E47FF",
"C.	c #0641FF",
"D.	c #0546FF",
"E.	c #024BFF",
"F.	c #0A45FF",
"G.	c #1442E0",
"H.	c #25479E",
"I.	c #87AAFF",
"J.	c #2048B7",
"K.	c #5D7ABC",
"L.	c #4F8DFC",
"M.	c #0048E2",
"N.	c #064AF5",
"O.	c #0444FB",
"P.	c #0848FF",
"Q.	c #0445FF",
"R.	c #0149FF",
"S.	c #004CFC",
"T.	c #064EFB",
"U.	c #0C4BE6",
"V.	c #235BCC",
"W.	c #87B3FF",
"X.	c #7E9FFE",
"Y.	c #7F97ED",
"Z.	c #8596DC",
"`.	c #3259BE",
" +	c #37559D",
".+	c #83B5FF",
"++	c #104FDC",
"@+	c #0747F1",
"#+	c #0446FE",
"$+	c #004AF9",
"%+	c #0048FB",
"&+	c #0047FF",
"*+	c #004CF7",
"=+	c #004CF0",
"-+	c #0048E8",
";+	c #0953F0",
">+	c #084DF0",
",+	c #0342F1",
"'+	c #1C49EA",
")+	c #2137A7",
"!+	c #8488D1",
"~+	c #4D75CD",
"{+	c #193986",
"]+	c #386DE1",
"^+	c #0845EB",
"/+	c #004DF7",
"(+	c #004BFF",
"_+	c #0049FE",
":+	c #004AFB",
"<+	c #0049F9",
"[+	c #014DFF",
"}+	c #0046FF",
"|+	c #0842E4",
"1+	c #2C44A6",
"2+	c #6A8FD6",
"3+	c #173B89",
"4+	c #6D9CEE",
"5+	c #1048E3",
"6+	c #0145FE",
"7+	c #004EF7",
"8+	c #004FF7",
"9+	c #034BFF",
"0+	c #094BFF",
"a+	c #0746FF",
"b+	c #0647FF",
"c+	c #0240FF",
"d+	c #0646FF",
"e+	c #0E4EE3",
"f+	c #0E40A3",
"g+	c #85A5E0",
"h+	c #224996",
"i+	c #295DE7",
"j+	c #0041F3",
"k+	c #004AF5",
"l+	c #0050FB",
"m+	c #004BFD",
"n+	c #0040F8",
"o+	c #0B47FF",
"p+	c #053FFF",
"q+	c #0840FF",
"r+	c #1345FE",
"s+	c #1946D7",
"t+	c #163C8F",
"u+	c #2B54A6",
"v+	c #799BE2",
"w+	c #6088FF",
"x+	c #0D46EB",
"y+	c #0047F4",
"z+	c #0046FD",
"A+	c #074EFF",
"B+	c #0247FC",
"C+	c #0145FF",
"D+	c #0D49F7",
"E+	c #1B4BDB",
"F+	c #0E2E93",
"G+	c #3B62BF",
"H+	c #6387DD",
"I+	c #91B3FF",
"J+	c #2153F0",
"K+	c #0448F3",
"L+	c #014CFF",
"M+	c #0049F6",
"N+	c #0050F7",
"O+	c #0051F3",
"P+	c #0047D7",
"Q+	c #093DAB",
"R+	c #4F72DA",
"S+	c #5779DB",
"T+	c #5082DB",
"U+	c #1142E5",
"V+	c #093FFF",
"W+	c #0351F1",
"X+	c #0D46DB",
"Y+	c #0D30A4",
"Z+	c #7B8FB0",
"`+	c #8B9BBC",
" @	c #87B8FB",
".@	c #144EED",
"+@	c #0045FF",
"@@	c #0A48FB",
"#@	c #1144DD",
"$@	c #1A3DA3",
"%@	c #8192AC",
"&@	c #407FFF",
"*@	c #0040EF",
"=@	c #054FFF",
"-@	c #003FEF",
";@	c #173ED9",
">@	c #2236A7",
",@	c #1A5BD1",
"'@	c #0F4DE0",
")@	c #1445D0",
"!@	c #374FA9",
"~@	c #638AC1",
"{@	c #0D3483",
"]@	c #516FB7",
"                                                                ",
"                                  . + @ # $                     ",
"                              % & * = - ; > ,                   ",
"                            ' ) ! ~ { ] ^ / ( _                 ",
"                          : < [ } | 1 - - 2 3 4 5               ",
"                        6 7 8 9 0 a b c d e f g h               ",
"                      i j k l m n o p q r s t u v w             ",
"                      x y z A B C D E         F G H             ",
"                    I J K L M N O P Q           R S T           ",
"                  U V W X Y Z `  ...            +.@.#.          ",
"                  $.%.&.*.=.-.;.>.                ,.'.          ",
"                ).!.~.{.].^./.(._.                :.<.[.        ",
"                }.|.1.2.3.4.5.6.                    7.8.        ",
"              9.0.a.b.c.d.e.f.g.                    h.i.        ",
"    j.k.l.  m.n.o.A p.q.* r.s.t.                    u.v.w.      ",
"    x.y.z.A.B.C.D.E.- &.F.G.H.                      I.J.K.      ",
"    L.M.N.O.P.Q.R.- | S.T.U.V.W.X.Y.Z.                `. +      ",
"    .+++@+#+$+%+- &+| *+=+-+;+>+,+'+)+!+              ~+{+      ",
"      ]+^+a /+*+(+m _+:+<+[+- }+m |+1+                2+3+      ",
"      4+5+6+7+8+| 9+0+b a+b+c+d+e+f+                  g+h+      ",
"        i+j+k+l+m+3.n+o+p+q+r+s+t+                      u+v+    ",
"        w+x+y+| (+z+A+B+C+D+E+F+                        G+H+    ",
"        I+J+K+- L+&.M+N+O+P+Q+                          R+S+    ",
"          T+U+V+b+m *+W+X+Y+                            Z+`+    ",
"           @.@a++@9 @@#@$@                              %@      ",
"            &@*@=@-@;@>@                                        ",
"            m.,@'@)@!@                                          ",
"              ~@{@]@                                            ",
"                                                                ",
"                                                                ",
"                                                                ",
"                                                                "};
