/* XPM */
static const char * paint_help_xpm[] = {
"32 32 2 1",
" 	c None",
".	c #0049FF",
"                                ",
"                                ",
"                                ",
"                                ",
"                                ",
"             .......            ",
"          ............          ",
"         ..............         ",
"         ....     .....         ",
"        .....      .....        ",
"        .....      .....        ",
"        .....      .....        ",
"        .....      .....        ",
"          .       .....         ",
"                 ......         ",
"               .......          ",
"               .....            ",
"              .....             ",
"              ....              ",
"              ....              ",
"                                ",
"               ...              ",
"             ......             ",
"             ......             ",
"             ......             ",
"             ......             ",
"              ....              ",
"                                ",
"                                ",
"                                ",
"                                ",
"                                "};
