/* XPM */
static const char * paint_select_xpm[] = {
"24 24 86 1",
" 	c None",
".	c #000000",
"+	c #FEFEFE",
"@	c #FFFFFF",
"#	c #F7F7F7",
"$	c #2F2F2F",
"%	c #DEDEDE",
"&	c #000001",
"*	c #303031",
"=	c #DDDDDD",
"-	c #040509",
";	c #0F101E",
">	c #313132",
",	c #07080E",
"'	c #181A30",
")	c #101222",
"!	c #0A0B14",
"~	c #1F223F",
"{	c #0A0B18",
"]	c #101121",
"^	c #0D0E1B",
"/	c #292D55",
"(	c #0E1023",
"_	c #0A0C18",
":	c #0C0D19",
"<	c #0F101F",
"[	c #2F3463",
"}	c #161A39",
"|	c #0B0D1D",
"1	c #06070F",
"2	c #07070E",
"3	c #303030",
"4	c #2C305C",
"5	c #191E41",
"6	c #0D0F21",
"7	c #05050C",
"8	c #020205",
"9	c #020305",
"0	c #2F2F30",
"a	c #23274A",
"b	c #151835",
"c	c #0A0C1B",
"d	c #04040A",
"e	c #F0F0F0",
"f	c #181A33",
"g	c #0C0E1E",
"h	c #14162B",
"i	c #131426",
"j	c #D1D2D4",
"k	c #F5F5F5",
"l	c #A2A2A6",
"m	c #494C64",
"n	c #16182D",
"o	c #696A72",
"p	c #C8C8C8",
"q	c #A3A4A8",
"r	c #EBEBEB",
"s	c #ABACB8",
"t	c #191B32",
"u	c #1E202E",
"v	c #E9E9EA",
"w	c #9F9F9F",
"x	c #D2D2D2",
"y	c #F3F3F3",
"z	c #282A40",
"A	c #101221",
"B	c #949498",
"C	c #B9B9B9",
"D	c #D9D9D9",
"E	c #CFCFCF",
"F	c #7C7D89",
"G	c #101120",
"H	c #282830",
"I	c #EEEEEE",
"J	c #F1F1F1",
"K	c #E1E1E4",
"L	c #0E101D",
"M	c #080910",
"N	c #C0C0C1",
"O	c #E4E4E4",
"P	c #57585F",
"Q	c #16171D",
"R	c #B0B0B1",
"S	c #BCBCBC",
"T	c #E0E0E1",
"U	c #BFBFBF",
"                        ",
"                        ",
" ..    +                ",
"  .    @#               ",
"  .    @$%              ",
"  .    @&*=             ",
"  .    @-;>=            ",
" ...   @,')>=           ",
"       @!~{]*=          ",
"       @^/(_:*=         ",
"       @<[}|123=        ",
"       @^4567890=       ",
"       @!abcd&..$e      ",
"       @2fghij@@@@k     ",
"       @-<lmnop         ",
"       @9qrstuv         ",
"       @wx yzABC        ",
"       @D  EFGHI        ",
"       J    KLMN        ",
"            OPQRS       ",
"             TyU        ",
"                        ",
"                        ",
"                        "};
