/* XPM */
static const char * run_smooth_xpm[] = {
"24 24 197 2",
"  	c None",
". 	c #536CD7",
"+ 	c #5870D9",
"@ 	c #546DD9",
"# 	c #4768D4",
"$ 	c #3E57C6",
"% 	c #A3B1EA",
"& 	c #E4E8F9",
"* 	c #F5F7FC",
"= 	c #F4F6FC",
"- 	c #E1E5F8",
"; 	c #9BABE5",
"> 	c #3553C2",
", 	c #B5C2EC",
"' 	c #E6EAF9",
") 	c #EAEEFA",
"! 	c #EDF0FB",
"~ 	c #E4E8F8",
"{ 	c #AFBBE7",
"] 	c #2749AC",
"^ 	c #344DBA",
"/ 	c #C9D2F1",
"( 	c #CED5F4",
"_ 	c #D3D9F5",
": 	c #D6DDF5",
"< 	c #C5CCEC",
"[ 	c #223EA3",
"} 	c #16296C",
"| 	c #283FA2",
"1 	c #7C91D3",
"2 	c #A6B6EA",
"3 	c #ADB9EC",
"4 	c #AEBAEC",
"5 	c #ACB8EB",
"6 	c #A6B6E9",
"7 	c #A3AFE4",
"8 	c #7387D0",
"9 	c #1F3792",
"0 	c #112053",
"a 	c #5355B9",
"b 	c #1B327C",
"c 	c #2C42A1",
"d 	c #4F6CC3",
"e 	c #435088",
"f 	c #070400",
"g 	c #52629A",
"h 	c #6579CE",
"i 	c #4765C4",
"j 	c #2744AE",
"k 	c #1A2E79",
"l 	c #0C133B",
"m 	c #4338E1",
"n 	c #5041E4",
"o 	c #4C41C5",
"p 	c #192564",
"q 	c #192E74",
"r 	c #263D93",
"s 	c #3A3535",
"t 	c #FDFDFC",
"u 	c #000000",
"v 	c #2C49A7",
"w 	c #243DA6",
"x 	c #1E388F",
"y 	c #13255A",
"z 	c #08102A",
"A 	c #3729C1",
"B 	c #413CD5",
"C 	c #473FE1",
"D 	c #4538C5",
"E 	c #222373",
"F 	c #0E1941",
"G 	c #2D2929",
"H 	c #FDFAF8",
"I 	c #192978",
"J 	c #182974",
"K 	c #121F59",
"L 	c #0A1131",
"M 	c #050B1B",
"N 	c #312EA5",
"O 	c #4139BE",
"P 	c #403ED0",
"Q 	c #3D30C0",
"R 	c #2A249D",
"S 	c #101348",
"T 	c #050B1C",
"U 	c #3A3636",
"V 	c #F9F1EA",
"W 	c #0C183E",
"X 	c #0C1439",
"Y 	c #080F29",
"Z 	c #05091C",
"` 	c #352A99",
" .	c #2E2B9E",
"..	c #352EB1",
"+.	c #3227B5",
"@.	c #251C9D",
"#.	c #1C1484",
"$.	c #0E104D",
"%.	c #353131",
"&.	c #F9EEE4",
"*.	c #4F4D4A",
"=.	c #02040D",
"-.	c #261E7A",
";.	c #261E85",
">.	c #201A90",
",.	c #1E128C",
"'.	c #0C074C",
").	c #4E4A4A",
"!.	c #F9F0E4",
"~.	c #746C67",
"{.	c #FEFDFC",
"].	c #EAE9E8",
"^.	c #0B0A09",
"/.	c #271C86",
"(.	c #1A125E",
"_.	c #181060",
":.	c #120B61",
"<.	c #F3F2F2",
"[.	c #98948F",
"}.	c #F9EFE3",
"|.	c #A09489",
"1.	c #FEFDFD",
"2.	c #766D68",
"3.	c #736961",
"4.	c #A3A3A2",
"5.	c #140C59",
"6.	c #0F0545",
"7.	c #E8E5E2",
"8.	c #97938E",
"9.	c #F6E9D8",
"0.	c #84817A",
"a.	c #FBF3EA",
"b.	c #908C86",
"c.	c #F1EDE7",
"d.	c #7B7975",
"e.	c #878786",
"f.	c #060000",
"g.	c #E2DFDC",
"h.	c #A8A199",
"i.	c #F0E0CE",
"j.	c #C8BFB4",
"k.	c #D5CCBF",
"l.	c #DFD7CD",
"m.	c #DAD3C9",
"n.	c #DDCFC4",
"o.	c #928C84",
"p.	c #050000",
"q.	c #030000",
"r.	c #D9D5D2",
"s.	c #D9CABB",
"t.	c #D7C8B8",
"u.	c #DECFBF",
"v.	c #D8C9B9",
"w.	c #E3D3C2",
"x.	c #C9BBAC",
"y.	c #D9CEC2",
"z.	c #7B7269",
"A.	c #B9B7B4",
"B.	c #8C8782",
"C.	c #C2B5A7",
"D.	c #BFB4A6",
"E.	c #B8AB9D",
"F.	c #BAAD9E",
"G.	c #BEB0A2",
"H.	c #948A7F",
"I.	c #56504A",
"J.	c #221D1C",
"K.	c #5D5954",
"L.	c #79736C",
"M.	c #958C80",
"N.	c #8D8379",
"O.	c #988D82",
"P.	c #625B55",
"Q.	c #120F0F",
"R.	c #494442",
"S.	c #625C59",
"T.	c #625A53",
"U.	c #6B625A",
"V.	c #4F4A49",
"W.	c #212120",
"X.	c #040000",
"Y.	c #0C0303",
"Z.	c #080000",
"`.	c #070000",
" +	c #24211F",
".+	c #020000",
"++	c #ECE4E2",
"@+	c #DED7D5",
"#+	c #D8D1D0",
"$+	c #E0DBD7",
"%+	c #E9E6E3",
"&+	c #FCFBFA",
"*+	c #030500",
"=+	c #0B0505",
"-+	c #14100F",
";+	c #090806",
">+	c #000100",
"                                                ",
"                                                ",
"                            . + @ # $           ",
"                          % & * = - ; >         ",
"                        , ' ) ! ) ' ~ { ]       ",
"                      ^ / ( _ : _ ( / < [ }     ",
"                      | 1 2 3 4 5 6 7 8 9 0     ",
"                    a b c d e f g h i j k l     ",
"                m n o p q r s t u v w x y z     ",
"              A B C D E F 0 G H u I J K L M     ",
"              N O P Q R S T U V u W X Y Z u     ",
"              `  ...+.@.#.$.%.&.*.u =.u u       ",
"                -.;.>.,.'.u ).!.~.{.u ].^.u     ",
"                /.(._.:.u <.[.}.|.1.2.{.3.4.u   ",
"                    5.6.u 7.8.9.0.a.b.c.d.e.f.  ",
"                        u g.h.i.j.k.l.m.n.o.p.  ",
"                        q.r.s.t.u.v.w.x.y.z.p.  ",
"                        q.A.B.C.D.E.F.G.H.I.u   ",
"                          J.K.L.M.N.H.O.P.u u   ",
"                            Q.R.S.T.U.V.W.q.    ",
"                              X.Y.Z.`.u  +      ",
"                            .+++@+#+$+%+&+*+    ",
"                            X.=+p.-+q.;+u >+    ",
"                                                "};
