/* XPM */
static const char * session_deployed_xpm[] = {
"48 48 163 2",
"  	c None",
". 	c #000000",
"+ 	c #0C0C0E",
"@ 	c #2B2C30",
"# 	c #48494E",
"$ 	c #595A5F",
"% 	c #5B5C61",
"& 	c #34353A",
"* 	c #757983",
"= 	c #C2C8CE",
"- 	c #DDE1E4",
"; 	c #E8EAED",
"> 	c #F3F4F5",
", 	c #EFF0F2",
"' 	c #E1E2E6",
") 	c #C1C4CB",
"! 	c #7F8087",
"~ 	c #212225",
"{ 	c #868993",
"] 	c #E3E6E8",
"^ 	c #EEEEF0",
"/ 	c #C9CED3",
"( 	c #4D4F55",
"_ 	c #A8ABB4",
": 	c #CDD0D6",
"< 	c #51545C",
"[ 	c #ABB3BB",
"} 	c #D4D8DD",
"| 	c #B9BDC4",
"1 	c #B0B5BE",
"2 	c #414349",
"3 	c #D7DCE0",
"4 	c #A2A7B0",
"5 	c #6E737D",
"6 	c #393A3F",
"7 	c #18191D",
"8 	c #989CA6",
"9 	c #D2D7DC",
"0 	c #686B73",
"a 	c #080603",
"b 	c #C5CCD2",
"c 	c #989DA8",
"d 	c #1B1D21",
"e 	c #6B6F78",
"f 	c #CDD2D8",
"g 	c #BCC4CB",
"h 	c #9CA2AC",
"i 	c #A3AAB4",
"j 	c #45484F",
"k 	c #9DA8B2",
"l 	c #4E555F",
"m 	c #6D7986",
"n 	c #4F5560",
"o 	c #858E99",
"p 	c #B4BAC2",
"q 	c #798490",
"r 	c #86909C",
"s 	c #17191C",
"t 	c #666B75",
"u 	c #646F7D",
"v 	c #8D949F",
"w 	c #595E68",
"x 	c #8D96A1",
"y 	c #545A64",
"z 	c #939AA5",
"A 	c #959EA9",
"B 	c #474D58",
"C 	c #14171B",
"D 	c #5C6775",
"E 	c #3C434E",
"F 	c #110D04",
"G 	c #544B00",
"H 	c #5A5400",
"I 	c #645D0F",
"J 	c #87873F",
"K 	c #8E9047",
"L 	c #BEBF72",
"M 	c #BABA6E",
"N 	c #79782B",
"O 	c #8A8C43",
"P 	c #A3A459",
"Q 	c #C7C67A",
"R 	c #9A9950",
"S 	c #0C0803",
"T 	c #00A200",
"U 	c #00B700",
"V 	c #00C400",
"W 	c #00CE00",
"X 	c #00D200",
"Y 	c #00D900",
"Z 	c #00DC00",
"` 	c #00BF00",
" .	c #009D00",
"..	c #262000",
"+.	c #00A900",
"@.	c #00CB00",
"#.	c #00B100",
"$.	c #00D700",
"%.	c #00E500",
"&.	c #00A400",
"*.	c #00B800",
"=.	c #00D800",
"-.	c #00DF00",
";.	c #00BD00",
">.	c #00AB00",
",.	c #00D500",
"'.	c #00DA00",
").	c #009E00",
"!.	c #00CD00",
"~.	c #2C2003",
"{.	c #261C00",
"].	c #00C500",
"^.	c #00D100",
"/.	c #00A500",
"(.	c #00C100",
"_.	c #00C700",
":.	c #00AE00",
"<.	c #00BA00",
"[.	c #00CA00",
"}.	c #10C701",
"|.	c #C2AC18",
"1.	c #BF8F22",
"2.	c #8F8F19",
"3.	c #54AB0A",
"4.	c #009800",
"5.	c #009C00",
"6.	c #009F00",
"7.	c #70AA0B",
"8.	c #6A4D12",
"9.	c #1D150B",
"0.	c #8BAA0D",
"a.	c #A47A09",
"b.	c #00BB00",
"c.	c #00C000",
"d.	c #857A07",
"e.	c #1E2002",
"f.	c #162002",
"g.	c #0FB100",
"h.	c #00B500",
"i.	c #76B201",
"j.	c #1B1402",
"k.	c #2CB100",
"l.	c #009500",
"m.	c #7FBC00",
"n.	c #1F1800",
"o.	c #40BB00",
"p.	c #40C101",
"q.	c #8EC101",
"r.	c #10C500",
"s.	c #BEC202",
"t.	c #678D00",
"u.	c #A58F00",
"v.	c #60CC00",
"w.	c #008D00",
"x.	c #008400",
"y.	c #008800",
"z.	c #008F00",
"A.	c #009400",
"B.	c #009900",
"C.	c #6D4A0E",
"D.	c #714F10",
"E.	c #715010",
"F.	c #704E0F",
"                                  . . . . . . . . . . . . . .                                   ",
"                              . . . . + @ # $ % % $ # @ + . . . .                               ",
"                            . . . & * = - ; > > > > , ' ) ! & . . .                             ",
"                        . . . ~ { = ] > > > > > > > > > ^ ] / { ~ . . .                         ",
"                      . . . ( _ : - ] ; ] ] ] ] ] ] ; ; ; ] ' / _ # . . .                       ",
"                      . . < [ / } ' - } / ) | | 1 | ) : } - ' - : [ $ . .                       ",
"                    . . 2 _ / 3 - : | 4 5 ( 6 & & 6 ( 5 4 ) : } } / _ 2 . .                     ",
"                  . . 7 8 ) 9 9 = _ 0 7 a . . . . . . . 7 0 _ b 9 } ) c d . .                   ",
"                  . . e [ / f g h 2 . . . .         . . . . 2 4 ) f / [ e . .                   ",
"                . . ~ c g b g i j . . .                 . . . # k g b g c ~ . .                 ",
"                . . l 4 g b [ m . . .                     . . . m [ g g i n . .                 ",
"                . . * [ g | 8 @ . .                         . . @ h | g [ * . .                 ",
"                . + o [ g p q a .                             . a q [ g p r + .                 ",
"                . s o [ g [ t . .                             . . u i p g v s .                 ",
"                . d r i g [ w . .                             . . w h p g x d .                 ",
"                . d o k g p y . .                             . . y z [ = z d .                 ",
"                . d q A = p l . .                             . . n x [ b x d .                 ",
"                . s m r g p B . .                             . . B q k b o s .                 ",
"          . . . . C D m | 1 E . . . . . . . a a . . . . . . . . . E u x b q C . . . .           ",
"        . . F G H I J K L M N H H H H H H H H H H H H H H H H H H N O P Q R I G G S . .         ",
"        . a T U V W X Y Y Y Z Z Z Z Z Z Z Z Z Z Z Z Z Z Z Z Z Z Z Z Z Z Z X W V `  .a .         ",
"        . ..+.U ` @.X X Y Y Y Y Y Y Y Y Y Y Z Y Y Y Y Z Y Y Y Y Y Y Y Y X X @.` U +....         ",
"        . ..+.#.` $.%.%.%.%.%.%.%.%.%.%.%.%.%.%.%.%.%.%.%.%.%.%.%.%.%.%.%.%.$.` #.+....         ",
"        . ..&.#.*.$.Z =.-.-.-.-.-.-.-.-.-.-.-.-.-.%.-.-.-.-.-.-.-.Z -.Z Z $.$.;.#.&....         ",
"        . ..&.>.U $.,.,.,.'.'.'.'.'.'.'.'.'.'.'.'.'.'.'.'.'.'.'.'.'.,.'.,.,.$.U >.&....         ",
"        . ..).>.#.!.!.,.,.,.,.,.,.,.,.,.,.,.,.,.,.'.,.,.,.,.,.,.,.,.,.,.,.,.!.*.>.).~..         ",
"        . {.).>.*.].!.!.!.!.!.^.^.^.^.^.^.^.^.^.^.^.^.^.^.^.^.^.^.^.^.!.!.!.].U >.).{..         ",
"        . {.)./.#.(.(._.!.!.!.!.!.!.!.!.!.!.!.!.!.!.!.!.!.!.!.!.!.!.!._.(._.(.:.>.).{..         ",
"        . ..)./.:.<.(._._._._.[.!._._.!.!.}.|.1.2.3._.!.!._.!._._._._._._.(.;.:./.4.{..         ",
"        . {.5.6.>.<.(.(.].]._._._._._._._.7.8.9.9.8.0._.[._._.[._.].]._.(.(.<.:./.5.{..         ",
"        . {.4.6.:.*.*.].(.]._.].].].].].(.a.F + F F a.(.].].].].].].].(.].*.*.:.6.5.{..         ",
"        . ..4.6.:.#.b.<.c.c.c.c.].c.].c.<.d.F S S S d.c.].c.].].].c.c.c.(.b.*.:.6.5.{..         ",
"        . {.4.6.:.#.b.*.c.c.c.c.c.c.c.c.c.#.e.a a f.g.c.c.c.].c.c.c.c.b.b.b.#.:.6.4.{..         ",
"        . {.4.6.+.#.h.h.b.b.c.c.c.c.c.c.c.b.i.j.j.k.c.b.c.c.b.c.c.c.c.b.b.h.#.>.6.4.{..         ",
"        . {.l.6.+.#.h.b.b.c.b.b.b.c.c.c.c.c.m.n.{.o.b.b.c.b.c.b.c.c.b.b.b.h.h.+.6.l.{..         ",
"        . {.l.6.+.#.h.b.b.b.b.b.c.b.b.b.b.b.p.{.n.q.c.b.b.c.b.c.b.b.b.b.h.h.#.+.6.4.{..         ",
"        . {.l.6.+.#.h.h.b.b.b.b.c.b.c.c.b.b.r.n.n.s.c.c.b.b.c.b.b.b.b.b.b.h.h.+.+.l.{..         ",
"        . {.l.6.+.:.h.h.b.b.b.b.b.b.b.b.b.b.[.t.u.v.b.b.c.b.b.b.c.b.b.b.b.#.:.+.6.l.{..         ",
"        . {.4.6.+.:.h.b.b.b.b.b.c.b.c.b.b.b.c.].c.].b.b.b.c.b.c.b.b.b.b.h.h.#.+.6.l.{..         ",
"        . {.l.6.+.#.h.h.b.b.b.b.b.b.b.b.b.c.b.b.b.b.b.b.b.b.b.b.b.b.b.b.h.h.#.+.6.l.{..         ",
"        . {.l.6.+.:.h.h.b.b.b.b.b.b.b.b.b.b.b.b.b.b.b.b.b.b.c.b.b.b.b.h.h.h.#.+.6.l.{..         ",
"        . {.l.5.+.:.h.h.b.b.b.b.b.b.b.b.b.c.b.b.b.b.b.b.b.b.b.b.b.b.b.b.h.h.:.+.6.l.{..         ",
"        . {.l.5.+.:.h.h.h.b.b.b.b.b.b.b.b.b.b.b.b.b.b.b.b.b.b.b.b.b.b.b.h.h.#.+.6.l.{..         ",
"        . {.l.5.+.+.:.h.h.b.h.h.h.b.b.<.b.b.b.h.b.b.h.b.b.b.h.b.h.b.h.h.h.h.:.+.5.l.{.a         ",
"        . {.w.l.6./.+.:.:.:.#.#.#.#.#.#.#.#.#.#.#.#.#.#.#.#.#.#.:.:.#.#.:././.6.l.l.{..         ",
"        . S x.y.z.A.B.B.6.6.6.6.6.6.6.6.6.6.6.6.6.6.6.6.6.6.6.6.6.6.6.6.6.B.A.z.x.x.S .         ",
"        . . {.C.C.C.D.D.D.D.D.D.D.D.D.D.D.D.E.E.E.E.E.E.E.E.E.E.D.D.D.D.F.F.D.D.C.{.. .         ",
"          . . . . . . . . . . . . . . . . . . . . . . . . . . . . . . . . . . . . . .           "};
