/* XPM */
static const char *session_open_xpm[] = {
/* columns rows colors chars-per-pixel */
"48 48 248 2",
"   c #000000",
".  c #010B03",
"X  c #0A0E00",
"o  c #001006",
"O  c #001508",
"+  c #001C0B",
"@  c #0A1202",
"#  c #171E00",
"$  c #002410",
"%  c #033612",
"&  c #003318",
"*  c #003C1A",
"=  c #1E2B01",
"-  c #00441D",
";  c #004B1C",
":  c #1B410B",
">  c #004B23",
",  c #005424",
"<  c #005B26",
"1  c #005B2A",
"2  c #0C661F",
"3  c #02612E",
"4  c #00692B",
"5  c #0A6C38",
"6  c #007432",
"7  c #007C34",
"8  c #067C39",
"9  c #2A7416",
"0  c #3D6B0A",
"q  c #38710F",
"w  c #167443",
"e  c #147A42",
"r  c #4B7106",
"t  c #008335",
"y  c #008936",
"u  c #008C38",
"i  c #039334",
"p  c #009439",
"a  c #009B3A",
"s  c #198524",
"d  c #01A23A",
"f  c #0CA737",
"g  c #0AA639",
"h  c #0FA836",
"j  c #0BA839",
"k  c #13AA35",
"l  c #12AA3A",
"z  c #1AAE34",
"x  c #1BAE3C",
"c  c #1EB134",
"v  c #1EB138",
"b  c #2C8E1F",
"n  c #259424",
"m  c #20AF3E",
"M  c #26B32F",
"N  c #2CB62E",
"B  c #2FB82F",
"V  c #24B233",
"C  c #21B038",
"Z  c #2AB531",
"A  c #2DB833",
"S  c #2BB938",
"D  c #30B72F",
"F  c #34B92C",
"G  c #3BBD2B",
"H  c #33BB32",
"J  c #33BD3A",
"K  c #3BBE32",
"L  c #0E8D42",
"P  c #0A9340",
"I  c #0B9D43",
"U  c #148845",
"Y  c #168F48",
"T  c #1A8E4B",
"R  c #109C46",
"E  c #159D4A",
"W  c #1B9C4E",
"Q  c #06A240",
"!  c #0AA343",
"~  c #10A247",
"^  c #13A44A",
"/  c #13A944",
"(  c #15A94C",
")  c #1BA14F",
"_  c #19AC43",
"`  c #18AB4C",
"'  c #1BA550",
"]  c #1BA950",
"[  c #248350",
"{  c #2B8355",
"}  c #229E53",
"|  c #2F915A",
" . c #299E58",
".. c #32875A",
"X. c #378A5E",
"o. c #319F5E",
"O. c #3B9563",
"+. c #22A354",
"@. c #22A955",
"#. c #29A359",
"$. c #29A95A",
"%. c #31A25F",
"&. c #31A660",
"*. c #31AA60",
"=. c #39A464",
"-. c #39AA66",
";. c #3FC02D",
":. c #3CC13A",
">. c #53B91C",
",. c #40BF28",
"<. c #75AA08",
"1. c #539C75",
"2. c #42A56B",
"3. c #42AB6C",
"4. c #4BA671",
"5. c #4BAC72",
"6. c #4BB073",
"7. c #50A475",
"8. c #55AC79",
"9. c #5CAC7F",
"0. c #55B17A",
"q. c #44C126",
"w. c #43C12A",
"e. c #4DC626",
"r. c #4AC52A",
"t. c #4FC92E",
"y. c #41C234",
"u. c #47C73A",
"i. c #47C83A",
"p. c #48C632",
"a. c #4FCA32",
"s. c #4FCB38",
"d. c #50C622",
"f. c #53C926",
"g. c #54CA2A",
"h. c #5ACC24",
"j. c #5ACD29",
"k. c #54CC33",
"l. c #54CF3E",
"z. c #5DD02C",
"x. c #5DD134",
"c. c #5CD23C",
"v. c #6DCD18",
"b. c #65D11C",
"n. c #6ED51A",
"m. c #74C210",
"M. c #7ADA16",
"N. c #62D025",
"B. c #63D22A",
"V. c #6BD526",
"C. c #6AD52B",
"Z. c #64D432",
"A. c #64D53A",
"S. c #6AD631",
"D. c #6BD838",
"F. c #73D92A",
"G. c #78DB27",
"H. c #7BDE2C",
"J. c #73DB35",
"K. c #7BDE33",
"L. c #78DE3E",
"P. c #7FE13C",
"I. c #44C740",
"U. c #4CCB40",
"Y. c #51CF46",
"T. c #59D246",
"R. c #5ED54A",
"E. c #62D644",
"W. c #67D94E",
"Q. c #6AD942",
"!. c #6FDC4C",
"~. c #71DC40",
"^. c #77DF4A",
"/. c #7FE248",
"(. c #74E058",
"). c #7CE357",
"_. c #5FAE81",
"`. c #5FB081",
"'. c #62A481",
"]. c #60B482",
"[. c #6AB489",
"{. c #6BB88B",
"}. c #74B591",
"|. c #76BB93",
" X c #7AB194",
".X c #7FBB9A",
"XX c #84DE13",
"oX c #9BD807",
"OX c #80DF2B",
"+X c #8FE311",
"@X c #8DE31B",
"#X c #99E80E",
"$X c #83E131",
"%X c #85E33B",
"&X c #88E330",
"*X c #8CE639",
"=X c #96EA36",
"-X c #92E838",
";X c #A2EC0B",
":X c #AAF009",
">X c #B1EF05",
",X c #B2F005",
"<X c #B3F40A",
"1X c #BEF903",
"2X c #BAF813",
"3X c #86E547",
"4X c #80E34B",
"5X c #8CE745",
"6X c #84E655",
"7X c #8CE954",
"8X c #94EA43",
"9X c #9BED41",
"0X c #9FEF4F",
"qX c #93EB52",
"wX c #9CEE51",
"eX c #89E963",
"rX c #91EC64",
"tX c #99EE62",
"yX c #A4F14E",
"uX c #ADF55E",
"iX c #A4F262",
"pX c #AEF673",
"aX c #B5F872",
"sX c #C7FD00",
"dX c #C0FA17",
"fX c #83BE9C",
"gX c #84C19D",
"hX c #8BC1A3",
"jX c #92C5A8",
"kX c #91C8A8",
"lX c #9BCAAF",
"zX c #A0CEB4",
"xX c #A8CFBA",
"cX c #AFD4BF",
"vX c #AFD5C0",
"bX c #B9D6C7",
"nX c #B8D8C6",
"mX c #BFDDCD",
"MX c #C9E0D4",
"NX c #D0E5DA",
"BX c #D7E8DF",
"VX c #DFEDE5",
"CX c #E9F2ED",
"ZX c #EDF4F0",
"AX c #F3F8F5",
"SX c #F7FAF8",
"DX c #FBFCFC",
"FX c None",
/* pixels */
"FXFXFXFXFXFXFXFXFXFXFXFXFXFXFXFX                                FXFXFXFXFXFXFXFXFXFXFXFXFXFXFXFX",
"FXFXFXFXFXFXFXFXFXFXFXFXFXFX                . o o . .               FXFXFXFXFXFXFXFXFXFXFXFXFXFX",
"FXFXFXFXFXFXFXFXFXFXFXFX          O & > 3 w { X.X.{ w 3 > & O           FXFXFXFXFXFXFXFXFXFXFXFX",
"FXFXFXFXFXFXFXFXFXFX        . & 3 .. XbXCXDXDXDXDXDXDXCXbX X..1 & .         FXFXFXFXFXFXFXFXFXFX",
"FXFXFXFXFXFXFXFXFX      . & 5 '.MXAXSXSXSXSXSXSXSXSXSXSXSXSXAXMX_.5 & .       FXFXFXFXFXFXFXFXFX",
"FXFXFXFXFXFXFXFX      $ 3 1.MXCXZXZXZXZXZXZXZXZXZXZXZXZXZXZXZXZXCXMX1.3 $       FXFXFXFXFXFXFXFX",
"FXFXFXFXFXFXFX      * e jXVXVXVXVXVXVXVXVXVXVXVXVXVXVXVXVXVXVXVXVXVXVXjXw *       FXFXFXFXFXFXFX",
"FXFXFXFXFXFX      , [ xXMXMXNXNXNXNXNXNXNXNXNXNXNXNXNXNXNXNXNXNXNXNXMXNXxX[ ,       FXFXFXFXFXFX",
"FXFXFXFXFX    . 1 [ xXbXmXmXmXmXmXmXmXmXmXmXmXmXmXmXmXmXmXmXmXmXmXmXmXmXnXzX[ 1 .     FXFXFXFXFX",
"FXFXFXFX      1 e jXzXcXvXvXvXvXvXvXvXvXvXvXvXvXvXvXvXvXvXvXvXvXcXcXcXcXvXzXjXe 1       FXFXFXFX",
"FXFXFX      * 6  XjXlXzXzXzXzXzXzXzXzXzXzXzXzXzXzXzXzXzXzXzXzXzXzXzXzXzXzXlXlX}.6 *       FXFXFX",
"FXFXFX    $ 6 O.hXhXhXjXjXjXjXjXkXkXkXkXkXkXkXkXkXkXkXkXkXkXkXkXkXkXkXkXkXhXhXhXO.6 $     FXFXFX",
"FXFX    . 4 8 }..X.XfXfXfXfXfXgXgXgXgXgXgXgXgXkXgXgXgXhXgXgXgXgXhX.XhX.XgX.X.X.X}.8 4 .     FXFX",
"FXFX    * 6 | }.}.}.}.|.|.|.|.|.{.|.|.|.|.|.|.|.|.|.|.|.|.|.|.|.|.|.|.|.|.}.}.}.}.| 6 *     FXFX",
"FX    . 6 7 7.[.[.[.[.[.{.[.{.[.{.{.{.{.{.{.{.{.{.{.{.{.{.{.{.{.{.{.[.{.[.[.[.[.[.4.7 6 .     FX",
"FX    * 7 8 _._._._.9.`.].].].].].].].].].].].].].].].].].`.`.`.`.`.`.`.`.`._._.9._.e 6 *     FX",
"      4 7 U 8.8.8.8.8._.8.8.8._.0.0.0.0.0.0.0.0.0.0.0.0.0.0.0.0.8.0.8.8.8.8.8.8.8.8.U 7 4       ",
"    + 7 7 T 4.4.4.5.4.5.6.5.6.5.6.6.6.6.6.6.6.6.6.6.6.6.6.6.6.6.5.5.5.5.5.5.5.7.4.4.T 7 7 +     ",
"    * 7 7 T -.4.=.2.3.3.-.3.3.3.-.6.6.-.6.-.6.6.6.6.-.6.-.6.-.6.2.3.3.2.3.2.2.-.2.-.T 7 7 *     ",
"    1 t t Y O.=.=.=.=.=.=.=.-.-.-.-.-.-.-.-.*.-.*.-.-.-.-.-.-.*.-.-.-.-.-.=.-.O.=.O.T y t 1     ",
"    6 t t L o.o.&.&.&.&.&.&.&.*.*.*.*.*.*.*.*.*.*.*.*.*.*.*.*.*.%.%.*.%.%.%.%.%.&.O.L y 7 6     ",
"  . 7 t t L  . . . . . .#.#.#.#.$.$.$.$.$.$.$.$.$.$.$.$.$.$.$.$.$.$.$.#. .#.#. . . .u y t t .   ",
"  o y y y u W } } } +.+.+.+.+.' ] @.@.@.@.@.@.@.@.@.@.@.@.@.@.@.+.+.+.+.+.+.+.} } W y y y t o   ",
"  o y y u u P W W W W ' ' ' ' ' ` ] ] ] ] ] ] ] ] ] ] ] ] ] ] ` ' ' ' W ' ' W W W P u y y y o   ",
"  O y u u u p I E E E ^ ^ ^ ( ( ( ( ( ( ) ` ` ` ` ` ` ` ` ` ( ( ( ( ( ^ E ^ E E I u u u u y O   ",
"  o y u u p p p I R E ~ ~ E ! / ! ^ / _ _ _ ` _ _ ` / / / / ( / ^ ~ ~ ~ ~ R ~ R p p p u u u .   ",
"  . y u p p p p a I ! ! ! ! ! / / / x _ x m x x S _ v _ x _ / / / ! ! ! ! ! I p p p p p u u .   ",
"    7 p p p p a a a a Q Q ! l / l x x C C C Z m v v :.v v v l l k / g ! Q a a a a p p p u t     ",
"    4 p p p a a a a d d g j k z c V V V Z Z Z Z Z Z N N V V c v z k j g d d a a a p p p p 4     ",
"    ; p p p a a d d d g j k z c V M Z N D F D F F F D N A N M V c z k j g d d d a a a a p ;     ",
"    + p p a a d d d g k k z V V N D F F G G G G G G G G F F N N M V v z h j g d a a a p p +     ",
"      t a a a d d g k z c Z N N F G G G ,.q.,.r.q.,.;.;.;.G G F N N c v z k j d d d a a t       ",
"FX    ; d a d d f h z v V A F ;.G w.w.r.e.e.e.f.e.e.e.r.r.w.w.G G A A M c c h j d d a a ;     FX",
"FX    . i a d f h z v V A F F ;.w.r.e.e.g.g.h.h.h.h.h.g.f.e.r.w.;.G F A V v z h j d d p .     FX",
"FXFX    , a f h z v C A S ;.;.p.r.g.g.h.h.h.N.N.N.z.h.N.j.g.e.t.w.w.;.H A V c k h f d ,     FXFX",
"FXFX    . i f k z V S J :.;.p.t.g.z.z.B.V.V.V.V.V.V.V.C.B.z.z.g.a.p.;.:.J S V z k f i .     FXFX",
"FXFXFX    % h z V V S :.y.p.a.k.x.B.C.C.F.F.G.G.G.G.F.F.C.C.B.z.k.a.p.:.:.J N M z k %     FXFXFX",
"FXFXFX      2 z M N :.:.i.s.k.x.Z.C.S.H.H.H.H.OXH.H.H.H.H.S.S.Z.x.k.l.i.:.H N M z 2       FXFXFX",
"FXFXFXFX    . s N B G i.s.l.c.A.D.D.J.K.P.OX&X&X&X&X$XH.P.J.J.A.A.c.l.U.I.G N N s       FXFXFXFX",
"FXFXFXFXFX    . n G ;.p.Y.T.E.Q.L.L.P.%X*X-X=X=X=X-X-X*X$XP.L.L.Q.E.T.Y.t.;.G n .     FXFXFXFXFX",
"FXFXFXFXFXFX    . b ,.e.h.R.W.!././.4X5X5X8XyX=X9X9X8X8X5X4X/.^.!.W.R.g.d.,.b .     FXFXFXFXFXFX",
"FXFXFXFXFXFXFX    . 9 e.h.b.Q.(.).6X7XqXwXyXyXyXyXyX0XwXqX7X6X).(.D.N.h.d.9 .     FXFXFXFXFXFXFX",
"FXFXFXFXFXFXFXFX      : >.b.n.G./.eXrXtXtXiXiXuXuXiXiXiXtXrXeX/.G.n.b.>.= .     FXFXFXFXFXFXFXFX",
"FXFXFXFXFXFXFXFXFX      . q v.M.XX@X=X0XiXpXaXaXaXaXpXiX0X=X@X+XM.n.q X       FXFXFXFXFXFXFXFXFX",
"FXFXFXFXFXFXFXFXFXFX        @ 0 m.+X#X;X:X<X2XdXdX2X<X:X;X#X+Xm.0 @         FXFXFXFXFXFXFXFXFXFX",
"FXFXFXFXFXFXFXFXFXFXFXFX          = r <.oX>X1XsXsXsX,XoX<.r =           FXFXFXFXFXFXFXFXFXFXFXFX",
"FXFXFXFXFXFXFXFXFXFXFXFXFXFX              X # = = # X               FXFXFXFXFXFXFXFXFXFXFXFXFXFX",
"FXFXFXFXFXFXFXFXFXFXFXFXFXFXFXFX                                FXFXFXFXFXFXFXFXFXFXFXFXFXFXFXFX"
};
