/* XPM */
static const char * single_remove_xpm[] = {
"32 32 117 2",
"  	c None",
". 	c #000000",
"+ 	c #0F0A0A",
"@ 	c #855B5A",
"# 	c #A36D6C",
"$ 	c #3B2626",
"% 	c #653A38",
"& 	c #AC615F",
"* 	c #562F2E",
"= 	c #946261",
"- 	c #ED8B89",
"; 	c #F15655",
"> 	c #F15554",
", 	c #5A1D1C",
"' 	c #8F504E",
") 	c #E57A77",
"! 	c #E64E4C",
"~ 	c #E44745",
"{ 	c #380D0C",
"] 	c #B0706E",
"^ 	c #F24A49",
"/ 	c #F3403F",
"( 	c #F23F3E",
"_ 	c #5A1716",
": 	c #8E4C4B",
"< 	c #E47572",
"[ 	c #E34341",
"} 	c #E13533",
"| 	c #DE3331",
"1 	c #6E1818",
"2 	c #744645",
"3 	c #F24443",
"4 	c #F03E3D",
"5 	c #ED3C3B",
"6 	c #EA3A39",
"7 	c #AB413F",
"8 	c #E26F6C",
"9 	c #E1403E",
"0 	c #DB312F",
"a 	c #CB2C2A",
"b 	c #1B0505",
"c 	c #942F2E",
"d 	c #E63837",
"e 	c #E33635",
"f 	c #E03433",
"g 	c #DE3A38",
"h 	c #DA312F",
"i 	c #D82F2D",
"j 	c #C82A28",
"k 	c #270808",
"l 	c #902322",
"m 	c #E33634",
"n 	c #E03432",
"o 	c #DD3231",
"p 	c #DA302F",
"q 	c #D72F2D",
"r 	c #D52D2B",
"s 	c #C52826",
"t 	c #270807",
"u 	c #C23836",
"v 	c #DA302E",
"w 	c #D72E2C",
"x 	c #D42D2B",
"y 	c #D12B29",
"z 	c #CF2927",
"A 	c #661412",
"B 	c #8A3B39",
"C 	c #DD5B57",
"D 	c #D42F2D",
"E 	c #CE2927",
"F 	c #CC2725",
"G 	c #C92623",
"H 	c #C62421",
"I 	c #490C0B",
"J 	c #8A3835",
"K 	c #DB5551",
"L 	c #D23330",
"M 	c #CB2725",
"N 	c #C3221F",
"O 	c #C1211E",
"P 	c #BE1F1C",
"Q 	c #460B09",
"R 	c #6D2A28",
"S 	c #DA504C",
"T 	c #D0302D",
"U 	c #C92523",
"V 	c #BA221F",
"W 	c #861816",
"X 	c #BC1D1A",
"Y 	c #B91C19",
"Z 	c #B71B17",
"` 	c #160302",
" .	c #A33936",
"..	c #CE302D",
"+.	c #C82523",
"@.	c #B7201D",
"#.	c #240605",
"$.	c #751210",
"%.	c #B91C18",
"&.	c #B71A17",
"*.	c #B51916",
"=.	c #B21714",
"-.	c #580B09",
";.	c #862A27",
">.	c #C52321",
",.	c #B41E1B",
"'.	c #710F0D",
").	c #B01612",
"!.	c #AE1511",
"~.	c #2B0504",
"{.	c #0F0404",
"].	c #56100E",
"^.	c #5F0F0E",
"/.	c #230505",
"(.	c #410806",
"_.	c #560A08",
":.	c #350605",
"                                                                ",
"                                                                ",
"                                                                ",
"                                                                ",
"                                                                ",
"                                                                ",
"                                                                ",
"                                                                ",
"                                                                ",
"                        .               .                       ",
"                    + @ # $ .       . % & * .                   ",
"                  . = - ; > , .   . ' ) ! ~ {                   ",
"                  . ] ^ / / ( _ . : < [ } | 1                   ",
"                    2 3 ( 4 5 6 7 8 9 | 0 a b                   ",
"                    . c 5 6 d e f g h i j k                     ",
"                      . l m n o p q r s t                       ",
"                        . u v w x y z A .                       ",
"                      . B C D y E F G H I .                     ",
"                    . J K L E M G H N O P Q .                   ",
"                    R S T M U V W O P X Y Z `                   ",
"                  .  ...+.H @.#.. $.%.&.*.=.-.                  ",
"                  . ;.>.N ,.#.    . '.=.).!.~.                  ",
"                    {.].^./.        . (._.:..                   ",
"                        .               .                       ",
"                                                                ",
"                                                                ",
"                                                                ",
"                                                                ",
"                                                                ",
"                                                                ",
"                                                                ",
"                                                                "};
