/* XPM */
static const char * start_xpm[] = {
"36 24 49 1",
" 	c None",
".	c #000000",
"+	c #E1EADF",
"@	c #D4E0D1",
"#	c #F0F4EF",
"$	c #FFFFFF",
"%	c #CEDCCB",
"&	c #EDF2EB",
"*	c #F3F7F3",
"=	c #C9D8C5",
"-	c #F1F5F0",
";	c #EBF1EA",
">	c #EFF3EE",
",	c #F4F7F4",
"'	c #181818",
")	c #CBDAC7",
"!	c #E5ECE3",
"~	c #B1C7AC",
"{	c #EEF3ED",
"]	c #DEE7DC",
"^	c #D7E3D5",
"/	c #E4EBE2",
"(	c #2B2B2B",
"_	c #3A5934",
":	c #59814F",
"<	c #759B6C",
"[	c #84A778",
"}	c #7EA476",
"|	c #85A879",
"1	c #83AA7C",
"2	c #88AC80",
"3	c #9DBB90",
"4	c #445840",
"5	c #537C49",
"6	c #759C6D",
"7	c #86A97C",
"8	c #82A87B",
"9	c #87AC7D",
"0	c #83AA7A",
"a	c #9ABB8F",
"b	c #4B7040",
"c	c #749868",
"d	c #80A776",
"e	c #3B5E31",
"f	c #749A6B",
"g	c #90B387",
"h	c #37592F",
"i	c #5D8554",
"j	c #3F6534",
"                                    ",
"                                    ",
"                                    ",
"                                    ",
"                                    ",
"                ..            ..    ",
"              ..+.          ..+.    ",
"            ..@#$.        ..@#$.    ",
"          ..%#&*$.      ..%#&*$.    ",
"        ..=-;>-,$.    ..=-;>-,$.    ",
"      .')#!;;>>>$.  .')#!;;>>>$.    ",
"    ..~{]^]/;>>>$(..~{]^]/;>>>$(    ",
"    .._:<[}|12123..._:<[}|12123.    ",
"      ..4567[890a.  ..4567[890a.    ",
"        ..b5c|d9a.    ..b5c|d9a.    ",
"          ..e5fdg.      ..e5fdg.    ",
"            ..hi1.        ..hi1.    ",
"              ..j.          ..j.    ",
"                ..            ..    ",
"                                    ",
"                                    ",
"                                    ",
"                                    ",
"                                    "};
