/* XPM */
static const char * sun_xpm[] = {
"40 40 3 1",
" 	c None",
".	c #FFFFFFFF0000",
"X	c #000000000000",
"                                        ",
"                                        ",
"                                        ",
"                                        ",
"                                        ",
"            .       .      .            ",
"      .      .      .     .      .      ",
"       .     .      .    .      .       ",
"        .     .     .    .     .        ",
"         .     .        .     .         ",
"          .      ......      .          ",
"           .   ..........   .           ",
"             ..............       .     ",
"     ..     ................    ..      ",
"       ..   ................   .        ",
"         . .................. .         ",
"           ..................           ",
"          .XXXXXXXX..XXXXXXXX.          ",
"          ..XXXXXXXXXXXXXXXX..          ",
"          ..XXXXXXX..XXXXXXX..          ",
"     .... ..XXXXXX....XXXXXX.. ...      ",
"          ...XXXX......XXXX...          ",
"          ....................          ",
"           ..................           ",
"           ..................           ",
"        ..  ....X......X....  ..        ",
"      ..    .....XXXXXX.....    ..      ",
"     .       .....XXXX.....       .     ",
"           .   ...........  .           ",
"          .      .......     .          ",
"         .     .         .    .         ",
"        .     .     .    .     .        ",
"       .      .     .     .     .       ",
"      .      .      .     .      .      ",
"             .      .      .            ",
"                                        ",
"                                        ",
"                                        ",
"                                        ",
"                                        "};
