/* XPM */
static const char * thumbs_up_xpm[] = {
/* width height ncolors chars_per_pixel */
"20 16 4 1",
/* colors */
" 	s None	c None",
".	c black",
"X	c wheat",
"o	c dodger blue",
/* pixels */
"          ..        ",
"         .XX.       ",
"         .XX.       ",
"         .XX.       ",
"        ..XX.       ",
"    .....XXX.       ",
"   .XXXXXXXX..      ",
"   .XXXXXXXXX....   ",
"   ....XXXXXX.oo.   ",
"   .XXXXXXXXX.oo.   ",
"   .XXXXXXXXX.oo.   ",
"   ....XXXXXX.oo.   ",
"   .XXXXXXXXX....   ",
"   .XXXXXXXX..      ",
"    .........       ",
"                    "};
