/* XPM */
static const char * weather_rain_xpm[] = {
"32 32 5 1",
" 	c None",
".	c #3F3F4F4F6161",
"X	c #FFFFFFFFFFFF",
"o	c #9B9B9B9B9B9B",
"O	c #06066161FFFF",
"                                ",
"                                ",
"            ......              ",
"           .XoXoXo.             ",
"        ...XoXoXooo.            ",
"       .XoX.XoXo.ooo.           ",
"      .XoXoooX..oooo.           ",
"     .XoXooooooooooo.           ",
"     .oXooooooooooo.            ",
"     .Xoo...oooooo..            ",
"      .X.oooo..o..oo.           ",
"       .Xoooooo.ooooo.          ",
"      .Xoo..oooo.oooo.          ",
"     .XoX.ooooooooooo.          ",
"     .oX.ooooooooooo...         ",
"   ...Xo.oo.ooooooo.ooo.        ",
"  .oXo.oooo.oooo.o.oooo.        ",
"  .XoXo.oooo..ooooooooo.        ",
"  .oXoXoooooooooooooooo.        ",
"   ....................         ",
"    O  O  O  O  O  O            ",
"     O  O  O  O  O  O           ",
"      O  O  O  O  O  O          ",
"       O  O  O  O  O  O         ",
"        O  O  O  O  O  O        ",
"         O  O  O  O  O  O       ",
"          O  O  O  O  O  O      ",
"           O  O  O  O  O  O     ",
"            O  O  O  O  O  O    ",
"             O  O  O  O  O  O   ",
"              O  O  O  O  O  O  ",
"                                "};
