/* XPM */
static char * cc_black_xpm[] = {
"17 17 4 1",
" 	c None",
".	c #3F270C",
"+	c #000000",
"@	c #3E270C",
"    .+++++++.    ",
"   +++++++++++   ",
"  +++++++++++++  ",
" +++++++++++++++ ",
".+++++++++++++++.",
"+++++++++++++++++",
"+++++++++++++++++",
"+++++++++++++++++",
"+++++++++++++++++",
"+++++++++++++++++",
"+++++++++++++++++",
"+++++++++++++++++",
".+++++++++++++++@",
" +++++++++++++++ ",
"  +++++++++++++  ",
"   +++++++++++   ",
"    .+++++++.    "};
