/* XPM */
static char * cc_blue_obs_xpm[] = {
"17 17 3 1",
" 	c None",
".	c #000000",
"+	c #0000FF",
"      ...        ",
"    ...++        ",
"   ..++++        ",
"  ..+++++        ",
" ..++++++        ",
" .+++++++        ",
"..+++++++        ",
".++++++++        ",
".++++++++        ",
".++++++++        ",
"..+++++++        ",
" .+++++++        ",
" ..++++++        ",
"  ..+++++        ",
"   ..++++        ",
"    ...++        ",
"      ...        "};
