/* XPM */
static char * cc_black_trend_xpm[] = {
"17 17 4 1",
" 	c None",
".	c #000000",
"+	c #3F270C",
"@	c #3E270C",
"         ...+    ",
"         .....   ",
"         ......  ",
"         ....... ",
"         .......+",
"         ........",
"         ........",
"         ........",
"         ........",
"         ........",
"         ........",
"         ........",
"         .......@",
"         ....... ",
"         ......  ",
"         .....   ",
"         ...+    "};
