/* XPM */
static char * cc_red_trend_xpm[] = {
"17 17 3 1",
" 	c None",
".	c #000000",
"+	c #FF0000",
"         ...     ",
"         ++...   ",
"         ++++..  ",
"         +++++.. ",
"         ++++++. ",
"         ++++++..",
"         +++++++.",
"         +++++++.",
"         +++++++.",
"         +++++++.",
"         +++++++.",
"         ++++++..",
"         ++++++. ",
"         +++++.. ",
"         ++++..  ",
"         ++...   ",
"         ...     "};
