/* XPM */
static const char *small_square[]={
"32 32 2 1",
". c None",
"# c #000000",
"................................",
"................................",
"................................",
"................................",
"................................",
"................................",
"................................",
"................................",
"................................",
"................................",
"................................",
"................................",
".........##########.............",
".........##########.............",
".........##......##.............",
".........##......##.............",
".........##......##.............",
".........##......##.............",
".........##......##.............",
".........##########.............",
".........##########.............",
"................................",
"................................",
"................................",
"................................",
"................................",
"................................",
"................................",
"................................",
"................................",
"................................",
"................................",
"................................",
"................................",
"................................",
"................................"};
