/* XPM */
static char * wbkz_red_xpm[] = {
"17 17 9 1",
" 	c None",
".	c #000000",
"+	c #B22222",
"@	c #FF0000",
"#	c #FF6347",
"$	c #BFBFBF",
"%	c #000000",
"&	c #000000",
"*	c #000000",
"       ...       ",
"      .+@+.      ",
"     .+@@@+.     ",
"    .+@@#@@+.    ",
"   .+@@###@@+.   ",
"  .+@@#####@@+.  ",
" .+@@#######@@+. ",
".+@@#########@@+.",
".@@###########@@.",
".+@@#########@@+.",
" .+@@#######@@+. ",
"  .+@@#####@@+.  ",
"   .+@@###@@+.   ",
"    .+@@#@@+.    ",
"     .+@@@+.     ",
"      .+@+.      ",
"       ...       "};
