/* XPM */
static char * wbkz_orange_xpm[] = {
"17 17 9 1",
" 	c None",
".	c #000000",
"+	c #CD853F",
"@	c #A0522D",
"#	c #FFA500",
"$	c #BFBFBF",
"%	c #000000",
"&	c #000000",
"*	c #000000",
"       ...       ",
"      .@@@.      ",
"     .@@+@@.     ",
"    .@@+++@@.    ",
"   .@@++#++@@.   ",
"  .@@++###++@@.  ",
" .@@++#####++@@. ",
".@@++#######++@@.",
".@++#########++@.",
".@@++#######++@@.",
" .@@++#####++@@. ",
"  .@@++###++@@.  ",
"   .@@++#++@@.   ",
"    .@@+++@@.    ",
"     .@@+@@.     ",
"      .@@@.      ",
"       ...       "};
