/* XPM */
static const char *kryss[]={
"32 32 2 1",
". c None",
"# c #000000",
"................................",
"................................",
"................................",
"................................",
"................................",
"................................",
"................................",
"................................",
"................................",
"........##.........##...........",
"........###.......###...........",
".........###.....###............",
"..........###...###.............",
"...........###.###..............",
"............#####...............",
".............###................",
"............#####...............",
"...........###.###..............",
"..........###...###.............",
".........###.....###............",
"........###.......###...........",
"........##.........##...........",
"................................",
"................................",
"................................",
"................................",
"................................",
"................................",
"................................",
"................................",
"................................",
"................................"};
