/* XPM */
static const char * editdrawing_xpm[] = {
"26 26 220 2",
"  	c None",
". 	c #E9D1D0",
"+ 	c #F2EBEB",
"@ 	c #B2B34D",
"# 	c #CC797B",
"$ 	c #A80C0E",
"% 	c #C14F4F",
"& 	c #EAC6C7",
"* 	c #4D4DB3",
"= 	c #93946C",
"- 	c #D9AEAF",
"; 	c #99080C",
"> 	c #9A110F",
", 	c #A10D0D",
"' 	c #AE2728",
") 	c #D58789",
"! 	c #ADAE52",
"~ 	c #5757A9",
"{ 	c #BEB7B5",
"] 	c #A14749",
"^ 	c #91090A",
"/ 	c #9A120F",
"( 	c #A01211",
"_ 	c #A51516",
": 	c #C3494C",
"< 	c #F0E4E2",
"[ 	c #808080",
"} 	c #EDD4A6",
"| 	c #D9CBB3",
"1 	c #D0D4D2",
"2 	c #B47273",
"3 	c #931A19",
"4 	c #980F0F",
"5 	c #9D1115",
"6 	c #A10F0F",
"7 	c #AE1517",
"8 	c #ECDEDB",
"9 	c #61619F",
"0 	c #F9E5BE",
"a 	c #F3C768",
"b 	c #EEBE4B",
"c 	c #E2C77C",
"d 	c #E6EADA",
"e 	c #D0B1B4",
"f 	c #A9403F",
"g 	c #930B0C",
"h 	c #991012",
"i 	c #990604",
"j 	c #E1BFBE",
"k 	c #F9F4E2",
"l 	c #F3CC7C",
"m 	c #EFBE52",
"n 	c #E8B62F",
"o 	c #E5B01E",
"p 	c #E4B73B",
"q 	c #E3D7B1",
"r 	c #DBD7DB",
"s 	c #B97C7F",
"t 	c #8E0807",
"u 	c #B66264",
"v 	c #F4D497",
"w 	c #F0BF54",
"x 	c #E9B634",
"y 	c #EAB42C",
"z 	c #E6AD19",
"A 	c #E0AA08",
"B 	c #ECB22D",
"C 	c #DBC075",
"D 	c #CECECD",
"E 	c #C9ADAF",
"F 	c #F7E5C0",
"G 	c #F1BF58",
"H 	c #E9B83C",
"I 	c #E7B42F",
"J 	c #E9B32B",
"K 	c #E2AC0E",
"L 	c #E7AE1D",
"M 	c #EBB634",
"N 	c #E9AF1E",
"O 	c #D7AF40",
"P 	c #E6E3D7",
"Q 	c #FAF0DA",
"R 	c #F0C360",
"S 	c #EDB942",
"T 	c #E8B52D",
"U 	c #EBB83B",
"V 	c #E6AF1E",
"W 	c #E3AD12",
"X 	c #EBB736",
"Y 	c #E9B42F",
"Z 	c #E5AE19",
"` 	c #E9C962",
" .	c #F1CD7D",
"..	c #EEBC48",
"+.	c #E8B42D",
"@.	c #EDB840",
"#.	c #E8B633",
"$.	c #E4AD12",
"%.	c #E9B42E",
"&.	c #E8B224",
"*.	c #E2B42B",
"=.	c #F8F5E5",
"-.	c #F4D99E",
";.	c #EFBD52",
">.	c #EBB637",
",.	c #ECBC47",
"'.	c #E4B120",
").	c #EEBB44",
"!.	c #EAB531",
"~.	c #E6AA12",
"{.	c #F3ECC7",
"].	c #F7EBCC",
"^.	c #EFC15B",
"/.	c #EBB535",
"(.	c #E4B222",
"_.	c #F1C15C",
":.	c #EBB839",
"<.	c #E5AE1F",
"[.	c #F1BE4A",
"}.	c #EAB93F",
"|.	c #E6B01B",
"1.	c #EED586",
"2.	c #FBF7EA",
"3.	c #EFC96D",
"4.	c #EBB737",
"5.	c #E3B11F",
"6.	c #F0C25E",
"7.	c #EFBE4F",
"8.	c #EAB32E",
"9.	c #EDBD46",
"0.	c #F0BC4C",
"a.	c #EBB42E",
"b.	c #E9C357",
"c.	c #F4E4C9",
"d.	c #ECBE59",
"e.	c #E5AE1C",
"f.	c #F2BF51",
"g.	c #F0C468",
"h.	c #ECB93E",
"i.	c #EDBA44",
"j.	c #EFC054",
"k.	c #EBB93F",
"l.	c #E9B93E",
"m.	c #F6ECCB",
"n.	c #B34D4D",
"o.	c #EFDAB7",
"p.	c #EDCD91",
"q.	c #EFCB83",
"r.	c #F5C771",
"s.	c #ECB947",
"t.	c #F1C15B",
"u.	c #EEBE4D",
"v.	c #E8B839",
"w.	c #EFD794",
"x.	c #EFD6A7",
"y.	c #EED19C",
"z.	c #EED6A8",
"A.	c #F1D9A7",
"B.	c #EFC362",
"C.	c #F0C158",
"D.	c #EEB944",
"E.	c #E8C458",
"F.	c #EED3A1",
"G.	c #EFD3A5",
"H.	c #F0D8AC",
"I.	c #F2DDB3",
"J.	c #F4E2B9",
"K.	c #F3D695",
"L.	c #EDC056",
"M.	c #E9BD45",
"N.	c #F9F4E5",
"O.	c #E4CE9D",
"P.	c #FDE3B3",
"Q.	c #F2DBB2",
"R.	c #F3DFB8",
"S.	c #F3E4C0",
"T.	c #F4E7C6",
"U.	c #F1E0AC",
"V.	c #F6EAC5",
"W.	c #E1E1DF",
"X.	c #171411",
"Y.	c #7B715B",
"Z.	c #F0DEB7",
"`.	c #F1E3BA",
" +	c #F3E5C5",
".+	c #F7F0DC",
"++	c #C4C4C4",
"@+	c #101010",
"#+	c #0B0A0D",
"$+	c #6A6356",
"%+	c #EFE4CD",
"&+	c #A6A6A6",
"*+	c #222222",
"=+	c #565757",
"-+	c #A9AAAA",
";+	c #ADADAD",
">+	c #A1A1A1",
",+	c #D4D4D4",
"'+	c #E2E2E2",
")+	c #DCDCDC",
"!+	c #DBDBDB",
"~+	c #D7D8D7",
"{+	c #D5D5D5",
"]+	c #DADADA",
"^+	c #DDDDDD",
"/+	c #E1E1E1",
"(+	c #E4E4E4",
"_+	c #EAEAEA",
":+	c #ECECEC",
"<+	c #C3C3C3",
"[+	c #BDBDBD",
"}+	c #B9B9B9",
"|+	c #B3B3B3",
"1+	c #B4B4B4",
"2+	c #B1B1B1",
"3+	c #AFAFAF",
"4+	c #B0B0B0",
"5+	c #B5B5B5",
"6+	c #BEBEBE",
"7+	c #C6C6C6",
"                                                    ",
"                              . +                   ",
"    @ @ @ @ @ @ @ @ @ @     # $ % & * * *           ",
"    @ @ @ @ @ @ @ @ @ = * - ; > , ' ) * * * *       ",
"    @ @ @ @ @ @ @ @ ! ~ * { ] ^ / ( _ : < * *       ",
"    @ @ @ @ @ @ @ @ [ * } | 1 2 3 4 5 6 7 8 * *     ",
"    @ @ @ @ @ @ @ @ 9 0 a b c d e f g h i j * *     ",
"    @ @ @ @ @ @ @ @ k l m n o p q r s t u * * *     ",
"    @ @ @ @ @ @ @ @ v w x y z A B C D E * * * *     ",
"    @ @ @ @ @ @ @ F G H I J K L M N O P * * * *     ",
"    @ @ @ @ @ @ Q R S T U V W X Y Z ` * * * * *     ",
"    @ @ @ @ @ @  ...+.@.#.$.%.U &.*.=.* * * *       ",
"    @ @ @ @ @ -.;.y >.,.&.'.).!.~.{.* * * * *       ",
"    @ @ @ @ ].^./.(._.:.<.[.}.|.1.* * * *           ",
"    @ @ @ 2.3.4.5.6.7.8.9.0.a.b.                    ",
"    @ @ @ c.d.e.f.g.h.i.j.k.l.m.            n.n.    ",
"    @ @ @ o.p.q.r.f.s.t.u.v.w.          n.n.n.n.    ",
"    @ @ @ x.y.z.A.B.C.C.D.E.        n.n.n.n.n.n.    ",
"    @ @ @ F.G.H.I.J.K.L.M.N.  n.n.n.n.n.n.n.n.n.    ",
"          O.P.Q.R.S.T.U.V.n.n.n.n.n.n.n.n.n.n.n.    ",
"        W.X.Y.Z.`. +.+n.n.n.n.n.n.n.n.n.n.n.n.n.    ",
"        ++@+#+$+%+n.n.n.n.n.n.n.n.n.n.n.n.n.n.n.    ",
"        &+*+=+-+n.n.n.n.n.n.n.n.n.n.n.n.n.n.n.n.    ",
"        ;+>+,+'+)+!+~+,+{+{+{+]+!+!+^+/+(+_+n.n.    ",
"      :+<+[+}+|+1+2+3+3+4+4+3+3+|+|+5+}+6+7+,+      ",
"                                                    "};
