/* XPM */
static char * colorcode_green_xpm[] = {
"17 17 18 1",
" 	c None",
".	c #57A159",
"+	c #55C955",
"@	c #3FCF3F",
"#	c #33CD33",
"$	c #56CA56",
"%	c #58A25A",
"&	c #549657",
"*	c #32CD32",
"=	c #5DA865",
"-	c #5AAA5A",
";	c #5CB060",
">	c #549455",
",	c #569D56",
"'	c #5CAA61",
")	c #5DAE64",
"!	c #5BA361",
"~	c #5DB463",
"     .+@#@$%     ",
"   &@*******@=   ",
"  -***********;  ",
" >*************= ",
" @*************@ ",
",***************'",
"+***************$",
"@***************@",
"#***************#",
"@***************@",
"$***************$",
")***************'",
" @*************@ ",
" =*************! ",
"  ~***********;  ",
"   =@*******@=   ",
"     )$@#@$'     "};
