/* XPM */
static char * colorcode_red_xpm[] = {
"17 17 12 1",
" 	c None",
".	c #E7430F",
"+	c #F92C04",
"@	c #FE2700",
"#	c #E14913",
"$	c #FF2700",
"%	c #E24A13",
"&	c #EC3C0D",
"*	c #E14912",
"=	c #E7420F",
"-	c #E74310",
";	c #EC3D0D",
"     .+@@@+.     ",
"   #@$$$$$$$@%   ",
"  &$$$$$$$$$$$&  ",
" *$$$$$$$$$$$$$% ",
" @$$$$$$$$$$$$$@ ",
"=$$$$$$$$$$$$$$$-",
"+$$$$$$$$$$$$$$$+",
"@$$$$$$$$$$$$$$$@",
"@$$$$$$$$$$$$$$$@",
"@$$$$$$$$$$$$$$$@",
"+$$$$$$$$$$$$$$$+",
"-$$$$$$$$$$$$$$$-",
" @$$$$$$$$$$$$$@ ",
" %$$$$$$$$$$$$$# ",
"  ;$$$$$$$$$$$&  ",
"   %@$$$$$$$@%   ",
"     -+@@@+-     "};
