/* XPM */
static char * colorcode_yellow_xpm[] = {
"17 17 17 1",
" 	c None",
".	c #A4A22F",
"+	c #D4AE15",
"@	c #F0A804",
"#	c #FDA500",
"$	c #A5A330",
"%	c #999C33",
"&	c #FFA500",
"*	c #A2A639",
"=	c #AFA72B",
"-	c #B1AA2D",
";	c #999A32",
">	c #A3A02E",
",	c #A8A733",
"'	c #AAA934",
")	c #A0A337",
"!	c #B2AC2E",
"     .+@#@+$     ",
"   %@&&&&&&&@*   ",
"  =&&&&&&&&&&&-  ",
" ;&&&&&&&&&&&&&* ",
" @&&&&&&&&&&&&&@ ",
">&&&&&&&&&&&&&&&,",
"+&&&&&&&&&&&&&&&+",
"@&&&&&&&&&&&&&&&@",
"#&&&&&&&&&&&&&&&#",
"@&&&&&&&&&&&&&&&@",
"+&&&&&&&&&&&&&&&+",
"'&&&&&&&&&&&&&&&,",
" @&&&&&&&&&&&&&@ ",
" *&&&&&&&&&&&&&) ",
"  !&&&&&&&&&&&-  ",
"   *@&&&&&&&@*   ",
"     '+@#@+,     "};
