<?xml version="1.0" encoding="UTF-8" standalone="no"?>
<!-- Created with Inkscape (http://www.inkscape.org/) -->

<svg
   xmlns:dc="http://purl.org/dc/elements/1.1/"
   xmlns:cc="http://creativecommons.org/ns#"
   xmlns:rdf="http://www.w3.org/1999/02/22-rdf-syntax-ns#"
   xmlns:svg="http://www.w3.org/2000/svg"
   xmlns="http://www.w3.org/2000/svg"
   xmlns:sodipodi="http://sodipodi.sourceforge.net/DTD/sodipodi-0.dtd"
   xmlns:inkscape="http://www.inkscape.org/namespaces/inkscape"
   version="1.1"
   width="55"
   height="55"
   viewBox="-27.5 -27.5 55 55"
   id="svg2"
   inkscape:version="0.48.3.1 r9886"
   sodipodi:docname="WeatherSymbol_WMO_High_Pressure.svg">
  <sodipodi:namedview
     pagecolor="#ffffff"
     bordercolor="#666666"
     borderopacity="1"
     objecttolerance="10"
     gridtolerance="10"
     guidetolerance="10"
     inkscape:pageopacity="0"
     inkscape:pageshadow="2"
     inkscape:window-width="783"
     inkscape:window-height="677"
     id="namedview13"
     showgrid="false"
     inkscape:zoom="4.2909091"
     inkscape:cx="37.404661"
     inkscape:cy="25.868644"
     inkscape:window-x="439"
     inkscape:window-y="291"
     inkscape:window-maximized="0"
     inkscape:current-layer="svg2" />
  <title
     id="title3">Present weather reported from a manned weather station: Snow shower(s), slight</title>
  <desc
     id="desc5">WMO international weather symbol: Precipitation at the station at the time of Showery precipitation, or precipitation with current or recent thunderstorm: Present weather reported from a manned weather station: Snow shower(s), slight</desc>
  <defs
     id="defs17" />
  <metadata
     id="metadata7">
    <rdf:RDF>
      <cc:Work
         rdf:about="https://raw.github.com/OGCMetOceanDWG/WorldWeatherSymbols/master/ww_PresentWeather/WeatherSymbol_WMO_PresentWeather_ww_85.svg">
        <dc:format>image/svg+xml</dc:format>
        <dc:type
           rdf:resource="http://purl.org/dc/dcmitype/StillImage" />
        <dc:title>Present weather reported from a manned weather station: Snow shower(s), slight</dc:title>
        <dc:date>2013-01-25</dc:date>
        <dc:creator>
          <cc:Agent>
            <dc:title>WMO CBS IPET-DR&amp;C</dc:title>
          </cc:Agent>
        </dc:creator>
        <dc:publisher>
          <cc:Agent>
            <dc:title>WMO</dc:title>
          </cc:Agent>
        </dc:publisher>
        <dc:rights>
          <cc:Agent>
            <dc:title>Creative Commons Attribution 3.0 Unported Licence</dc:title>
          </cc:Agent>
        </dc:rights>
        <dc:identifier>http://codes.wmo.int/306/4677/85</dc:identifier>
        <dc:source>WMO-No.485 Manual on the Global Data-processing and Forecasting System, Volume I, Part II, Section 4, Appendix II-4</dc:source>
        <dc:language>English</dc:language>
        <dc:subject>
          <rdf:Bag>
            <rdf:li>meteorology</rdf:li>
            <rdf:li>weather</rdf:li>
            <rdf:li>symbol</rdf:li>
          </rdf:Bag>
        </dc:subject>
        <dc:coverage>Global</dc:coverage>
        <dc:description>WMO international weather symbol: Present weather reported from a manned weather station: Snow shower(s), slight: Version0.5: statusPROVISIONAL</dc:description>
        <dc:contributor>
          <cc:Agent>
            <dc:title>Chris Little</dc:title>
          </cc:Agent>
        </dc:contributor>
        <cc:license
           rdf:resource="http://creativecommons.org/licenses/by/3.0/" />
      </cc:Work>
    </rdf:RDF>
  </metadata>
  <g
     style="font-size:50px;font-style:normal;font-variant:normal;font-weight:normal;font-stretch:normal;text-align:start;line-height:125%;letter-spacing:0px;word-spacing:0px;writing-mode:lr-tb;text-anchor:start;fill:#0000ff;fill-opacity:1;stroke:none;font-family:FreeSans;-inkscape-font-specification:FreeSans"
     id="text3010"
     transform="translate(-1.877441,10.259322)">
    <path
       d="m -13.847559,-10.109322 c -2e-6,-1.666648 0.133331,-3.316646 0.4,-4.95 0.299997,-1.633309 0.849997,-3.333308 1.65,-5.1 0.799995,-1.766637 1.783328,-3.299969 2.9500004,-4.6 1.1999914,-1.3333 2.7999898,-2.433299 4.8,-3.3 2.0333191,-0.86663 4.31665016,-1.299963 6.85,-1.3 7.9333066,3.7e-5 12.6166346,3.966699 14.0499996,11.9 l -4.75,0 c -0.533361,-2.599973 -1.58336,-4.549971 -3.1499996,-5.85 -1.5666903,-1.299968 -3.8000214,-1.949967 -6.7,-1.95 -3.5333483,3.3e-5 -6.3333455,1.350031 -8.4,4.05 -2.0333414,2.700026 -3.050007,6.383355 -3.05,11.05 -7e-6,4.5666796 1.0666586,8.2000093 3.2,10.89999964 2.133321,2.66667096 5.01665141,4.00000296 8.65,3.99999996 2.9999781,3e-6 5.2999758,-0.8333295 6.9,-2.5 1.5999726,-1.69999281 2.6833046,-4.3166569 3.2499996,-7.85 l 4.8,0 c -1.100032,9.633337 -6.100027,14.4499989 -14.9999996,14.45 -2.50001634,-1.1e-6 -4.7500141,-0.4166674 -6.75,-1.25 -1.9666768,-0.8666657 -3.5500085,-1.9499979 -4.75,-3.25 -1.1666724,-1.2999953 -2.1500054,-2.8166605 -2.9500004,-4.54999996 -0.76667,-1.76665704 -1.300003,-3.44998864 -1.6,-5.05000004 -0.266669,-1.5999854 -0.400002,-3.2166505 -0.4,-4.8499996"
       id="path3044"
       inkscape:connector-curvature="0" />
  </g>
</svg>
