/* XPM */
static const char * spectrum_selected[]={
"21 21 2 1",
"# c #FFFFFF",
". c #FF0000",
".....................",
".....................",
".........###.........",
"........#####........",
"........#####........",
"........#####........",
".........###.........",
".........###.........",
".........###.........",
"..##.....###.....##..",
"..###....###....###..",
"..####...###...####..",
"..###....###....###..",
"...###...###...###...",
"....#############....",
".....###########.....",
"......#########......",
".......#######.......",
".....................",
".....................",
"....................."};
