/* XPM */
static char * cc_default_obs_xpm[] = {
"17 17 3 1",
" 	c None",
".	c #3F270C",
"+	c #000000",
"    .++++        ",
"   ++++++        ",
"  +++++++        ",
" ++++++++        ",
".++++++++        ",
"+++++++++        ",
"+++++++++        ",
"+++++++++        ",
"+++++++++        ",
"+++++++++        ",
"+++++++++        ",
"+++++++++        ",
".++++++++        ",
" ++++++++        ",
"  +++++++        ",
"   ++++++        ",
"    .++++        "};
