/* XPM */
static char * wbkz_white_xpm[] = {
"17 17 9 1",
" 	c None",
".	c #000000",
"+	c #DCDCDC",
"@	c #2F4F4F",
"#	c #FFFFFF",
"$	c #708090",
"%	c #BFBFBF",
"&	c #000000",
"*	c #000000",
"       ...       ",
"      .@$@.      ",
"     .@$$$@.     ",
"    .@$$+$$@.    ",
"   .@$$+++$$@.   ",
"  .@$$++#++$$@.  ",
" .@$$++###++$$@. ",
".@$$++#####++$$@.",
".$$++#######++$$.",
".@$$++#####++$$@.",
" .@$$++###++$$@. ",
"  .@$$++#++$$@.  ",
"   .@$$+++$$@.   ",
"    .@$$+$$@.    ",
"     .@$$$@.     ",
"      .@$@.      ",
"       ...       "};
