/* XPM */
static const char * balloon_xpm[] = {
"32 32 183 2",
"  	c None",
". 	c #000000000000",
"X 	c #8686BABAE5E5",
"o 	c #8B8BBABADFDF",
"O 	c #8B8BBFBFE5E5",
"+ 	c #9797C4C4E6E6",
"@ 	c #8282BABAE6E6",
"# 	c #8686BEBEE5E5",
"$ 	c #8282BABAE2E2",
"% 	c #8181B6B6DEDE",
"& 	c #A6A6CECEEAEA",
"* 	c #B0B0CECEE2E2",
"= 	c #C2C2D1D1CFCF",
"- 	c #D4D4D2D2C8C8",
"; 	c #C1C1D0D0DDDD",
": 	c #A0A0C9C9E6E6",
"> 	c #8080B6B6EBEB",
", 	c #7E7EBABAE7E7",
"< 	c #7D7DBEBEE7E7",
"1 	c #7D7DBABAE2E2",
"2 	c #8282BABAEAEA",
"3 	c #8282BFBFE4E4",
"4 	c #8383BEBEEBEB",
"5 	c #C2C2BEBEBEBE",
"6 	c #C2C2CACACECE",
"7 	c #C2C2C6C6C8C8",
"8 	c #C3C3C2C2BEBE",
"9 	c #C6C6BDBDBFBF",
"0 	c #BCBCC6C6BEBE",
"q 	c #C2C2C2C2C2C2",
"w 	c #B2B2BABACECE",
"e 	c #7373A0A0C3C3",
"r 	c #6A6A8E8EAAAA",
"t 	c #71719A9ABEBE",
"y 	c #8686B2B2E6E6",
"u 	c #BDBDC2C2C2C2",
"i 	c #BDBDB5B5BCBC",
"p 	c #989899999898",
"a 	c #62626C6C6666",
"s 	c #363644444E4E",
"d 	c #1F1F2E2E3434",
"f 	c #191926262C2C",
"g 	c #1C1C36363E3E",
"h 	c #31314A4A5A5A",
"j 	c #5E5E82829494",
"k 	c #7E7EAEAED2D2",
"l 	c #8080B6B6E4E4",
"z 	c #7A7AB5B5E6E6",
"x 	c #BCBCBEBEC6C6",
"c 	c #BABABABABCBC",
"v 	c #BEBEBEBEBEBE",
"b 	c #A2A2A2A2A2A2",
"n 	c #4D4D56564D4D",
"m 	c #222236362020",
"M 	c #36366A6A2E2E",
"N 	c #3C3C6E6E3C3C",
"B 	c #25253D3D1E1E",
"V 	c #2B2B46462323",
"C 	c #242448482828",
"Z 	c #343458583333",
"A 	c #1E1E3E3E2E2E",
"S 	c #222245454343",
"D 	c #62628D8DAAAA",
"F 	c #8686B9B9EAEA",
"G 	c #888889898989",
"H 	c #383842423838",
"J 	c #3B3B72723939",
"K 	c #5A5AA6A66E6E",
"L 	c #505099995555",
"P 	c #46467E7E4848",
"I 	c #383878783838",
"U 	c #4B4B86864B4B",
"Y 	c #313169693232",
"T 	c #57578B8B5757",
"R 	c #43436F6F3F3F",
"E 	c #8686B9B9DEDE",
"W 	c #AAAAA2A2A6A6",
"Q 	c #323235353535",
"! 	c #6262BBBB6B6B",
"~ 	c #5F5FA4A46464",
"^ 	c #5A5A9A9A6060",
"/ 	c #383880804242",
"( 	c #525292924A4A",
") 	c #5F5FAAAA6161",
"_ 	c #383868683B3B",
"` 	c #7E7EA6A6C2C2",
"' 	c #7C7CBABAEEEE",
"] 	c #B5B5B7B7B8B8",
"[ 	c #57575F5F5656",
"{ 	c #6262BABA6363",
"} 	c #6161B1B16565",
"| 	c #5757A0A05858",
" .	c #6A6AB8B86A6A",
"..	c #5959AFAF5F5F",
"X.	c #3E3E86863E3E",
"o.	c #46468C8C4C4C",
"O.	c #6868B4B46666",
"+.	c #2B2B56563131",
"@.	c #464662627272",
"#.	c #9292CACAEEEE",
"$.	c #AFAFADADACAC",
"%.	c #2E2E46463232",
"&.	c #48487A7A4343",
"*.	c #565694945656",
"=.	c #36366F6F3939",
"-.	c #4C4C72725252",
";.	c #1E1E3A3A3636",
":.	c #BCBCC4C4CCCC",
">.	c #B2B2D2D2DCDC",
",.	c #2E2E3C3C2C2C",
"<.	c #313162623636",
"1.	c #2E2E5E5E3131",
"2.	c #2E2E4C4C3838",
"3.	c #1E1E56562626",
"4.	c #2E2E56562222",
"5.	c #1A1A3A3A1212",
"6.	c #16162E2E1616",
"7.	c #14142C2C1212",
"8.	c #2C2C2D2D2929",
"9.	c #CACACACACACA",
"0.	c #C8C8DADAE0E0",
"q.	c #262632322626",
"w.	c #36365E5E3A3A",
"e.	c #3C3C58583636",
"r.	c #1C1C35352626",
"t.	c #50507D7D4B4B",
"y.	c #3E3E3E3E3838",
"u.	c #AEAEBEBEDADA",
"i.	c #3A3A4A4A4646",
"p.	c #4D4D8C8C4E4E",
"a.	c #5A5AB6B65E5E",
"s.	c #4B4B4E4E5151",
"d.	c #44446A6A4040",
"f.	c #6363C2C26666",
"g.	c #3C3C72724848",
"h.	c #444482824444",
"j.	c #868676767676",
"k.	c #B6B6C4C4BABA",
"l.	c #66668282A2A2",
"z.	c #4A4A9E9E5050",
"x.	c #5656A6A65C5C",
"c.	c #2A2A3C3C3434",
"v.	c #9B9BA0A0A4A4",
"b.	c #8B8BB4B4DADA",
"n.	c #6666C4C46A6A",
"m.	c #6262B2B26A6A",
"M.	c #38384C4C5A5A",
"N.	c #AAAAD0D0DDDD",
"B.	c #C6C6C6C6C6C6",
"V.	c #4C4C76768A8A",
"C.	c #4E4E76764646",
"Z.	c #5B5B7D7D9A9A",
"A.	c #7E7EAAAAD1D1",
"S.	c #BABACACAD2D2",
"D.	c #71719898B3B3",
"F.	c #4F4F6B6B8181",
"G.	c #4E4E65657A7A",
"H.	c #7878A6A6C9C9",
"J.	c #6E6E9292B8B8",
"K.	c #121226261A1A",
"L.	c #72729E9EB6B6",
"P.	c #6E6E8A8A9A9A",
"I.	c #666672727272",
"U.	c #12122E2E2626",
"Y.	c #7979AAAACFCF",
"T.	c #7E7EA2A2CACA",
"R.	c #454563637878",
"E.	c #8686B9B9EEEE",
"W.	c #3E3E59596F6F",
"Q.	c #6A6A8989A9A9",
"!.	c #43435A5A6A6A",
"~.	c #29292E2E3434",
"^.	c #32320E0E1616",
"/.	c #3A3A12120A0A",
"(.	c #1E1E0A0A0A0A",
").	c #32323D3D4444",
"_.	c #42421E1E1616",
"`.	c #56561E1E1212",
"'.	c #323212120A0A",
"].	c #4E4E5A5A6666",
"[.	c #525282829696",
"{.	c #474767678686",
"}.	c #5E5E9292BEBE",
"              . . . . . . . . . . . . . . . . .                 ",
"          . . . X o O + + @ # X X $ % X % @ X . . .             ",
"        . . & + X * = - ; : > X , @ < 1 2 3 $ 4 X . .           ",
"      . . X 5 6 7 8 9 0 q w e r t e y $ % 1 $ 1 < X . .         ",
"      . u 9 5 q 9 9 i p a s d f f g h j k o l < 1 z X .         ",
"    . . q q x c v b n m M N B B V C Z A S D F > # 4 4 . .       ",
"    . q 5 v 5 8 G H J K L J P P I U Y T R A D E $ > 4 X .       ",
"    . u 8 0 u W Q P ! L I ~ P ^ / ( L J ) _ S ` ' % * 7 .       ",
"    . 5 q v ] [ J { } Y |  ._ ..X.( ! o./ O.+.@.#.* ; v .       ",
"    . x 5 u $.%.| ! o.&.} ..N { *.P { } =.T -.;.:.:.u v .       ",
"    . >.; 7 W ,.Z <.C Z 1.<.2.=.R 2.3.4.5.6.7.8.9.5 8 v .       ",
"    . o + 0.i q.C w.m C R B 6.1.C 7.N e.r.L t.y.6 5 5 u .       ",
"    . 4 ' : u.i.p.a.o.&.{ p./ O.( <.O.*.M { P s.x q u u .       ",
"    . X 2 > , @.d.! ..J ) L *.f.) g.! U h.! Z j.k.8 5 v .       ",
"    . X l F < l.r.) O.I L z.U f.| =.! N | x.c.v.u v u u .       ",
"    . X X 1 l b.;.t.! p.P x.P n.| N | J m._ M.N.B.8 u u .       ",
"    . X X X 4 % V.r.) ) _ K &.f.| C.h.p.| 6.Z.: = B.5 v .       ",
"    . X X X X 1 k M.<.} I T I { o.&.J ~ _ h A.@ : = = S..       ",
"    . X X X X 1 o D 7.*.z.R _ x.p.I _ t.r.D., z $ 4 + + .       ",
"    . X X X 2 < 1 z F.C L d.1.m.P +.C.A G.$ 1 2 4 < 1 l .       ",
"    . X X X $ $ @ @ k h +.J C ) J +.2.M.H.< 2 @ z E # X .       ",
"    . X X X @ @ X l , J.g <.A | 1.K.g L.1 < F X 3 X , X .       ",
"    . X X X X @ @ @ < X D d 7.C.B f P.< 2 X > 2 $ $ X X .       ",
"    . X X X X X 2 X 1 l b.I.f c.U.Z.y 2 > X @ > $ X X X .       ",
"    . X X X X > X l % 4 z Y.V.T.R.e E.@ X 2 % X X X X X .       ",
"    . X X X X X X X 1 < ' D W.Q.!.r , 1 X X 2 X X X X X .       ",
"    . . X X X X 2 @ @ 2 % ~.^./.(.W.< < > X X X X X X . .       ",
"      . X X X X % $ # l % )._.`.'.].b.o X X X X X X X .         ",
"      . . X X X X @ l 4 3 [.G.{.{.}.< X X X X X X X . .         ",
"        . . X X X X X X X z X X X X X X X X X X X . .           ",
"          . . . X X X X X X X X X X X X X X X . . .             ",
"              . . . . . . . . . . . . . . . . .                 "};
