/* XPM */
static const char * down20x20_xpm[]={
"20 20 2 1",
". c #000000",
"# c None",
"....................",
".##################.",
".##################.",
".##################.",
".####..........####.",
".####..........####.",
".####..........####.",
".####..........####.",
".#................#.",
".##..............##.",
".###............###.",
".####..........####.",
".#####........#####.",
".######......######.",
".#######....#######.",
".########..########.",
".##################.",
".##################.",
".##################.",
"...................."};
