/* XPM */
static const char * felt_xpm[] = {
"32 32 4 1",
" 	c #000000000000",
".	c #FFFF00000000",
"X	c #FFFFFFFFFFFF",
"o	c #00000000FFFF",
"                                ",
" ......XXXXXXXXXXXXX....XXXXXXX ",
" XXXXXX....XXXXXXXXXXXXX..XXXXX ",
" XXXXXXXXXX..XXXXXXXXXXXXX.XXXX ",
" XXXXXXXXXXXX...XXXXXXXXXXX.XXX ",
" XXXXXXXXXXXXXXX.XXXXXXXXXXX.XX ",
" XXXXXXXXXXXXXXXX..XXXXXXXXXX.X ",
" XXXXXXXXXXXXXXXXXX.XXXXXXXXX.X ",
" .....XXXXXXXXXXXXXX.XXXXXXXXX. ",
" XXXXX....XXXXXXXXXXX.XXXXXXXX. ",
" XXXXXXXXX..XXXXXXXXXX.XXXXXXX. ",
" XXXXXXXXXoX..XXXXXXXXX.XXXXXXX ",
" XXXXXXXXXooXX.XXXXXXXXX.XXXXXX ",
" XXXXXXXXoooooX.XXXXXXXXX.XXXXX ",
" XXXXXXXXooooooX.XXXXXXXX.XXXXX ",
" XXXXXXXoooooXXXX.XXXXXXXX.XXXX ",
" XXXXXXXooXXXXXXXX.XXXXXXXX.XXX ",
" .....XXoXXXXXXXXXX.XXXXXXX.XXX ",
" XXXXX.o.XXXXXXXXXXX.XXXXXXX.XX ",
" XXXXXXoX..XXXXXXXXX.XXXXXXX.XX ",
" XXXXXoXXXX.XXXXXXXXX.XXXXXX.XX ",
" XXXXXoXXXXX.XXXXXXXX.XXXXXXX.X ",
" XXXXoXXXXXXX.XXXXXXXX.XXXXXX.X ",
" XXXXoXXXXXXXX.XXXXXXX.XXXXXX.X ",
" XXXXoXXXXXXXXX.XXXXXX.XXXXXXX. ",
" XXXoXXXXXXXXXX.XXXXXXX.XXXXXX. ",
" ...o..XXXXXXXXX.XXXXXX.XXXXXX. ",
" XXoXXX...XXXXXX.XXXXXX.XXXXXX. ",
" XXoXXXXXX.XXXXX.XXXXXX.XXXXXX. ",
" XXXXXXXXXX.XXXX.XXXXXX.XXXXXX. ",
" XXXXXXXXXX.XXXX.XXXXXX.XXXXXX. ",
"                                "};
