/* XPM */
static const char * fet_object_normal_xpm[] = {
"24 24 101 2",
"  	c None",
". 	c #7A7EFF",
"+ 	c #837FFE",
"@ 	c #8480FF",
"# 	c #8581FF",
"$ 	c #8782FF",
"% 	c #8F84FE",
"& 	c #9085FF",
"* 	c #9287FF",
"= 	c #9988FD",
"- 	c #9B89FF",
"; 	c #A29E7E",
"> 	c #9D8BFF",
", 	c #AD9E74",
"' 	c #A48DFD",
") 	c #A68EFF",
"! 	c #A78FFF",
"~ 	c #A890FF",
"{ 	c #B8A37B",
"] 	c #B092FE",
"^ 	c #B194FF",
"/ 	c #B792FF",
"( 	c #E0A624",
"_ 	c #D4AD23",
": 	c #B395FF",
"< 	c #ABA9AD",
"[ 	c #A9ABA8",
"} 	c #B2AC98",
"| 	c #D0AD4D",
"1 	c #BA97FF",
"2 	c #DCAE28",
"3 	c #ACAEAB",
"4 	c #C095FF",
"5 	c #DAB21E",
"6 	c #BB98FF",
"7 	c #AFADB1",
"8 	c #C297FF",
"9 	c #BD9BFF",
"0 	c #C899FE",
"a 	c #DFB624",
"b 	c #B2B4B1",
"c 	c #DBB92F",
"d 	c #CA9BFF",
"e 	c #DFB447",
"f 	c #CC9CFF",
"g 	c #BCB4AD",
"h 	c #B7B7AE",
"i 	c #CD9DFF",
"j 	c #DBB74F",
"k 	c #E2C300",
"l 	c #D7BA50",
"m 	c #DCBF29",
"n 	c #D19EFD",
"o 	c #B4B9BC",
"p 	c #EBBB21",
"q 	c #D6C620",
"r 	c #D4A0FF",
"s 	c #B9BBB8",
"t 	c #D5A1FF",
"u 	c #ECC117",
"v 	c #D6A2FF",
"w 	c #F3C600",
"x 	c #DBA3FE",
"y 	c #C9BCAA",
"z 	c #C0BFB6",
"A 	c #BEC0BD",
"B 	c #DFC54A",
"C 	c #DDA5FF",
"D 	c #C4BFBD",
"E 	c #DEA6FF",
"F 	c #E0A8FF",
"G 	c #F5CD00",
"H 	c #C2C4C1",
"I 	c #C5C2C7",
"J 	c #C0C5C8",
"K 	c #EBC169",
"L 	c #C7C6BD",
"M 	c #E6AAFF",
"N 	c #FCCE04",
"O 	c #C1CBC6",
"P 	c #E9C68C",
"Q 	c #E8D06A",
"R 	c #C9D0C5",
"S 	c #CCCECB",
"T 	c #D1CCCA",
"U 	c #D0CDD1",
"V 	c #D1D1C8",
"W 	c #D0D2CF",
"X 	c #D5D3D7",
"Y 	c #F0D584",
"Z 	c #D6D5CC",
"` 	c #D4D6D3",
" .	c #D3D8DB",
"..	c #DBD6D4",
"+.	c #DBD8DC",
"@.	c #D7DDD2",
"#.	c #EADFAB",
"$.	c #DADFE2",
"%.	c #E2E0E4",
"&.	c #E1E4E0",
"*.	c #E7E4E9",
"                r r r f r r r r                 ",
"            r f 6 6 1 6 1 6 6 f r r             ",
"          f 6 9 / ^ : / ^ 1 : 1 f f r           ",
"        K 5 q / ~ - ) > - ) ~ ~ : 6 f r         ",
"      f ( p u m - % $ & % * - ` ..: 6 f r       ",
"    f 6 2 p G w c + $ $ + @  .T = ! : O f x     ",
"  r n : / e u N w B + . + $ X X A - R @.6 r C   ",
"  f 1 / > & j p G w Q . $ + I %.%.S &.Z 0 f r   ",
"t f : / - @ $ P e k a Y + g V J  .&.W V : f r C ",
"t 1 4 > = + $ . #.l c 2 { y D T I @ * ) 8 6 r C ",
"r 8 : ! % . . + $ $ | _ , y H o . $ * > 6 9 r C ",
"r n / - & $ + + . . } ; h 7 T . + @ & ) ^ f t C ",
"f f / / & + . + s b z O 3 b b $ + @ * - ^ 1 r C ",
"t f 4 > = + $ A A L A z D I I s . $ = ^ : i t C ",
"r f 8 / = * U ..$.S S s + $ + b s * - ^ 1 i C M ",
"t f 8 ~ / U %.J S W ..b $ . $ I 7 [ [ / 1 i E C ",
"  r f : /  .+.+ + < *.7 . . . % o 7 ` S i i F   ",
"  E r f ] T ) = $ +.+.$ $ + & * - g %.%.9 E M   ",
"    t f 1 8 / / ) I & = = = ! / ) :  .t E C     ",
"      r r f : ) / / / ) ) / / ^ 8 f i t E       ",
"        r r f 1 1 : : : : : 8 f 6 t E E         ",
"          C C r f f f f 8 f f r C E E           ",
"            F E x r r r r r E E E M             ",
"                M M M F F F E M                 "};
