/* XPM */
static const char * fet_object_wave_xpm[] = {
"24 24 155 2",
"  	c None",
". 	c #D4A0FF",
"+ 	c #CC9CFF",
"@ 	c #BB98FF",
"# 	c #BA97FF",
"$ 	c #BD9BFF",
"% 	c #B792FF",
"& 	c #B194FF",
"* 	c #B395FF",
"= 	c #C297FF",
"- 	c #A890FF",
"; 	c #9B89FF",
"> 	c #A68EFF",
", 	c #9D8BFF",
"' 	c #A78FFF",
") 	c #8F84FE",
"! 	c #8782FF",
"~ 	c #9085FF",
"{ 	c #9287FF",
"] 	c #B092FE",
"^ 	c #837FFE",
"/ 	c #8480FF",
"( 	c #9988FD",
"_ 	c #DBA3FE",
": 	c #D19EFD",
"< 	c #7A7EFF",
"[ 	c #DDA5FF",
"} 	c #C899FE",
"| 	c #D5A1FF",
"1 	c #C095FF",
"2 	c #D9D9FF",
"3 	c #E3E4FF",
"4 	c #B8BAFF",
"5 	c #8387FF",
"6 	c #A393FF",
"7 	c #D1D0FE",
"8 	c #CCCDFF",
"9 	c #D0D0FF",
"0 	c #DEDEFF",
"a 	c #D1D1FE",
"b 	c #9793FF",
"c 	c #E9E9FF",
"d 	c #F2F3FF",
"e 	c #F3F3FF",
"f 	c #F6F7FF",
"g 	c #E1DBFF",
"h 	c #D1A8FF",
"i 	c #A4A5FF",
"j 	c #A3A3FF",
"k 	c #A4A4FF",
"l 	c #A8A8FF",
"m 	c #D7D7FF",
"n 	c #E5E6FF",
"o 	c #B2B0FE",
"p 	c #8984FF",
"q 	c #BEBEFF",
"r 	c #C2C2FF",
"s 	c #C6C6FF",
"t 	c #CBCBFF",
"u 	c #DADAFF",
"v 	c #EBEBFF",
"w 	c #CEBEFF",
"x 	c #D4A2FF",
"y 	c #8380FE",
"z 	c #8686FF",
"A 	c #7979FF",
"B 	c #F0F0FF",
"C 	c #FAFAFF",
"D 	c #C5C5FF",
"E 	c #7E82FF",
"F 	c #8E91FF",
"G 	c #9696FF",
"H 	c #A2A3FF",
"I 	c #C9C9FF",
"J 	c #ECECFF",
"K 	c #CEC5FF",
"L 	c #D3A3FF",
"M 	c #6565FF",
"N 	c #4E4EFF",
"O 	c #6262FF",
"P 	c #CCCCFF",
"Q 	c #C1C2FF",
"R 	c #E7E7FF",
"S 	c #B4B3FE",
"T 	c #8381FF",
"U 	c #7272FF",
"V 	c #7171FF",
"W 	c #BCBCFF",
"X 	c #E0E0FF",
"Y 	c #AAA6FF",
"Z 	c #BDBDFF",
"` 	c #EDEDFF",
" .	c #C2BAFF",
"..	c #D7A4FF",
"+.	c #E6AAFF",
"@.	c #A38CFF",
"#.	c #9479FF",
"$.	c #2525FF",
"%.	c #2D2DFF",
"&.	c #6464FF",
"*.	c #A0A0FF",
"=.	c #7E7DFF",
"-.	c #7473FF",
";.	c #6D6DFF",
">.	c #4242FF",
",.	c #6161FF",
"'.	c #D4D4FE",
").	c #9E8DFF",
"!.	c #948CFF",
"~.	c #CD9DFF",
"{.	c #D9A4FF",
"].	c #BD91FF",
"^.	c #6254FF",
"/.	c #1717FF",
"(.	c #0000FF",
"_.	c #0D0DFF",
":.	c #4D4DFF",
"<.	c #CDCDFF",
"[.	c #5253FF",
"}.	c #3737FF",
"|.	c #1413FF",
"1.	c #1A1AFF",
"2.	c #4B4BFF",
"3.	c #B0B0FF",
"4.	c #D1D1FF",
"5.	c #9D9CFF",
"6.	c #A589FF",
"7.	c #E0A8FF",
"8.	c #DEA6FF",
"9.	c #A079FF",
"0.	c #1C15FF",
"a.	c #0707FF",
"b.	c #2626FF",
"c.	c #3939FF",
"d.	c #1313FF",
"e.	c #5656FF",
"f.	c #7F7FFF",
"g.	c #3332FF",
"h.	c #AE83FF",
"i.	c #281FFF",
"j.	c #0202FF",
"k.	c #1A17FF",
"l.	c #8D6AFF",
"m.	c #3C2DFF",
"n.	c #0806FF",
"o.	c #4F3CFF",
"p.	c #D59FFF",
"q.	c #C393FF",
"r.	c #B489FF",
"s.	c #A485FF",
"t.	c #9D83FF",
"u.	c #AB85FF",
"v.	c #AC8CFF",
"w.	c #AE82FF",
"x.	c #CC98FF",
"                . . . + . . . .                 ",
"            . + @ @ # @ # @ @ + . .             ",
"          + @ $ % & * % & # * # + + .           ",
"        + @ = % - ; > , ; > - - * @ + .         ",
"      + @ & ' > ; ) ! ~ ) { ; , ] * @ + .       ",
"    + @ % > , { ) ^ ! ! ^ / ! ~ ( ' * @ + _     ",
"  . : * % , ) ^ < < ^ < ^ ! / ! { ; ] * @ . [   ",
"  + # % , ~ / < ! ! < < ! ^ ! ^ ! ( , % } + .   ",
"| + * % ; / ! ! ^ ! ^ < ^ < < ! < ) , - * + . [ ",
"| # 1 , ( ^ ! < ^ < ! ! ^ ! ^ < ! / { > = @ . [ ",
". = * ' ) < < ^ 2 3 4 5 < ! ! ! < ! { 6 @ $ . [ ",
". : % ; ~ ! ^ 7 8 9 0 a b < < < c d e f g h | [ ",
"+ + % % ~ ^ i j k l m n o p ! q r s t u v w x [ ",
"| + 1 , ( y z A j r B C D E F G H r I t J K L [ ",
". + = % ( M N O I P Q R S T U V W X Y Z `  ...+.",
"| + = @.#.$.%.&.0 *.! =.-.;.>.,.P '.).!.# ~.{.[ ",
"  . ].^./.(._.:.l <.[.}.|./.1.2.3.4.5.6.~.~.7.  ",
"  8.9.0.(.(.a.b.c.%.d.a.(.(.(.1.e.f.&.g.$ 8.+.  ",
"    h.i.(.(.(.(.(.(.(.(.(.(.(.(.(.(.j.k.8.[     ",
"      l.m.(.(.(.(.(.(.(.(.(.(.(.(.(.n.o.p.      ",
"        q.q.r.s.s.t.t.t.t.t.u.r.v.h.w.x.        ",
"          [ [ . + + + + = + + . [ 8.8.          ",
"            7.8._ . . . . . 8.8.8.+.            ",
"                +.+.+.7.7.7.8.+.                "};
