/* XPM */
static const char * fet_object_fog_xpm[] = {
"24 24 227 2",
"  	c None",
". 	c #D4A0FF",
"+ 	c #CC9CFF",
"@ 	c #BB98FF",
"# 	c #BA97FF",
"$ 	c #BD9BFF",
"% 	c #B792FF",
"& 	c #B194FF",
"* 	c #B395FF",
"= 	c #C297FF",
"- 	c #A890FF",
"; 	c #9B89FF",
"> 	c #A68EFF",
", 	c #9D8BFF",
"' 	c #A78FFF",
") 	c #8F84FE",
"! 	c #8782FF",
"~ 	c #9085FF",
"{ 	c #9287FF",
"] 	c #B092FE",
"^ 	c #837FFE",
"/ 	c #8480FF",
"( 	c #9988FD",
"_ 	c #DBA3FE",
": 	c #D19EFD",
"< 	c #7A7EFF",
"[ 	c #DDA5FF",
"} 	c #7E82FF",
"| 	c #8488FF",
"1 	c #908BFF",
"2 	c #8986FE",
"3 	c #8A85FF",
"4 	c #C899FE",
"5 	c #D5A1FF",
"6 	c #9F9BFF",
"7 	c #9B98FE",
"8 	c #B1AEFE",
"9 	c #B6B8FF",
"0 	c #BAB8FE",
"a 	c #B0B2FD",
"b 	c #A9ACFB",
"c 	c #ABA8F9",
"d 	c #999CFB",
"e 	c #9A90FC",
"f 	c #9E8DFE",
"g 	c #C095FF",
"h 	c #8480FE",
"i 	c #938FFF",
"j 	c #A8ABFF",
"k 	c #C2C0FE",
"l 	c #C1C3FB",
"m 	c #C3C1F5",
"n 	c #B9B6F4",
"o 	c #BCBAF6",
"p 	c #B6B4F4",
"q 	c #ADABEB",
"r 	c #A4A5E3",
"s 	c #AFADEB",
"t 	c #9D9AF8",
"u 	c #958BFE",
"v 	c #9085FE",
"w 	c #9094FF",
"x 	c #BEC0FF",
"y 	c #C2C0FC",
"z 	c #ADAAF5",
"A 	c #9895E2",
"B 	c #8E8FC1",
"C 	c #8E90C0",
"D 	c #9597D1",
"E 	c #A6A4D6",
"F 	c #A19FE3",
"G 	c #9D9AE6",
"H 	c #9C9ED6",
"I 	c #AFACED",
"J 	c #A198FC",
"K 	c #988EFF",
"L 	c #BAB7FD",
"M 	c #BDBCF8",
"N 	c #B3B1E8",
"O 	c #A7A8D3",
"P 	c #999AB2",
"Q 	c #9797A0",
"R 	c #939398",
"S 	c #94939B",
"T 	c #95959D",
"U 	c #9697AB",
"V 	c #9394C2",
"W 	c #9795C9",
"X 	c #ADACD7",
"Y 	c #BAB4F5",
"Z 	c #B09CFC",
"` 	c #B295FE",
" .	c #968CFF",
"..	c #CBCAFA",
"+.	c #B6B8EE",
"@.	c #D0CFEE",
"#.	c #D8D7E9",
"$.	c #F3F3F7",
"%.	c #FDFDFF",
"&.	c #FEFEFF",
"*.	c #FEFDFE",
"=.	c #FDFDFE",
"-.	c #F6F6F8",
";.	c #DADAE1",
">.	c #C0BFD7",
",.	c #B4B3D7",
"'.	c #BEBAE6",
").	c #B8ADF6",
"!.	c #B89EFD",
"~.	c #BA98FE",
"{.	c #9B8AFD",
"].	c #D6D5FA",
"^.	c #AFACE4",
"/.	c #B8B9CE",
"(.	c #B3B3BD",
"_.	c #9B9B9C",
":.	c #939394",
"<.	c #949494",
"[.	c #95959C",
"}.	c #9D9DB1",
"|.	c #B3B4D2",
"1.	c #C8C7E1",
"2.	c #C9C4E6",
"3.	c #C8B9F1",
"4.	c #BFA7FA",
"5.	c #CEA1FE",
"6.	c #D5A1FE",
"7.	c #C9C4FC",
"8.	c #B6B4EB",
"9.	c #D6D5E0",
"0.	c #DEDDE1",
"a.	c #FBFBFD",
"b.	c #F3F3FA",
"c.	c #E1E0F2",
"d.	c #A8A7DC",
"e.	c #B5B2D9",
"f.	c #C6C0E6",
"g.	c #CCBFF0",
"h.	c #C6ADF9",
"i.	c #CFA3FD",
"j.	c #DDA5FE",
"k.	c #E6AAFF",
"l.	c #A69DFE",
"m.	c #B7B4F7",
"n.	c #C2C4EC",
"o.	c #B1B1BA",
"p.	c #9B9B9E",
"q.	c #959597",
"r.	c #9B9AA0",
"s.	c #9D9CA9",
"t.	c #9D9DA4",
"u.	c #B1ADC4",
"v.	c #BDB4DF",
"w.	c #CBB8EF",
"x.	c #C7AEF9",
"y.	c #CFA4FD",
"z.	c #DEA7FE",
"A.	c #A992FE",
"B.	c #BFBAEA",
"C.	c #ECECF9",
"D.	c #F0F0F3",
"E.	c #FCFCFD",
"F.	c #FBFCFD",
"G.	c #E6E6EB",
"H.	c #DADBE5",
"I.	c #DFDEE7",
"J.	c #E5E4ED",
"K.	c #C6C3D4",
"L.	c #B9AFDC",
"M.	c #CBB8F1",
"N.	c #D3AEFA",
"O.	c #E0A8FE",
"P.	c #DEA6FF",
"Q.	c #E5D7FF",
"R.	c #B4A6E7",
"S.	c #A09FA5",
"T.	c #979798",
"U.	c #92929D",
"V.	c #A3A2B7",
"W.	c #9494A0",
"X.	c #9392B5",
"Y.	c #9693BB",
"Z.	c #9794B9",
"`.	c #9C97B7",
" +	c #B7ACCB",
".+	c #C1ACDF",
"++	c #D5B8F4",
"@+	c #C5A8FD",
"#+	c #C69EFF",
"$+	c #D8C4FF",
"%+	c #D6CDE7",
"&+	c #C8C2DE",
"*+	c #D6D3EF",
"=+	c #CBC8EA",
"-+	c #ABA8BE",
";+	c #A9A0DF",
">+	c #A99EEC",
",+	c #B3A2F0",
"'+	c #C0A6F5",
")+	c #BCAEF1",
"!+	c #C4B6E8",
"~+	c #CEAFEE",
"{+	c #DAB4F9",
"]+	c #E0AEFD",
"^+	c #DDA6FE",
"/+	c #CC9DFF",
"(+	c #BEA4FF",
"_+	c #BF9FFF",
":+	c #CBB0FF",
"<+	c #C5B6FA",
"[+	c #BFB0F5",
"}+	c #C4ADF0",
"|+	c #C4B3F4",
"1+	c #D6BDF9",
"2+	c #DABDFA",
"3+	c #D0A7FB",
"4+	c #D7A6FE",
"5+	c #DEA7FF",
"6+	c #B598FF",
"7+	c #B699FF",
"8+	c #B599FF",
"9+	c #C49BFF",
"0+	c #CFA1FF",
"a+	c #BC9AFF",
"b+	c #D5A2FE",
"c+	c #DEA6FE",
"d+	c #E0A8FF",
"                . . . + . . . .                 ",
"            . + @ @ # @ # @ @ + . .             ",
"          + @ $ % & * % & # * # + + .           ",
"        + @ = % - ; > , ; > - - * @ + .         ",
"      + @ & ' > ; ) ! ~ ) { ; , ] * @ + .       ",
"    + @ % > , { ) ^ ! ! ^ / ! ~ ( ' * @ + _     ",
"  . : * % , ) ^ < < ^ < ^ ! / ! { ; ] * @ . [   ",
"  + # % , ~ / < ! ! } | 1 2 3 ^ ! ( , % 4 + .   ",
"5 + * % ; / 3 6 7 6 8 9 0 a b c d e f - * + . [ ",
"5 # g , ( h i j k l m n o p q r s t u > = @ . [ ",
". = * ' v w x y z A B C D E F G H I J f @ $ . [ ",
". : % ; K L M N O P Q R S T U V W X Y Z ` + 5 [ ",
"+ + % %  ...+.@.#.$.%.&.*.=.-.;.>.,.'.).!.~.. [ ",
"5 + g , {.].^./.(._.:.<.<.:.[.}.|.1.2.3.4.5.6.[ ",
". + = % ( 7.8.9.0.-.%.%.=.a.b.c.d.e.f.g.h.i.j.k.",
"5 + = - % l.m.n.o.p.:.<.<.q.r.s.t.u.v.w.x.y.z.[ ",
"  . + * % A.B.C.D.E.%.&.F.G.H.I.J.K.L.M.N.i.O.  ",
"  P.. + ] Q.R.S.T.U.V.:.W.X.Y.Z.`. +.+++@+z.k.  ",
"    5 + # #+$+%+&+*+=+-+;+>+,+'+)+!+~+{+]+^+    ",
"      . . /+(+' % _+:+<+[+}+}+|+1+2+3+4+5+      ",
"        . . + # # * 6+7+8+8+9+0+a+b+c+c+        ",
"          [ [ . + + + + = + + . [ P.P.          ",
"            d+P._ . . . . . P.P.P.k.            ",
"                k.k.k.d+d+d+P.k.                "};
