/* XPM */
static const char *forward_xpm[] = {
/* columns rows colors chars-per-pixel */
"32 32 212 2",
"   c black",
".  c #010305",
"X  c #020305",
"o  c #03090E",
"O  c #030C12",
"+  c #030D12",
"@  c #050F14",
"#  c #03141D",
"$  c #03161D",
"%  c #04121A",
"&  c #04151E",
"*  c #021621",
"=  c #021720",
"-  c #031722",
";  c #041621",
":  c #051621",
">  c #051721",
",  c #051B27",
"<  c #001D2A",
"1  c #041C28",
"2  c #051D2B",
"3  c #041F2B",
"4  c #001F3E",
"5  c #00202E",
"6  c #05202C",
"7  c #05202F",
"8  c #0C242F",
"9  c #00203F",
"0  c #0F2731",
"q  c #082C3F",
"w  c #002340",
"e  c #002545",
"r  c #002845",
"t  c #012A46",
"y  c #0C3652",
"u  c #0C3753",
"i  c #0D3B59",
"p  c #0D3F5E",
"a  c #0F405F",
"s  c #064B65",
"d  c #0F4160",
"f  c #0F4363",
"g  c #0D4564",
"h  c #0F4665",
"j  c #0B4D69",
"k  c #0B506E",
"l  c #0E516F",
"z  c #0D5472",
"x  c #0C5775",
"c  c #0D5D7F",
"v  c #0E5C7D",
"b  c #114463",
"n  c #154767",
"m  c #134B63",
"M  c #194968",
"N  c #1A4A68",
"B  c #1D607B",
"V  c #22617C",
"C  c #2F6378",
"Z  c #38697D",
"A  c #3A6A7E",
"S  c #416B7D",
"D  c #14688E",
"F  c #14688F",
"G  c #15688E",
"H  c #136F93",
"J  c #126E94",
"K  c #146A90",
"L  c #1D769C",
"P  c #127FA3",
"I  c #28718F",
"U  c #227498",
"Y  c #336D86",
"T  c #367088",
"R  c #307E9D",
"E  c #0D8BAE",
"W  c #0F8CAF",
"Q  c #0D8EB5",
"!  c #0E8EB5",
"~  c #0F8FB5",
"^  c #0097BC",
"/  c #0C91B6",
"(  c #0B92B9",
")  c #0B95BD",
"_  c #0E91B9",
"`  c #0F93B8",
"'  c #0C95BE",
"]  c #0E95BD",
"[  c #0D99BE",
"{  c #1288AA",
"}  c #148AAF",
"|  c #158DB2",
" . c #178EB2",
".. c #1091B8",
"X. c #1D94B5",
"o. c #1A92B8",
"O. c #189ABB",
"+. c #10A1BF",
"@. c #2386AB",
"#. c #2190B6",
"$. c #099BC1",
"%. c #0A9EC0",
"&. c #0F9BC0",
"*. c #0F9BC1",
"=. c #0AA1C3",
"-. c #0FA8C9",
";. c #0EACCD",
":. c #0EADCE",
">. c #10A2C9",
",. c #13A6CA",
"<. c #11ACCA",
"1. c #1DA4C7",
"2. c #1DA7C9",
"3. c #1AACCB",
"4. c #12B0CD",
"5. c #17B4CF",
"6. c #1CB3C8",
"7. c #1EB6CE",
"8. c #11B4D2",
"9. c #18B6D6",
"0. c #2EAFCE",
"q. c #22B6CE",
"w. c #2FB0CE",
"e. c #2DB9CB",
"r. c #25BBD3",
"t. c #2BB8D2",
"y. c #2FBED2",
"u. c #35B3CF",
"i. c #37B8D1",
"p. c #38B5D1",
"a. c #38B9D4",
"s. c #3BBCD5",
"d. c #31C0D7",
"f. c #36C3D8",
"g. c #22CCE0",
"h. c #2ACEE1",
"j. c #2DCBE0",
"k. c #39D8E6",
"l. c #3DD9E7",
"z. c #549BBB",
"x. c #43B5CF",
"c. c #42B1D0",
"v. c #45B3D0",
"b. c #45B6D3",
"n. c #4EB8D0",
"m. c #52BFD8",
"M. c #67BFD7",
"N. c #6DB9D3",
"B. c #7DB0C9",
"V. c #72B6D4",
"C. c #43CEE0",
"Z. c #49D5E4",
"A. c #48DFE9",
"S. c #5FD3E3",
"D. c #53E0EA",
"F. c #6EC8DD",
"G. c #6FCADE",
"H. c #7EC1D5",
"J. c #78CDE0",
"K. c #7ACDE2",
"L. c #7ACEE1",
"P. c #7EC9E0",
"I. c #84B3C8",
"U. c #84B5CA",
"Y. c #82BFD8",
"T. c #96C0D3",
"R. c #95CADE",
"E. c #80CEE0",
"W. c #83CFE0",
"Q. c #83D2E4",
"!. c #9FCCE1",
"~. c #9CD3E7",
"^. c #98D8E6",
"/. c #9DD9E8",
"(. c #A2CFE2",
"). c #ACDBE7",
"_. c #ACD9E8",
"`. c #B2D2E1",
"'. c #B7D5E2",
"]. c #B7D5E3",
"[. c #B0D9E6",
"{. c #B3DEEE",
"}. c #BBDEED",
"|. c #BFDDEB",
" X c #BDDFEC",
".X c #BCDFEE",
"XX c #B5E0EC",
"oX c #BDE3F0",
"OX c #C5DAE3",
"+X c #C4E1EF",
"@X c #CFE3EF",
"#X c #C5E9F6",
"$X c #CEEAF6",
"%X c #D0ECF3",
"&X c #D4ECF6",
"*X c #D6EEF5",
"=X c #D9ECF2",
"-X c #D8EFF5",
";X c #D2F0FC",
":X c #D9F2FB",
">X c #E4F3FB",
",X c #E6F1F9",
"<X c #E5F4FB",
"1X c #E7F5FB",
"2X c #F2F6FB",
"3X c #F9FAFD",
"4X c #FDFCFF",
"5X c #FFFCFF",
"6X c #FFFDFF",
"7X c #FFFEFF",
"8X c gray100",
"9X c None",
/* pixels */
"9X9X9X9X9X9X9X9X9X9X9X9X9X9X9X9X9X9X9X9X9X9X9X9X9X9X9X9X9X9X9X9X",
"9X9X9X9X9X9X9X9X9X9X9X9X9X9X9X9X9X9X9X9X9X9X9X9X9X9X9X9X9X9X9X9X",
"9X9X9X9X9X9X9X9X9X9X9X9X9X9X9X9X9X9X9X9X9X9X9X9X9X9X9X9X9X9X9X9X",
"9X9X9X9X9X9X9X9X9X9X9X9X9X9X9X9X9X9X9X9X9X9X9X9X9X9X9X9X9X9X9X9X",
"9X9X9X9X9X9X9X9X9X9X9X9X9X9X9Xu 9X9X9X9X9X9X9X9X9X9X9X9X9X9X9X9X",
"9X9X9X9X9X9X9X9X9X9X9X9X9X9X9Xu o 9X9X9X9X9X9X9X9X9X9X9X9X9X9X9X",
"9X9X9X9X9X9X9X9X9X9X9X9X9X9X9Xa V 0 9X9X9X9X9X9X9X9X9X9X9X9X9X9X",
"9X9X9X9X9X9X9X9X9X9X9X9X9X9X9Xn z.C 3 9X9X9X9X9X9X9X9X9X9X9X9X9X",
"9X9X9X9X9X9X9X9X9X9X9X9X9X9X9XM B.V.Y @ 9X9X9X9X9X9X9X9X9X9X9X9X",
"9X9X9X9X9X9X9X9X9X9X9X9X9X9X9XM U.$X'.I # 9X9X9X9X9X9X9X9X9X9X9X",
"9X9X9X9X9X9X9X9X9X9X9X9X9X9X9XM I.|.@X'.A 5 9X9X9X9X9X9X9X9X9X9X",
"9X9X9X9X9X  t w 9 4 4 4 4 t e a I.R.).8X(.Z # 9X9X9X9X9X9X9X9X9X",
"9X9X9X9X9X  / / / / Q / / / Q / Y.G.G.=X8X'.I @ 9X9X9X9X9X9X9X9X",
"9X9X9X9X9X  /  X>X8X8X8X5X8X,X}.].3.u.G.-X3XOXY < 9X9X9X9X9X9X9X",
"9X9X9X9X9X  / oX_.*X<X<X&X{.~.P.s.^ O.w.W.$X2X!.S 8 9X9X9X9X9X9X",
"9X9X9X9X9X  /  XH.W.^./.Q.m.b.c.=.^ ] $.p.J.XX:XY.B X 9X9X9X9X9X",
"9X9X9X9X9X  / +XN.u.x.n.i.<.-.1...Q ' ' b.S.A.s.#.l X 9X9X9X9X9X",
"9X9X9X9X9X  / #XF.O.E { W / [ [ Q _ >.;.C.Z.t.~ s , 9X9X9X9X9X9X",
"9X9X9X9X9X  / ;XG.q.6.e.y.q.5.8.4.,.9.g.k.y.} z , 9X9X9X9X9X9X9X",
"9X9X9X9X9X  / L G G F K H H P _ ' ;.g.A.t. .v O 9X9X9X9X9X9X9X9X",
"9X9X9X9X9X  3 - * ; ; ; - & q c $.h.l.t.o.j % 9X9X9X9X9X9X9X9X9X",
"9X9X9X9X9X9X9X9X9X9X9X9X9X9X9Xh +.j.f. .j 3 9X9X9X9X9X9X9X9X9X9X",
"9X9X9X9X9X9X9X9X9X9X9X9X9X9X9Xh X.0.{ v % 9X9X9X9X9X9X9X9X9X9X9X",
"9X9X9X9X9X9X9X9X9X9X9X9X9X9X9Xb @.@.l o 9X9X9X9X9X9X9X9X9X9X9X9X",
"9X9X9X9X9X9X9X9X9X9X9X9X9X9X9Xa U m < 9X9X9X9X9X9X9X9X9X9X9X9X9X",
"9X9X9X9X9X9X9X9X9X9X9X9X9X9X9Xp j 3 9X9X9X9X9X9X9X9X9X9X9X9X9X9X",
"9X9X9X9X9X9X9X9X9X9X9X9X9X9X9Xu o 9X9X9X9X9X9X9X9X9X9X9X9X9X9X9X",
"9X9X9X9X9X9X9X9X9X9X9X9X9X9X9Xi 9X9X9X9X9X9X9X9X9X9X9X9X9X9X9X9X",
"9X9X9X9X9X9X9X9X9X9X9X9X9X9X9X9X9X9X9X9X9X9X9X9X9X9X9X9X9X9X9X9X",
"9X9X9X9X9X9X9X9X9X9X9X9X9X9X9X9X9X9X9X9X9X9X9X9X9X9X9X9X9X9X9X9X",
"9X9X9X9X9X9X9X9X9X9X9X9X9X9X9X9X9X9X9X9X9X9X9X9X9X9X9X9X9X9X9X9X",
"9X9X9X9X9X9X9X9X9X9X9X9X9X9X9X9X9X9X9X9X9X9X9X9X9X9X9X9X9X9X9X9X"
};
