/* XPM */
static const char * idnumDown_xpm[]={
"16 32 3 1",
"b c #ff0000",
"a c #000000",
". c None",
"................",
"................",
"................",
"................",
"................",
"................",
"......aaaa......",
"......abba......",
"......abba......",
"......abba......",
"......abba......",
"......abba......",
"......abba......",
"......abba......",
"......abba......",
"......abba......",
"......abba......",
"......abba......",
"......abba......",
"......abba......",
"......abba......",
"......abba......",
"......abba......",
".aaaaaabbaaaaaa.",
"..aabbbbbbbbaa..",
"...aabbbbbbaa...",
"....aabbbbaa....",
".....aabbaa.....",
"......aaaa......",
".......aa.......",
"................",
"................"};
