/* XPM */
static const char * locked_bookmark_xpm[] = {
"22 22 257 2",
"  	c None",
". 	c #979797",
"+ 	c #FFDE46",
"@ 	c #FFD85F",
"# 	c #FFDB75",
"$ 	c #FFCE55",
"% 	c #FFA600",
"& 	c #FFA100",
"* 	c #FF9B00",
"= 	c #FF9300",
"- 	c #FF8E00",
"; 	c #FF8900",
"> 	c #FF8300",
", 	c #FF7D00",
"' 	c #FF7700",
") 	c #FF7000",
"! 	c #FF6B00",
"~ 	c #FF6700",
"{ 	c #FF5B00",
"] 	c #FF8A3A",
"^ 	c #FFDA4F",
"/ 	c #FFD566",
"( 	c #FFD56F",
"_ 	c #FFC956",
": 	c #FFA804",
"< 	c #FFA407",
"[ 	c #FFA008",
"} 	c #FF9A09",
"| 	c #FF940A",
"1 	c #FF900A",
"2 	c #FF8807",
"3 	c #FF8307",
"4 	c #FF7C07",
"5 	c #FF7707",
"6 	c #FF7207",
"7 	c #FF6E05",
"8 	c #FF6100",
"9 	c #FF8F49",
"0 	c #FFFFFF",
"a 	c #FFFFF8",
"b 	c #FFFFF7",
"c 	c #FFFFF4",
"d 	c #FFFFF6",
"e 	c #FFFFFC",
"f 	c #FFFFF9",
"g 	c #FEF5E8",
"h 	c #FAEFE2",
"i 	c #FAF2E7",
"j 	c #FEF9F5",
"k 	c #FEF7F4",
"l 	c #FAF3EE",
"m 	c #F9F2EB",
"n 	c #F7EFEA",
"o 	c #F7EFEB",
"p 	c #FCF2ED",
"q 	c #FFF9F6",
"r 	c #F7EEE3",
"s 	c #F0E1CC",
"t 	c #F2E3D0",
"u 	c #F0E2CD",
"v 	c #F0E2CE",
"w 	c #EDDFC9",
"x 	c #F0EADF",
"y 	c #F9FDFF",
"z 	c #F8FAFE",
"A 	c #F7FAFC",
"B 	c #E9ECED",
"C 	c #CCCED0",
"D 	c #FCFDFF",
"E 	c #FFFCF5",
"F 	c #EAD5B6",
"G 	c #F6E9D6",
"H 	c #FFFAF4",
"I 	c #FFFFFE",
"J 	c #FFFAEF",
"K 	c #F4E5CD",
"L 	c #E7D3B9",
"M 	c #F5F5F5",
"N 	c #F8F9FA",
"O 	c #E2E2E2",
"P 	c #BCBCBC",
"Q 	c #FCFCFC",
"R 	c #FFFEFA",
"S 	c #ECD3B1",
"T 	c #FCE5D0",
"U 	c #FFFFFD",
"V 	c #FFFDE9",
"W 	c #FFFEE7",
"X 	c #FFFFEB",
"Y 	c #FFFFF2",
"Z 	c #F6EACA",
"` 	c #E5D3BA",
" .	c #F5F6F9",
"..	c #F0F0F0",
"+.	c #EFEFEF",
"@.	c #EFDABF",
"#.	c #FCD1A6",
"$.	c #FFDDB3",
"%.	c #FFEED4",
"&.	c #FFFCEF",
"*.	c #FFFEEF",
"=.	c #FFFCD8",
"-.	c #FFFED3",
";.	c #FFFFD6",
">.	c #FFFFD1",
",.	c #FFFFCE",
"'.	c #F3DDAB",
").	c #E5D4BF",
"!.	c #F2F4F6",
"~.	c #EAEAEA",
"{.	c #F9F9F9",
"].	c #FEFAF5",
"^.	c #EEC491",
"/.	c #FFCC90",
"(.	c #FFD598",
"_.	c #FFE1A4",
":.	c #FFF6D4",
"<.	c #FFFDE7",
"[.	c #FFF7BF",
"}.	c #FFFDBF",
"|.	c #FFFEBC",
"1.	c #FFF8AE",
"2.	c #FFF39E",
"3.	c #FFF09B",
"4.	c #EBCC9B",
"5.	c #D8D6D5",
"6.	c #B9B9BA",
"7.	c #FEFEFE",
"8.	c #F5E8D5",
"9.	c #F7BA72",
"0.	c #FFC674",
"a.	c #FFD788",
"b.	c #FFE493",
"c.	c #FFEB9A",
"d.	c #FFEBAB",
"e.	c #F8E791",
"f.	c #FFEA89",
"g.	c #FFF08F",
"h.	c #FFED83",
"i.	c #FFE570",
"j.	c #FFE055",
"k.	c #F6CC66",
"l.	c #D9D0C9",
"m.	c #D5D6D8",
"n.	c #F2DDC1",
"o.	c #FABA5E",
"p.	c #FFCA5F",
"q.	c #FEDD79",
"r.	c #FDEB89",
"s.	c #FFE878",
"t.	c #F0DE89",
"u.	c #E9DEC5",
"v.	c #F2D35A",
"w.	c #FFDF54",
"x.	c #FFE14F",
"y.	c #FFD633",
"z.	c #FFCF16",
"A.	c #FDCA42",
"B.	c #E3D4C3",
"C.	c #F3DFC5",
"D.	c #F9C568",
"E.	c #FED96A",
"F.	c #FDE77C",
"G.	c #FCF489",
"H.	c #FEEE79",
"I.	c #F7DB6D",
"J.	c #EFD89C",
"K.	c #FCD14B",
"L.	c #FFD62B",
"M.	c #FFCE1A",
"N.	c #FFD013",
"O.	c #FAC640",
"P.	c #E2D5C7",
"Q.	c #E3E5E9",
"R.	c #EDE3D8",
"S.	c #F0C36A",
"T.	c #FFEB7D",
"U.	c #FCF388",
"V.	c #FCFA8F",
"W.	c #FCF786",
"X.	c #FFE360",
"Y.	c #FFE596",
"Z.	c #FFE896",
"`.	c #FFD93D",
" +	c #FFCE16",
".+	c #FFCF1A",
"++	c #FFD31A",
"@+	c #F2BD55",
"#+	c #D8D4D1",
"$+	c #B3B5B7",
"%+	c #F0F2F4",
"&+	c #E7C083",
"*+	c #FDEC7F",
"=+	c #FCFD92",
"-+	c #FCF887",
";+	c #FEEF6F",
">+	c #FFEA63",
",+	c #FFF5B6",
"'+	c #FFF6C2",
")+	c #FFEA94",
"!+	c #FFD128",
"~+	c #FFC426",
"{+	c #E5C090",
"]+	c #EBEDF2",
"^+	c #E8E8E9",
"/+	c #F6F8FC",
"(+	c #ECDFD1",
"_+	c #EFC46D",
":+	c #FFF783",
"<+	c #FFF373",
"[+	c #FFE757",
"}+	c #FFE04D",
"|+	c #FFF0AD",
"1+	c #FFF2B2",
"2+	c #FFF3BA",
"3+	c #FFEE96",
"4+	c #FFCD29",
"5+	c #E7B35F",
"6+	c #ECEAE9",
"7+	c #F4F6F7",
"8+	c #F7F7F7",
"9+	c #F5F8FD",
"0+	c #DECBB8",
"a+	c #E1AF5A",
"b+	c #FED44D",
"c+	c #FFDF3D",
"d+	c #FFDD3A",
"e+	c #FFF4AF",
"f+	c #FFF6B9",
"g+	c #FFF2AE",
"h+	c #FFD88C",
"i+	c #FAFAFA",
"j+	c #E0E0DF",
"k+	c #C1C5C9",
"l+	c #BBB7B6",
"m+	c #C6A375",
"n+	c #DEA034",
"o+	c #F5B230",
"p+	c #FAC56F",
"q+	c #F4BC67",
"r+	c #DDA455",
"s+	c #C3A47D",
"t+	c #F8F9FD",
"u+	c #ECECEC",
"v+	c #E4E5E8",
"w+	c #DDE0E5",
"x+	c #D6D0CD",
"y+	c #D6C3B1",
"z+	c #D6BCA0",
"A+	c #D5C2AB",
"B+	c #D4D0CB",
"C+	c #DBE0E4",
"D+	c #F3F3F3",
"E+	c #FDFDFD",
"F+	c #FEFFFF",
"G+	c #FDFFFF",
"H+	c #F8F8F8",
"  . . . . . . . . . . . . . . . . . . . .   ",
"  . + @ # $ % & * = - ; > , ' ) ! ~ { ] .   ",
"  . ^ / ( _ : < [ } | 1 2 3 4 5 6 7 8 9 .   ",
"  . 0 a b c d e f g h i j k l m n o p q .   ",
"  . 0 0 0 0 0 r s t u v w x y z A B C D .   ",
"  . 0 0 0 E F G H 0 0 I J K L M N O P Q .   ",
"  . 0 0 R S T U b b V W X Y Z `  ...+.Q .   ",
"  . 0 0 @.#.$.%.&.*.=.-.;.>.,.'.).!.~.{..   ",
"  . 0 ].^./.(._.:.<.[.}.|.1.2.3.4.5.6.7..   ",
"  . 0 8.9.0.a.b.c.d.e.f.g.h.i.j.k.l.m.0 .   ",
"  . 0 n.o.p.q.r.s.t.u.v.w.x.y.z.A.B.z 0 .   ",
"  . 0 C.D.E.F.G.H.I.J.K.y.L.M.N.O.P.Q.0 .   ",
"  . 0 R.S.T.U.V.W.X.Y.Z.`. +.+++@+#+$+0 .   ",
"  . 0 %+&+*+=+-+;+>+,+'+)+!+N.~+{+]+^+0 .   ",
"  . 0 /+(+_+:+<+[+}+|+1+2+3+4+5+6+7+8+0 .   ",
"  . 0 8+9+0+a+b+c+d+e+f+g+h+. . . . . . .   ",
"  . 0 i+j+k+l+m+n+o+p+q+r+s+. t+0 0 0 .     ",
"  . 0 i+8+u+v+w+x+y+z+A+B+C+. D+E+0 .       ",
"  . 0 Q Q E+0 0 F+G+G+G+F+0 . u+0 .         ",
"  . 0 0 0 0 0 0 0 0 0 0 0 0 . u+.           ",
"  . 0 H+H+H+H+H+H+H+H+H+H+E+. .             ",
"  . . . . . . . . . . . . . .               "};
