/* XPM */
static const char * locked_directory_xpm[] = {
"22 22 270 2",
"  	c None",
". 	c #BE8256",
"+ 	c #AC7B56",
"@ 	c #DDB06F",
"# 	c #F9E882",
"$ 	c #C68E41",
"% 	c #B37747",
"& 	c #BB7737",
"* 	c #DBA86C",
"= 	c #F6E380",
"- 	c #FCED67",
"; 	c #F2C953",
"> 	c #EEB45F",
", 	c #E6A83C",
"' 	c #CA7207",
") 	c #DDA871",
"! 	c #F2D97E",
"~ 	c #FDF36F",
"{ 	c #F7D353",
"] 	c #F3BF5F",
"^ 	c #F9C959",
"/ 	c #FAC331",
"( 	c #E39506",
"_ 	c #DB6C00",
": 	c #E7B27E",
"< 	c #F1C27F",
"[ 	c #E6B554",
"} 	c #D49B65",
"| 	c #EFCF7B",
"1 	c #FEF576",
"2 	c #FBDF55",
"3 	c #F6C35B",
"4 	c #F9CC66",
"5 	c #FED444",
"6 	c #FFCB23",
"7 	c #FEC722",
"8 	c #EC9B10",
"9 	c #EA6700",
"0 	c #EDBB7B",
"a 	c #FDED95",
"b 	c #FFFE79",
"c 	c #FFFE64",
"d 	c #F6DF4E",
"e 	c #F0D162",
"f 	c #FDF47C",
"g 	c #FDEA5A",
"h 	c #FAC956",
"i 	c #FACE6D",
"j 	c #FDDE5B",
"k 	c #FFD937",
"l 	c #FFCF28",
"m 	c #FFCA23",
"n 	c #FFCA22",
"o 	c #F9A219",
"p 	c #F56600",
"q 	c #934714",
"r 	c #ECC085",
"s 	c #FFFE92",
"t 	c #FFFF62",
"u 	c #FFFE5F",
"v 	c #FFFE61",
"w 	c #FFFE62",
"x 	c #FDE051",
"y 	c #FBCA6D",
"z 	c #FDE56E",
"A 	c #FEE84D",
"B 	c #FFDE39",
"C 	c #FFD632",
"D 	c #FFCF29",
"E 	c #FFC922",
"F 	c #FFC620",
"G 	c #FE9012",
"H 	c #FA6903",
"I 	c #A44302",
"J 	c #E7BF86",
"K 	c #FFFD73",
"L 	c #FFF959",
"M 	c #FFF95B",
"N 	c #FEF757",
"O 	c #FBCA5E",
"P 	c #FEED7F",
"Q 	c #FFEC48",
"R 	c #FFE341",
"S 	c #FFDB38",
"T 	c #FFD42F",
"U 	c #FFCC26",
"V 	c #FFC820",
"W 	c #FFAB19",
"X 	c #FE7D0B",
"Y 	c #FC7006",
"Z 	c #C14C00",
"` 	c #F0C88A",
" .	c #FFF66C",
"..	c #FFF251",
"+.	c #FFF253",
"@.	c #FFF453",
"#.	c #FDE246",
"$.	c #FACA73",
"%.	c #FEF068",
"&.	c #FFE845",
"*.	c #FFE03D",
"=.	c #FFD834",
"-.	c #FFD12B",
";.	c #FFB21B",
">.	c #FF8B11",
",.	c #FF7C0A",
"'.	c #FE7608",
").	c #DE5800",
"!.	c #CC8D52",
"~.	c #FFE991",
"{.	c #FFEC4B",
"].	c #FFEB4B",
"^.	c #FEEA48",
"/.	c #FDD441",
"(.	c #FAC35C",
"_.	c #FDE67F",
":.	c #FFED50",
"<.	c #FFE442",
"[.	c #FFDD3A",
"}.	c #FFD630",
"|.	c #FFCA28",
"1.	c #FFB21F",
"2.	c #FF9517",
"3.	c #FF860E",
"4.	c #FF7D06",
"5.	c #FA7D12",
"6.	c #D78450",
"7.	c #885947",
"8.	c #F3CC86",
"9.	c #FFE850",
"0.	c #FFE542",
"a.	c #FFDA3C",
"b.	c #FEC447",
"c.	c #FDD071",
"d.	c #FEF073",
"e.	c #FFF254",
"f.	c #FFE948",
"g.	c #FFE13F",
"h.	c #FFD936",
"i.	c #FFC92F",
"j.	c #FFB228",
"k.	c #FF9F1E",
"l.	c #FF9314",
"m.	c #FE870B",
"n.	c #F08C32",
"o.	c #CDA68F",
"p.	c #B5B4C5",
"q.	c #8E6965",
"r.	c #DAA570",
"s.	c #FFE66E",
"t.	c #FFD332",
"u.	c #FEC25A",
"v.	c #FEE57A",
"w.	c #FEF460",
"x.	c #FFF352",
"y.	c #FFEE4D",
"z.	c #FFE645",
"A.	c #FFDB3E",
"B.	c #FFCA38",
"C.	c #FFB930",
"D.	c #FFAB25",
"E.	c #FF9D19",
"F.	c #FB961E",
"G.	c #E5A567",
"H.	c #C7BABC",
"I.	c #BABCD0",
"J.	c #B6B8CD",
"K.	c #9B828A",
"L.	c #F8D482",
"M.	c #FFC834",
"N.	c #FED77C",
"O.	c #FFF458",
"P.	c #FFF150",
"Q.	c #FFF050",
"R.	c #FFEA4A",
"S.	c #FFDF45",
"T.	c #FFD041",
"U.	c #FFC337",
"V.	c #FFB72C",
"W.	c #FEAA21",
"X.	c #F5AA45",
"Y.	c #DDBEA2",
"Z.	c #CAC9D6",
"`.	c #C4C5D6",
" +	c #BBBBCC",
".+	c #9C8994",
"++	c #623833",
"@+	c #E0AD77",
"#+	c #FFCE4E",
"$+	c #FCCA64",
"%+	c #FFF058",
"&+	c #FFEE4E",
"*+	c #FFED4D",
"=+	c #FFE54B",
"-+	c #FFD947",
";+	c #FFCD3D",
">+	c #FFC131",
",+	c #FCB937",
"'+	c #EFC37E",
")+	c #DCD3CF",
"!+	c #D2D4E1",
"~+	c #CCCEDC",
"{+	c #BAB3C0",
"]+	c #886564",
"^+	c #4C281E",
"/+	c #CC9C76",
"(+	c #F8CC72",
"_+	c #F9BB4F",
":+	c #FEEC60",
"<+	c #FFEC4A",
"[+	c #FFEA4C",
"}+	c #FFE14B",
"|+	c #FFD642",
"1+	c #FECB39",
"2+	c #FACB5F",
"3+	c #EDDAB9",
"4+	c #E2E1E8",
"5+	c #DCDDE8",
"6+	c #D2D2DE",
"7+	c #B09B9F",
"8+	c #6A3F34",
"9+	c #D9A66D",
"0+	c #F8BA57",
"a+	c #FCDF66",
"b+	c #FFEA48",
"c+	c #FFE64D",
"d+	c #FFDD45",
"e+	c #FED74C",
"f+	c #FAE095",
"g+	c #F1ECE3",
"h+	c #EAEBF3",
"i+	c #E5E6EE",
"j+	c #D2CAD1",
"k+	c #99746C",
"l+	c #512C1F",
"m+	c #C79874",
"n+	c #F1B976",
"o+	c #F7CC68",
"p+	c #FFE94A",
"q+	c #FFE44A",
"r+	c #FFE572",
"s+	c #FEF3CA",
"t+	c #F8F8F9",
"u+	c #F4F5F9",
"v+	c #EBEAEF",
"w+	c #C6AFAC",
"x+	c #754939",
"y+	c #D0976D",
"z+	c #F1BE79",
"A+	c #FEE865",
"B+	c #FFF1A3",
"C+	c #FFFCEE",
"D+	c #FEFFFF",
"E+	c #FCFDFF",
"F+	c #EAE1E0",
"G+	c #A98272",
"H+	c #DE9E6B",
"I+	c #F9E8C7",
"J+	c #FFFFFD",
"K+	c #FFFFFF",
"L+	c #FDFBFB",
"M+	c #DBC2B7",
"N+	c #80533E",
"O+	c #B26D3E",
"P+	c #EBC2A4",
"Q+	c #F5EAE4",
"R+	c #B58C76",
"S+	c #C27A4A",
"T+	c #DDBCA8",
"U+	c #85583E",
"                              . +           ",
"                            @ # $ % &       ",
"                        * = - ; > , '       ",
"                    ) ! ~ { ] ^ / ( _       ",
"      : < [     } | 1 2 3 4 5 6 7 8 9       ",
"    0 a b c d e f g h i j k l m n o p q     ",
"  r s t u v w t x y z A B C D E F G H I     ",
"  J K L M M M N O P Q R S T U V W X Y Z     ",
"  `  ...+.+.@.#.$.%.&.*.=.-.E ;.>.,.'.).    ",
"!.~.{.].{.^./.(._.:.<.[.}.|.1.2.3.4.5.6.7.  ",
"  8.9.0.a.b.c.d.e.f.g.h.i.j.k.l.m.n.o.p.q.  ",
"  r.s.t.u.v.w.x.y.z.A.B.C.D.E.F.G.H.I.J.K.  ",
"    L.M.N.O.P.Q.R.S.T.U.V.W.X.Y.Z.`. +.+++  ",
"    @+#+$+%+&+*+=+-+;+>+,+'+)+!+~+{+]+^+    ",
"    /+(+_+:+<+[+}+|+1+2+3+4+5+6+7+8+        ",
"      9+0+a+b+c+d+e+f+g+h+i+j+k+l+          ",
"      m+n+o+p+q+r+s+t+u+v+w+x+              ",
"        y+z+A+B+C+D+E+F+G+                  ",
"          H+I+J+K+L+M+N+                    ",
"          O+P+K+Q+R+                        ",
"            S+T+U+                          ",
"                                            "};
