/* XPM */
static const char * magnify2_xpm[] = {
"32 32 4 1",
" 	c None",
".	c #9B9B9B9B9B9B",
"X	c #000000000000",
"o	c #3F3F4F4F6161",
"                                ",
"                                ",
"                                ",
"        .XXXX.                  ",
"      XXooooooXX                ",
"     XoooXXXXoooX               ",
"    XooXX    XXooX              ",
"   XooX        XooX             ",
"   X.X   X      XoX             ",
"  ...X  X X     XooX            ",
"  X.X  X  X      XoX            ",
"  X.X X  X       XoX            ",
"  X.X X X        XoX            ",
"  X.X  X         XoX            ",
"  X.X            XoX            ",
"  ...X          XooX            ",
"   X.X          X.X             ",
"   X..X        X..X             ",
"    X..XX    XX..XX             ",
"     X...XXXX...X.oX            ",
"      XX......XXX..oX           ",
"        .XXXX.   X..oX          ",
"                  X..oX         ",
"                   X..oX        ",
"                    X..oX       ",
"                     X..oX      ",
"                      X..oX     ",
"                       X..oX    ",
"                        X..X    ",
"                         XX     ",
"                                ",
"                                "};
