/* XPM */
static const char * no_object_xpm[] = {
"30 15 32 1",
" 	c None",
".	c #000000",
"+	c #0000AA",
"@	c #00AA00",
"#	c #00AAAA",
"$	c #AA0000",
"%	c #AA00AA",
"&	c #AA5500",
"*	c #AAAAAA",
"=	c #555555",
"-	c #5555FF",
";	c #55FF55",
">	c #55FFFF",
",	c #FF5555",
"'	c #FF55FF",
")	c #FFFF55",
"!	c #FFFFFF",
"~	c #EFEFEF",
"{	c #DFDFDF",
"]	c #D3D3D3",
"^	c #C3C3C3",
"/	c #B7B7B7",
"(	c #ABABAB",
"_	c #9B9B9B",
":	c #8F8F8F",
"<	c #7F7F7F",
"[	c #737373",
"}	c #676767",
"|	c #575757",
"1	c #4B4B4B",
"2	c #3B3B3B",
"3	c #2F2F2F",
"               ~~/:|3         ",
"             ~~]^_:}|33       ",
"            ~~]^(_<[|133      ",
"           ~~]]/(::[}1133     ",
"           ~~{]^(_<[}|133     ",
"          ~~{^^((::[[||233    ",
"          ~~{]^/(_<<}|1233    ",
"          ~~{]^((::[[||233    ",
"          ~~{]^/__<<}|1233    ",
"          ~~{^^((::[[||233    ",
"           ~~{^/(_<[}|233     ",
"           ~~]]/(::[}1133     ",
"            ~~{^(_<[|123      ",
"             ~~]^_:}|33       ",
"               ~~/<|3         "};
