/* XPM */
static const char * paint_new_xpm[] = {
"24 24 14 1",
" 	c None",
".	c #F7941D",
"+	c #FFFF32",
"@	c #FFFF66",
"#	c #FFFF1A",
"$	c #F7D11D",
"%	c #FFFF98",
"&	c #FFFF5D",
"*	c #FFFF8C",
"=	c #FFFFB6",
"-	c #FFFFCC",
";	c #FFFFFF",
">	c #000000",
",	c #9999FF",
"                        ",
"                        ",
"                        ",
"                        ",
"                        ",
"                        ",
"              .         ",
"             .+.        ",
"          .. .@. ..     ",
"         .#$.$%$.$#.    ",
"          .&*=-=*&.     ",
"           .$-;-$.      ",
"      >>>>>.$-;-$.      ",
"    >>>,,,.&*=-=*&.     ",
"  >>>,,,,.#$.$%$.$#.    ",
"  >,,,,,,,..,.@.>..     ",
" >>,,,,,,,,,,.+.>>      ",
" >,,,,,,,,,,,,.,,>      ",
" >>,,,,,,,,,,,,,>>      ",
"  >,,,,,,,,,,,,,>       ",
"  >>>,,,,,,,,,>>>       ",
"    >>>,,,,,>>>         ",
"      >>>>>>>           ",
"                        "};
