/* XPM */
static const char * paint_redo_xpm[] = {
"32 32 296 2",
"  	c None",
". 	c #7E96DC",
"+ 	c #4870D0",
"@ 	c #396CD5",
"# 	c #477DE9",
"$ 	c #6998FF",
"% 	c #495EBB",
"& 	c #1A46E3",
"* 	c #0441FC",
"= 	c #0049FF",
"- 	c #0044FC",
"; 	c #0148F0",
"> 	c #2462E7",
", 	c #75A4F2",
"' 	c #455EBB",
") 	c #1C4AD4",
"! 	c #0447FA",
"~ 	c #004EFF",
"{ 	c #004EF4",
"] 	c #0052F4",
"^ 	c #004EFD",
"/ 	c #0042EA",
"( 	c #114EDA",
"_ 	c #5F8FF1",
": 	c #7185CE",
"< 	c #153ECA",
"[ 	c #0B43F8",
"} 	c #0244FF",
"| 	c #004DFE",
"1 	c #004CFF",
"2 	c #0654FF",
"3 	c #0040F7",
"4 	c #0945DB",
"5 	c #6092E9",
"6 	c #1D46B2",
"7 	c #0B42DB",
"8 	c #0A46F4",
"9 	c #1B4FFB",
"0 	c #093CEF",
"a 	c #0E48FF",
"b 	c #0443FF",
"c 	c #0448FF",
"d 	c #0040FA",
"e 	c #044DFF",
"f 	c #054CFC",
"g 	c #1050D8",
"h 	c #6398F6",
"i 	c #3C65C1",
"j 	c #0D47C4",
"k 	c #195AD8",
"l 	c #5090FE",
"m 	c #6392E0",
"n 	c #4372C4",
"o 	c #0032AF",
"p 	c #0B4AE3",
"q 	c #0A48F5",
"r 	c #0547FD",
"s 	c #004AFF",
"t 	c #0048FE",
"u 	c #0042EC",
"v 	c #215CE4",
"w 	c #81ACFA",
"x 	c #0040C8",
"y 	c #0D50DF",
"z 	c #7C9FF0",
"A 	c #132C93",
"B 	c #104DF5",
"C 	c #0041FF",
"D 	c #0547FF",
"E 	c #0044FF",
"F 	c #0052FF",
"G 	c #0042D4",
"H 	c #3C73E7",
"I 	c #617FBF",
"J 	c #124DCB",
"K 	c #3876EF",
"L 	c #859DDB",
"M 	c #0032A4",
"N 	c #1054E7",
"O 	c #0549EC",
"P 	c #044CF6",
"Q 	c #004CF1",
"R 	c #0048E6",
"S 	c #1650E2",
"T 	c #608CF9",
"U 	c #224394",
"V 	c #1C50BE",
"W 	c #83B6FF",
"X 	c #3C5CB1",
"Y 	c #0E3FBF",
"Z 	c #0746DF",
"` 	c #024AF6",
" .	c #014AFF",
"..	c #024AFF",
"+.	c #003BF4",
"@.	c #1E58EA",
"#.	c #8CBDFF",
"$.	c #1839A2",
"%.	c #436FD0",
"&.	c #1030A1",
"*.	c #144CE9",
"=.	c #0045FC",
"-.	c #0449FF",
";.	c #0148FF",
">.	c #0048FF",
",.	c #0048EA",
"'.	c #3E7CE9",
").	c #4D6ED7",
"!.	c #1F47C1",
"~.	c #7598EC",
"{.	c #5069A9",
"].	c #1247C7",
"^.	c #074CF2",
"/.	c #0245F6",
"(.	c #0147FE",
"_.	c #0550FF",
":.	c #0044E9",
"<.	c #0D51DA",
"[.	c #7BAEFF",
"}.	c #1943B9",
"|.	c #2656D6",
"1.	c #0631A2",
"2.	c #0F4BEA",
"3.	c #0447F8",
"4.	c #0248FF",
"5.	c #0148FC",
"6.	c #0349F7",
"7.	c #0245EB",
"8.	c #366EE7",
"9.	c #073EB5",
"0.	c #3A70EA",
"a.	c #3556B7",
"b.	c #0E43CF",
"c.	c #0D4CF9",
"d.	c #0349FF",
"e.	c #0242FB",
"f.	c #0B4BFF",
"g.	c #074BFF",
"h.	c #094BDF",
"i.	c #71AAF7",
"j.	c #7E9EC7",
"k.	c #0E49C1",
"l.	c #5691FF",
"m.	c #8EACE8",
"n.	c #093DA2",
"o.	c #0B4EDD",
"p.	c #0948F7",
"q.	c #0545FE",
"r.	c #0046FA",
"s.	c #3176F8",
"t.	c #86BBFF",
"u.	c #7188FC",
"v.	c #2B5CE9",
"w.	c #1C4FC4",
"x.	c #5D7ABC",
"y.	c #2048B7",
"z.	c #87AAFF",
"A.	c #25479E",
"B.	c #1442E0",
"C.	c #0A45FF",
"D.	c #024BFF",
"E.	c #0546FF",
"F.	c #0641FF",
"G.	c #0E47FF",
"H.	c #0546FA",
"I.	c #034EF7",
"J.	c #004AE8",
"K.	c #266DE1",
"L.	c #37559D",
"M.	c #3259BE",
"N.	c #8596DC",
"O.	c #7F97ED",
"P.	c #7E9FFE",
"Q.	c #87B3FF",
"R.	c #235BCC",
"S.	c #0C4BE6",
"T.	c #064EFB",
"U.	c #004CFC",
"V.	c #0149FF",
"W.	c #0445FF",
"X.	c #0848FF",
"Y.	c #0444FB",
"Z.	c #064AF5",
"`.	c #0048E2",
" +	c #4F8DFC",
".+	c #193986",
"++	c #4D75CD",
"@+	c #8488D1",
"#+	c #2137A7",
"$+	c #1C49EA",
"%+	c #0342F1",
"&+	c #084DF0",
"*+	c #0953F0",
"=+	c #0048E8",
"-+	c #004CF0",
";+	c #004CF7",
">+	c #0047FF",
",+	c #0048FB",
"'+	c #004AF9",
")+	c #0446FE",
"!+	c #0747F1",
"~+	c #104FDC",
"{+	c #83B5FF",
"]+	c #173B89",
"^+	c #6A8FD6",
"/+	c #2C44A6",
"(+	c #0842E4",
"_+	c #0046FF",
":+	c #014DFF",
"<+	c #0049F9",
"[+	c #004AFB",
"}+	c #0049FE",
"|+	c #004BFF",
"1+	c #004DF7",
"2+	c #0845EB",
"3+	c #386DE1",
"4+	c #224996",
"5+	c #85A5E0",
"6+	c #0E40A3",
"7+	c #0E4EE3",
"8+	c #0646FF",
"9+	c #0240FF",
"0+	c #0647FF",
"a+	c #0746FF",
"b+	c #094BFF",
"c+	c #034BFF",
"d+	c #004FF7",
"e+	c #004EF7",
"f+	c #0145FE",
"g+	c #1048E3",
"h+	c #6D9CEE",
"i+	c #799BE2",
"j+	c #2B54A6",
"k+	c #163C8F",
"l+	c #1946D7",
"m+	c #1345FE",
"n+	c #0840FF",
"o+	c #053FFF",
"p+	c #0B47FF",
"q+	c #0040F8",
"r+	c #004BFD",
"s+	c #0050FB",
"t+	c #004AF5",
"u+	c #0041F3",
"v+	c #295DE7",
"w+	c #6387DD",
"x+	c #3B62BF",
"y+	c #0E2E93",
"z+	c #1B4BDB",
"A+	c #0D49F7",
"B+	c #0145FF",
"C+	c #0247FC",
"D+	c #074EFF",
"E+	c #0046FD",
"F+	c #0047F4",
"G+	c #0D46EB",
"H+	c #6088FF",
"I+	c #5779DB",
"J+	c #4F72DA",
"K+	c #093DAB",
"L+	c #0047D7",
"M+	c #0051F3",
"N+	c #0050F7",
"O+	c #0049F6",
"P+	c #014CFF",
"Q+	c #0448F3",
"R+	c #2153F0",
"S+	c #91B3FF",
"T+	c #8B9BBC",
"U+	c #7B8FB0",
"V+	c #0D30A4",
"W+	c #0D46DB",
"X+	c #0351F1",
"Y+	c #093FFF",
"Z+	c #1142E5",
"`+	c #5082DB",
" @	c #8192AC",
".@	c #1A3DA3",
"+@	c #1144DD",
"@@	c #0A48FB",
"#@	c #0045FF",
"$@	c #144EED",
"%@	c #87B8FB",
"&@	c #2236A7",
"*@	c #173ED9",
"=@	c #003FEF",
"-@	c #054FFF",
";@	c #0040EF",
">@	c #407FFF",
",@	c #374FA9",
"'@	c #1445D0",
")@	c #0F4DE0",
"!@	c #1A5BD1",
"~@	c #516FB7",
"{@	c #0D3483",
"]@	c #638AC1",
"                                                                ",
"                    . + @ # $                                   ",
"                  % & * = - ; > ,                               ",
"                ' ) ! ~ { ] ^ / ( _                             ",
"              : < [ } = = | 1 2 3 4 5                           ",
"              6 7 8 9 0 a b c d e f g h                         ",
"            i j k l m n o p q r s t u v w                       ",
"            x y z         A B C D E F G H                       ",
"          I J K           L M N O P Q R S T                     ",
"          U V W             X Y Z `  ...+.@.#.                  ",
"          $.%.                &.*.=.-.;.>.,.'.                  ",
"        ).!.~.                {.].^./.(._.:.<.[.                ",
"        }.|.                    1.2.3.4.5.6.7.8.                ",
"        9.0.                    a.b.c.d.e.f.g.h.i.              ",
"      j.k.l.                    m.n.o.; p.q.E r.s.t.  u.v.w.    ",
"      x.y.z.                      A.B.C.>.= D.E.F.G.H.I.J.K.    ",
"      L.M.                N.O.P.Q.R.S.T.U.1 = V.W.X.Y.Z.`. +    ",
"      .+++              @+#+$+%+&+*+=+-+;+1 >+= ,+'+)+!+~+{+    ",
"      ]+^+                /+(+s _+= :+<+[+}+s |+;+1+c 2+3+      ",
"      4+5+                  6+7+8+9+0+a+b b+c+1 d+e+f+g+h+      ",
"    i+j+                      k+l+m+n+o+p+q+4.r+s+t+u+v+        ",
"    w+x+                        y+z+A+B+C+D+E+|+1 F+G+H+        ",
"    I+J+                          K+L+M+N+O+>.P+= Q+R+S+        ",
"    T+U+                            V+W+X+;+s 0+Y+Z+`+          ",
"       @                              .@+@@@e #@a+$@%@          ",
"                                        &@*@=@-@;@>@            ",
"                                          ,@'@)@!@t.            ",
"                                            ~@{@]@              ",
"                                                                ",
"                                                                ",
"                                                                ",
"                                                                "};
