/* XPM */
static const char * paint_draw_xpm[] = {
"24 24 32 1",
" 	c None",
".	c #1E0804",
"+	c #582012",
"@	c #000000",
"#	c #A04E48",
"$	c #BC3E23",
"%	c #646464",
"&	c #B5A0A0",
"*	c #754A4A",
"=	c #AA936A",
"-	c #A69578",
";	c #2C2C2C",
">	c #5E5037",
",	c #BEB9AF",
"'	c #604C26",
")	c #D5AC65",
"!	c #BB9149",
"~	c #120E07",
"{	c #7C6844",
"]	c #E8AC4A",
"^	c #695125",
"/	c #110E0A",
"(	c #DAA958",
"_	c #C78E32",
":	c #090703",
"<	c #332C1B",
"[	c #DFBF7E",
"}	c #614D25",
"|	c #0B0B0B",
"1	c #53482F",
"2	c #010101",
"3	c #9999FF",
"                        ",
"                 .+@    ",
" @@@            @#$@    ",
"    @           %&*@    ",
"    @          @=-;     ",
"   @           >,'@     ",
"  @           @)!~      ",
" @@@@         {]^@      ",
"             /(_:       ",
"             <[}@       ",
"             |1@        ",
"             2@         ",
"      @@@@@@@           ",
"    @@@333333@@         ",
"  @@@333333333@@@       ",
"  @3333333333333@       ",
" @@3333333333333@@      ",
" @333333333333333@      ",
" @@3333333333333@@      ",
"  @3333333333333@       ",
"  @@@333333333@@@       ",
"    @@@33333@@@         ",
"      @@@@@@@           ",
"                        "};
