/* XPM */
static const char * paint_color_xpm[] = {
"26 26 152 2",
"  	c None",
". 	c #C0C0C0",
"+ 	c #4C4C4C",
"@ 	c #424242",
"# 	c #474747",
"$ 	c #CDCDCD",
"% 	c #BFBFBF",
"& 	c #4F4F4F",
"* 	c #CECECE",
"= 	c #CBCBCB",
"- 	c #CCCCCC",
"; 	c #393939",
"> 	c #414141",
", 	c #B9B9B9",
"' 	c #000000",
") 	c #313131",
"! 	c #C2C2C2",
"~ 	c #6F6F6F",
"{ 	c #494949",
"] 	c #EEEEEE",
"^ 	c #050505",
"/ 	c #B6B6B6",
"( 	c #CACACA",
"_ 	c #FFFFFF",
": 	c #404040",
"< 	c #080808",
"[ 	c #BABABA",
"} 	c #D3D3D3",
"| 	c #4A4A4A",
"1 	c #D0D0D0",
"2 	c #F9F9F9",
"3 	c #0E0E0E",
"4 	c #B7B7B7",
"5 	c #D4D4D4",
"6 	c #D5D5D5",
"7 	c #F7F7F7",
"8 	c #0D0D0D",
"9 	c #615856",
"0 	c #914736",
"a 	c #A55B4C",
"b 	c #A58881",
"c 	c #CFCFCF",
"d 	c #D6D6D6",
"e 	c #5C5C5C",
"f 	c #1B1B1B",
"g 	c #C88475",
"h 	c #DC674C",
"i 	c #AB5847",
"j 	c #C35840",
"k 	c #98675B",
"l 	c #FAFAFA",
"m 	c #ACACAC",
"n 	c #2B2B2B",
"o 	c #D9D9D9",
"p 	c #C27968",
"q 	c #E2846E",
"r 	c #ECCCC5",
"s 	c #C5553B",
"t 	c #9A5140",
"u 	c #D2D2D2",
"v 	c #3B3B3B",
"w 	c #454545",
"x 	c #202020",
"y 	c #B57D70",
"z 	c #DC816B",
"A 	c #EFC7BD",
"B 	c #BE553B",
"C 	c #8D716A",
"D 	c #505050",
"E 	c #C6C6C6",
"F 	c #303030",
"G 	c #B8B8B8",
"H 	c #B0B0B0",
"I 	c #969696",
"J 	c #828282",
"K 	c #C86852",
"L 	c #E3ADA0",
"M 	c #82493B",
"N 	c #141414",
"O 	c #B5B5B5",
"P 	c #C3C3C3",
"Q 	c #D7D7D7",
"R 	c #8D8D8D",
"S 	c #292929",
"T 	c #784E44",
"U 	c #E39E8E",
"V 	c #652B1E",
"W 	c #151515",
"X 	c #C7C7C7",
"Y 	c #BDBDBD",
"Z 	c #868686",
"` 	c #161616",
" .	c #838383",
"..	c #9F9F9F",
"+.	c #AAAAAA",
"@.	c #6E3F34",
"#.	c #E49381",
"$.	c #6B2B1C",
"%.	c #A4A4A4",
"&.	c #222222",
"*.	c #DADADA",
"=.	c #8C8C8C",
"-.	c #191919",
";.	c #888888",
">.	c #A8A8A8",
",.	c #7B4337",
"'.	c #CD6951",
").	c #6D2918",
"!.	c #D8D8D8",
"~.	c #A9A9A9",
"{.	c #3A3A3A",
"].	c #C1C1C1",
"^.	c #C8C8C8",
"/.	c #8B8B8B",
"(.	c #1D1D1D",
"_.	c #878787",
":.	c #C5C5C5",
"<.	c #C15D47",
"[.	c #792D1B",
"}.	c #DBDBDB",
"|.	c #A5A5A5",
"1.	c #784235",
"2.	c #D1492A",
"3.	c #7A2D1C",
"4.	c #2A2A2A",
"5.	c #B3B3B3",
"6.	c #8E8E8E",
"7.	c #181818",
"8.	c #8A8A8A",
"9.	c #6F4339",
"0.	c #DA4F2F",
"a.	c #953823",
"b.	c #131313",
"c.	c #929292",
"d.	c #664239",
"e.	c #C34B2F",
"f.	c #874232",
"g.	c #B4B4B4",
"h.	c #0C0C0C",
"i.	c #848484",
"j.	c #55433F",
"k.	c #A1331B",
"l.	c #56382F",
"m.	c #B2B2B2",
"n.	c #60504C",
"o.	c #A0513F",
"p.	c #62372D",
"q.	c #DDDDDD",
"r.	c #DCDCDC",
"s.	c #AEAEAE",
"t.	c #51281F",
"u.	c #8A8482",
"                                                    ",
"                                                    ",
"                . + @ .                             ",
"                # $ % & *                           ",
"                @ = - ; =                           ",
"                > , ' ) !                           ",
"                ~ { ] ^ / -                         ",
"              $ + ( _ : < [ }                       ",
"            } | = 1 _ @ 2 3 4 5                     ",
"          * & * 6   _ > 7 ( 8 9 0 a b               ",
"        = & c d   _ _ e c =   f g h i j k           ",
"      * : 6 l _ _ _ m n m     o ) p q r s t         ",
"    } ; u _ _ _ _ _ v 7 w   1 ! % x y z A B C       ",
"    D E 6 _ _ _ _ _ m F . u G H ! . I J K L M       ",
"    N O _ _ _ _ _ _ _   6 P , Q R | x S T U V       ",
"    - W X _ _ _ _ _   u Y X d Z `  ...+.@.#.$.      ",
"      %.&.E _ _ _ _ 1 Y = *.=.-.;.>.% = ,.'.).      ",
"      !.~.{.]._ * ( G ^.} /.(._.~.:.o   ,.<.[.      ",
"        o ~.: :.}.|.].1 /.x Z ~.:.*.    1.2.3.      ",
"          o m 4.5.*.$ 6.7.8.~.:.*.      9.0.a.      ",
"            o +.b...c.W =.~.E *.        d.e.f.      ",
"              o g.h.< i.~.E *.          j.k.l.      ",
"                *.X 5.m.E *.            n.o.p.      ",
"                  q.5 } r.              s.t.u.      ",
"                                                    ",
"                                                    "};
