/* XPM */
static const char * paint_remove_point_xpm[] = {
"24 24 4 1",
" 	c None",
".	c #000000",
"+	c #FFFFFF",
"@	c #9999FF",
"                        ",
"                        ",
" ....                   ",
"    .                   ",
"   .   .........        ",
"   .   .........        ",
"   .   .........        ",
"  .                     ",
"                        ",
"                        ",
"                        ",
"          ++++          ",
"          +  +          ",
"..........+. +          ",
"@@@@@@@@@@++++          ",
"@@@@@@@@@@@.            ",
"@@@@@@@@@@@.            ",
"@@@@@@@@@@@.            ",
"@@@@@@@@@@@.            ",
"@@@@@@@@@@@.            ",
"@@@@@@@@@@@.            ",
"@@@@@@@@@@@.            ",
"@@@@@@@@@@@.            ",
"@@@@@@@@@@@.            "};
