/* XPM */
static const char * parent_object_xpm[] = {
"17 17 53 1",
" 	c None",
".	c #FFFFFF",
"+	c #BFBFBF",
"@	c #BFBFBF",
"#	c #C6FFC6",
"$	c #94C694",
"%	c #8CBD8C",
"&	c #94CE94",
"*	c #8CCE8C",
"=	c #8CD68C",
"-	c #5AAD5A",
";	c #84FF84",
">	c #7BFF7B",
",	c #5ABD5A",
"'	c #4A9C4A",
")	c #5AC65A",
"!	c #73FF73",
"~	c #6BFF6B",
"{	c #4AB54A",
"]	c #63FF63",
"^	c #5AE75A",
"/	c #4ACE4A",
"(	c #4AD64A",
"_	c #4AE74A",
":	c #4AFF4A",
"<	c #187318",
"[	c #29FF29",
"}	c #189418",
"|	c #18DE18",
"1	c #18EF18",
"2	c #18F718",
"3	c #10FF10",
"4	c #08FF08",
"5	c #00FF00",
"6	c #00F700",
"7	c #00EF00",
"8	c #00E700",
"9	c #00DE00",
"0	c #00D600",
"a	c #00CE00",
"b	c #00C600",
"c	c #00BD00",
"d	c #00B500",
"e	c #00AD00",
"f	c #00A500",
"g	c #009C00",
"h	c #009400",
"i	c #008C00",
"j	c #008400",
"k	c #007B00",
"l	c #007300",
"m	c #006B00",
"n	c #006300",
"                 ",
"                 ",
"     =_251(*     ",
"   @^555568a)@   ",
"   ^53~:579be,   ",
"  &55>#!680cfi$  ",
"  _55];[80bdgk{  ",
"  2554480bdfil}  ",
"  877890bdfhknm  ",
"  |990acdfhkmn}  ",
"  /bbcdeghkmnn{  ",
"  $eeefhikmnnn$  ",
"   ,hijklnnnn-   ",
"   @-lmnnnnn-@   ",
"     %'<n<'%     ",
"                 ",
"                 "};
