/* XPM */
static const char *session_lock_xpm[] = {
/* columns rows colors chars-per-pixel */
"48 48 166 2",
"   c #000000",
".  c #080603",
"X  c #0C0803",
"o  c #0C0C0E",
"O  c #110D04",
"+  c #1B1402",
"@  c #1D150B",
"#  c #1F1800",
"$  c #14171B",
"%  c #17191C",
"&  c #18191D",
"*  c #1B1D21",
"=  c #261C00",
"-  c #262000",
";  c #2C2003",
":  c #212225",
">  c #2B2C30",
",  c #34353A",
"<  c #393A3F",
"1  c #393B40",
"2  c #3C434E",
"3  c #544B00",
"4  c #5A5400",
"5  c #69470D",
"6  c #6D4A0E",
"7  c #6A4D12",
"8  c #645D0F",
"9  c #704E0F",
"0  c #714F10",
"q  c #715010",
"w  c #79782B",
"e  c #414349",
"r  c #45484F",
"t  c #48494E",
"y  c #474D58",
"u  c #4D4F55",
"i  c #4E555F",
"p  c #51545C",
"a  c #595A5F",
"s  c #4F5560",
"d  c #545A64",
"f  c #5B5C61",
"g  c #595E68",
"h  c #5C6775",
"j  c #666B75",
"k  c #646F7D",
"l  c #686B73",
"z  c #6B6F78",
"x  c #6E737D",
"c  c #6D7986",
"v  c #757983",
"b  c #7F8087",
"n  c #7A848F",
"m  c #798490",
"M  c #A47A09",
"N  c #C67F09",
"B  c #87873F",
"V  c #A58F00",
"C  c #AF810F",
"Z  c #BF8F22",
"A  c #8A8C43",
"S  c #8E9047",
"D  c #9A9950",
"F  c #A3A459",
"G  c #BABA6E",
"H  c #BEBF72",
"J  c #D48007",
"K  c #DD8602",
"L  c #D98909",
"P  c #DD900A",
"I  c #C7A100",
"U  c #CAA900",
"Y  c #DFAA15",
"T  c #DEAC1B",
"R  c #E48E00",
"E  c #E49200",
"W  c #E0950B",
"Q  c #E59B00",
"!  c #E49C0C",
"~  c #E89700",
"^  c #EB9B00",
"/  c #E5A300",
"(  c #E5AA00",
")  c #ECA200",
"_  c #EBAB00",
"`  c #ECB201",
"'  c #EBBC00",
"]  c #F1A600",
"[  c #F3AC01",
"{  c #F4B103",
"}  c #F3BA06",
"|  c #F7BC0B",
" . c #F9B500",
".. c #FDBC00",
"X. c #F1C400",
"o. c #F4C10A",
"O. c #F1CC00",
"+. c #FEC202",
"@. c #FAC40B",
"#. c #FEC807",
"$. c #FECC0C",
"%. c #F8C413",
"&. c #FBCC12",
"*. c #F8CA1A",
"=. c #F6D400",
"-. c #F6D800",
";. c #FFD000",
":. c #F9DD03",
">. c #FED213",
",. c #FCD41A",
"<. c #FFD81A",
"1. c #FAD323",
"2. c #FAD72E",
"3. c #FEDC23",
"4. c #FBDC2E",
"5. c #FADF36",
"6. c #FBDE3B",
"7. c #FEE505",
"8. c #FEE900",
"9. c #FEE22E",
"0. c #FAE036",
"q. c #FDE43B",
"w. c #FFE83B",
"e. c #C7C67A",
"r. c #FEEE4A",
"t. c #808692",
"y. c #868993",
"u. c #858E99",
"i. c #888F9A",
"p. c #86909C",
"a. c #8D949F",
"s. c #8D96A1",
"d. c #939AA5",
"f. c #959EA9",
"g. c #989CA6",
"h. c #989DA8",
"j. c #9CA2AC",
"k. c #9DA8B2",
"l. c #A2A7B0",
"z. c #A3AAB4",
"x. c #A8ABB4",
"c. c #ABB3BB",
"v. c #B0B5BE",
"b. c #B4BAC2",
"n. c #B9BDC4",
"m. c #BBC0C7",
"M. c #BCC4CB",
"N. c #C1C4CB",
"B. c #C2C8CE",
"V. c #C5CCD2",
"C. c #C9CED3",
"Z. c #CDD0D6",
"A. c #CDD2D8",
"S. c #D2D7DC",
"D. c #D4D8DD",
"F. c #D7DCE0",
"G. c #D9DDE2",
"H. c #DDE1E4",
"J. c #E1E2E6",
"K. c #E3E6E8",
"L. c #E6E8EB",
"P. c #E8EAED",
"I. c #EEEEF0",
"U. c #EFF0F2",
"Y. c #F3F4F5",
"T. c None",
/* pixels */
"T.T.T.T.T.T.T.T.T.T.T.T.T.T.T.T.T.                            T.T.T.T.T.T.T.T.T.T.T.T.T.T.T.T.T.",
"T.T.T.T.T.T.T.T.T.T.T.T.T.T.T.        o > t a f f a t > o         T.T.T.T.T.T.T.T.T.T.T.T.T.T.T.",
"T.T.T.T.T.T.T.T.T.T.T.T.T.T.      , v B.H.P.Y.Y.Y.Y.U.J.N.b ,       T.T.T.T.T.T.T.T.T.T.T.T.T.T.",
"T.T.T.T.T.T.T.T.T.T.T.T.      : y.B.K.Y.Y.Y.Y.Y.Y.Y.Y.Y.I.K.C.y.:       T.T.T.T.T.T.T.T.T.T.T.T.",
"T.T.T.T.T.T.T.T.T.T.T.      u x.Z.H.K.P.K.K.K.K.K.K.P.P.P.K.J.C.x.t       T.T.T.T.T.T.T.T.T.T.T.",
"T.T.T.T.T.T.T.T.T.T.T.    p c.C.D.J.H.D.C.N.n.n.v.n.N.Z.D.H.J.H.Z.c.a     T.T.T.T.T.T.T.T.T.T.T.",
"T.T.T.T.T.T.T.T.T.T.    e x.C.F.H.Z.n.l.x u < , , < u x l.N.Z.D.D.C.x.e     T.T.T.T.T.T.T.T.T.T.",
"T.T.T.T.T.T.T.T.T.    & g.N.S.S.B.x.l & .               & l x.V.S.D.N.h.*     T.T.T.T.T.T.T.T.T.",
"T.T.T.T.T.T.T.T.T.    z c.C.A.M.j.e         T.T.T.T.        e l.N.A.C.c.z     T.T.T.T.T.T.T.T.T.",
"T.T.T.T.T.T.T.T.    : h.M.V.M.z.r       T.T.T.T.T.T.T.T.      t k.M.V.M.h.:     T.T.T.T.T.T.T.T.",
"T.T.T.T.T.T.T.T.    i l.M.V.c.c       T.T.T.T.T.T.T.T.T.T.      c c.M.M.z.s     T.T.T.T.T.T.T.T.",
"T.T.T.T.T.T.T.T.    v c.M.n.g.>     T.T.T.T.T.T.T.T.T.T.T.T.    > j.n.M.c.v     T.T.T.T.T.T.T.T.",
"T.T.T.T.T.T.T.T.  o u.c.M.b.m .   T.T.T.T.T.T.T.T.T.T.T.T.T.T.  . m c.M.b.p.o   T.T.T.T.T.T.T.T.",
"T.T.T.T.T.T.T.T.  % u.c.M.c.j     T.T.T.T.T.T.T.T.T.T.T.T.T.T.    k z.b.M.a.%   T.T.T.T.T.T.T.T.",
"T.T.T.T.T.T.T.T.  * p.z.M.c.g     T.T.T.T.T.T.T.T.T.T.T.T.T.T.    g j.b.M.s.*   T.T.T.T.T.T.T.T.",
"T.T.T.T.T.T.T.T.  * u.k.M.b.d     T.T.T.T.T.T.T.T.T.T.T.T.T.T.    d d.c.B.d.*   T.T.T.T.T.T.T.T.",
"T.T.T.T.T.T.T.T.  * m f.B.b.i     T.T.T.T.T.T.T.T.T.T.T.T.T.T.    s s.c.V.s.*   T.T.T.T.T.T.T.T.",
"T.T.T.T.T.T.T.T.  % c p.M.b.y     T.T.T.T.T.T.T.T.T.T.T.T.T.T.    y m k.V.u.%   T.T.T.T.T.T.T.T.",
"T.T.T.T.T.        $ h c n.v.2               . .                   2 k s.V.m $         T.T.T.T.T.",
"T.T.T.T.    O 3 4 8 B S H G w 4 4 4 4 4 4 4 4 4 4 4 4 4 4 4 4 4 4 w A F e.D 8 3 3 X     T.T.T.T.",
"T.T.T.T.  . U ' O.-.:.7.7.7.8.8.8.8.8.8.8.8.8.8.8.8.8.8.8.8.8.8.8.8.8.8.8.:.-.O.X.I .   T.T.T.T.",
"T.T.T.T.  - ( ' X.=.:.:.7.7.7.7.7.7.7.7.7.7.8.7.7.7.7.8.7.7.7.7.7.7.7.7.:.:.=.X.' ( -   T.T.T.T.",
"T.T.T.T.  - ( ` X.5.r.r.r.r.r.r.r.r.r.r.r.r.r.r.r.r.r.r.r.r.r.r.r.r.r.r.r.r.6.X.` ( -   T.T.T.T.",
"T.T.T.T.  - / ` } 6.q.0.w.w.w.w.w.w.w.w.w.w.w.w.w.r.w.w.w.w.w.w.w.q.w.q.q.6.6.o.` / -   T.T.T.T.",
"T.T.T.T.  - / _ ' 5.4.4.4.9.9.9.9.9.9.9.9.9.9.9.9.9.9.9.9.9.9.9.9.9.4.9.4.4.5.' _ / -   T.T.T.T.",
"T.T.T.T.  - Q _ { 1.1.3.3.3.3.3.3.3.3.3.3.3.3.3.3.9.3.3.3.3.3.3.3.3.3.3.3.3.1.} _ Q ;   T.T.T.T.",
"T.T.T.T.  = Q _ } *.,.,.,.,.,.<.<.<.<.<.<.<.<.<.<.<.<.<.<.<.<.<.<.<.<.,.,.,.*.' _ Q =   T.T.T.T.",
"T.T.T.T.  = Q ) { %.%.&.>.>.>.>.>.>.>.>.>.>.>.>.>.>.>.>.>.>.>.>.>.>.>.&.%.&.%.[ _ Q =   T.T.T.T.",
"T.T.T.T.  - Q ) [ | %.&.$.&.$.;.>.$.$.>.>.$.T Z Z T $.>.>.$.>.$.$.&.$.&.&.@.o.[ ) E =   T.T.T.T.",
"T.T.T.T.  = ~ ^ _ | @.@.#.#.$.$.$.$.$.$.$.Y 7 @ @ 7 Y $.;.$.$.;.$.#.#.$.@.@.| [ ) ~ =   T.T.T.T.",
"T.T.T.T.  = E ^ [ } } #.@.#.$.#.#.#.#.#.@.M O o O O M @.#.#.#.#.#.#.#.@.#.} } [ ^ ~ =   T.T.T.T.",
"T.T.T.T.  - E ^ [ { ..| +.+.+.+.#.+.#.+.| M O X X X M +.#.+.#.#.#.+.+.+.@...} [ ^ ~ =   T.T.T.T.",
"T.T.T.T.  = E ^ [ { ..} +.+.+.+.+.+.+.+.+.` ; . . ; ` +.+.+.#.+.+.+.+.......{ [ ^ E =   T.T.T.T.",
"T.T.T.T.  = E ^ ] {  . .....+.+.+.+.+.+.+...` + + ` +...+.+...+.+.+.+..... .{ _ ^ E =   T.T.T.T.",
"T.T.T.T.  = R ^ ] {  .....+.......+.+.+.+.+...# = ......+...+...+.+....... . .] ^ R =   T.T.T.T.",
"T.T.T.T.  = R ^ ] {  ...........+...........+.= # +.+.....+...+......... . .{ ] ^ E =   T.T.T.T.",
"T.T.T.T.  = R ^ ] {  . .........+...+.+.....#.# # +.+.+.....+............. . .] ] R =   T.T.T.T.",
"T.T.T.T.  = R ^ ] [  . .....................;.V V ;.....+.......+.........{ [ ] ^ R =   T.T.T.T.",
"T.T.T.T.  = E ^ ] [  ...........+...+.......+.#.+.#.......+...+......... . .{ ] ^ R =   T.T.T.T.",
"T.T.T.T.  = R ^ ] {  . ...................+............................. . .{ ] ^ R =   T.T.T.T.",
"T.T.T.T.  = R ^ ] [  . .....................................+......... . . .{ ] ^ R =   T.T.T.T.",
"T.T.T.T.  = R ~ ] [  . ...................+............................. . .[ ] ^ R =   T.T.T.T.",
"T.T.T.T.  = R ~ ] [  . . ............................................... . .{ ] ^ R =   T.T.T.T.",
"T.T.T.T.  = R ~ ] ] [  . ... . . .....| ...... ..... ....... ... ... . . . .[ ] ~ R = . T.T.T.T.",
"T.T.T.T.  = K R ! ) ] [ [ [ { { { { { { { { { { { { { { { { { { [ [ { { [ ) ) ! R R =   T.T.T.T.",
"T.T.T.T.  X N J L P W W ! ! ! ! ! ! ! ! ! ! ! ! ! ! ! ! ! ! ! ! ! ! ! ! ! W P L N N X   T.T.T.T.",
"T.T.T.T.    = 6 6 6 0 0 0 0 0 0 0 0 0 0 0 0 q q q q q q q q q q 0 0 0 0 9 9 0 0 6 =     T.T.T.T.",
"T.T.T.T.T.                                                                            T.T.T.T.T."
};
