/* XPM */
static const char *session_deployed_xpm[] = {
/* columns rows colors chars-per-pixel */
"48 48 94 2",
"   c #000000",
".  c #050A03",
"X  c #0A1406",
"o  c #0D1907",
"O  c #0D1A08",
"+  c #11220A",
"@  c #152A0C",
"#  c #19320F",
"$  c #1A3510",
"%  c #1D3A11",
"&  c #203F13",
"*  c #224314",
"=  c #254916",
"-  c #295319",
";  c #2E5B1B",
":  c #305F1D",
">  c #31621D",
",  c #376C20",
"<  c #386E21",
"1  c #397122",
"2  c #3E7B25",
"3  c #407D25",
"4  c #428227",
"5  c #468A29",
"6  c #488E2B",
"7  c #4A932D",
"8  c #53A431",
"9  c #56AA33",
"0  c #58AE35",
"q  c #5AB336",
"w  c #5FBC38",
"e  c #60BE39",
"r  c #5BC92D",
"t  c #5ECB31",
"y  c #63C53B",
"u  c #61CB35",
"i  c #65CD3C",
"p  c #68CE3E",
"a  c #67D03E",
"s  c #69D13E",
"d  c #6BCF42",
"f  c #6CD341",
"g  c #6ED941",
"h  c #72D242",
"j  c #71D14A",
"k  c #70DD43",
"l  c #7AD445",
"z  c #77D351",
"x  c #7AD455",
"c  c #7DD559",
"v  c #80D748",
"b  c #83D849",
"n  c #8CDB4D",
"m  c #80D65D",
"M  c #90DC4F",
"N  c #94DD50",
"B  c #83D760",
"V  c #86D865",
"C  c #8CDA6C",
"Z  c #8FDB70",
"A  c #92DB74",
"S  c #9BDE7F",
"D  c #9BE153",
"F  c #A2E356",
"G  c #A5E458",
"H  c #ACE65A",
"J  c #AEE85B",
"K  c #B1E85C",
"L  c #9CDF80",
"P  c #9FE084",
"I  c #A0E085",
"U  c #A2E189",
"Y  c #ADE496",
"T  c #AEE598",
"R  c #B1E59B",
"E  c #B5E7A0",
"W  c #B6E8A3",
"Q  c #B9E8A6",
"!  c #BCE9A9",
"~  c #C0EBAE",
"^  c #C5ECB4",
"/  c #CCEEBE",
"(  c #CEEFC0",
")  c #D2F0C5",
"_  c #D5F1C9",
"`  c #D9F2CE",
"'  c #DDF4D4",
"]  c #E3F6DB",
"[  c #E9F8E3",
"{  c #EDF9E9",
"}  c #F1FAED",
"|  c #F5FCF2",
" . c #FEFEFE",
".. c None",
/* pixels */
"................................................................................................",
"................................................................................................",
"................................p p p p p p p p p p p p ........................................",
"........................p p p p p p p p p p p p p p p p p p p ..................................",
"......................p p p p i p p p p p p p p p p i p p p p p p ..............................",
"..................y i p i i h d i p p p p p p p p p p p p p p i p p i ..........................",
"................y i d i h M b d p p p p p i u u p p p p p p p p p p p s ........................",
"..............- f i i l H n i i p p p p i p Z A i t i p p p p p p p p s 8 ......................",
"............% y s i b H D d i i p p p i u R  . .` L c u u i p p p p p p p s > ..................",
"............q g i b K H l i d i p p p i d {  . . . . ./ V i u u p p p p p g 7 ..................",
"..........6 g p b H K n i i p p p p i u E  . . . . . . .| ' E m t u i i p p s 0 o ..............",
"........> k i h H K H l i p p p p p i x |  . . . . . . . . . .| ! C j u i p s s , ..............",
"........8 g p N K K F d i p p p p i r U  . . . . . . . . . . . . . .} Y j i p s g > ............",
"......# p i l K H K n i p p p p p i j [  . . . . . . . . . . . . . . . .] j i p f q . ..........",
"......> g i N K H H l i p p p p i u R  . . . . . . . . . . . . . . . . . .Z u p i g 4 ..........",
"..... q s s F K H H f p i p p p i i '  . . . . . . . . . . . . . . . . .] j i p p s g * ........",
"....O i p h J J J G p p p p i i u A  . . . . . . . . . . . . . . . .} ! z i p p p p g 7 ........",
"....% p i b J G J G p p p p p i h [  . . . . . . . . . . . . . . .R d u u p p p p p s e . ......",
"....% p i n K J J F p p p p p u R  . . . . . . . . . . . . . ._ x u i p p p p p p p p g - ......",
"....% p p M J J J F p p p p i d ]  . . . . . . . . . . . . . .( u i p p p p p p p p s s 8 ......",
"....% i i n K J J G p p p p u S  . . . . . . . . . . . . . . . .V u p p p p p p p p p s y o ....",
"....% i i n K J J G h p p i d '  . . . . . . . . . . . . . . . ./ i p p p p p p p p p s p # ....",
"....# i p l J H H H l i p u A  . . . . . . .| }  . . . . . . . . .B u p p p p p p p p s p % ....",
"..  O y p d H J H J n i p i /  . . . . .] L j ^  . . . . . . . . .Q u p p p p p p p p p s * ....",
"..  . 0 s i D K H J F d i d ]  . . .] R f u r R  . . . . . . . . .| m u p p p p p p p p g ; ....",
"..    > g i n K J J G h i u U  .] S d u i p u C  . . . . . . . . . ._ i i p p p p p p i g - ....",
"....  + i p h G H J K b i p p z d t i p p p i j {  . . . . . . . . . .C u p p p p p p s s % ....",
"....    8 f i n K J K N i p i i i p p p p p i i )  . . . . . . . . . .Y t p p p p p p s s % ....",
"....    , g i f G K J J l i p p p p p p p p p t E  . . . . . . . . . .Y t p p p p p p s i +   ..",
"....    X q f i l G J J D i p p p p p p p p p t U  . . . . . . . .| _ c i p p p p p p s q .   ..",
"......    # p s i l J K K l i p p i p p p p p u A  . . . . . . . .U u i i p p p p p p g ,     ..",
"......      5 k i d l G K H h i p p p p p p p i m |  . . . . .` V u i p p p p p p s s y +   ....",
"........    O q f i u l F K D s p p p p p p p i j }  . . .| W d u p p p p p p p p p g 7     ....",
"........      $ f f p p s M K M i p p p p p p i i ^  . .] V t i p p p p p p p p p s f *     ....",
"..........      > i f p i i l D l i p p p p p p i z ~ ^ c t p p p p p p p p p p p f 2       ....",
"............      = s f d i i d p p p p p p p p p i u u i p p p p p p p p p p i g 8       ......",
"............        * y f p p i i p p p p p p p p p i i p p p p p p p p p p s g 0 +     ........",
"..............        % 9 g f p p p p p p p p p p p p p p p p p p p p p p p g q @       ........",
"................        . 2 i g s p p p p p p p p p p p p p p p p p p p s g 5 .       ..........",
"..................          @ 2 s f s p p p p p p p p p p p p p p s s g w - .       ............",
"......................          % 8 p f g s s p p p p p p p s s g f i 5 O         ..............",
"........................            @ - 5 y s g g g g g g g f y 6 - @ .           ..............",
"............................              X % > 1 3 2 3 1 > = X               ..................",
"................................                                          ......................",
"....................................                                  ..........................",
"..........................................                      ................................",
"................................................................................................",
"................................................................................................"
};
