/* XPM */
static const char * shuttle_xpm[] = {
"40 40 8 1",
" 	c None",
".	c #FFFFFFFFFFFF",
"X	c #FFFFFFFF0000",
"o	c #9B9B9B9B9B9B",
"O	c #3F3F4F4F6161",
"+	c #8B8B08080808",
"@	c #000000000000",
"#	c #FFFF00000000",
"                                        ",
"                                        ",
"                                        ",
"                                        ",
"    .....      XX..ooo.X...o.X XXXO+    ",
"    ..           ....X..X.X.   XXXXO    ",
"                   X..          XXXX    ",
"            @            @        XX    ",
"           @XO          @XO.X           ",
"           @.O       ..O@.Oo.           ",
"          Oo..O   +#  .@o..OX           ",
"          @oo.O  +++#  Ooo.@X...X.      ",
"          Oo..@ +++#+# @o.X@..X..X.X    ",
"          @oo.  ++++#+ Ooo.@XX.....o    ",
"          OOOo@++++#+##@OOo@X.XoOoXo    ",
"          @o..o+++@@#+#Oo.X@..oOOOOO    ",
"          Ooo.@++@@@@##@oo.@XoO         ",
"          @o..o++@..@##Oo..@ O          ",
"          Ooo.@+@o@@o@#@ooX@            ",
"          @o..o+@@@@@@#Oo..@            ",
"          Ooo.@+@.oo.@#@oo.@            ",
"          @o..o+@....@#Oo.X@            ",
"          Ooo.@+@....@#@oo.@            ",
"          @o..o+@....@#Oo.X@            ",
"          OOOo@+@....@#@OOo@            ",
"          @o..o+@o...@#Oo.X@            ",
"          Ooo.@+@o...@#@oo.@            ",
"          @oo.o@@oo..@@Oo.X@            ",
"          Oooo@@@o@@.@@@oo.@            ",
"          @oo@@o@o@@.@.@@.X@            ",
"          Oo@@oo@o@@.@..@@.@            ",
"          @@@ooo@o@@.@...@@@            ",
"          @@@@@@@o@@.@@@@@@@            ",
"         OO@OO@O@@@@@@O@OO@@O           ",
"         @@OO@#X@@@@@@X#@OO@@           ",
"        @@@@@#XX@@@@@@XX#@@@@@          ",
"                                        ",
"                                        ",
"                                        ",
"                                        "};
