/* XPM */
static const char * synop_red_xpm[] = {
"32 32 3 1",
" 	c #FFFF00000000",
".	c #000000000000",
"X	c #FFFFFFFFFFFF",
"                                ",
" ..  ..              ..  ... .. ",
"   .   .               . .     .",
"  .   .               .   ..  . ",
" .     .             .     .   .",
" ... ..              ... ..  .. ",
"             ......             ",
"           ..XXX.....           ",
"         ..XXXXX.......         ",
"        .XXXXXXX........        ",
"        .XXXXXXX........        ",
"       .XXXXXXXX.........       ",
"       .XXXXXXXX.........       ",
"      .XXXXXXXXX..........      ",
"      .XXXXXXXXX..........      ",
"      .XXXXXXXXX..........      ",
"      .XXXXXXXXX.XXXXXXXX.      ",
"      .XXXXXXXX.XXXXXXXXX.      ",
"       .XXXXXXX.XXXXXXXX.       ",
"       .XXXXXX.XXXXXXXXX.       ",
"        .XXXX.XXXXXXXXX.        ",
"        .XXXX.XXXXXXXXX.        ",
"         ..X.XXXXXXXX..         ",
"           ..XXXXXX..           ",
"           . ......    .        ",
"          .           . .       ",
"          .           . .       ",
"     .....            . .       ",
"        .              .   .    ",
"        .                       ",
" .......                        ",
"                                "};
