/* XPM */
static const char * thumbs_down_xpm[] = {
/* width height ncolors chars_per_pixel */
"20 16 4 1",
/* colors */
" 	s None	c None",
".	c black",
"X	c wheat",
"o	c dodger blue",
/* pixels */	       
"                    ",	
"    .........       ",	
"   .XXXXXXXX..      ",	
"   .XXXXXXXXX....   ",	
"   ....XXXXXX.oo.   ",	
"   .XXXXXXXXX.oo.   ",	
"   .XXXXXXXXX.oo.   ",	
"   ....XXXXXX.oo.   ",	
"   .XXXXXXXXX....   ",	
"   .XXXXXXXX..      ",	
"    .....XXX.       ",	
"        ..XX.       ",	
"         .XX.       ",	
"         .XX.       ",	
"         .XX.       ",	
"          ..        "};
