/* XPM */
static const char * up32x24_xpm[]={
"32 24 2 1",
". c #000000",
"# c None",
"................................",
".##############################.",
".##############################.",
".##############################.",
".##############################.",
".##############..##############.",
".#############....#############.",
".############......############.",
".###########........###########.",
".##########..........##########.",
".#########............#########.",
".########..............########.",
".#######................#######.",
".######..................######.",
".#####....................#####.",
".####......................####.",
".###........................###.",
".##..........................##.",
".#............................#.",
".##############################.",
".##############################.",
".##############################.",
".##############################.",
"................................"};
