/* XPM */
static char *tstorm_xpm[] = {
/* width height ncolors chars_per_pixel */
"32 32 7 1",
/* colors */
"` c black",
"a c cyan",
"b c grey",
"c c white",
"d c yellow",
"e c slate grey",
"f c blue",
/* pixels */
"cccccccccccccccccccccccccccccccc",
"cccccccccccccccccccccccccccccccc",
"cccccccccc````c`c````ccccccccccc",
"cccccccccc`caa``ccfcf``ccccccccc",
"ccccccccc`aa`aa``cacfcc`bccccccc",
"cccccccc`aaaaa`c`a```cf`bbcccccc",
"ccccccc```ca`a``ffac`ac`bbcccccc",
"cccccc`cac`aaca`eeaca```bbcccccc",
"ccccc`caeac````ecaceecc`bbcccccc",
"cccc`acec`a`c`c`acacc```````bccc",
"cccc`aa`aaa`aa`c```a`caccac`bccc",
"cccc``caaaceaccaceec`c```ca```bc",
"ccccc``c`ceceeacafc`faaaca``c`bc",
"cccccc```aa`aacaf``caceeececc`bb",
"cccc````fbbbef`ec`ca``a``afafa`b",
"cc``aac``````ac`c`bcbb`````beb`b",
"c`eeebeeeebeefefeeeebeeebeeeeb`b",
"c```ee`e`e`eb`e``e`ee`e`ee``ee`b",
"cc```````````````d`````````````b",
"cccbbbbbbbbbbb`dd`bbbbbbbbbbbbbb",
"ccccbbbabbabbc`dd`cbbbbcbccbcccc",
"cccccaccbccbc`dd`ccaccaccaccaccc",
"ccccccbccaccac`dd``cbccbccbccbcc",
"cccccccaccbccbc`ddd`caccaccaccac",
"ccccccccbccaccac`d`bccbccbccbccb",
"cccccccccaccbcc`d`ccaccaccaccacc",
"ccccccccccbcca`dd`bccbccbccbccbc",
"cccccccccccca`d``ccaccaccaccaccc",
"cccccccccccc```cccccbccbccbccbcc",
"cccccccccccccccccccccccccccccccc",
"cccccccccccccccccccccccccccccccc",
"cccccccccccccccccccccccccccccccc"
};
