/* XPM */
static const char * active_object_xpm[] = {
"17 17 49 1",
" 	c None",
".	c #FFFFFF",
"+	c #BFBFBF",
"@	c #ADADC6",
"#	c #C6C6FF",
"$	c #8484CE",
"%	c #8484D6",
"&	c #8484FF",
"*	c #7B7BFF",
"=	c #7373FF",
"-	c #6B6BFF",
";	c #5252C6",
">	c #4A4AB5",
",	c #5252CE",
"'	c #6363FF",
")	c #5252D6",
"!	c #4A4AC6",
"~	c #5252E7",
"{	c #4A4ADE",
"]	c #4A4AE7",
"^	c #4A4AFF",
"/	c #181884",
"(	c #2929FF",
"_	c #1818A5",
":	c #1818DE",
"<	c #1818EF",
"[	c #1818F7",
"}	c #1010FF",
"|	c #0808FF",
"1	c #0000FF",
"2	c #0000F7",
"3	c #0000EF",
"4	c #0000E7",
"5	c #0000DE",
"6	c #0000D6",
"7	c #0000CE",
"8	c #0000C6",
"9	c #0000BD",
"0	c #0000B5",
"a	c #0000AD",
"b	c #0000A5",
"c	c #00009C",
"d	c #000094",
"e	c #00008C",
"f	c #000084",
"g	c #00007B",
"h	c #000073",
"i	c #00006B",
"j	c #000063",
"                 ",
"                 ",
"     $]<1:{$     ",
"    )1111247,@   ",
"   )1[-^1368a,   ",
"  $11*#=2569be$  ",
"  ]11'&(468acf>  ",
"  <11||4680beh_  ",
"  43345780bdgji  ",
"  :666890bdgij_  ",
"  {8890acdgijj!  ",
"  $aabbdegijji$  ",
"   ,ddfghjjjj;   ",
"   @;hijjjjj;@   ",
"     $>/j/>$     ",
"                 ",
"                 "};
