/* XPM */
static const char * addempty_xpm[] = {
"15 16 45 1",
" 	c None",
".	c #525252",
"+	c #FFFFFF",
"@	c #87A925",
"#	c #86A921",
"$	c #84A622",
"%	c #789C19",
"&	c #F0F8A6",
"*	c #E7F299",
"=	c #779B18",
"-	c #769824",
";	c #73961E",
">	c #7FA027",
",	c #E5F18F",
"'	c #DFED87",
")	c #77991F",
"!	c #769924",
"~	c #638916",
"{	c #CFE270",
"]	c #D5E775",
"^	c #D6E775",
"/	c #D1E472",
"(	c #CADE6B",
"_	c #BFD664",
":	c #638A16",
"<	c #5A7F14",
"[	c #BED65A",
"}	c #C2D95E",
"|	c #C3D95E",
"1	c #C0D75B",
"2	c #B9D256",
"3	c #B0CB50",
"4	c #5E8125",
"5	c #567B19",
"6	c #577E18",
"7	c #ADCA45",
"8	c #ABC843",
"9	c #567C16",
"0	c #5F8227",
"a	c #466D12",
"b	c #95B82B",
"c	c #92B52A",
"d	c #456D12",
"e	c #426817",
"f	c #3A620E",
"..........     ",
".+++++++.+.    ",
".+++++++.++.   ",
".+++++++.+++.  ",
".+++++++.....  ",
".+++++++++++.  ",
".+++++++++++.  ",
".+++++++++++.  ",
".++++++++@##$  ",
".++++++++%&*=  ",
".++++++-;>,');!",
".++++++~{]^/(_:",
".++++++<[}|123<",
".++++++45678950",
".++++++++abcd  ",
".........effe  "};
