/* XPM */
static const char * apply_xpm[] = {
"24 24 4 1",
" 	c None",
".	c #709A39",
"+	c #308030",
"@	c #6D9737",
"                        ",
"                        ",
"                        ",
"                 .+++   ",
"                 +++++  ",
"                ++++++  ",
"               @++++++  ",
"               +++++++  ",
"              ++++++++  ",
"              +++++++   ",
"             ++++++++   ",
"     +++    ++++++++    ",
"    +++++   +++++++     ",
"   +++++++ ++++++++     ",
"   +++++++++++++++      ",
"   ++++++++++++++       ",
"    +++++++++++++       ",
"     +++++++++++        ",
"      +++++++++         ",
"        +++++++         ",
"         +++++          ",
"          +++           ",
"                        ",
"                        "};
