/* XPM */
static const char * autoupdate_warn_xpm[] = {
"32 32 116 2",
"  	c None",
". 	c #FF6666",
"+ 	c #FF6464",
"@ 	c #FF5F5F",
"# 	c #FF5B5B",
"$ 	c #FE5555",
"% 	c #FE5151",
"& 	c #FE4B4B",
"* 	c #FE4949",
"= 	c #FF6262",
"- 	c #FF4444",
"; 	c #FF4141",
"> 	c #FF3F3F",
", 	c #FF5959",
"' 	c #FF3636",
") 	c #FF3232",
"! 	c #FF2B2B",
"~ 	c #FE5353",
"{ 	c #100000",
"] 	c #000000",
"^ 	c #060000",
"/ 	c #FF0202",
"( 	c #FF6161",
"_ 	c #FF3434",
": 	c #FF8383",
"< 	c #FF8181",
"[ 	c #FF7979",
"} 	c #FE9393",
"| 	c #8C0000",
"1 	c #C20000",
"2 	c #AE0000",
"3 	c #FF2222",
"4 	c #B00000",
"5 	c #C40000",
"6 	c #AC0000",
"7 	c #340000",
"8 	c #0A0000",
"9 	c #BC0000",
"0 	c #FE9191",
"a 	c #FA0000",
"b 	c #220000",
"c 	c #CA0000",
"d 	c #FF9B9B",
"e 	c #FF0404",
"f 	c #B20000",
"g 	c #FF2F2F",
"h 	c #FE0000",
"i 	c #D00000",
"j 	c #FFABAB",
"k 	c #3A0000",
"l 	c #FF7B7B",
"m 	c #FF6969",
"n 	c #FF6F6F",
"o 	c #FF6B6B",
"p 	c #FF7676",
"q 	c #FF5D5D",
"r 	c #FF1F1F",
"s 	c #520000",
"t 	c #FFB3B3",
"u 	c #FE8989",
"v 	c #FE8D8D",
"w 	c #B80000",
"x 	c #FE5757",
"y 	c #FE8B8B",
"z 	c #FE4F4F",
"A 	c #A20000",
"B 	c #F60000",
"C 	c #FFB6B6",
"D 	c #FF0000",
"E 	c #660000",
"F 	c #EC0000",
"G 	c #EA0000",
"H 	c #BE0000",
"I 	c #FF3030",
"J 	c #FFADAD",
"K 	c #960000",
"L 	c #920000",
"M 	c #FFBFBF",
"N 	c #A00000",
"O 	c #9E0000",
"P 	c #FF7272",
"Q 	c #FE4D4D",
"R 	c #FFA1A1",
"S 	c #8E0000",
"T 	c #A40000",
"U 	c #FFC3C3",
"V 	c #FF3D3D",
"W 	c #D80000",
"X 	c #FC0000",
"Y 	c #FF7171",
"Z 	c #FF9999",
"` 	c #FFB1B1",
" .	c #3E0000",
"..	c #BA0000",
"+.	c #FF7D7D",
"@.	c #FFA3A3",
"#.	c #720000",
"$.	c #FF9D9D",
"%.	c #C00000",
"&.	c #840000",
"*.	c #020000",
"=.	c #C80000",
"-.	c #4A0000",
";.	c #E80000",
">.	c #640000",
",.	c #420000",
"'.	c #AA0000",
").	c #EE0000",
"!.	c #FE1313",
"~.	c #FF8484",
"{.	c #FFA4A4",
"].	c #FFAFAF",
"^.	c #DC0000",
"/.	c #FF1D1D",
"(.	c #B60000",
"_.	c #D20000",
". . . . . + @ # $ % & * * & % $ # @ + . . . . . . . . . . . . . ",
". . . . + = # $ % - ; > > ; - % $ # = + . . . . . . . . . . . . ",
". . . . + @ , % - > ' ) ) ' > - % , @ + . . . . . . . . . . . . ",
". . . + = # $ & ; ' ) ! ! ) ' ; & $ # = + . . . . . . . . . . . ",
". . . + = # ~ { ] ] ] ] ] ] ] ] ] ^ # = + . . . . . . . . . . . ",
". . . + = # ~ ] / , - ; ; - & ( _ ] # = + . . . . . . . . . . . ",
". . . + = # $ ] $ : < [ [ < : } } ] # = + . . . . . . . . . . . ",
". . . . + @ , ] | 1 2 3 < ; 4 5 6 ] @ + . . . . . . . . . . . . ",
". . . . + = # 7 8 ^ ] 9 0 a ] ] ] b = + . . . . . + + + + . . . ",
". . . . . + @ # $ % { c d e 8 4 4 f g ) ) h . + = = = = = = + . ",
". . . . . + = @ # , { i j e k l = . m n o p 4 = ( @ q q @ ( = = ",
". . . . . . + + r n s i t h 7 j u u v v < m ( w # , x x , # @ = ",
". . . . . . . . _ y z A B C D E B F F G p [ [ H $ ~ % % ~ $ # @ ",
". . . . . . . . I < J K L M % ] w N N O n < P w % % Q Q % % $ # ",
". . . . . . . . I : R S T U V ] W e / X P l Y w % & * * & % ~ , ",
". . . . . . . . I : Z c 6 ` (  ...Z 0 v +.[ n w Q * - - * Q % x ",
". . . . . . . . I : < @.1 #.U n 8 } < < l [ n w Q * - - * Q % x ",
". . . . . . . . I : : $.%.&.U ( *.R u < l l Y w % & * * & % ~ , ",
". . . . . . . . I : : $.=.] 5 U V -.;.+.+.l P w % % Q Q % % $ # ",
". . . . . . . . I : : v % >.,.U t ] '.l < +.P 9 $ ~ % % ~ $ # @ ",
". . . . . . . . I : : < d ; T / ).N !.< < < [ H # , x x , # @ = ",
". . . . . . . . I : < ~.~.{.' ] k ].0 < < < l %.( @ q q @ ( = = ",
". . . . . . . . I : : l P l - f ^.y < < < < +.1 = = = = = = + . ",
". . . . . . . . I : 0 /.4 %.H (._.v < < < : < 1 . + + + + . . . ",
". . . . . . . . I : } !.O 6 6 '.=.v < < < ~.< 5 . . . . . . . . ",
". . . . . . . . ; +.< ( V ; ; ; * u : : : P y c . . . . . . . . ",
". . . . . . . . W $ : v } 0 0 0 0 : : : : < /.z . . . . . . . . ",
". . . . . . . . . F g 3 3 3 3 3 3 3 3 3 3 I . . . . . . . . . . ",
". . . . . . . . . . . . . . . . . . . . . . . . . . . . . . . . ",
". . . . . . . . . . . . . . . . . . . . . . . . . . . . . . . . ",
". . . . . . . . . . . . . . . . . . . . . . . . . . . . . . . . ",
". . . . . . . . . . . . . . . . . . . . . . . . . . . . . . . . "};
