/* XPM */
static const char * autoupdate_off_xpm[] = {
"32 32 108 2",
"  	c None",
". 	c #F2FE91",
"+ 	c #111400",
"@ 	c #000000",
"# 	c #070800",
"$ 	c #EBFE4B",
"% 	c #F8FFC3",
"& 	c #F6FFB3",
"* 	c #F7FFBB",
"= 	c #F0FF79",
"- 	c #F5FFA9",
"; 	c #FEFFF9",
"> 	c #FCFFE9",
", 	c #9CB000",
"' 	c #DCF800",
") 	c #C8E200",
"! 	c #F0FF7F",
"~ 	c #F4FF9F",
"{ 	c #D7F200",
"] 	c #B7CE00",
"^ 	c #373E00",
"/ 	c #080A00",
"( 	c #D3EE00",
"_ 	c #E9FF39",
": 	c #232800",
"< 	c #E0FC00",
"[ 	c #E9FF3F",
"} 	c #ECFF59",
"| 	c #E6FF1F",
"1 	c #E8FF36",
"2 	c #3A4200",
"3 	c #F3FF99",
"4 	c #F5FFA6",
"5 	c #B5CC00",
"6 	c #EAFF46",
"7 	c #F4FFA3",
"8 	c #535E00",
"9 	c #E7FF26",
"0 	c #333A00",
"a 	c #FCFFE4",
"b 	c #F6FFB1",
"c 	c #F3FF9B",
"d 	c #BCD400",
"e 	c #EDFF5D",
"f 	c #A5BA00",
"g 	c #E5FF1B",
"h 	c #FDFFF3",
"i 	c #E6FF22",
"j 	c #677400",
"k 	c #E5FE15",
"l 	c #E3FE09",
"m 	c #E3FF06",
"n 	c #F5FFAD",
"o 	c #F6FFAF",
"p 	c #C5DE00",
"q 	c #ECFE57",
"r 	c #97AA00",
"s 	c #93A600",
"t 	c #A0B400",
"u 	c #9EB200",
"v 	c #F7FFB6",
"w 	c #C3DC00",
"x 	c #FAFED3",
"y 	c #8C9E00",
"z 	c #A3B800",
"A 	c #EDFF62",
"B 	c #E6FF24",
"C 	c #E6FF20",
"D 	c #F9FEC9",
"E 	c #AAC000",
"F 	c #F2FE8B",
"G 	c #3C4400",
"H 	c #B8D000",
"I 	c #F8FFC1",
"J 	c #FAFED5",
"K 	c #C1DA00",
"L 	c #718000",
"M 	c #F9FECD",
"N 	c #BED600",
"O 	c #839400",
"P 	c #F1FE89",
"Q 	c #010200",
"R 	c #F7FFB9",
"S 	c #C7E000",
"T 	c #485200",
"U 	c #E3FF04",
"V 	c #637000",
"W 	c #414A00",
"X 	c #FCFFE6",
"Y 	c #A8BE00",
"Z 	c #F9FECB",
"` 	c #EEFF69",
" .	c #E3FE0B",
"..	c #E8FF34",
"+.	c #FAFED7",
"@.	c #384000",
"#.	c #FBFFE1",
"$.	c #EEFF6D",
"%.	c #B1C800",
"&.	c #DAF600",
"*.	c #B0C600",
"=.	c #D1EC00",
"-.	c #EFFF71",
";.	c #F0FF7D",
">.	c #F7FFBF",
",.	c #EFFF76",
"'.	c #EBFE53",
").	c #ECFE55",
". . . . . . . . . . . . . . . . . . . . . . . . . . . . . . . . ",
". . . . . . . . . . . . . . . . . . . . . . . . . . . . . . . . ",
". . . . . . . . . . . . . . . . . . . . . . . . . . . . . . . . ",
". . . . . . . . . . . . . . . . . . . . . . . . . . . . . . . . ",
". . . . . . . + @ @ @ @ @ @ @ @ @ # . . . . . . . . . . . . . . ",
". . . . . . . @ $ % & & & & & * = @ . . . . . . . . . . . . . . ",
". . . . . . . @ - ; ; ; ; ; ; ; > @ . . . . . . . . . . . . . . ",
". . . . . . . @ , ' ) ! ; ~ ) { ] @ . . . . . . . . . . . . . . ",
". . . . . . . ^ / # @ ( ; _ @ @ @ : . . . . . . . . . . . . . . ",
". . . . . . . . . . + < ; [ / ] ] ] } } } | . . . . . . . . . . ",
". . . . . . . . . . + < ; 1 2 & 3 3 3 3 3 4 5 . . . . . . . . . ",
". . . . . . . . 6 7 8 ( ; 9 0 a * * * * b c . d . . . . . . . . ",
". . . . . . . . e * ! f g h i j k l l m 4 n o p . . . . . . . . ",
". . . . . . . . q o a r s ; = @ ] t t u ~ v n w . . . . . . . . ",
". . . . . . . . q b x y z ; A @ { B i C 4 & n w . . . . . . . . ",
". . . . . . . . q b D ) E a F G H D I I b b n w . . . . . . . . ",
". . . . . . . . q b o J K L ; 3 / % o o o b n w . . . . . . . . ",
". . . . . . . . q b b M N O ; P Q x R o o b n w . . . . . . . . ",
". . . . . . . . q b b M S @ w ; A T U n o b n w . . . . . . . . ",
". . . . . . . . q b b * = V W ; X @ Y - b b n w . . . . . . . . ",
". . . . . . . . q b b n Z ` z i  .t ..n o b n w . . . . . . . . ",
". . . . . . . . q b o & & +.e @ @.#.I o o b n w . . . . . . . . ",
". . . . . . . . q b b 4 ~ 4 $.%.&.R o o o b n w . . . . . . . . ",
". . . . . . . . q b I [ *.N d 5 =.* o o o b n w . . . . . . . . ",
". . . . . . . . q b % .., E E Y S * o o o & n w . . . . . . . . ",
". . . . . . . . ` - n F A ` ` ` -.v b b b ~ R ) . . . . . . . . ",
". . . . . . . . { ;.b * % I I I >.b b b b n [ ,.. . . . . . . . ",
". . . . . . . . . l '.6 6 6 6 6 6 6 6 6 6 ).. . . . . . . . . . ",
". . . . . . . . . . . . . . . . . . . . . . . . . . . . . . . . ",
". . . . . . . . . . . . . . . . . . . . . . . . . . . . . . . . ",
". . . . . . . . . . . . . . . . . . . . . . . . . . . . . . . . ",
". . . . . . . . . . . . . . . . . . . . . . . . . . . . . . . . "};
