/* XPM */
static const char *back_xpm[] = {
/* columns rows colors chars-per-pixel */
"32 32 150 2",
"   c #060E1A",
".  c #06121E",
"X  c #061626",
"o  c #061A2A",
"O  c #061E2E",
"+  c #061E32",
"@  c #062636",
"#  c #0A2236",
"$  c #0A223A",
"%  c #0A2A3E",
"&  c #0E2E46",
"*  c #0A364E",
"=  c #0E364E",
"-  c #0A3652",
";  c #0E3652",
":  c #0E3A56",
">  c #0A3E5E",
",  c #0E3E5E",
"<  c #123A56",
"1  c #12425E",
"2  c #1A425E",
"3  c #0E4A6E",
"4  c #0E4E6E",
"5  c #06526E",
"6  c #0E5272",
"7  c #0E5672",
"8  c #0E567A",
"9  c #0E5A7A",
"0  c #0E5E7E",
"q  c #124262",
"w  c #1E4662",
"e  c #1E4A66",
"r  c #125676",
"t  c #12567A",
"y  c #2A526E",
"u  c #26567A",
"i  c #2A5272",
"p  c #365676",
"a  c #3A5E7E",
"s  c #0E5E82",
"d  c #0E7296",
"f  c #0E769E",
"g  c #126686",
"h  c #12668E",
"j  c #126A92",
"k  c #127A9E",
"l  c #167EA6",
"z  c #527A9A",
"x  c #0A8EB2",
"c  c #0E8AB2",
"v  c #0E96BE",
"b  c #0E9ABE",
"n  c #1E82A6",
"m  c #128EB2",
"M  c #168EB2",
"N  c #1292B2",
"B  c #1296B6",
"V  c #1696BA",
"C  c #1A92B2",
"Z  c #1A96B6",
"A  c #2692B6",
"S  c #229AB6",
"D  c #328AAE",
"F  c #0A9EC2",
"G  c #0E9AC2",
"H  c #0EA2C6",
"J  c #16A6C6",
"K  c #12A2CA",
"L  c #12AACA",
"P  c #12AECE",
"I  c #1AA2C6",
"U  c #12AED2",
"Y  c #16B2CA",
"T  c #16B2CE",
"R  c #12B6D2",
"E  c #16BAD6",
"W  c #1AB6D6",
"Q  c #369EC2",
"!  c #26AACA",
"~  c #26B6CA",
"^  c #22BACE",
"/  c #2AB6CE",
"(  c #2ABECE",
")  c #2EBECE",
"_  c #2ABED6",
"`  c #2EBAD2",
"'  c #32AECA",
"]  c #3AB2CE",
"[  c #3ABAD2",
"{  c #22CADE",
"}  c #2AC6DA",
"|  c #32C2D2",
" . c #32CEDE",
".. c #22CEE2",
"X. c #26CAE2",
"o. c #36D6E2",
"O. c #36DAE6",
"+. c #5296B6",
"@. c #6E8AA6",
"#. c #6E8EA6",
"$. c #6E8EAA",
"%. c #6E96B2",
"&. c #7296B2",
"*. c #769AB6",
"=. c #42A6CA",
"-. c #4EBED6",
";. c #56AAC6",
":. c #5EB6D2",
">. c #6ABAD6",
",. c #7EAEC6",
"<. c #72BAD2",
"1. c #42C6D6",
"2. c #4EC6DA",
"3. c #4ADEEA",
"4. c #72C2D6",
"5. c #76CAE2",
"6. c #7ACEE2",
"7. c #9EBACE",
"8. c #82CADE",
"9. c #82D2E6",
"0. c #8ED2E6",
"q. c #8EDAE6",
"w. c #92D2E6",
"e. c #A6C6DA",
"r. c #AADEEA",
"t. c #AEDEEA",
"y. c #B2DEEA",
"u. c #B2E2EE",
"i. c #BAE6EE",
"p. c #B6E6F6",
"a. c #CEDEEE",
"s. c #D2DEEA",
"d. c #D6DEEA",
"f. c #C2EEF6",
"g. c #DEE2EA",
"h. c #D2E2F2",
"j. c #D2EEFA",
"k. c #DEEAF6",
"l. c #DEEEF2",
"z. c #D6F2FA",
"x. c #DAF2F6",
"c. c #DAF6FE",
"v. c #DEF6FE",
"b. c #E6F6FA",
"n. c #F2F6FA",
"m. c #FAF6FA",
"M. c #FAFAFE",
"N. c #FEFEFE",
"B. c gray100",
"V. c None",
/* pixels */
"V.V.V.V.V.V.V.V.V.V.V.V.V.V.V.V.V.V.V.V.V.V.V.V.V.V.V.V.V.V.V.V.",
"V.V.V.V.V.V.V.V.V.V.V.V.V.V.V.V.V.V.V.V.V.V.V.V.V.V.V.V.V.V.V.V.",
"V.V.V.V.V.V.V.V.V.V.V.V.V.V.V.V.V.V.V.V.V.V.V.V.V.V.V.V.V.V.V.V.",
"V.V.V.V.V.V.V.V.V.V.V.V.V.V.V.V.V.V.V.V.V.V.V.V.V.V.V.V.V.V.V.V.",
"V.V.V.V.V.V.V.V.V.V.V.V.V.V.V.V.V.: V.V.V.V.V.V.V.V.V.V.V.V.V.V.",
"V.V.V.V.V.V.V.V.V.V.V.V.V.V.V.V.; : V.V.V.V.V.V.V.V.V.V.V.V.V.V.",
"V.V.V.V.V.V.V.V.V.V.V.V.V.V.V.< w , V.V.V.V.V.V.V.V.V.V.V.V.V.V.",
"V.V.V.V.V.V.V.V.V.V.V.V.V.V.u a p 1 V.V.V.V.V.V.V.V.V.V.V.V.V.V.",
"V.V.V.V.V.V.V.V.V.V.V.V.V.2 %.*.a q V.V.V.V.V.V.V.V.V.V.V.V.V.V.",
"V.V.V.V.V.V.V.V.V.V.V.V.e &.h.7.u , V.V.V.V.V.V.V.V.V.V.V.V.V.V.",
"V.V.V.V.V.V.V.V.V.V.V.y @.d.k.7.9 > V.V.V.V.V.V.V.V.V.V.V.V.V.V.",
"V.V.V.V.V.V.V.V.V.V.w @.s.B.y.,.l & & & & & & & & & & V.V.V.V.V.",
"V.V.V.V.V.V.V.V.V.2 $.d.B.l.6.;.! x x x x x x x x x & V.V.V.V.V.",
"V.V.V.V.V.V.V.V.y &.g.m.x.q.[ [ ! Q <.t.b.M.B.M.c.+.& V.V.V.V.V.",
"V.V.V.V.V.V.V.i #.a.n.k.w.1.L J I ' 5.p.z.v.c.f.w.+.& V.V.V.V.V.",
"V.V.V.V.V.V.= z e.j.r.9.2.P F F G J -.6.r.i.u.0.:.D & V.V.V.V.V.",
"V.V.V.V.V.V.. r A /  .X.W K b v v b I ] 4.8.8.>.=.n & V.V.V.V.V.",
"V.V.V.V.V.V.V.@ 5 x R ..{ U H K N v N N M C Z C V l & V.V.V.V.V.",
"V.V.V.V.V.V.V.V.# 7 c ( o...W U U T _ | ) ` ^ Y E m & V.V.V.V.V.",
"V.V.V.V.V.V.V.V.V.X 9 b } 3...L N B k g j j j h s 6 & V.V.V.V.V.",
"V.V.V.V.V.V.V.V.V.V.O 7 C ~ O.~ d 8 - $ % @ @ % % $ & V.V.V.V.V.",
"V.V.V.V.V.V.V.V.V.V.V.@ 6 M / S 0 > V.V.V.V.V.V.V.V.V.V.V.V.V.V.",
"V.V.V.V.V.V.V.V.V.V.V.V.+ 9 f d t , V.V.V.V.V.V.V.V.V.V.V.V.V.V.",
"V.V.V.V.V.V.V.V.V.V.V.V.V.o 9 j 4 q V.V.V.V.V.V.V.V.V.V.V.V.V.V.",
"V.V.V.V.V.V.V.V.V.V.V.V.V.V.@ > 3 , V.V.V.V.V.V.V.V.V.V.V.V.V.V.",
"V.V.V.V.V.V.V.V.V.V.V.V.V.V.V.X * > V.V.V.V.V.V.V.V.V.V.V.V.V.V.",
"V.V.V.V.V.V.V.V.V.V.V.V.V.V.V.V.  : V.V.V.V.V.V.V.V.V.V.V.V.V.V.",
"V.V.V.V.V.V.V.V.V.V.V.V.V.V.V.V.V.X V.V.V.V.V.V.V.V.V.V.V.V.V.V.",
"V.V.V.V.V.V.V.V.V.V.V.V.V.V.V.V.V.V.V.V.V.V.V.V.V.V.V.V.V.V.V.V.",
"V.V.V.V.V.V.V.V.V.V.V.V.V.V.V.V.V.V.V.V.V.V.V.V.V.V.V.V.V.V.V.V.",
"V.V.V.V.V.V.V.V.V.V.V.V.V.V.V.V.V.V.V.V.V.V.V.V.V.V.V.V.V.V.V.V.",
"V.V.V.V.V.V.V.V.V.V.V.V.V.V.V.V.V.V.V.V.V.V.V.V.V.V.V.V.V.V.V.V."
};
