/* XPM */
static const char * blocks_xpm[] = {
"32 32 4 1",
" 	c None",
".	c #000000000000",
"X	c #EFEFCACA8C8C",
"o	c #FFFF7A7A0000",
"                                ",
"              ...               ",
"            .. X ..             ",
"          ..X X X X..           ",
"        .. X X X...X ..         ",
"      ..X X X ..X X.. X..       ",
"    .. X X X.. X X X ..X ..     ",
"  ..X X X ..X X X X X X.. X..   ",
".. X X X X.X.. X X X ..o.X X .. ",
".X..X X X .XXX..X X..ooo. X..o. ",
".XXX.. X X.XXXXX...ooooo...ooo. ",
".XXXXX..X .XXXXXX.oooooo.ooooo. ",
".XXXXXXX...XXXXXX.oooooo.ooooo. ",
".XXXXXXX.o.XXXXXX.oooooo.ooooo. ",
".XXXXXXX.o..XXXXX.ooooo..ooooo. ",
".XXXXXXX.ooo..XXX.ooo..ooooooo. ",
".XXXXXXX.ooooo..X.o..X.ooooooo. ",
".XXXXXXX.ooo..X ...XXX.ooooooo. ",
".XXXXXXX.o.. X X X ..X.ooooooo. ",
".XXXXXXX..X X X X X X..ooooooo. ",
".XXXXXXXXX.. X X X ..ooooooooo. ",
".XXXXXXXXXXX..X X..ooooooooooo. ",
".XXXXXXXXXXXXX...ooooooooooooo. ",
"..XXXXXXXXXXXXX.ooooooooooooo.. ",
"  ..XXXXXXXXXXX.ooooooooooo..   ",
"    ..XXXXXXXXX.ooooooooo..     ",
"      ..XXXXXXX.ooooooo..       ",
"        ..XXXXX.ooooo..         ",
"          ..XXX.ooo..           ",
"            ..X.o..             ",
"              ...               ",
"                                "};
