/* XPM */
static const char * bookmark_xpm[] = {
"22 22 106 2",
"  	c None",
". 	c #868686",
"+ 	c #979797",
"@ 	c #949494",
"# 	c #D5D5D5",
"$ 	c #D6D6D6",
"% 	c #DCDCDC",
"& 	c #AAAAAA",
"* 	c #9A9A9A",
"= 	c #919191",
"- 	c #8B8B8B",
"; 	c #858585",
"> 	c #7F7F7F",
", 	c #787878",
"' 	c #717171",
") 	c #6D6D6D",
"! 	c #666666",
"~ 	c #606060",
"{ 	c #585858",
"] 	c #4A4A4A",
"^ 	c #838383",
"/ 	c #D2D2D2",
"( 	c #D1D1D1",
"_ 	c #D3D3D3",
": 	c #ABABAB",
"< 	c #9D9D9D",
"[ 	c #969696",
"} 	c #8F8F8F",
"| 	c #8A8A8A",
"1 	c #7B7B7B",
"2 	c #767676",
"3 	c #707070",
"4 	c #6B6B6B",
"5 	c #646464",
"6 	c #5D5D5D",
"7 	c #525252",
"8 	c #878787",
"9 	c #989898",
"0 	c #FFFFFF",
"a 	c #FEFEFE",
"b 	c #F9F9F9",
"c 	c #F0F0F0",
"d 	c #EFEFEF",
"e 	c #F6F6F6",
"f 	c #FAFAFA",
"g 	c #F4F4F4",
"h 	c #F1F1F1",
"i 	c #EDEDED",
"j 	c #D4D4D4",
"k 	c #F3F3F3",
"l 	c #FCFCFC",
"m 	c #E0E0E0",
"n 	c #D7D7D7",
"o 	c #C6C6C6",
"p 	c #D0D0D0",
"q 	c #C8C8C8",
"r 	c #CECECE",
"s 	c #FBFBFB",
"t 	c #EBEBEB",
"u 	c #DEDEDE",
"v 	c #C3C3C3",
"w 	c #FDFDFD",
"x 	c #C0C0C0",
"y 	c #C9C9C9",
"z 	c #DDDDDD",
"A 	c #F7F7F7",
"B 	c #BABABA",
"C 	c #CDCDCD",
"D 	c #959595",
"E 	c #AEAEAE",
"F 	c #DFDFDF",
"G 	c #E7E7E7",
"H 	c #E2E2E2",
"I 	c #F5F5F5",
"J 	c #E8E8E8",
"K 	c #B9B9B9",
"L 	c #CACACA",
"M 	c #EAEAEA",
"N 	c #E5E5E5",
"O 	c #CCCCCC",
"P 	c #CBCBCB",
"Q 	c #C1C1C1",
"R 	c #BCBCBC",
"S 	c #ECECEC",
"T 	c #B3B3B3",
"U 	c #E9E9E9",
"V 	c #BEBEBE",
"W 	c #BFBFBF",
"X 	c #B7B7B7",
"Y 	c #BDBDBD",
"Z 	c #E1E1E1",
"` 	c #D8D8D8",
" .	c #DADADA",
"..	c #B8B8B8",
"+.	c #B2B2B2",
"@.	c #B6B6B6",
"#.	c #A8A8A8",
"$.	c #909090",
"%.	c #AFAFAF",
"&.	c #ADADAD",
"*.	c #A7A7A7",
"=.	c #A5A5A5",
"-.	c #B4B4B4",
";.	c #DBDBDB",
">.	c #C4C4C4",
",.	c #939393",
". + + + + + + + + + + + + + + + + + + + +   ",
"@ + # $ % & * + = - ; > , ' ) ! ~ { ] ^ +   ",
"= + / ( _ : < * [ } | ^ 1 2 3 4 5 6 7 8 +   ",
"9 + 0 0 a a 0 0 b c d e f g h c i d c b +   ",
"+ + 0 0 0 0 h $ $ $ $ j # k 0 f l m n 0 +   ",
"+ + 0 0 0 # ( k a 0 0 l c o / l f p q a +   ",
"+ + 0 0 p p 0 0 0 0 l 0 0 0 r $ s t g l +   ",
"[ + 0 u v u t s a w f l 0 0 0 v m g t f +   ",
"[ + 0 x y / z d w A k 0 0 A h z B C o 0 +   ",
"D + g E o ( F G H F m c I J % j K L u 0 +   ",
"D + M : v # N H C O n P z / Q R : N s 0 +   ",
"@ + S T / z U J # / r V C W X Y : Z t 0 +   ",
"= + t T H J c l S `  .j W X ..B +.v Q 0 +   ",
"= + g @. .g l a i U k S C @.B #.Q J M 0 +   ",
"$.+ b H : h 0 S  .F S U M / %.&.g b l 0 +   ",
"} + e l # *._ F L n d i t W + + + + + + +   ",
"$.+ s G y @.@ } =.R P -.D 9 + a w 0 0 +     ",
"} + s e J Z ;.>.+.: & +.q ` + A 0 0 +       ",
"} + l w a 0 a 0 0 0 0 0 a w + c 0 +         ",
"} + 0 0 0 0 0 0 0 0 0 0 0 a + J +           ",
",.+ 0 0 0 0 0 0 0 0 0 0 0 0 + +             ",
"  + + + + + + + + + + + + + +               "};
