/* XPM */
static const char * custom_user_xpm[] = {
"24 24 101 2",
"  	c None",
". 	c #000000",
"+ 	c #34953B",
"@ 	c #4D914C",
"# 	c #3BA336",
"$ 	c #44A248",
"% 	c #62A624",
"& 	c #65A66C",
"* 	c #60AD5B",
"= 	c #7EA73B",
"- 	c #AD8E70",
"; 	c #96A442",
"> 	c #75B63E",
", 	c #A3A24A",
"' 	c #96AC3A",
") 	c #6FC33F",
"! 	c #7FB178",
"~ 	c #AAA83A",
"{ 	c #8AAF6C",
"] 	c #85B081",
"^ 	c #61D149",
"/ 	c #77C06C",
"( 	c #7DC452",
"_ 	c #C5AA48",
": 	c #7ED063",
"< 	c #9EC451",
"[ 	c #D1A765",
"} 	c #93C578",
"| 	c #F2A626",
"1 	c #90C78A",
"2 	c #94CE64",
"3 	c #9CC291",
"4 	c #86D572",
"5 	c #E9B227",
"6 	c #9CCD6C",
"7 	c #CBB186",
"8 	c #E3AC60",
"9 	c #DAB25A",
"0 	c #CFB955",
"a 	c #E3B340",
"b 	c #81DE67",
"c 	c #E5B14B",
"d 	c #F3AE3B",
"e 	c #ECB23A",
"f 	c #EEB71F",
"g 	c #82DC80",
"h 	c #C8C453",
"i 	c #F4B722",
"j 	c #B9C38B",
"k 	c #B7CB69",
"l 	c #F8B52E",
"m 	c #F4B24D",
"n 	c #AAC7A8",
"o 	c #DCC04E",
"p 	c #F1B747",
"q 	c #DAC264",
"r 	c #F9C01F",
"s 	c #E6C444",
"t 	c #E7BE65",
"u 	c #CDBEB9",
"v 	c #F5C626",
"w 	c #9CE192",
"x 	c #B9CEAD",
"y 	c #FAC338",
"z 	c #E7CB49",
"A 	c #E2C483",
"B 	c #FACC1A",
"C 	c #FDCF07",
"D 	c #EDC75F",
"E 	c #FBD713",
"F 	c #DBCE9E",
"G 	c #F5D535",
"H 	c #DBD193",
"I 	c #FBDE00",
"J 	c #E6CF8B",
"K 	c #E9D66F",
"L 	c #E6E52A",
"M 	c #C2DCBD",
"N 	c #A3F2A4",
"O 	c #FAE308",
"P 	c #EFD863",
"Q 	c #E5D891",
"R 	c #FADF35",
"S 	c #F9E32C",
"T 	c #E5DD87",
"U 	c #FFE325",
"V 	c #ABFA97",
"W 	c #F9ED0A",
"X 	c #B8F4A2",
"Y 	c #EFDF7D",
"Z 	c #E7DCB2",
"` 	c #F5EC40",
" .	c #E7DBC5",
"..	c #FBE762",
"+.	c #E9DFBE",
"@.	c #FAEB54",
"#.	c #FAF626",
"$.	c #F9ED80",
"%.	c #FAF378",
"&.	c #F1EDDD",
"*.	c #FDFB77",
"            . . . . . . . . . . . .             ",
"            . . . . . . . . . . . .             ",
"            . . . . . . . . . . . .             ",
"            . . . . . . . . . . . .             ",
"    . . . . . . . . . . . . . . . . . . . .     ",
"          H P @.S S W W W O R U R ..0           ",
"        +.q ` R R E I O O I E U C G P F         ",
"        +.. G E . . . E E . . . R R . J         ",
"        +.D . . . . . . . . . . . . s A         ",
"        +.t y v . . . B v . . . B v e A         ",
"         .[ p l i i f f f 5 f i f 5 D 7         ",
"          7 c d l 5 5 f f l l l d c 8 u         ",
"          F q c 5 5 e 5 l | | | m 8 -           ",
"          j , _ p d d d d | e a q , x           ",
"        n { k ~ _ a m m c c o h ' 6 } 1         ",
"      n 1 X . < ' ~ _ 9 9 _ ~ ' > . V w 1       ",
"    n & N . . . ) % = ; ; ; = > . . . 4 w !     ",
"    ] g . . . . . ^ : 2 6 6 ( . . . . . 2 / M   ",
"  ] / . . . . . . . ^ b 4 : . . . . . . . 4 &   ",
"  * . . . . . . . . . ^ b . . . . . . . . . * M ",
"  $ . . . . . . . . . . . . . . . . . . . . # 3 ",
"  $ . . . . . . . . . . . . . . . . . . . . # ] ",
"  + . . . . . . . . . . . . . . . . . . . . # ! ",
"  & @ . . . . . . . . . . . . . . . . . . + @ M "};
