/* XPM */
static const char * deselectall_xpm[] = {
"24 24 43 1",
" 	c None",
".	c #FF0000",
"+	c #CD0000",
"@	c #FD0000",
"#	c #A90000",
"$	c #000000",
"%	c #E80000",
"&	c #D40000",
"*	c #E70000",
"=	c #B30000",
"-	c #EB0000",
";	c #A10000",
">	c #EA0000",
",	c #DE0000",
"'	c #B00000",
")	c #F20000",
"!	c #D00000",
"~	c #D30000",
"{	c #BA0000",
"]	c #EE0000",
"^	c #8C0000",
"/	c #B80000",
"(	c #E40000",
"_	c #740000",
":	c #FC0000",
"<	c #CF0000",
"[	c #F60000",
"}	c #C50000",
"|	c #640000",
"1	c #F00000",
"2	c #8E0000",
"3	c #A00000",
"4	c #DC0000",
"5	c #F40000",
"6	c #E60000",
"7	c #BD0000",
"8	c #ED0000",
"9	c #E00000",
"0	c #F90000",
"a	c #D70000",
"b	c #E30000",
"c	c #C90000",
"d	c #D80000",
"                        ",
"     .             +    ",
"      @#$$$$$$$$$ %&    ",
"       *=$$$$$$$$-;     ",
"       $>,$$$$$')!      ",
"       $$~,$$${]$       ",
"       $$$^,$/($$       ",
"       $$$$_:&$$$       ",
"       $$$$*<[}$$       ",
"       $$|12$$31$       ",
"       $45$$$$$.6       ",
"       78$$$$$$$90      ",
"      ab         ..     ",
"     cd                 ",
"                        ",
"     $     $     $      ",
"    $$$    $     $      ",
"    $ $    $     $      ",
"    $ $    $     $      ",
"   $   $   $     $      ",
"   $$$$$   $     $      ",
"   $   $   $     $      ",
"  $     $  $$$$$ $$$$$  ",
"                        "};
