/* XPM */
static const char * directory_xpm[] = {
"22 22 183 2",
"  	c None",
". 	c #7A7A7A",
"+ 	c #636363",
"@ 	c #9C9C9C",
"# 	c #C1C1C1",
"$ 	c #797979",
"% 	c #696969",
"& 	c #5E5E5E",
"* 	c #9D9D9D",
"= 	c #C2C2C2",
"- 	c #B9B9B9",
"; 	c #969696",
"> 	c #787878",
", 	c #434343",
"' 	c #989898",
") 	c #BFBFBF",
"! 	c #C4C4C4",
"~ 	c #A8A8A8",
"{ 	c #A0A0A0",
"] 	c #9E9E9E",
"^ 	c #878787",
"/ 	c #565656",
"( 	c #373737",
"_ 	c #B7B7B7",
": 	c #A9A9A9",
"< 	c #999999",
"[ 	c #BEBEBE",
"} 	c #CECECE",
"| 	c #B5B5B5",
"1 	c #A7A7A7",
"2 	c #ACACAC",
"3 	c #868686",
"4 	c #838383",
"5 	c #616161",
"6 	c #2F2F2F",
"7 	c #3B3B3B",
"8 	c #BBBBBB",
"9 	c #E2E2E2",
"0 	c #E5E5E5",
"a 	c #DDDDDD",
"b 	c #BDBDBD",
"c 	c #D4D4D4",
"d 	c #AEAEAE",
"e 	c #B6B6B6",
"f 	c #B2B2B2",
"g 	c #8E8E8E",
"h 	c #858585",
"i 	c #6A6A6A",
"j 	c #2C2C2C",
"k 	c #EEEEEE",
"l 	c #E3E3E3",
"m 	c #DEDEDE",
"n 	c #DBDBDB",
"o 	c #D9D9D9",
"p 	c #D7D7D7",
"q 	c #C5C5C5",
"r 	c #A5A5A5",
"s 	c #9A9A9A",
"t 	c #8D8D8D",
"u 	c #828282",
"v 	c #5F5F5F",
"w 	c #313131",
"x 	c #222222",
"y 	c #EBEBEB",
"z 	c #D8D8D8",
"A 	c #D3D3D3",
"B 	c #B8B8B8",
"C 	c #B1B1B1",
"D 	c #8C8C8C",
"E 	c #727272",
"F 	c #535353",
"G 	c #232323",
"H 	c #C9C9C9",
"I 	c #EAEAEA",
"J 	c #C8C8C8",
"K 	c #D0D0D0",
"L 	c #BCBCBC",
"M 	c #B0B0B0",
"N 	c #A3A3A3",
"O 	c #979797",
"P 	c #8A8A8A",
"Q 	c #515151",
"R 	c #444444",
"S 	c #282828",
"T 	c #909090",
"U 	c #E7E7E7",
"V 	c #E6E6E6",
"W 	c #DFDFDF",
"X 	c #DADADA",
"Y 	c #BABABA",
"Z 	c #A2A2A2",
"` 	c #939393",
" .	c #7F7F7F",
"..	c #686868",
"+.	c #5B5B5B",
"@.	c #50504F",
"#.	c #4E4E4F",
"$.	c #686870",
"%.	c #4C4C50",
"&.	c #CCCCCC",
"*.	c #E8E8E8",
"=.	c #C6C6C6",
"-.	c #898989",
";.	c #757575",
">.	c #666666",
",.	c #67676B",
"'.	c #9696A3",
").	c #B4B4C7",
"!.	c #6C6C77",
"~.	c #ADADAD",
"{.	c #C3C3C3",
"].	c #E9E9E9",
"^.	c #D1D1D1",
"/.	c #6C6C6C",
"(.	c #8C8C92",
"_.	c #B5B5C4",
":.	c #BDBDCF",
"<.	c #B8B8CC",
"[.	c #898999",
"}.	c #F0F0F0",
"|.	c #DCDCDC",
"1.	c #CFCFCF",
"2.	c #B3B3B3",
"3.	c #A4A4A4",
"4.	c #949494",
"5.	c #89898B",
"6.	c #B2B2BA",
"7.	c #C9C9D6",
"8.	c #C6C6D5",
"9.	c #BBBBCD",
"0.	c #8C8C9D",
"a.	c #3E3E46",
"b.	c #AFAFAF",
"c.	c #EFEFEF",
"d.	c #CDCDCD",
"e.	c #A1A1A1",
"f.	c #AEAEB2",
"g.	c #CFCFD8",
"h.	c #D5D5E0",
"i.	c #CFCFDC",
"j.	c #686874",
"k.	c #2B2B2E",
"l.	c #E4E4E4",
"m.	c #CACACA",
"n.	c #B3B3B4",
"o.	c #D0D0D5",
"p.	c #E1E1E9",
"q.	c #DEDEE7",
"r.	c #D3D3DE",
"s.	c #9D9DAA",
"t.	c #414147",
"u.	c #B4B4B4",
"v.	c #C7C7C7",
"w.	c #E0E0E0",
"x.	c #D6D6D6",
"y.	c #C1C1C0",
"z.	c #D2D2D2",
"A.	c #E9E9ED",
"B.	c #ECECF1",
"C.	c #E6E6ED",
"D.	c #CBCBD5",
"E.	c #73737C",
"F.	c #2C2C2E",
"G.	c #EDEDED",
"H.	c #F9F9FA",
"I.	c #F5F5F8",
"J.	c #EAEAF0",
"K.	c #AFAFB7",
"L.	c #4A4A4F",
"M.	c #FAFAFA",
"N.	c #FFFFFF",
"O.	c #FEFEFE",
"P.	c #E2E2E6",
"Q.	c #838388",
"R.	c #383839",
"S.	c #FBFBFC",
"T.	c #C4C4C7",
"U.	c #565658",
"V.	c #ECECED",
"W.	c #909092",
"X.	c #848484",
"Y.	c #C0C0C1",
"Z.	c #5D5D5E",
"                              . +           ",
"                            @ # $ % &       ",
"                        * = - * ; > ,       ",
"                    ' ) ! ~ { ] ^ / (       ",
"      ' _ :     < [ } | 1 2 @ 3 4 5 6 7     ",
"    8 9 0 a ! b c = d e f * g h h i j 6     ",
"  8 k l m n o p ) 8 q e r s t h u v w x     ",
"  [ y 9 m n z A B A [ C r ' D h E F 7 G     ",
"  H I 9 m n o J [ K L M N O P $ v Q R S     ",
"T U V 9 W X ! Y c H 8 d Z `  ...+.@.#.$.%.  ",
"  &.*.9 c ) &.W c =.- 2 * -.;.>.+.,.'.).!.  ",
"  ~.I p {.l ].m ^.! _ 1 ; h E /.(._.:.<.[.  ",
"    z ^.z }.V |.1.= 2.3.4.u 5.6.7.8.9.0.a.  ",
"    b.n } c.0 n d.) C e.' f.g.h.i._.j.k.    ",
"    Z p ! y l.o m.b b.n.o.p.q.r.s.t.        ",
"      u.v.w.l.x.J y.z.A.B.C.D.E.F.          ",
"      { = 1.l c x.G.H.I.J.K.L.              ",
"        s = l I M.N.O.P.Q.R.                ",
"          e.U N.N.S.T.U.                    ",
"          . {.N.V.W.                        ",
"            X.Y.Z.                          ",
"                                            "};
