/* XPM */
static const char * dnmi_xpm[] = {
"69 70 49 1",
" 	c None",
".	c #FFFFFF",
"+	c #D6D6D6",
"@	c #CBCBCB",
"#	c #CFCFCF",
"$	c #DDDDDD",
"%	c #E7E7E7",
"&	c #F1F1F1",
"*	c #FCFCFC",
"=	c #CFD9E7",
"-	c #BFCDDF",
";	c #CADDC8",
">	c #D7E6D6",
",	c #EAEAEA",
"'	c #D2D2D2",
")	c #F8F8F8",
"!	c #EFF2F7",
"~	c #AFC0D7",
"{	c #809BBF",
"]	c #40689E",
"^	c #204F8E",
"/	c #00367E",
"(	c #2C7723",
"_	c #6EA268",
":	c #BDD5BA",
"<	c #F2F7F1",
"[	c #D9D9D9",
"}	c #E4E4E4",
"|	c #6081AE",
"1	c #46883F",
"2	c #B0CCAD",
"3	c #88B383",
"4	c #54914C",
"5	c #A3C49F",
"6	c #E5EEE4",
"7	c #DFE6EF",
"8	c #8FA7C7",
"9	c #104386",
"0	c #61995A",
"a	c #9FB4CF",
"b	c #7BAA76",
"c	c #708EB6",
"d	c #5075A6",
"e	c #398031",
"f	c #305C96",
"g	c #F5F5F5",
"h	c #96BB91",
"i	c #EEEEEE",
"j	c #E0E0E0",
"                             ....++++@..                             ",
"                         .#$%&*..=-;>..*&,$'                         ",
"                      .+%)!~{]^////(((_:.<;<),[                      ",
"                   .@}).=|/////////(((((12<3456)}#                   ",
"                  @}*----7..-8|9///(((((((0>>1(02.,                  ",
"                .}*a^//////^]{-.-|/(((((((((5<0((12.}                ",
"              .+)-]////////////9|=7b(((((((((b.b(((1;)+              ",
"             .}!c/////////////////d6;e((((((((4<_((((3<%             ",
"            @&=f///////////////////e2<4((((((((b<4((((1<g            ",
"           'ga9////////////////////((3<e((((((((h>(((((0.*           ",
"          '*a//////////////////////(((2;(((((((((>3(((((5.*          ",
"         '*|///////9|{----{f///////((((6b((((((((0<(((((e<2*         ",
"        #*{//////f~.~{d]]|877]/////((((_6(((((((((>b(((((h;b*        ",
"       @)a//////{.{9////////|!|////(((((64((((((((b:(((((e<1hg       ",
"       ,7//////a7f////////9]]c.]///(((((5h((((((((1.((((((25(:       ",
"      $.|/////d!^////9|a=........=a31(((_;(((((((((60(((((46(e6      ",
"     #*.9/////=|///]~................>3e0;(((((((((;0((((((<4(4.     ",
"     i!~/////^.//^~.....................2.(((((((((5h((((((23((h     ",
"    +!8{/////]-/c!.......=7.8{{~=.........2e(((((((hh((((((32((e6    ",
"    &c-]/////9.9^a......|/-8//////]56......<3((((((hh((((((0;(((b    ",
"   +7/-]//////-{//]-.....87////////(e:.......;1((((;_((((((1<((((6   ",
"   &c/-]//////f.f///c.....a////////46;01;.....<_(((>0(((((((.((((b   ",
"  #!9/~d///////|!c///f!....f//////|.3((((06.....h((.((((((((.(((((6  ",
"  %a//c8////////]7=c]9]....=/////|!0((((((e5.....20>((((((((.(((((h  ",
"  *f//^!9/////////|a-..-....|///].f(((((((((_<....<5(((((((e.(((((1  ",
" './///-{///////////////{...7//^!|/((((((((((1>....:(((((((0;((((((> ",
" }=////^!d///////////////7...f/=8//((((((((((45.....2((((((b:((((((h ",
" &-/////|!|//////////////c...8c=///(((((((eh665_2....h(((((2h((((((0 ",
" .7//////d!{9////////////^...7!]///(((((eh<;0((((;....b((((60((((((( ",
"'!.///////f-7|////////////7...a////((((_6;0((((((e>....b((1<((((((((>",
"+-7f////////|77{^/////////-...^////((e:<_(((((((((e>....b(52((((((((;",
"}8ac//////////]a!78d^/////-.../////(_<:e(((((((((((4<....b60((((((((>",
"}{d7/////////////]{-!!-a{{7.../////5<_((((((((((((((4<....>(((((((((.",
"}{/-|////////////////^]|{{7...///9->4((((((((((((((((4<....b(((((((4.",
"i|/]!9////////////////////7...//^=~e((((((((((((((1b2;......b((((((b<",
"&]//~~///////////////////9...=/f!a/((((((((((((13>.:h0e4<....h(((((::",
"i|//9=a//////////////////d...af!|//((((((((((_;.2_((((((4<....2(((1._",
"}{///f!a/////////////////8...=!|///((((((((b663e(((((((((4<....>e(h20",
"}{////9=-^///////////////7....|////((((((_66b(((((((((((((e>....<b.1h",
"}a/////98!{9////////////f....|/////((((1;<b((((((((((((((((e:.....;eh",
"+-///////f-!8^//////////a...8//////(((h.he(((((((((((((((((((h.....<6",
" !/////////fa!=8d9/////9!...f//////(4>>4(((((((((((((((((((_2<6<.... ",
" *^///////////d8-.!-~{{~...-///////3.h((((((((((((((((((42<>31(e2... ",
" &|///////////////^]|{{....|/////9~64((((((((((((((((e36<54((((((0;. ",
" }a///////////////////{...7/////f=~e(((((((((((((((12<;b(((((((((((5 ",
"  .^/////////////////9!...|////]!8/((((((((((((((0;<21(((((((((((((  ",
"  )~/////////////////8...7////c!|//((((((((((((0;<he((((((((((((((1  ",
"  %.d///////////////f....]//9a7f///((((((((((0;<he((((((((((((((((5  ",
"   .!f//////////////=...-//f=-9////((((((((12<he((((((((((((((((((   ",
"   &7!f////////////c....^/c!{//////(((((((h<2e(((((((((((((((((((b   ",
"    !c!d//////////f!...{9~7]///////(((((06;4(((((((((((((((((((((    ",
"    &{d!~^////////=...=d!~9////////(((e5<3((((((((((((((((((((((b    ",
"     !99a.af/////8....!7d//////////((4>;1((((((((((((((((((((((e     ",
"     ,~//^a!78dfd....!{9///////////(b.h((((((((((((((((((((((((5     ",
"      *d////]{-7....-9/////////////2<4((((((((((((((((((((((((0      ",
"       !^/////9=...!9////////////9=>e((((((((((((((((((((((((e       ",
"       %=/////-....]////////////9=a((((((((((((((((((((((((((;       ",
"        ga///a....c////////////f!a/(((((((((((((((((((((((((2        ",
"         ga/c....a////////////9!a//((((((((((((((((((((((((b         ",
"          *-....=////////////9=a///(((((((((((((((((((((((b          ",
"           )...=9////////////=a////((((((((((((((((((((((5           ",
"            g.!^////////////a=/////((((((((((((((((((((e2            ",
"             i7f///////////|!9/////(((((((((((((((((((4>             ",
"              j.{/////////^!]//////((((((((((((((((((3<              ",
"                g7]///////-8///////((((((((((((((((0>                ",
"                  *-]////d79///////((((((((((((((12                  ",
"                   }*-|//7|////////((((((((((((_;*                   ",
"                      g!-!/////////(((((((((056                      ",
"                         g.-{d]////((((0_h;.                         ",
"                             &g........g                             "};
