/* XPM */
static const char * down12x12_xpm[] = {
"12 12 2 1",
" 	c None",
"+	c #0000FF",
"            ",
"     ++     ",
"     ++     ",
"     ++     ",
"     ++     ",
"     ++     ",
" ++++++++++ ",
"  ++++++++  ",
"   ++++++   ",
"    ++++    ",
"     ++     ",
"            "};
