/* XPM */
static const char * drawing_xpm[] = {
"26 26 10 1",
" 	c None",
".	c #FFFF00",
"+	c #0000FF",
"@	c #B2B24D",
"#	c #F3F30C",
"$	c #1919E6",
"%	c #7F7F80",
"&	c #3131CE",
"*	c #0909F6",
"=	c #FF0000",
"                          ",
"                          ",
"  ..........  +++++++     ",
"  .........@+++++++++++   ",
"  ........#$+++++++++++   ",
"  ........%+++++++++++++  ",
"  ........&+++++++++++++  ",
"  ........*+++++++++++++  ",
"  ........*+++++++++++++  ",
"  ........&+++++++++++++  ",
"  ........%+++++++++++++  ",
"  ........#$+++++++++++   ",
"  .........@+++++++++++   ",
"  ..........  +++++++     ",
"  ..........              ",
"  ..........          ==  ",
"  ..........        ====  ",
"  ..........      ======  ",
"  ..........   =========  ",
"             ===========  ",
"           =============  ",
"         ===============  ",
"       =================  ",
"     ===================  ",
"                          ",
"                          "};
