/* XPM */
static const char * duplicate_to_editable_xpm[] = {
"23 24 10 1",
" 	c None",
".	c #525252",
"+	c #FEFEFE",
"@	c #FCFCFC",
"#	c #FDFDFD",
"$	c #FFFFFF",
"%	c #E5E5E5",
"&	c #FAF9F9",
"*	c #F9F9F9",
"=	c #000000",
"                       ",
" ..........            ",
" .+++++++.+.           ",
" .+++++++.++.          ",
" .+++++++.+++.         ",
" .@#+++..........      ",
" .@$+++.%%%%%%%.%.     ",
" .@$+++.%%%%%%%.%%.    ",
" .@$+$+.%%%%%%%.%%%.   ",
" .@++$+.%%%%%%%.%%%%.  ",
" .@+$$+.%%%%%%%....... ",
" .&+@$+.%%%%%%%%%%%%%. ",
" .+++*+.%%%=======%%%. ",
" .+++++.%%%==%%%%%%%%. ",
" .+++++.%%%==%%%%%%%%. ",
" .+++++.%%%==%%%%%%%%. ",
" .+++++.%%%=======%%%. ",
" .+++++.%%%==%%%%%%%%. ",
" .......%%%==%%%%%%%%. ",
"       .%%%==%%%%%%%%. ",
"       .%%%=======%%%. ",
"       .%%%%%%%%%%%%%. ",
"       .%%%%%%%%%%%%%. ",
"       ............... "};
