/* XPM */
static const char * edit_xpm[] = {
"24 24 212 2",
"  	c None",
". 	c #E9D1D0",
"+ 	c #F2EBEB",
"@ 	c #CC797B",
"# 	c #A80C0E",
"$ 	c #C14F4F",
"% 	c #EAC6C7",
"& 	c #D9AEAF",
"* 	c #99080C",
"= 	c #9A110F",
"- 	c #A10D0D",
"; 	c #AE2728",
"> 	c #D58789",
", 	c #BEB7B5",
"' 	c #A14749",
") 	c #91090A",
"! 	c #9A120F",
"~ 	c #A01211",
"{ 	c #A51516",
"] 	c #C3494C",
"^ 	c #F0E4E2",
"/ 	c #EDD4A6",
"( 	c #D9CBB3",
"_ 	c #D0D4D2",
": 	c #B47273",
"< 	c #931A19",
"[ 	c #980F0F",
"} 	c #9D1115",
"| 	c #A10F0F",
"1 	c #AE1517",
"2 	c #ECDEDB",
"3 	c #F9E5BE",
"4 	c #F3C768",
"5 	c #EEBE4B",
"6 	c #E2C77C",
"7 	c #E6EADA",
"8 	c #D0B1B4",
"9 	c #A9403F",
"0 	c #930B0C",
"a 	c #991012",
"b 	c #990604",
"c 	c #E1BFBE",
"d 	c #F9F4E2",
"e 	c #F3CC7C",
"f 	c #EFBE52",
"g 	c #E8B62F",
"h 	c #E5B01E",
"i 	c #E4B73B",
"j 	c #E3D7B1",
"k 	c #DBD7DB",
"l 	c #B97C7F",
"m 	c #8E0807",
"n 	c #B66264",
"o 	c #F4D497",
"p 	c #F0BF54",
"q 	c #E9B634",
"r 	c #EAB42C",
"s 	c #E6AD19",
"t 	c #E0AA08",
"u 	c #ECB22D",
"v 	c #DBC075",
"w 	c #CECECD",
"x 	c #C9ADAF",
"y 	c #F7E5C0",
"z 	c #F1BF58",
"A 	c #E9B83C",
"B 	c #E7B42F",
"C 	c #E9B32B",
"D 	c #E2AC0E",
"E 	c #E7AE1D",
"F 	c #EBB634",
"G 	c #E9AF1E",
"H 	c #D7AF40",
"I 	c #E6E3D7",
"J 	c #FAF0DA",
"K 	c #F0C360",
"L 	c #EDB942",
"M 	c #E8B52D",
"N 	c #EBB83B",
"O 	c #E6AF1E",
"P 	c #E3AD12",
"Q 	c #EBB736",
"R 	c #E9B42F",
"S 	c #E5AE19",
"T 	c #E9C962",
"U 	c #F1CD7D",
"V 	c #EEBC48",
"W 	c #E8B42D",
"X 	c #EDB840",
"Y 	c #E8B633",
"Z 	c #E4AD12",
"` 	c #E9B42E",
" .	c #E8B224",
"..	c #E2B42B",
"+.	c #F8F5E5",
"@.	c #F4D99E",
"#.	c #EFBD52",
"$.	c #EBB637",
"%.	c #ECBC47",
"&.	c #E4B120",
"*.	c #EEBB44",
"=.	c #EAB531",
"-.	c #E6AA12",
";.	c #F3ECC7",
">.	c #F7EBCC",
",.	c #EFC15B",
"'.	c #EBB535",
").	c #E4B222",
"!.	c #F1C15C",
"~.	c #EBB839",
"{.	c #E5AE1F",
"].	c #F1BE4A",
"^.	c #EAB93F",
"/.	c #E6B01B",
"(.	c #EED586",
"_.	c #FBF7EA",
":.	c #EFC96D",
"<.	c #EBB737",
"[.	c #E3B11F",
"}.	c #F0C25E",
"|.	c #EFBE4F",
"1.	c #EAB32E",
"2.	c #EDBD46",
"3.	c #F0BC4C",
"4.	c #EBB42E",
"5.	c #E9C357",
"6.	c #F4E4C9",
"7.	c #ECBE59",
"8.	c #E5AE1C",
"9.	c #F2BF51",
"0.	c #F0C468",
"a.	c #ECB93E",
"b.	c #EDBA44",
"c.	c #EFC054",
"d.	c #EBB93F",
"e.	c #E9B93E",
"f.	c #F6ECCB",
"g.	c #EFDAB7",
"h.	c #EDCD91",
"i.	c #EFCB83",
"j.	c #F5C771",
"k.	c #ECB947",
"l.	c #F1C15B",
"m.	c #EEBE4D",
"n.	c #E8B839",
"o.	c #EFD794",
"p.	c #EFD6A7",
"q.	c #EED19C",
"r.	c #EED6A8",
"s.	c #F1D9A7",
"t.	c #EFC362",
"u.	c #F0C158",
"v.	c #EEB944",
"w.	c #E8C458",
"x.	c #EED3A1",
"y.	c #EFD3A5",
"z.	c #F0D8AC",
"A.	c #F2DDB3",
"B.	c #F4E2B9",
"C.	c #F3D695",
"D.	c #EDC056",
"E.	c #E9BD45",
"F.	c #F9F4E5",
"G.	c #E4CE9D",
"H.	c #FDE3B3",
"I.	c #F2DBB2",
"J.	c #F3DFB8",
"K.	c #F3E4C0",
"L.	c #F4E7C6",
"M.	c #F1E0AC",
"N.	c #F6EAC5",
"O.	c #E1E1DF",
"P.	c #171411",
"Q.	c #7B715B",
"R.	c #F0DEB7",
"S.	c #F1E3BA",
"T.	c #F3E5C5",
"U.	c #F7F0DC",
"V.	c #C4C4C4",
"W.	c #101010",
"X.	c #0B0A0D",
"Y.	c #6A6356",
"Z.	c #EFE4CD",
"`.	c #A6A6A6",
" +	c #222222",
".+	c #565757",
"++	c #A9AAAA",
"@+	c #ADADAD",
"#+	c #A1A1A1",
"$+	c #D4D4D4",
"%+	c #E2E2E2",
"&+	c #DCDCDC",
"*+	c #DBDBDB",
"=+	c #D7D8D7",
"-+	c #D5D5D5",
";+	c #DADADA",
">+	c #DDDDDD",
",+	c #E1E1E1",
"'+	c #E4E4E4",
")+	c #EAEAEA",
"!+	c #ECECEC",
"~+	c #C3C3C3",
"{+	c #BDBDBD",
"]+	c #B9B9B9",
"^+	c #B3B3B3",
"/+	c #B4B4B4",
"(+	c #B1B1B1",
"_+	c #AFAFAF",
":+	c #B0B0B0",
"<+	c #B5B5B5",
"[+	c #BEBEBE",
"}+	c #C6C6C6",
"                            . +                 ",
"                          @ # $ %               ",
"                        & * = - ; >             ",
"                        , ' ) ! ~ { ] ^         ",
"                      / ( _ : < [ } | 1 2       ",
"                    3 4 5 6 7 8 9 0 a b c       ",
"                  d e f g h i j k l m n         ",
"                  o p q r s t u v w x           ",
"                y z A B C D E F G H I           ",
"              J K L M N O P Q R S T             ",
"              U V W X Y Z ` N  ...+.            ",
"            @.#.r $.%. .&.*.=.-.;.              ",
"          >.,.'.).!.~.{.].^./.(.                ",
"        _.:.<.[.}.|.1.2.3.4.5.                  ",
"        6.7.8.9.0.a.b.c.d.e.f.                  ",
"        g.h.i.j.9.k.l.m.n.o.                    ",
"        p.q.r.s.t.u.u.v.w.                      ",
"        x.y.z.A.B.C.D.E.F.                      ",
"        G.H.I.J.K.L.M.N.                        ",
"      O.P.Q.R.S.T.U.                            ",
"      V.W.X.Y.Z.                                ",
"      `. +.+++                                  ",
"      @+#+$+%+&+*+=+$+-+-+-+;+*+*+>+,+'+)+      ",
"    !+~+{+]+^+/+(+_+_+:+:+_+_+^+^+<+]+[+}+$+    "};
