/* XPM */
static const char * edit_open_value_xpm[]={
"22 22 5 1",
"# c #808080",
"a c #000000",
"b c #ffffff",
"c c #c0c0c0",
". c #00ff00",
"......................",
"......................",
"......................",
"......................",
"...........#aaa#......",
"..........#abbbb#.....",
"..........#baaaab##...",
"..........aba###aba...",
".........#abacc#aba...",
".........#abacc#aba...",
"...aaaaaaaaaaa........",
"...accccccccca#.......",
"...ac#######ca#.......",
"...acbbbbbbbca#.......",
"...ac#######ca#.......",
"...accccccccca#.......",
"...aaaaaaaaaaa#.......",
"....###########.......",
"......................",
"......................",
"......................",
"......................"};

