/* XPM */
static const char * editcut_xpm[] = {
"21 19 3 1",
" 	c None",
".	c #000000000000",
"X	c #000000007B7B",
"                     ",
"                     ",
"        .   .        ",
"        .   .        ",
"        .   .        ",
"        .. ..        ",
"         . .         ",
"         ...         ",
"          .          ",
"         X.X         ",
"         X XXX       ",
"       XXX X  X      ",
"      X  X X  X      ",
"      X  X X  X      ",
"      X  X  XX       ",
"       XX            ",
"                     ",
"                     ",
"                     "};
