/* XPM */
static const char *editmode_xpm[] = {
/* columns rows colors chars-per-pixel */
"25 24 256 2",
"   c Gray0",
".  c #848484",
"X  c #c6c6c6",
"o  c Yellow",
"O  c Gray100",
"+  c Gray100",
"@  c Gray100",
"#  c Gray100",
"$  c Gray100",
"%  c Gray100",
"&  c Gray100",
"*  c Gray100",
"=  c Gray100",
"-  c Gray100",
";  c Gray100",
":  c Gray100",
">  c Gray100",
",  c Gray100",
"<  c Gray100",
"1  c Gray100",
"2  c Gray100",
"3  c Gray100",
"4  c Gray100",
"5  c Gray100",
"6  c Gray100",
"7  c Gray100",
"8  c Gray100",
"9  c Gray100",
"0  c Gray100",
"q  c Gray100",
"w  c Gray100",
"e  c Gray100",
"r  c Gray100",
"t  c Gray100",
"y  c Gray100",
"u  c Gray100",
"i  c Gray100",
"p  c Gray100",
"a  c Gray100",
"s  c Gray100",
"d  c Gray100",
"f  c Gray100",
"g  c Gray100",
"h  c Gray100",
"j  c Gray100",
"k  c Gray100",
"l  c Gray100",
"z  c Gray100",
"x  c Gray100",
"c  c Gray100",
"v  c Gray100",
"b  c Gray100",
"n  c Gray100",
"m  c Gray100",
"M  c Gray100",
"N  c Gray100",
"B  c Gray100",
"V  c Gray100",
"C  c Gray100",
"Z  c Gray100",
"A  c Gray100",
"S  c Gray100",
"D  c Gray100",
"F  c Gray100",
"G  c Gray100",
"H  c Gray100",
"J  c Gray100",
"K  c Gray100",
"L  c Gray100",
"P  c Gray100",
"I  c Gray100",
"U  c Gray100",
"Y  c Gray100",
"T  c Gray100",
"R  c Gray100",
"E  c Gray100",
"W  c Gray100",
"Q  c Gray100",
"!  c Gray100",
"~  c Gray100",
"^  c Gray100",
"/  c Gray100",
"(  c Gray100",
")  c Gray100",
"_  c Gray100",
"`  c Gray100",
"'  c Gray100",
"]  c Gray100",
"[  c Gray100",
"{  c Gray100",
"}  c Gray100",
"|  c Gray100",
" . c Gray100",
".. c Gray100",
"X. c Gray100",
"o. c Gray100",
"O. c Gray100",
"+. c Gray100",
"@. c Gray100",
"#. c Gray100",
"$. c Gray100",
"%. c Gray100",
"&. c Gray100",
"*. c Gray100",
"=. c Gray100",
"-. c Gray100",
";. c Gray100",
":. c Gray100",
">. c Gray100",
",. c Gray100",
"<. c Gray100",
"1. c Gray100",
"2. c Gray100",
"3. c Gray100",
"4. c Gray100",
"5. c Gray100",
"6. c Gray100",
"7. c Gray100",
"8. c Gray100",
"9. c Gray100",
"0. c Gray100",
"q. c Gray100",
"w. c Gray100",
"e. c Gray100",
"r. c Gray100",
"t. c Gray100",
"y. c Gray100",
"u. c Gray100",
"i. c Gray100",
"p. c Gray100",
"a. c Gray100",
"s. c Gray100",
"d. c Gray100",
"f. c Gray100",
"g. c Gray100",
"h. c Gray100",
"j. c Gray100",
"k. c Gray100",
"l. c Gray100",
"z. c Gray100",
"x. c Gray100",
"c. c Gray100",
"v. c Gray100",
"b. c Gray100",
"n. c Gray100",
"m. c Gray100",
"M. c Gray100",
"N. c Gray100",
"B. c Gray100",
"V. c Gray100",
"C. c Gray100",
"Z. c Gray100",
"A. c Gray100",
"S. c Gray100",
"D. c Gray100",
"F. c Gray100",
"G. c Gray100",
"H. c Gray100",
"J. c Gray100",
"K. c Gray100",
"L. c Gray100",
"P. c Gray100",
"I. c Gray100",
"U. c Gray100",
"Y. c Gray100",
"T. c Gray100",
"R. c Gray100",
"E. c Gray100",
"W. c Gray100",
"Q. c Gray100",
"!. c Gray100",
"~. c Gray100",
"^. c Gray100",
"/. c Gray100",
"(. c Gray100",
"). c Gray100",
"_. c Gray100",
"`. c Gray100",
"'. c Gray100",
"]. c Gray100",
"[. c Gray100",
"{. c Gray100",
"}. c Gray100",
"|. c Gray100",
" X c Gray100",
".X c Gray100",
"XX c Gray100",
"oX c Gray100",
"OX c Gray100",
"+X c Gray100",
"@X c Gray100",
"#X c Gray100",
"$X c Gray100",
"%X c Gray100",
"&X c Gray100",
"*X c Gray100",
"=X c Gray100",
"-X c Gray100",
";X c Gray100",
":X c Gray100",
">X c Gray100",
",X c Gray100",
"<X c Gray100",
"1X c Gray100",
"2X c Gray100",
"3X c Gray100",
"4X c Gray100",
"5X c Gray100",
"6X c Gray100",
"7X c Gray100",
"8X c Gray100",
"9X c Gray100",
"0X c Gray100",
"qX c Gray100",
"wX c Gray100",
"eX c Gray100",
"rX c Gray100",
"tX c Gray100",
"yX c Gray100",
"uX c Gray100",
"iX c Gray100",
"pX c Gray100",
"aX c Gray100",
"sX c Gray100",
"dX c Gray100",
"fX c Gray100",
"gX c Gray100",
"hX c Gray100",
"jX c Gray100",
"kX c Gray100",
"lX c Gray100",
"zX c Gray100",
"xX c Gray100",
"cX c Gray100",
"vX c Gray100",
"bX c Gray100",
"nX c Gray100",
"mX c Gray100",
"MX c Gray100",
"NX c Gray100",
"BX c Gray100",
"VX c Gray100",
"CX c Gray100",
"ZX c Gray100",
"AX c Gray100",
"SX c Gray100",
"DX c Gray100",
"FX c Gray100",
"GX c Gray100",
"HX c Gray100",
"JX c Gray100",
"KX c Gray100",
"LX c Gray100",
"PX c Gray100",
"IX c Gray100",
"UX c Gray100",
/* pixels */
"X X X X X X X X X X X X X X X X X X X X X X X X X ",
"X X X X X X X X X X X X X X X X X X X X X X X X X ",
"X X X X X X X X X X X X X X X X X X X X o X X X X ",
"X X X X X X X X X X X o X o o X o X X o X X X X X ",
"X X X X X X X X X o X X X X o X X X o X X X X X X ",
"X X X X X X X X X X X o X X o X X o X X X X X X X ",
"X X X X X X X X X X X X o X o X o X X X o X X X X ",
"X X X X X X X X o o o X X   X o X X X X X X X X X ",
"X X X X X X X X X X X X   O   X o o o o o X X X X ",
"X X X X X X X X X X X   O O X   X X X X X X X X X ",
"X X X X X X X X X X   .   X   X o X X X o X X X X ",
"X X X X X X X X X   .       . X X o X X X X X X X ",
"X X X X X X X X   .       . X o X X o X X X X X X ",
"X X X X X X X   .       . X X o X X X o X X X X X ",
"X X X X X X   .       . X X X o X X X X o X X X X ",
"X X X X X   .       . X X X X X X X X X X X X X X ",
"X X X X   O       . X X X X X X X X X X X X X X X ",
"X X X   O O X   . X X X X X X X X X X X X X X X X ",
"X X X X   X   . X X X X X X X X X X X X X X X X X ",
"X X X X X   . X X X X X X X X X X X X X X X X X X ",
"X X X X X X X X X X X X X X X X X X X X X X X X X ",
"X X X X X X X X X X X X X X X X X X X X X X X X X ",
"X X X X X X X X X X X X X X X X X X X X X X X X X ",
"X X X X X X X X X X X X X X X X X X X X X X X X X "
};
