/* XPM */
static const char * fet_object_p_xpm[] = {
"24 24 39 1",
" 	c None",
".	c #D4A0FF",
"+	c #CC9CFF",
"@	c #BB98FF",
"#	c #BA97FF",
"$	c #BD9BFF",
"%	c #B792FF",
"&	c #B194FF",
"*	c #B395FF",
"=	c #C297FF",
"-	c #A890FF",
";	c #9B89FF",
">	c #A68EFF",
",	c #9D8BFF",
"'	c #A78FFF",
")	c #8F84FE",
"!	c #8782FF",
"~	c #9085FF",
"{	c #9287FF",
"]	c #B092FE",
"^	c #837FFE",
"/	c #8480FF",
"(	c #9988FD",
"_	c #DBA3FE",
":	c #D19EFD",
"<	c #7A7EFF",
"[	c #DDA5FF",
"}	c #000000",
"|	c #C899FE",
"1	c #D5A1FF",
"2	c #FFFFFF",
"3	c #C095FF",
"4	c #616161",
"5	c #050505",
"6	c #CD9DFF",
"7	c #FF0000",
"8	c #E6AAFF",
"9	c #DEA6FF",
"0	c #E0A8FF",
"        ...+....        ",
"      .+@@#@#@@+..      ",
"     +@$%&*%&#*#++.     ",
"    +@=%-;>,;>--*@+.    ",
"   +@&'>;)!~){;,]*@+.   ",
"  +@%>,{)^!!^/!~('*@+_  ",
" .:*%,)^<<^<^!/!{;]*@.[ ",
" +#%,~/<!!<<}}}}}(,%|+. ",
"1+*%;/!!^!}}22}22}}-*+.[",
"1#3,(^!<^}}2222222}}=@.[",
".=*')<<^!}2}22222}2}@$.[",
".:%;~!^^}22222222222}+1[",
"++%%}}}^}22244222222}#.[",
"1+3,}^}<5}4444}2222}}61[",
".+=%}}}!522244227777}6[8",
"1+=-}{!<}22222222777}69[",
" .+*}>}^^}2}22222}7}660 ",
" 9.+]%>(!}}2222222}}$98 ",
"  1+#=%%>~}}22222}}19[  ",
"   ..+*>%%%>}}}}}+619   ",
"    ..+##*****=+@199    ",
"     [[.++++=++.[99     ",
"      09_.....9998      ",
"        88800098        "};
