/* XPM */
static const char * fet_object_rain_xpm[] = {
"24 24 134 2",
"  	c None",
". 	c #D4A0FF",
"+ 	c #CC9CFF",
"@ 	c #BB98FF",
"# 	c #BA97FF",
"$ 	c #BD9BFF",
"% 	c #B792FF",
"& 	c #B194FF",
"* 	c #B395FF",
"= 	c #C297FF",
"- 	c #A890FF",
"; 	c #9B89FF",
"> 	c #A68EFF",
", 	c #9D8BFF",
"' 	c #A78FFF",
") 	c #8F84FE",
"! 	c #8782FF",
"~ 	c #9085FF",
"{ 	c #9287FF",
"] 	c #B092FE",
"^ 	c #837FFE",
"/ 	c #8480FF",
"( 	c #9988FD",
"_ 	c #DBA3FE",
": 	c #D19EFD",
"< 	c #7A7EFF",
"[ 	c #DDA5FF",
"} 	c #8581FE",
"| 	c #CBCCEA",
"1 	c #8782FC",
"2 	c #8783F9",
"3 	c #9291BA",
"4 	c #A2A0D1",
"5 	c #C899FE",
"6 	c #D5A1FF",
"7 	c #8F8AFB",
"8 	c #E9E8F2",
"9 	c #8884F9",
"0 	c #8783FA",
"a 	c #BDBED7",
"b 	c #B6B8E7",
"c 	c #8682FE",
"d 	c #C095FF",
"e 	c #D9D7FD",
"f 	c #FBFBFC",
"g 	c #D2D1FB",
"h 	c #7E81FE",
"i 	c #8885FB",
"j 	c #D1D0E7",
"k 	c #C5C4EC",
"l 	c #7A7EF9",
"m 	c #E7E8FD",
"n 	c #FCFCFC",
"o 	c #E9E9E9",
"p 	c #BDBDBD",
"q 	c #E5E5F7",
"r 	c #7A7EFE",
"s 	c #8487F6",
"t 	c #E4E3F4",
"u 	c #D2D1E9",
"v 	c #8883EE",
"w 	c #A9A6FE",
"x 	c #CFCFCF",
"y 	c #858588",
"z 	c #9C9FF3",
"A 	c #837FFD",
"B 	c #9B98ED",
"C 	c #ECEDF3",
"D 	c #D8D8EA",
"E 	c #8285ED",
"F 	c #A6A9FE",
"G 	c #9591E3",
"H 	c #8985FE",
"I 	c #C0BEF7",
"J 	c #F9F9FA",
"K 	c #EBEBF5",
"L 	c #ABA8F7",
"M 	c #9693FE",
"N 	c #B2AFFE",
"O 	c #F0F1FD",
"P 	c #FDFDFD",
"Q 	c #FAFBFD",
"R 	c #E4E3FD",
"S 	c #A2A4FF",
"T 	c #928EFF",
"U 	c #CD9DFF",
"V 	c #D2D3FE",
"W 	c #F4F4FE",
"X 	c #F6F6F8",
"Y 	c #E8E7F9",
"Z 	c #C6C1FE",
"` 	c #E6AAFF",
" .	c #CCCAFE",
"..	c #FDFDFE",
"+.	c #ECECEC",
"@.	c #D9D9D8",
"#.	c #DBDBDC",
"$.	c #E8E6F1",
"%.	c #D9CFFE",
"&.	c #DEA6FF",
"*.	c #F5F5F5",
"=.	c #CACACA",
"-.	c #A8A8A7",
";.	c #ADADAD",
">.	c #D5D5D5",
",.	c #F9F8F9",
"'.	c #E0A8FF",
").	c #E8E7FD",
"!.	c #EAEAEA",
"~.	c #B0B0B0",
"{.	c #838383",
"].	c #8A8A8A",
"^.	c #BCBBBF",
"/.	c #E5DEF0",
"(.	c #9E95FE",
"_.	c #EBEAFD",
":.	c #AFAFAF",
"<.	c #89888C",
"[.	c #AFA5C8",
"}.	c #D0A7FC",
"|.	c #CCB2FE",
"1.	c #DAD0FE",
"2.	c #F4F4F4",
"3.	c #C7C7C7",
"4.	c #A2A0A7",
"5.	c #A893C6",
"6.	c #C49EED",
"7.	c #B598FE",
"8.	c #BBA0FE",
"9.	c #FAFAFA",
"0.	c #D7D7D7",
"a.	c #BBB3C3",
"b.	c #B897F8",
"c.	c #D4A1FD",
"                . . . + . . . .                 ",
"            . + @ @ # @ # @ @ + . .             ",
"          + @ $ % & * % & # * # + + .           ",
"        + @ = % - ; > , ; > - - * @ + .         ",
"      + @ & ' > ; ) ! ~ ) { ; , ] * @ + .       ",
"    + @ % > , { ) ^ ! ! ^ / ! ~ ( ' * @ + _     ",
"  . : * % , ) ^ < < ^ < ^ ! / ! { ; ] * @ . [   ",
"  + # % , ~ } | 1 ! < < 2 3 4 ^ ! ( , % 5 + .   ",
"6 + * % ; / 7 8 9 ! ^ < 0 a b c < ) , - * + . [ ",
"6 # d , ( ^ e f g h ! ! i j k l ! / { > = @ . [ ",
". = * ' ) m n o p q < r s t u v < ! { , @ $ . [ ",
". : % ; ~ w n x y z ^ A B C D E ^ / ~ > & + 6 [ ",
"+ + % % ~ ^ F o G A < H I J K L ^ / { ; & # . [ ",
"6 + d , ( ^ ! < < ^ M N O P Q R S T ( & * U 6 [ ",
". + = % ( { ^ ! ^ < V W P P P X Y Z ; & # U [ ` ",
"6 + = - % { ! < ^  ...P P n +.@.#.$.%.% # U &.[ ",
"  . + * % > { ^ ^ P P P P *.=.-.;.>.,.@ U U '.  ",
"  &.. + ] % > ( ! ).P P n !.~.{.].^./.+ $ &.`   ",
"    6 + # = % % > (._.P n o :.{.<.[.}.6 &.[     ",
"      . . + * > % % |.1.P 2.3.4.5.6.U 6 &.      ",
"        . . + # # * 7.8.P 9.0.a.b.c.&.&.        ",
"          [ [ . + + + + = + + . [ &.&.          ",
"            '.&._ . . . . . &.&.&.`             ",
"                ` ` ` '.'.'.&.`                 "};
