/* XPM */
static const char * fet_object_sky_xpm[] = {
"24 24 146 2",
"  	c None",
". 	c #D4A0FF",
"+ 	c #CC9CFF",
"@ 	c #BB98FF",
"# 	c #BA97FF",
"$ 	c #BD9BFF",
"% 	c #B792FF",
"& 	c #B194FF",
"* 	c #B395FF",
"= 	c #C297FF",
"- 	c #A890FF",
"; 	c #9B89FF",
"> 	c #A68EFF",
", 	c #9D8BFF",
"' 	c #A78FFF",
") 	c #8F84FE",
"! 	c #8782FF",
"~ 	c #9085FF",
"{ 	c #9287FF",
"] 	c #B092FE",
"^ 	c #837FFE",
"/ 	c #8480FF",
"( 	c #9988FD",
"_ 	c #DBA3FE",
": 	c #D19EFD",
"< 	c #7A7EFF",
"[ 	c #AAA7FF",
"} 	c #D0CEFF",
"| 	c #BCB6FF",
"1 	c #AC9DFF",
"2 	c #DDA5FF",
"3 	c #9C98FF",
"4 	c #F8F8FE",
"5 	c #FFFFFF",
"6 	c #FCFBFF",
"7 	c #EDE4FF",
"8 	c #E7D3FE",
"9 	c #D3A9FF",
"0 	c #D5A1FF",
"a 	c #B0ADF0",
"b 	c #D6D6D7",
"c 	c #DEDFE1",
"d 	c #E7E7E7",
"e 	c #F1F1F1",
"f 	c #FAFAFA",
"g 	c #FCFAFF",
"h 	c #EBCAFF",
"i 	c #C095FF",
"j 	c #8C8FF0",
"k 	c #AEAEBB",
"l 	c #ADACAF",
"m 	c #BAB9CC",
"n 	c #B4B2E3",
"o 	c #B7B5E6",
"p 	c #B9BAE9",
"q 	c #D2D1E3",
"r 	c #DFDEE1",
"s 	c #E7E7E6",
"t 	c #F1F1F0",
"u 	c #F9FAF9",
"v 	c #FEFEFE",
"w 	c #FCFBFD",
"x 	c #F8F4FA",
"y 	c #9990F1",
"z 	c #A496EF",
"A 	c #BB9DF6",
"B 	c #BDA0F6",
"C 	c #D3A0FE",
"D 	c #CDCED4",
"E 	c #EBEBEC",
"F 	c #F2F2F2",
"G 	c #F4F4F5",
"H 	c #CECDE2",
"I 	c #8B87FC",
"J 	c #B9AEC9",
"K 	c #B1ADCA",
"L 	c #BAB6D2",
"M 	c #B3B2D2",
"N 	c #B7B5D4",
"O 	c #DBDBDD",
"P 	c #F7F7F7",
"Q 	c #F2F2F6",
"R 	c #DDDEFB",
"S 	c #E0DFFE",
"T 	c #E8E8EC",
"U 	c #D9D9DE",
"V 	c #C3BFDA",
"W 	c #BCB5CF",
"X 	c #B1AAC3",
"Y 	c #C0B4CC",
"Z 	c #D2A3F9",
"` 	c #C3ABDC",
" .	c #B9B8B9",
"..	c #C4C4C4",
"+.	c #D0D0D0",
"@.	c #DADADB",
"#.	c #E6E6E6",
"$.	c #F2F2F1",
"%.	c #FCFCFC",
"&.	c #F8F8F8",
"*.	c #EDEDED",
"=.	c #E2E2E2",
"-.	c #D7D7D7",
";.	c #CBCCCB",
">.	c #C4C5C4",
",.	c #CEB2E0",
"'.	c #D5B2E3",
").	c #CCAEE4",
"!.	c #BAB8BD",
"~.	c #B3B3B3",
"{.	c #C1C2C2",
"].	c #CECECD",
"^.	c #D8D8D9",
"/.	c #E4E3E3",
"(.	c #EFEEEE",
"_.	c #F9F9F9",
":.	c #FDFDFD",
"<.	c #F3F4F3",
"[.	c #E5E5E4",
"}.	c #E5E4E4",
"|.	c #F6F6F6",
"1.	c #E8E8E8",
"2.	c #DCDCDC",
"3.	c #D7D7D8",
"4.	c #CFCFCF",
"5.	c #C8C8C9",
"6.	c #C1C1C1",
"7.	c #CAB6D5",
"8.	c #CCB5D8",
"9.	c #BBB9BF",
"0.	c #C2C1C4",
"a.	c #C7C6C9",
"b.	c #D6D6D9",
"c.	c #EAEAEE",
"d.	c #EAEAED",
"e.	c #E1E2E4",
"f.	c #DCDCE0",
"g.	c #8084FC",
"h.	c #A48DFD",
"i.	c #BAB4C2",
"j.	c #C1B7CC",
"k.	c #DDAAF9",
"l.	c #DEA6FF",
"m.	c #E6AAFF",
"n.	c #CD9DFF",
"o.	c #E0A8FF",
"                . . . + . . . .                 ",
"            . + @ @ # @ # @ @ + . .             ",
"          + @ $ % & * % & # * # + + .           ",
"        + @ = % - ; > , ; > - - * @ + .         ",
"      + @ & ' > ; ) ! ~ ) { ; , ] * @ + .       ",
"    + @ % > , { ) ^ ! ! ^ / ! ~ ( ' * @ + _     ",
"  . : * % , ) ^ < < ^ < ^ ! [ } | 1 ] * @ . 2   ",
"  + # % , ~ / < ! ! < < 3 4 5 5 5 5 6 7 8 9 .   ",
"0 + * % ; / ! ! ^ a b c d e f 5 5 5 5 5 5 5 g h ",
"0 # i , ( ^ ! < ^ j k l m n o p q r s t u v w x ",
". = * ' ) < < ^ ! ! < < < ! ! ! < ! y z A B C 2 ",
". : % ; ~ ! ^ ^ < < ^ ^ ! < < < ^ / ~ > & + 0 2 ",
"+ + % % ~ ^ < ^ D E F G H I ! ! ^ / { ; & # . 2 ",
"0 + J K L M N O P v v v v Q R S T U V W X Y Z 2 ",
". `  ...+.@.#.$.%.v v v v v f v &.*.=.-.;.>.,.'.",
").!.~.{.].^./.(._.v v :.<.[.}.|.1.2.3.4.5.6.7.8.",
"  . + * 9.0.a.b.c.d.e.f.g.< < ) { h.- @ i.j.k.  ",
"  l.. + ] % > ( ! ! ! ! ! ^ ~ { ; % = + $ l.m.  ",
"    0 + # = % % > ~ ~ ( ( ( ' % > * n.0 l.2     ",
"      . . + * > % % % > > % % & = + n.0 l.      ",
"        . . + # # * * * * * = + @ 0 l.l.        ",
"          2 2 . + + + + = + + . 2 l.l.          ",
"            o.l._ . . . . . l.l.l.m.            ",
"                m.m.m.o.o.o.l.m.                "};
