/* XPM */
static const char * fileopen_xpm[] = {
"21 19 5 1",
" 	c None",
".	c #000000000000",
"X	c #DEDEDEDECECE",
"o	c #FFFFFFFF0000",
"O	c #7B7B7B7B0000",
"                     ",
"                     ",
"            ...      ",
"           .   . .   ",
"                ..   ",
"    ...        ...   ",
"   .XoX.......       ",
"   .oXoXoXoXo.       ",
"   .XoXoXoXoX.       ",
"   .oXoX..........   ",
"   .XoX.OOOOOOOOO.   ",
"   .oX.OOOOOOOOO.    ",
"   .X.OOOOOOOOO.     ",
"   ..OOOOOOOOO.      ",
"   ...........       ",
"                     ",
"                     ",
"                     ",
"                     "};
