/* XPM */
static const char * filenew_xpm[] = {
"21 19 3 1",
" 	c None",
".	c #000000000000",
"X	c #DEDEDEDECECE",
"                     ",
"                     ",
"     ........        ",
"     .XXXXXX..       ",
"     .XXXXXX.X.      ",
"     .XXXXXX....     ",
"     .XXXXXXXXX.     ",
"     .XXXXXXXXX.     ",
"     .XXXXXXXXX.     ",
"     .XXXXXXXXX.     ",
"     .XXXXXXXXX.     ",
"     .XXXXXXXXX.     ",
"     .XXXXXXXXX.     ",
"     .XXXXXXXXX.     ",
"     ...........     ",
"                     ",
"                     ",
"                     ",
"                     "};
