/* XPM */
static const char * help_xpm[] = {
"32 32 37 1",
" 	c None",
".	c #5D5DED",
"+	c #7474EE",
"@	c #C0C0F7",
"#	c #ECECFC",
"$	c #FAFAFD",
"%	c #EBEBFC",
"&	c #BCBCF7",
"*	c #6B6BED",
"=	c #9E9EF3",
"-	c #FFFFFF",
";	c #6D6DEE",
">	c #EAEAFB",
",	c #9D9DF3",
"'	c #6C6CED",
")	c #6464ED",
"!	c #8A8AF1",
"~	c #E9E9FB",
"{	c #C3C3F7",
"]	c #6161EC",
"^	c #8383F0",
"/	c #F1F1FC",
"(	c #6262EC",
"_	c #F8F8FD",
":	c #8E8EF1",
"<	c #DDDDFA",
"[	c #7A7AEF",
"}	c #9797F2",
"|	c #7D7DEF",
"1	c #F3F3FC",
"2	c #CACAF8",
"3	c #7171EE",
"4	c #C9C9F8",
"5	c #6060EC",
"6	c #C8C8F8",
"7	c #C4C4F7",
"8	c #5D5DEC",
"                                ",
"                                ",
"                                ",
"                                ",
"             ......             ",
"          ............          ",
"         ..............         ",
"        .....+@#$%&*....        ",
"       .....=$-----#;....       ",
"      ......->,')!~-{.....      ",
"     .......@]....^-/......     ",
"     .............(-_......     ",
"     .............:-<......     ",
"    .............[/-}.......    ",
"    ............|1-2........    ",
"    ...........3/-45........    ",
"    ...........6-78.........    ",
"    ...........1-'..........    ",
"    ...........--8..........    ",
"     ..........--..........     ",
"     ......................     ",
"     ......................     ",
"      .........--.........      ",
"       ........--........       ",
"        .......--.......        ",
"         ..............         ",
"          ............          ",
"             ......             ",
"                                ",
"                                ",
"                                ",
"                                "};
