/* XPM */
static const char * hideall_xpm[] = {
"24 24 146 2",
"  	c None",
". 	c #FF0000",
"+ 	c #DDDED8",
"@ 	c #9B9996",
"# 	c #66655D",
"$ 	c #5F5E58",
"% 	c #7B7B76",
"& 	c #B7BAA9",
"* 	c #F6F9E3",
"= 	c #CD2323",
"- 	c #FD1615",
"; 	c #A94D51",
"> 	c #18181D",
", 	c #000000",
"' 	c #050905",
") 	c #000301",
"! 	c #000004",
"~ 	c #000009",
"{ 	c #000006",
"] 	c #474548",
"^ 	c #B59396",
"/ 	c #E80F0F",
"( 	c #D41E1E",
"_ 	c #979797",
": 	c #360807",
"< 	c #E70405",
"[ 	c #B33A1C",
"} 	c #738D0C",
"| 	c #6B9103",
"1 	c #88B103",
"2 	c #83AA03",
"3 	c #6F9500",
"4 	c #6B8F03",
"5 	c #6F7D41",
"6 	c #6A3636",
"7 	c #EB0A0A",
"8 	c #A12D2D",
"9 	c #E2E2E2",
"0 	c #4C4C4C",
"a 	c #353534",
"b 	c #CCCEBD",
"c 	c #FFEBEB",
"d 	c #EA3109",
"e 	c #DE4200",
"f 	c #8FB40B",
"g 	c #70910D",
"h 	c #6B8A13",
"i 	c #90BD09",
"j 	c #98CC02",
"k 	c #B07423",
"l 	c #F20B0B",
"m 	c #D0817E",
"n 	c #7D7D7D",
"o 	c #121212",
"p 	c #D2D2D2",
"q 	c #B7B7B7",
"r 	c #E0EECA",
"s 	c #779A00",
"t 	c #D33D01",
"u 	c #DE1C01",
"v 	c #170002",
"w 	c #7D7A8F",
"x 	c #425709",
"y 	c #BA4D1C",
"z 	c #EE0C0A",
"A 	c #C5A17F",
"B 	c #282828",
"C 	c #D6D6D6",
"D 	c #9B9B9B",
"E 	c #DBDBDB",
"F 	c #E3E3E3",
"G 	c #D0E0A8",
"H 	c #739D00",
"I 	c #82AE06",
"J 	c #8C1104",
"K 	c #DE0000",
"L 	c #7F5142",
"M 	c #B81A1C",
"N 	c #E41610",
"O 	c #808A09",
"P 	c #BACB89",
"Q 	c #A8A8A8",
"R 	c #D1D1D1",
"S 	c #E1F0BB",
"T 	c #81AB00",
"U 	c #7AA901",
"V 	c #67840A",
"W 	c #74040B",
"X 	c #FC0101",
"Y 	c #D41711",
"Z 	c #7FA407",
"` 	c #77A505",
" .	c #CFDFA0",
"..	c #E9E9E9",
"+.	c #F1F9E8",
"@.	c #98C02A",
"#.	c #97CC01",
"$.	c #A2A713",
"%.	c #E7120E",
"&.	c #CF2913",
"*.	c #F60E00",
"=.	c #C57D01",
"-.	c #95C31D",
";.	c #E0E0E0",
">.	c #E4E4E4",
",.	c #DADADA",
"'.	c #989898",
").	c #ECECEC",
"!.	c #E2F2C3",
"~.	c #A78617",
"{.	c #F00A09",
"].	c #B26020",
"^.	c #83B405",
"/.	c #8D8906",
"(.	c #F11800",
"_.	c #F0664D",
":.	c #8C8C8C",
"<.	c #696864",
"[.	c #B4B3B4",
"}.	c #DC7F7F",
"|.	c #F40909",
"1.	c #BA7E55",
"2.	c #9FC82C",
"3.	c #A0C138",
"4.	c #B1CE4F",
"5.	c #F3E9C6",
"6.	c #FF3C3C",
"7.	c #E63A36",
"8.	c #716873",
"9.	c #E9E5EE",
"0.	c #BD403F",
"a.	c #ED0C0B",
"b.	c #6E3D40",
"c.	c #5C5855",
"d.	c #6C6C7B",
"e.	c #6C6D67",
"f.	c #5E5865",
"g.	c #3F4147",
"h.	c #53453D",
"i.	c #E02B30",
"j.	c #F93937",
"k.	c #D71C1C",
"l.	c #E31313",
"m.	c #EBEBEB",
"n.	c #C92626",
"o.	c #D81B1B",
"                                                ",
"          .       + @ # $ % & *       =         ",
"            - ; > , , ' ) ! ~ { ] ^ / (         ",
"          _ : < [ } | 1 2 3 4 5 6 7 8 9         ",
"        0 a b c d e f g h i j k l m n o p       ",
"      0 q     r s t u v w x y z A       B C     ",
"    D E F     G H I J K L M N O P         Q     ",
"    R         S T U V W X Y Z `  .              ",
"      ..      +.@.#.$.%.&.*.=.-.        ;.>.    ",
"      ,.'.).    !.~.{.].^./.(._.    ).'.;.      ",
"        ..:.<.[.}.|.1.2.3.4.5.6.7.8.D           ",
"            9.0.a.b.c.d.e.f.g.h.i.j.            ",
"            k.l.        m.        . .           ",
"          n.o.                                  ",
"                                                ",
"          ,           ,           ,             ",
"        , , ,         ,           ,             ",
"        ,   ,         ,           ,             ",
"        ,   ,         ,           ,             ",
"      ,       ,       ,           ,             ",
"      , , , , ,       ,           ,             ",
"      ,       ,       ,           ,             ",
"    ,           ,     , , , , ,   , , , , ,     ",
"                                                "};
