/* XPM */
static const char *icon_settings[] = {
/* columns rows colors chars-per-pixel */
"16 16 17 1 ",
"  c black",
". c #000000000539",
"X c #000000000644",
"o c #000000000758",
"O c #000000000A44",
"+ c #000000000B5A",
"@ c #000000000CBB",
"# c #000000000DB1",
"$ c #000000000FCD",
"% c #0000000017BD",
"& c #000000008F8F",
"* c #00000000BBBB",
"= c #00000000C2C2",
"- c #00000000C3C3",
"; c MediumBlue",
": c blue",
"> c None",
/* pixels */
">>>>>>>>>X X>>>>",
">>>>>>>>#-:&#>>>",
">>>>>>>X-:-#>>>>",
">>>>>>> ::O>>>#>",
">>>>>>> :: >>#&X",
">>>>>>>O::% O-: ",
">>>>>>#-::::::-X",
">>>>>$;::::::*#>",
">>>>#-:::-O  X>>",
">>>$;:::*#>>>>>>",
">>#;:::*#>>>>>>>",
">$;:::*#>>>>>>>>",
"X-:::-O>>>>>>>>>",
" :::*#>>>>>>>>>>",
"X-:-#>>>>>>>>>>>",
">X X>>>>>>>>>>>>"
};
