/* XPM */
static const char * icon_settings[] = {
"16 16 8 1",
" 	c None",
".	c #000006",
"+	c #000000",
"@	c #00000D",
"#	c #C0C0C0",
"$	c #00000A",
"%	c #000017",
"&	c #00000F",
"         .+.    ",
"        @###@   ",
"       .###@    ",
"       +##$   @ ",
"       +##+  @#.",
"       $##%+$##+",
"      @########.",
"     &########@ ",
"    @#####$++.  ",
"   &#####@      ",
"  @#####@       ",
" &#####@        ",
".#####$         ",
"+####@          ",
".###@           ",
" .+.            "};
