/* XPM */
static const char * icon_wms_32_xpm[] = {
"32 32 319 2",
"  	c None",
". 	c #F6FAFB",
"+ 	c #EFF7F9",
"@ 	c #F1F8F9",
"# 	c #B2DCE4",
"$ 	c #85C9D5",
"% 	c #57B5C6",
"& 	c #35A6BA",
"* 	c #249FB5",
"= 	c #26A0B5",
"- 	c #44AEC0",
"; 	c #9BD3DD",
"> 	c #ACDAE2",
", 	c #CBE0E4",
"' 	c #7D8283",
") 	c #606263",
"! 	c #545555",
"~ 	c #4F4F4F",
"{ 	c #505050",
"] 	c #A5D7DF",
"^ 	c #84C9D5",
"/ 	c #79C4D1",
"( 	c #4DB1C3",
"_ 	c #3FABBE",
": 	c #42ADBF",
"< 	c #86CAD6",
"[ 	c #81C7D4",
"} 	c #33A6BA",
"| 	c #2CA3B8",
"1 	c #9DD3DD",
"2 	c #DBE5E7",
"3 	c #5F6061",
"4 	c #646667",
"5 	c #656768",
"6 	c #5F6161",
"7 	c #515151",
"8 	c #D3EBF0",
"9 	c #9FD4DE",
"0 	c #9ED4DE",
"a 	c #58B6C6",
"b 	c #31A5B9",
"c 	c #42ACBF",
"d 	c #3CAABD",
"e 	c #84C8D5",
"f 	c #2FA4B8",
"g 	c #CEE9EE",
"h 	c #2DA3B8",
"i 	c #2AA2B7",
"j 	c #9BC9D1",
"k 	c #6D7071",
"l 	c #E4F2F5",
"m 	c #BFE2E8",
"n 	c #2BA2B7",
"o 	c #2CA3B7",
"p 	c #5EB9C9",
"q 	c #44ADBF",
"r 	c #7EC6D3",
"s 	c #8ACBD7",
"t 	c #4DB1C2",
"u 	c #A6D7E0",
"v 	c #C5E5EB",
"w 	c #D0E0E3",
"x 	c #585D5F",
"y 	c #5D6364",
"z 	c #6C6F70",
"A 	c #EAF9FC",
"B 	c #EBF5F7",
"C 	c #DBEEF2",
"D 	c #2AA2B6",
"E 	c #2EA4B8",
"F 	c #48AFC1",
"G 	c #64BBCA",
"H 	c #A5D7E0",
"I 	c #E8F3F6",
"J 	c #38A8BB",
"K 	c #9FD5DE",
"L 	c #E2F1F4",
"M 	c #C5DBDF",
"N 	c #656667",
"O 	c #E5F2F5",
"P 	c #BFE2E9",
"Q 	c #6ABECC",
"R 	c #C2E4EA",
"S 	c #A1D5DF",
"T 	c #30A5B9",
"U 	c #8FCDD9",
"V 	c #59B7C7",
"W 	c #34A6BA",
"X 	c #47AEC0",
"Y 	c #7BC5D2",
"Z 	c #D4E2E4",
"` 	c #E8F4F6",
" .	c #ADDAE3",
"..	c #E6F3F6",
"+.	c #C5E5EA",
"@.	c #EEF6F8",
"#.	c #54B4C4",
"$.	c #37A7BB",
"%.	c #30A4B9",
"&.	c #B3DDE5",
"*.	c #C2DADE",
"=.	c #7CC6D2",
"-.	c #B6DEE6",
";.	c #D8EDF1",
">.	c #DAEEF2",
",.	c #D5ECF0",
"'.	c #28A1B6",
").	c #74C2D0",
"!.	c #F0F7F9",
"~.	c #D5E2E5",
"{.	c #D5EBF0",
"].	c #DBEEF3",
"^.	c #AFDCE3",
"/.	c #C1E3E9",
"(.	c #27A1B6",
"_.	c #D4F0F5",
":.	c #EBF9FC",
"<.	c #DBE9EB",
"[.	c #5E6061",
"}.	c #F1FFFF",
"|.	c #F0FBFE",
"1.	c #69C2D1",
"2.	c #3BACC0",
"3.	c #81C8D4",
"4.	c #BEE1E8",
"5.	c #EAF5F7",
"6.	c #52B3C4",
"7.	c #2BA3B7",
"8.	c #36A7BB",
"9.	c #79C5D3",
"0.	c #919596",
"a.	c #666869",
"b.	c #676A6B",
"c.	c #67696A",
"d.	c #686A6B",
"e.	c #525E5F",
"f.	c #81A7AE",
"g.	c #69BECD",
"h.	c #E7F3F6",
"i.	c #D9EDF1",
"j.	c #AFDBE3",
"k.	c #41ACBF",
"l.	c #6CBECC",
"m.	c #F3F8FA",
"n.	c #83C9D5",
"o.	c #EEFAFC",
"p.	c #8F9597",
"q.	c #626465",
"r.	c #606162",
"s.	c #87ACB3",
"t.	c #2AA4B8",
"u.	c #4BB0C2",
"v.	c #B0DCE4",
"w.	c #3AA9BC",
"x.	c #AEDBE3",
"y.	c #C9E6EC",
"z.	c #EAF8FB",
"A.	c #969D9F",
"B.	c #616364",
"C.	c #9AB9BE",
"D.	c #34A7BB",
"E.	c #83C8D5",
"F.	c #8FCED9",
"G.	c #A8D9E1",
"H.	c #29A2B7",
"I.	c #73C1CF",
"J.	c #A2D6DF",
"K.	c #ECF5F8",
"L.	c #BCE1E8",
"M.	c #D0EAEE",
"N.	c #B6E2EA",
"O.	c #8F9EA1",
"P.	c #C6CFD1",
"Q.	c #6DBFCE",
"R.	c #4FB2C3",
"S.	c #88CBD6",
"T.	c #A7D8E0",
"U.	c #4EB2C3",
"V.	c #5BB7C7",
"W.	c #BBE1E7",
"X.	c #EAF7FA",
"Y.	c #A4ACAE",
"Z.	c #C8D4D6",
"`.	c #ECF6F8",
" +	c #45AEC0",
".+	c #F6FAFC",
"++	c #D4EBF0",
"@+	c #82C8D5",
"#+	c #AAD9E2",
"$+	c #73C2CF",
"%+	c #B7DEE6",
"&+	c #CBEAEF",
"*+	c #ADB5B7",
"=+	c #5F6062",
"-+	c #CDD9DC",
";+	c #EDF6F8",
">+	c #E1F1F4",
",+	c #B2DDE4",
"'+	c #DDEAED",
")+	c #93AAAF",
"!+	c #6E9BA3",
"~+	c #2E9CAE",
"{+	c #29A2B6",
"]+	c #B9E1E8",
"^+	c #E7EFF1",
"/+	c #2E91A2",
"(+	c #3C8793",
"_+	c #3C8895",
":+	c #27A3B8",
"<+	c #DAEDF1",
"[+	c #77C3D1",
"}+	c #CFE9EE",
"|+	c #EAF4F7",
"1+	c #D3DFE2",
"2+	c #5E5F60",
"3+	c #5D6060",
"4+	c #3794A4",
"5+	c #49B0C1",
"6+	c #E7F4F6",
"7+	c #9AA5A7",
"8+	c #656666",
"9+	c #596567",
"0+	c #25A4BA",
"a+	c #80C7D4",
"b+	c #94D0DB",
"c+	c #82C8D4",
"d+	c #B9DFE6",
"e+	c #C3D9DD",
"f+	c #616162",
"g+	c #4C595B",
"h+	c #3698A9",
"i+	c #30AABF",
"j+	c #2DA8BE",
"k+	c #89D0DD",
"l+	c #E9F9FD",
"m+	c #ECFAFD",
"n+	c #ECFBFE",
"o+	c #5B6668",
"p+	c #36ABC0",
"q+	c #BAE0E7",
"r+	c #D2EBEF",
"s+	c #5AB7C7",
"t+	c #B1DCE4",
"u+	c #CBE8ED",
"v+	c #D4E0E2",
"w+	c #4B5C5E",
"x+	c #4D585A",
"y+	c #4E5758",
"z+	c #4B5658",
"A+	c #465455",
"B+	c #50585A",
"C+	c #5C5D5E",
"D+	c #5D6769",
"E+	c #5DBCCD",
"F+	c #E5F3F6",
"G+	c #9CD3DD",
"H+	c #D6ECF1",
"I+	c #DCEEF2",
"J+	c #B7DFE6",
"K+	c #D2DEE1",
"L+	c #5A5A5B",
"M+	c #525B5D",
"N+	c #4D595A",
"O+	c #495759",
"P+	c #556062",
"Q+	c #79C8D6",
"R+	c #4CB0C2",
"S+	c #E9F4F7",
"T+	c #E0F0F4",
"U+	c #E2EFF3",
"V+	c #D3E0E2",
"W+	c #CFDEE1",
"X+	c #2B98AB",
"Y+	c #359CAE",
"Z+	c #2F99AC",
"`+	c #B1D1D7",
" @	c #D4E0E3",
".@	c #D7E2E4",
"+@	c #61AFBC",
"@@	c #66BDCC",
"#@	c #70C0CE",
"$@	c #D6ECF0",
"%@	c #CCE8ED",
"&@	c #D0E9EE",
"*@	c #4EB1C3",
"=@	c #80C7D3",
"-@	c #249FB4",
";@	c #47AFC1",
">@	c #CEE8EE",
",@	c #5FB9C8",
"'@	c #E5F3F5",
")@	c #D3EBEF",
"!@	c #D4ECF0",
"~@	c #95D0DB",
"{@	c #DFF0F3",
"]@	c #40ACBE",
"^@	c #56B5C5",
"/@	c #E3F2F5",
"(@	c #98D2DC",
"_@	c #2DA3B7",
":@	c #56B5C6",
"<@	c #A6D7E1",
"[@	c #C6E5EB",
"}@	c #89CBD6",
"|@	c #A3D6DF",
"1@	c #62BACA",
"2@	c #C2E3EA",
"3@	c #DCEFF2",
"4@	c #B5DEE5",
"5@	c #89CBD7",
"6@	c #9AD2DC",
"7@	c #96D0DB",
"8@	c #B8DFE6",
"9@	c #5CB7C8",
"0@	c #6EC0CD",
"a@	c #7AC4D2",
"b@	c #78C3D1",
"c@	c #B2DDE5",
"d@	c #9ED3DE",
"                            . + @ @                             ",
"                    # $ % & * = - ; > , ' ) ! ~ {               ",
"                ] ^ / ( _ : < [ } | 1 2 3 4 5 6 7               ",
"              8 9 0 a b c d e f g h i j 3 4 4 4 k               ",
"          l m n o f p q b r s t u v n w x y 4 4 z A l           ",
"        B C D E b b F v G H I J & K L M 3 N 4 4 z A l O         ",
"        P Q R S f b T f o U Q V W X Y Z 3 4 4 4 z A `  .        ",
"      ..+...l @.b b b b T #.$.%.f F &.*.3 4 4 4 z A ` =.-.      ",
"    ;.>.O l l ,.'.b b b b b b b ).!.O ~.3 4 4 4 z A l {.E ].    ",
"    ^.l l l l /.i b b b b b b (._.:.:.<.[.4 4 4 k }.|.1.2.3.    ",
"  ] 4.l l l l 5.6.b b b T 7.8.9.0.a.b.c.4 4 4 4 4 b.d.e.f.g.h.  ",
"  [ i.l l l l l j.k.b %.l.{.m.n.o.p.q.4 4 4 4 4 4 4 r.s.t.u.R   ",
"  ^.l l l l l l B v.w.(.O ` ..x.y.z.A.B.4 4 4 4 4 r.C.D.b E E.  ",
"  F.l l l l l l l ..G.H.E.I.J.K.L.M.N.O.) 4 4 4 ) P.Q.b b b R.  ",
"S.;...l l l l l l l ..{.T.U.V.W...h.K.X.Y.r.4 B.Z.`. +b b b E .+",
"S.v.++l l l l l l l l l l B L.@+i.#+$+%+&+*+=+-+l ;+w.b b b (.>+",
"P ,.,+l l l l >.O l l l l l '+)+!+~+b o {+]+^+l l l &./+(+_+:+<+",
"G.[+}+|+l l l h.L.O l l l l 1+2+3+4+b b b n 5+l l l 6+7+8+9+0+K.",
"  a+b+c+d+B h.l O l l l l l e+f+g+h+i+i+i+i+j+k+l+m+n+Y.4 o+p+  ",
"  u q+r+k.s+t+u+h.l l l l l v+[.w+x+y+y+y+y+y+z+A+B+C+) 4 D+E+  ",
"  ..F+G+H+t+y.I+J+..l l l l K+L+M+N+N+N+N+N+N+N+N+O+3 3 3 P+Q+  ",
"  ` / h R+/ S+l h.T+l l O l U+V+W+X+Y+Y+Y+Y+Y+Y+Z+`+ @ @.@+@@@  ",
"    #@b b h }+l l $@..L %@l l l l &@J b b b b b *@K.l l B =@    ",
"    v -@E b ;@S+..>@l l ..l l l l S+,@b b b T R.,.l l l '@)@    ",
"      !@~@i H.}+O {@l l l l l l l `.]@b b b ^@/@l l l l l       ",
"        ` (@w.B ../ 5.l l l l l l ;+7.b _@:@..l l l l l         ",
"        l ` g ` <@5.l l l l l l l [@i 7.}@B l l l l l l         ",
"          l l l l l l l l l l l l G+n |@5.l l l l l l           ",
"              l l l l l l l l l O a+1@u+h.l l l l               ",
"                l l l l l l l l l h.2@;+K.3@4@`                 ",
"                    l l g 5@6@7@j.8@9@0@a@b@                    ",
"                            c@0 (@d@                            "};
