/* XPM */
static const char * idnumUp_xpm[]={
"16 32 3 1",
"a c #ff0000",
"# c #000000",
". c None",
"................",
"................",
".......##.......",
"......####......",
".....##aa##.....",
"....##aaaa##....",
"...##aaaaaa##...",
"..##aaaaaaaa##..",
".######aa######.",
"......#aa#......",
"......#aa#......",
"......#aa#......",
"......#aa#......",
"......#aa#......",
"......#aa#......",
"......#aa#......",
"......#aa#......",
"......#aa#......",
"......#aa#......",
"......#aa#......",
"......#aa#......",
"......#aa#......",
"......#aa#......",
"......#aa#......",
"......#aa#......",
"......####......",
"................",
"................",
"................",
"................",
"................",
"................"};
