/* XPM */
static const char * inactive_object_xpm[] = {
"17 17 63 1",
" 	c None",
".	c #FFFFFF",
"+	c #BFBFBF",
"@	c #181818",
"#	c #312929",
"$	c #292121",
"%	c #211818",
"&	c #6B5A52",
"*	c #63524A",
"=	c #B59484",
"-	c #BDADA5",
";	c #C6A594",
">	c #AD8C7B",
",	c #73635A",
"'	c #CEB5A5",
")	c #B59C8C",
"!	c #AD9484",
"~	c #947B6B",
"{	c #F7DEC6",
"]	c #D6BDA5",
"^	c #8C7B6B",
"/	c #847363",
"(	c #423931",
"_	c #5A524A",
":	c #FFE7CE",
"<	c #524A42",
"[	c #9C8C7B",
"}	c #DEC6AD",
"|	c #948473",
"1	c #CEB59C",
"2	c #C6AD94",
"3	c #BDA58C",
"4	c #7B6B5A",
"5	c #393129",
"6	c #736352",
"7	c #4A4239",
"8	c #292118",
"9	c #AD9C84",
"0	c #EFD6B5",
"a	c #E7CEAD",
"b	c #D6BD9C",
"c	c #C6B59C",
"d	c #A5947B",
"e	c #FFEFD6",
"f	c #BDAD94",
"g	c #B5A58C",
"h	c #9C8C73",
"i	c #94846B",
"j	c #635A4A",
"k	c #7B7363",
"l	c #D6C6A5",
"m	c #5A5242",
"n	c #736B5A",
"o	c #6B6352",
"p	c #524A39",
"q	c #4A4231",
"r	c #FFF7DE",
"s	c #7B735A",
"t	c #FFFFDE",
"u	c #313129",
"v	c #292921",
"w	c #212118",
"x	c #181810",
"                 ",
"                 ",
"     ;b]c3g)     ",
"   -1a}]2gd^d-   ",
"   1a0r{f9h/oh   ",
"  3]lt.:gdi4j7=  ",
"  211:e'd|/o<5^  ",
"  ffffgd|/,_qv*  ",
"  999d[i/nj7ux8  ",
"  !hh|^k6*75wx*  ",
"  9//sn&m75wxx^  ",
"  )o&jmp(#%xxw=  ",
"   [77(5$xxxx~   ",
"   -~vwxxxx@^-   ",
"     >65%56>     ",
"                 ",
"                 "};
