/* XPM */
static const char * linear_down_xpm[] = {
"32 32 69 1",
" 	c None",
".	c #020202",
"+	c #2C2C28",
"@	c #000000",
"#	c #A59663",
"$	c #E5DDC1",
"%	c #3B382D",
"&	c #927B2C",
"*	c #DABC53",
"=	c #EFE2B7",
"-	c #474336",
";	c #7F6611",
">	c #DBBB4B",
",	c #F5E7B9",
"'	c #534F40",
")	c #765E0F",
"!	c #DAB843",
"~	c #F3E4B1",
"{	c #5F5A49",
"]	c #6A550D",
"^	c #D4B039",
"/	c #F0E0A9",
"(	c #6B6652",
"_	c #5E4C0B",
":	c #D5B033",
"<	c #EFDDA1",
"[	c #78715C",
"}	c #57460B",
"|	c #D3AD2B",
"1	c #ECD999",
"2	c #847D65",
"3	c #4A3B09",
"4	c #C8A321",
"5	c #E7D490",
"6	c #90886E",
"7	c #3D3107",
"8	c #BC9716",
"9	c #E3CF88",
"0	c #9C9478",
"a	c #322806",
"b	c #B39016",
"c	c #E0CA80",
"d	c #A89F81",
"e	c #292105",
"f	c #A38314",
"g	c #D9C377",
"h	c #B4AB8A",
"i	c #0C0C09",
"j	c #1E1803",
"k	c #947713",
"l	c #D0BA6F",
"m	c #C0B694",
"n	c #191713",
"o	c #141002",
"p	c #856B12",
"q	c #CCB567",
"r	c #CDC29D",
"s	c #25231C",
"t	c #0B0901",
"u	c #7C6411",
"v	c #C7AF5E",
"w	c #D8CBA1",
"x	c #302D21",
"y	c #030200",
"z	c #6C570E",
"A	c #B09A4C",
"B	c #DECA81",
"C	c #463809",
"D	c #372F14",
"                                ",
"                                ",
"                                ",
"                                ",
"                                ",
"                                ",
"                                ",
"        .+@                     ",
"        #$%@                    ",
"       @&*=-@                   ",
"        @;>,'@                  ",
"         @)!~{@                 ",
"          @]^/(@                ",
"           @_:<[@               ",
"            @}|12@              ",
"             @3456@             ",
"              @7890@            ",
"               @abcd@           ",
"                @efghi          ",
"                  jklmn         ",
"                   opqrs        ",
"                    tuvwx@      ",
"                     yzAB       ",
"                      @CD@      ",
"                        @       ",
"                                ",
"                                ",
"                                ",
"                                ",
"                                ",
"                                ",
"                                "};
