/* XPM */
static const char * linear_remove_xpm[] = {
"32 32 133 2",
"  	c None",
". 	c #000000",
"+ 	c #0F0A0A",
"@ 	c #855B5A",
"# 	c #A36D6C",
"$ 	c #3B2626",
"% 	c #653A38",
"& 	c #AC615F",
"* 	c #562F2E",
"= 	c #946261",
"- 	c #ED8B89",
"; 	c #F15655",
"> 	c #F15554",
", 	c #5A1D1C",
"' 	c #8F504E",
") 	c #E57A77",
"! 	c #E64E4C",
"~ 	c #E44745",
"{ 	c #380D0C",
"] 	c #B0706E",
"^ 	c #F24A49",
"/ 	c #F3403F",
"( 	c #F23F3E",
"_ 	c #5A1716",
": 	c #8E4C4B",
"< 	c #E47572",
"[ 	c #E34341",
"} 	c #E13533",
"| 	c #DE3331",
"1 	c #6E1818",
"2 	c #744645",
"3 	c #F24443",
"4 	c #F03E3D",
"5 	c #ED3C3B",
"6 	c #EA3A39",
"7 	c #AB413F",
"8 	c #E26F6C",
"9 	c #E1403E",
"0 	c #DB312F",
"a 	c #CB2C2A",
"b 	c #1B0505",
"c 	c #942F2E",
"d 	c #E63837",
"e 	c #E33635",
"f 	c #E03433",
"g 	c #DE3A38",
"h 	c #DA312F",
"i 	c #D82F2D",
"j 	c #C82A28",
"k 	c #270808",
"l 	c #FAF5E1",
"m 	c #F6E9BD",
"n 	c #2E2B23",
"o 	c #902322",
"p 	c #E33634",
"q 	c #E03432",
"r 	c #DD3231",
"s 	c #DA302F",
"t 	c #D72F2D",
"u 	c #D52D2B",
"v 	c #C52826",
"w 	c #270807",
"x 	c #9A9276",
"y 	c #F4E5B1",
"z 	c #EED889",
"A 	c #E8C85B",
"B 	c #CBA41C",
"C 	c #D1A81C",
"D 	c #CCA31A",
"E 	c #B28F15",
"F 	c #C23836",
"G 	c #DA302E",
"H 	c #D72E2C",
"I 	c #D42D2B",
"J 	c #D12B29",
"K 	c #CF2927",
"L 	c #661412",
"M 	c #2C2305",
"N 	c #A68617",
"O 	c #A38316",
"P 	c #907413",
"Q 	c #67530E",
"R 	c #8A3B39",
"S 	c #DD5B57",
"T 	c #D42F2D",
"U 	c #CE2927",
"V 	c #CC2725",
"W 	c #C92623",
"X 	c #C62421",
"Y 	c #490C0B",
"Z 	c #8A3835",
"` 	c #DB5551",
" .	c #D23330",
"..	c #CB2725",
"+.	c #C3221F",
"@.	c #C1211E",
"#.	c #BE1F1C",
"$.	c #460B09",
"%.	c #6D2A28",
"&.	c #DA504C",
"*.	c #D0302D",
"=.	c #C92523",
"-.	c #BA221F",
";.	c #861816",
">.	c #BC1D1A",
",.	c #B91C19",
"'.	c #B71B17",
").	c #160302",
"!.	c #A33936",
"~.	c #CE302D",
"{.	c #C82523",
"].	c #B7201D",
"^.	c #240605",
"/.	c #751210",
"(.	c #B91C18",
"_.	c #B71A17",
":.	c #B51916",
"<.	c #B21714",
"[.	c #580B09",
"}.	c #862A27",
"|.	c #C52321",
"1.	c #B41E1B",
"2.	c #710F0D",
"3.	c #B01612",
"4.	c #AE1511",
"5.	c #2B0504",
"6.	c #0F0404",
"7.	c #56100E",
"8.	c #5F0F0E",
"9.	c #230505",
"0.	c #410806",
"a.	c #560A08",
"b.	c #350605",
"                                                                ",
"                                                                ",
"                                                                ",
"                                                                ",
"                                                                ",
"                                                                ",
"                                                                ",
"                                                                ",
"                                                                ",
"                        .               .                       ",
"                    + @ # $ .       . % & * .                   ",
"                  . = - ; > , .   . ' ) ! ~ {                   ",
"                  . ] ^ / / ( _ . : < [ } | 1                   ",
"                    2 3 ( 4 5 6 7 8 9 | 0 a b                   ",
"          . . . . . . c 5 6 d e f g h i j k . . . . .           ",
"        . l m m m m m n o p q r s t u v w x m m m y z .         ",
"        . A B C C C D E . F G H I J K L M N N N O P Q .         ",
"          . . . . . . . R S T J U V W X Y . . . . . .           ",
"                    . Z `  .U ..W X +.@.#.$..                   ",
"                    %.&.*...=.-.;.@.#.>.,.'.).                  ",
"                  . !.~.{.X ].^.. /.(._.:.<.[.                  ",
"                  . }.|.+.1.^.    . 2.<.3.4.5.                  ",
"                    6.7.8.9.        . 0.a.b..                   ",
"                        .               .                       ",
"                                                                ",
"                                                                ",
"                                                                ",
"                                                                ",
"                                                                ",
"                                                                ",
"                                                                ",
"                                                                "};
