/* XPM */
static const char * mergevisible_xpm[] = {
"24 24 119 2",
"  	c None",
". 	c #454545",
"+ 	c #5A5A5A",
"@ 	c #000000",
"# 	c #020202",
"$ 	c #5E5E5E",
"% 	c #747474",
"& 	c #8C8C8C",
"* 	c #B8B8B8",
"= 	c #1F1F1F",
"- 	c #292929",
"; 	c #0B0B0B",
"> 	c #232323",
", 	c #B6B6B6",
"' 	c #1C1C1C",
") 	c #050505",
"! 	c #010101",
"~ 	c #0C0C0C",
"{ 	c #111111",
"] 	c #1B1B1B",
"^ 	c #030303",
"/ 	c #B9B9B9",
"( 	c #8E8E8E",
"_ 	c #3C3C3C",
": 	c #DDDDDD",
"< 	c #3D3D3D",
"[ 	c #0A0A0A",
"} 	c #272727",
"| 	c #D0D0D0",
"1 	c #040404",
"2 	c #949494",
"3 	c #161616",
"4 	c #757573",
"5 	c #454643",
"6 	c #3D3E3B",
"7 	c #60605E",
"8 	c #918D86",
"9 	c #939393",
"0 	c #969696",
"a 	c #525252",
"b 	c #262626",
"c 	c #938788",
"d 	c #303033",
"e 	c #525931",
"f 	c #566E04",
"g 	c #678901",
"h 	c #648400",
"i 	c #537100",
"j 	c #525C32",
"k 	c #2A2A2A",
"l 	c #423639",
"m 	c #CBCACB",
"n 	c #888888",
"o 	c #B1B1B1",
"p 	c #797777",
"q 	c #5B5C5B",
"r 	c #CECFCC",
"s 	c #9CC12A",
"t 	c #8ABA05",
"u 	c #5E7D08",
"v 	c #728C26",
"w 	c #89B704",
"x 	c #92BE20",
"y 	c #D2D3CF",
"z 	c #8A8989",
"A 	c #5D5556",
"B 	c #757575",
"C 	c #A19D9D",
"D 	c #BDBDBD",
"E 	c #FFFFFF",
"F 	c #FAFCF5",
"G 	c #77A008",
"H 	c #638605",
"I 	c #080B02",
"J 	c #5E5F59",
"K 	c #62820D",
"L 	c #72A106",
"M 	c #F8FAF2",
"N 	c #B9AFB0",
"O 	c #323232",
"P 	c #151515",
"Q 	c #404040",
"R 	c #D0CFCF",
"S 	c #FEFEFE",
"T 	c #86AE0E",
"U 	c #739B04",
"V 	c #1D2609",
"W 	c #212914",
"X 	c #658C06",
"Y 	c #7EAA0F",
"Z 	c #F8F8F1",
"` 	c #898989",
" .	c #4C4C4C",
"..	c #2E2E2E",
"+.	c #CCCBCB",
"@.	c #E8E8E8",
"#.	c #B6CF65",
"$.	c #8FC200",
"%.	c #83AB0A",
"&.	c #7DA900",
"*.	c #B3C651",
"=.	c #E7E8E8",
"-.	c #CDCDCD",
";.	c #E1DBDC",
">.	c #C1C1C1",
",.	c #303030",
"'.	c #C8C5C6",
").	c #A19A9B",
"!.	c #BBB9B9",
"~.	c #F2F3E9",
"{.	c #C9DD90",
"].	c #9DC432",
"^.	c #9ABE30",
"/.	c #C5DD7E",
"(.	c #F2F3E5",
"_.	c #BBBBBB",
":.	c #AEA6A8",
"<.	c #E5E5E5",
"[.	c #8C8885",
"                                                ",
"                      . +                       ",
"                      @ #                       ",
"                    $ @ @ %                     ",
"                    @ @ @ @                     ",
"                  % @ @ @ @ &                   ",
"                  @ @ @ @ @ @                   ",
"                * = - ; @ - > ,                 ",
"                      ' @                       ",
"                      ) !                       ",
"                      @ ~ {                     ",
"                    @ ]   ^ /                   ",
"                  @ )     ( @ _                 ",
"              ) @ -         : # ^ <             ",
"          [ @ }                 | 1 ) 2         ",
"        ) 3         4 5 6 7 8       9 @ 0       ",
"      a b     c d e f g h i j k l m   n @       ",
"      @ o   p q r s t u v w x y z A     b B     ",
"      3   C D E F G H I J K L M E E N   O P     ",
"    % Q   R E S F T U V W X Y Z E S     ` @     ",
"     ...    +.@.S #.$.%.&.$.*.E =.-.;.  >.@     ",
"    ,.@     '.).!.~.{.].^./.(._.:.      <.@     ",
"                        [.                      ",
"                                                "};
