/* XPM */
static const char * minus12x12_xpm[]={
"12 12 2 1",
". c #000000",
"# c None",
"............",
".##########.",
".##########.",
".##########.",
".##########.",
".#........#.",
".#........#.",
".##########.",
".##########.",
".##########.",
".##########.",
"............"};
