/* XPM */
static const char * moveup_xpm[] = {
"15 10 57 1",
" 	c None",
".	c #DBA07E",
"+	c #D27F4E",
"@	c #D17D50",
"#	c #DC935D",
"$	c #F0CA9E",
"%	c #D07C54",
"&	c #DB8D59",
"*	c #F1C799",
"=	c #ECB577",
"-	c #DB8D58",
";	c #D07853",
">	c #D98756",
",	c #EFBF92",
"'	c #E8A260",
")	c #DB8544",
"!	c #CE7452",
"~	c #D98553",
"{	c #EEB98B",
"]	c #E69A55",
"^	c #D06933",
"/	c #C55328",
"(	c #D16933",
"_	c #EEBA8B",
":	c #CF7553",
"<	c #CC6847",
"[	c #D87E4E",
"}	c #ECB384",
"|	c #E3904C",
"1	c #CD612C",
"2	c #CF7355",
"3	c #CF7354",
"4	c #D77D4D",
"5	c #CB6948",
"6	c #D27E65",
"7	c #D46B3D",
"8	c #EDAC80",
"9	c #E58748",
"0	c #D05C29",
"a	c #CC6A4D",
"b	c #CC694C",
"c	c #D46A3D",
"d	c #D27F66",
"e	c #C44D2F",
"f	c #E37639",
"g	c #E67C3D",
"h	c #D05324",
"i	c #CD6A51",
"j	c #D05424",
"k	c #E2753A",
"l	c #D27E6A",
"m	c #C9431C",
"n	c #C9441C",
"o	c #CA624A",
"p	c #D27F6B",
"q	c #E0B1A7",
"r	c #E3B9B0",
"      .+.      ",
"     @#$#@     ",
"    %&*=*-%    ",
"   ;>,')',>;   ",
"  !~{]^/(]_~:  ",
" <[}|12 31|}45 ",
"67890a   b098cd",
"efghi     ijgke",
"lmno       onmp",
" qr         rq "};
