/* XPM */
static const char * movedown_xpm[] = {
"15 10 61 1",
" 	c None",
".	c #E5C7B1",
"+	c #E7CCB9",
"@	c #DA9E79",
"#	c #D7884F",
"$	c #D98D56",
"%	c #D4895C",
"&	c #DA9E7A",
"*	c #CD6F3F",
"=	c #E9AA66",
"-	c #F2C99B",
";	c #DD915B",
">	c #D17D52",
",	c #D17C51",
"'	c #F1C99A",
")	c #E7A966",
"!	c #D68E6D",
"~	c #D5783C",
"{	c #E8A561",
"]	c #EFC092",
"^	c #DB8C59",
"/	c #D17D56",
"(	c #D17C55",
"_	c #E8A461",
":	c #D5773C",
"<	c #D68F6E",
"[	c #D17C59",
"}	c #D16D34",
"|	c #E69B56",
"1	c #EEBA8C",
"2	c #DA8754",
"3	c #CE724C",
"4	c #EBDAD2",
"5	c #CE714B",
"6	c #E69A56",
"7	c #D26C35",
"8	c #D17D5A",
"9	c #CE7251",
"0	c #CF642E",
"a	c #E3904C",
"b	c #ECB385",
"c	c #D97F50",
"d	c #C55127",
"e	c #CF7352",
"f	c #CD6C4E",
"g	c #D05D2A",
"h	c #E58748",
"i	c #EDAC81",
"j	c #E08D5F",
"k	c #CB664A",
"l	c #CF5525",
"m	c #E77D41",
"n	c #EEA277",
"o	c #E77D40",
"p	c #CF5424",
"q	c #CB674E",
"r	c #CF4B1E",
"s	c #E46328",
"t	c #CC674F",
"u	c #D27D6B",
"v	c #C14025",
" .+         +. ",
"@#$%       %$#&",
"*=-;>     ,;')*",
"!~{]^/   (^]_:<",
" [}|1234521678 ",
"  90abcdcba0e  ",
"   fghijihgf   ",
"    klmnopk    ",
"     qrsrt     ",
"      uvu      "};
