/* XPM */
static const char * multiple_users_xpm[] = {
"24 24 101 2",
"  	c None",
". 	c #000100",
"+ 	c #408F39",
"@ 	c #1AAD01",
"# 	c #18AB13",
"$ 	c #3A953D",
"% 	c #458F43",
"& 	c #1FAB22",
"* 	c #3E9935",
"= 	c #2CA831",
"- 	c #32AA23",
"; 	c #35A43E",
"> 	c #27B520",
", 	c #22BA19",
"' 	c #2DB42A",
") 	c #5B9E5E",
"! 	c #52AB4B",
"~ 	c #3EC832",
"{ 	c #71B039",
"] 	c #4CC343",
"^ 	c #54C837",
"/ 	c #96A546",
"( 	c #6BB566",
"_ 	c #A5A232",
": 	c #60C345",
"< 	c #97A93B",
"[ 	c #49D53E",
"} 	c #92AF45",
"| 	c #B09777",
"1 	c #93B239",
"2 	c #6CC73A",
"3 	c #58CF48",
"4 	c #7EB77A",
"5 	c #B7AA4B",
"6 	c #69CD68",
"7 	c #70CE58",
"8 	c #6ED150",
"9 	c #AEB05B",
"0 	c #BEAC47",
"a 	c #78C776",
"b 	c #C1B03B",
"c 	c #6CD564",
"d 	c #9FC070",
"e 	c #B0B774",
"f 	c #D9A761",
"g 	c #ADC058",
"h 	c #8ECB82",
"i 	c #97CC66",
"j 	c #F3AB25",
"k 	c #F2A933",
"l 	c #D7B05F",
"m 	c #CBBA4D",
"n 	c #87D869",
"o 	c #DEB248",
"p 	c #E0B440",
"q 	c #9CD25B",
"r 	c #A0C4A0",
"s 	c #F0B229",
"t 	c #E9B048",
"u 	c #EDB71E",
"v 	c #EEB237",
"w 	c #F3B41F",
"x 	c #F2B047",
"y 	c #D6B57F",
"z 	c #98D192",
"A 	c #F7BF1F",
"B 	c #D9C365",
"C 	c #E9C25B",
"D 	c #E3C84E",
"E 	c #F6C726",
"F 	c #F9C916",
"G 	c #A1E28A",
"H 	c #FCCE04",
"I 	c #D3CA90",
"J 	c #FAD108",
"K 	c #BFD1AA",
"L 	c #99EC94",
"M 	c #FBD913",
"N 	c #F8D932",
"O 	c #F8E204",
"P 	c #DED882",
"Q 	c #EAD76C",
"R 	c #F0D46C",
"S 	c #EBD777",
"T 	c #E4D88A",
"U 	c #EBE62D",
"V 	c #F6E420",
"W 	c #E3DDA1",
"X 	c #FAED0D",
"Y 	c #FAE539",
"Z 	c #E5DBAF",
"` 	c #F8E265",
" .	c #F9E659",
"..	c #E8E1AB",
"+.	c #EADDBF",
"@.	c #F3E87D",
"#.	c #FBEE4D",
"$.	c #E7E3C1",
"%.	c #F7ED89",
"&.	c #FAF774",
"*.	c #F0EDDF",
"                *.*.*.    *.*.*.                ",
"            *.Z P P I +.Z P P I +.              ",
"            W %.&.&.%.T Z &.&.%.T Z             ",
"          ..@.#.U U #.` R ..U #.` R ..          ",
"        ..Q  .Y U X #.#.` Q Z #.#.` Q Z         ",
"        T ` Y V X X V M Y ` B V M Y ` B         ",
"      +.Q Y M M O O M M M N S M M M N S         ",
"      $.D N J H J J M J E N C M J E N C         ",
"      Z C E E F J F F H F E C F H F E C         ",
"      +.C E A A E E A u E E B A u E E B         ",
"        f v w s u u u s u v l u s u v l         ",
"        y x v u v u j k k t y j k k t y         ",
"        I . . . . . j k x f | j k x f |         ",
"        e . . v x . . p B 9 K v p B 9 K         ",
"        d . 0 p t . . m } i h o m } i h         ",
"    r z G q 1 5 0 . . < { n L z . . n L z       ",
"    4 L c 8 2 { } . . { n 7 n G . . 7 n G 4     ",
"    h c 3 [ [ ^ . . i 7 ^ 3 . . . . . . n (     ",
"  ( 6 3 3 ~ ~ . . n 7 : ~ ^ . . . . . . 2 6     ",
"  ( ] > , ~ . . ] c : ' > , @ ] . . , @ ] : (   ",
"  ; ' # # . . - ' ] - # # # # & . . # # & ' !   ",
"  = ' @ # . . . . . . # @ # # > & ! # # > & !   ",
"  ; & - - . . . . . . - = - = & & * - = & & *   ",
"  ) + * + % % + % $ $ + + + % $ $ ) + % $ $ )   "};
