/* XPM */
static const char * paint_spatial_xpm[] = {
"24 24 36 1",
" 	c None",
".	c #FFFFFF",
"+	c #000000",
"@	c #7F7F7F",
"#	c #868686",
"$	c #010101",
"%	c #ACACAC",
"&	c #8D8D8D",
"*	c #AAAAAA",
"=	c #959595",
"-	c #A6A6A6",
";	c #8B8B8B",
">	c #020202",
",	c #B2B2B2",
"'	c #A7A7A7",
")	c #F8F8F8",
"!	c #DCDCDC",
"~	c #D5D5D5",
"{	c #9E9E9E",
"]	c #848484",
"^	c #FDFDFD",
"/	c #D4D4D4",
"(	c #878787",
"_	c #DBDBDB",
":	c #8C8C8C",
"<	c #A8A8A8",
"[	c #7D7D7D",
"}	c #8E8E8E",
"|	c #A9A9A9",
"1	c #8F8F8F",
"2	c #B1B1B1",
"3	c #8A8A8A",
"4	c #ABABAB",
"5	c #808080",
"6	c #7B7B7B",
"7	c #FEFEFE",
"                  .+++++",
"                  .+++++",
" +++              .+++++",
" +  +            .@+++++",
" ++++           .#+$%...",
"    +          .&+$*.   ",
"   ++         .=+$-.    ",
" +++         .;+>,.     ",
"            .=+$'.      ",
"         )!~#++{.       ",
"         !++++]^        ",
"         ~++++/         ",
"        .(++++_  :      ",
"       .<$+[/_) :+:     ",
"      .<>+}^   :+++:    ",
"     .|$+1.     :+:     ",
"    .2>+3.   :  :+:  :  ",
"   .-$+=.   :+:::+:::+: ",
"  .|$+}.   :+++++++++++:",
"..4$+5.     :+:::+:::+: ",
"++++6.      ::  :+:  :  ",
"++++7           :+:     ",
"++++7          :+++:    ",
"++++.           :+:     "};
