/* XPM */
static const char * paint_move_xpm[] = {
"24 24 58 1",
" 	c None",
".	c #000000",
"+	c #C8C8C8",
"@	c #C2C2C2",
"#	c #C4C4C4",
"$	c #DCDCDC",
"%	c #C6C6C6",
"&	c #1F1F1F",
"*	c #7F7F7F",
"=	c #B5B5B5",
"-	c #DADADA",
";	c #C7C7C7",
">	c #757575",
",	c #373737",
"'	c #B6B6B6",
")	c #DDDDDD",
"!	c #D8D8D8",
"~	c #BFBFBF",
"{	c #9C9C9C",
"]	c #A7A7A7",
"^	c #C0C0C0",
"/	c #DFDFDF",
"(	c #D2D2D2",
"_	c #B0B0B0",
":	c #BEBEBE",
"<	c #E1E1E1",
"[	c #BCBCBC",
"}	c #CECECE",
"|	c #D0D0D0",
"1	c #767676",
"2	c #E0E0E0",
"3	c #4A4A4A",
"4	c #B2B2B2",
"5	c #DBDBDB",
"6	c #8F8F8F",
"7	c #4D4D4D",
"8	c #595959",
"9	c #282828",
"0	c #C5C5C5",
"a	c #B1B1B1",
"b	c #444444",
"c	c #8D8D8D",
"d	c #B9B9B9",
"e	c #D7D7D7",
"f	c #939393",
"g	c #AAAAAA",
"h	c #D9D9D9",
"i	c #CFCFCF",
"j	c #626262",
"k	c #353535",
"l	c #393939",
"m	c #BDBDBD",
"n	c #575757",
"o	c #919191",
"p	c #868686",
"q	c #ACACAC",
"r	c #B8B8B8",
"s	c #D6D6D6",
"                        ",
"                        ",
" ....                   ",
" .         +            ",
" ...      @.#$          ",
"    .    %&*.=-         ",
"    .   ;.>,..')        ",
" ...     !~.{]^!        ",
"      ;  /(._:(/;       ",
"     %.!/ <.[}< .^$     ",
"    |.1~(<2.[}2<3.4-    ",
"   5.67.........89.=$   ",
"    0..{_[[.]a[[b.cde   ",
"    )'.]:}}.a~}}.fg%$   ",
"     -'^(<2.[}2<^~;h    ",
"      )!/ <.[}< /!)     ",
"        i.jkl.d/        ",
"         m&n.o~!        ",
"         )].pg%$        ",
"          hqr%h         ",
"           5s5          ",
"                        ",
"                        ",
"                        "};
