/* XPM */
static const char * paint_create_symbol_xpm[] = {
"24 24 118 2",
"  	c None",
". 	c #909304",
"+ 	c #96983B",
"@ 	c #020200",
"# 	c #979855",
"$ 	c #4B4C02",
"% 	c #878A03",
"& 	c #4D4F02",
"* 	c #969847",
"= 	c #95972B",
"- 	c #97985B",
"; 	c #111200",
"> 	c #707202",
", 	c #171800",
"' 	c #98996B",
") 	c #949615",
"! 	c #989868",
"~ 	c #0A0A00",
"{ 	c #333301",
"] 	c #959619",
"^ 	c #989866",
"/ 	c #969737",
"( 	c #929404",
"_ 	c #3C3D01",
": 	c #262701",
"< 	c #959621",
"[ 	c #959622",
"} 	c #98997C",
"| 	c #939604",
"1 	c #585902",
"2 	c #393901",
"3 	c #6B6D02",
"4 	c #959725",
"5 	c #646502",
"6 	c #888B03",
"7 	c #939605",
"8 	c #95972F",
"9 	c #0B0B00",
"0 	c #95961C",
"a 	c #424301",
"b 	c #969848",
"c 	c #414201",
"d 	c #97985F",
"e 	c #686A02",
"f 	c #121300",
"g 	c #959728",
"h 	c #969844",
"i 	c #696B02",
"j 	c #989862",
"k 	c #979853",
"l 	c #979858",
"m 	c #99997E",
"n 	c #989972",
"o 	c #343501",
"p 	c #959726",
"q 	c #3B3C01",
"r 	c #979856",
"s 	c #979859",
"t 	c #949609",
"u 	c #7C7E03",
"v 	c #97985C",
"w 	c #97985E",
"x 	c #383801",
"y 	c #515202",
"z 	c #949611",
"A 	c #2D2E01",
"B 	c #606102",
"C 	c #626402",
"D 	c #94960A",
"E 	c #96984D",
"F 	c #989864",
"G 	c #989860",
"H 	c #989861",
"I 	c #787A03",
"J 	c #969842",
"K 	c #2B2B01",
"L 	c #969850",
"M 	c #4C4D02",
"N 	c #828403",
"O 	c #989867",
"P 	c #96983F",
"Q 	c #282901",
"R 	c #6D6F02",
"S 	c #989978",
"T 	c #727302",
"U 	c #969841",
"V 	c #95961D",
"W 	c #999984",
"X 	c #97985A",
"Y 	c #393B01",
"Z 	c #8C8F03",
"` 	c #999983",
" .	c #98986A",
"..	c #565702",
"+.	c #96983C",
"@.	c #828503",
"#.	c #989979",
"$.	c #969846",
"%.	c #969840",
"&.	c #080800",
"*.	c #969733",
"=.	c #737602",
"-.	c #959618",
";.	c #96984A",
">.	c #474802",
",.	c #757702",
"'.	c #212201",
").	c #323201",
"!.	c #2F3001",
"~.	c #505102",
"{.	c #101000",
"].	c #616202",
"^.	c #151500",
"/.	c #969736",
"(.	c #5B5D02",
"_.	c #434401",
":.	c #95972A",
"<.	c #050500",
"                        .                       ",
"                      + @ #                     ",
"                      $ % &                     ",
"        * =         - ; > , *       ' ) '       ",
"        ! ~ { $ ]   ^ / / / -   ( _ { :         ",
"          $ < { [ } | 1 2 3 4   3 5 6 7         ",
"          8 9 0 8 a b     ' [ c d e f }         ",
"            g h i   j k # l m n o   p           ",
"              q   - r l l s s n * 5             ",
"        t u * ) n l s - - - v w   x ! y 8       ",
"    z A B C D E F - v v w G H j   I J K i q /   ",
"  L M q N 5 7 k O w G H j F F F   N P K D Q R S ",
"      - 3 T U V W j F F F ^ O !   c X Y Z `     ",
"              a   ! O O ! !  .  w ..X           ",
"            +.8 @.  #. .' '     x $.[           ",
"          %.&.*.t M !       $.o p > 9           ",
"          =.-.x / ;.5 2 2 >.I L =.5 ,.8         ",
"          '.B ).|   ! / 8 8 * G > !.~.5         ",
"        l 5 %.      L {.].^./.      p (.        ",
"                      _.:._.                    ",
"                      8 <.J                     ",
"                        =.                      ",
"                                                ",
"                                                "};
