/* XPM */
static const char * paint_include_xpm[] = {
"24 24 5 1",
" 	c None",
".	c #000000",
"+	c #BC0000",
"@	c #9999FF",
"#	c #616161",
"                        ",
"          ...           ",
" ...      ...           ",
"    .     ...           ",
"    .  .........        ",
"  ..   .........        ",
"    .  .........        ",
" ....     ...           ",
"          ...           ",
"          ...           ",
"                        ",
"                        ",
"      .....+++++++      ",
"    ...@@+++###@@+++    ",
"  ...@@+++@@@@###@@+++  ",
"  .@@@@+@@@@@@@@#@@@@+  ",
" ..@@@++@@@@@@@@##@@@++ ",
" .@@@@+@@@@@@@@@@#@@@@+ ",
" ..@@@++@@@@@@@@##@@@++ ",
"  .@@@@+@@@@@@@@#@@@@+  ",
"  ...@@+++@@@@###@@+++  ",
"    ...@@+++###@@+++    ",
"      .....+++++++      ",
"                        "};
