/* XPM */
static const char * paint_hide_xpm[] = {
"24 24 2 1",
" 	c None",
".	c #000000",
"                        ",
"                        ",
"                        ",
"            .           ",
"           ...          ",
"           ...          ",
"        .. ... ..       ",
"       ... ... ...      ",
"      ...  ...  ...     ",
"      ..   ...   ..     ",
"     ..    ...    ..    ",
"     ..     .     ..    ",
"     ..           ..    ",
"     ..           ..    ",
"     ..           ..    ",
"      ..         ..     ",
"      ...       ...     ",
"       ...     ...      ",
"        .........       ",
"          .....         ",
"                        ",
"                        ",
"                        ",
"                        "};
