/* XPM */
static const char * paint_create_polyline_xpm[] = {
"24 24 176 2",
"  	c None",
". 	c #000000",
"+ 	c #B1B1B0",
"@ 	c #4A4949",
"# 	c #939392",
"$ 	c #A09F9D",
"% 	c #5E5E5E",
"& 	c #131313",
"* 	c #4D4D4C",
"= 	c #6C6D6C",
"- 	c #363535",
"; 	c #777777",
"> 	c #1C1C1C",
", 	c #0C0A07",
"' 	c #71706F",
") 	c #666A6D",
"! 	c #6A7178",
"~ 	c #B0BCCB",
"{ 	c #656F7D",
"] 	c #18191C",
"^ 	c #767575",
"/ 	c #1F1F1F",
"( 	c #383838",
"_ 	c #333230",
": 	c #9198A0",
"< 	c #8792A0",
"[ 	c #A3B5CA",
"} 	c #98ABC2",
"| 	c #95AAC2",
"1 	c #8A9DB4",
"2 	c #394047",
"3 	c #ADB3B9",
"4 	c #B0BFD1",
"5 	c #91A6BF",
"6 	c #92A7C0",
"7 	c #92A6BF",
"8 	c #92A8C0",
"9 	c #889CB4",
"0 	c #3C4149",
"a 	c #BFBCB9",
"b 	c #F1F0EF",
"c 	c #23211F",
"d 	c #C5D1DF",
"e 	c #90A5BF",
"f 	c #93A7BF",
"g 	c #94A9C2",
"h 	c #899DB5",
"i 	c #3C4248",
"j 	c #4C4B4A",
"k 	c #959BA2",
"l 	c #B2C2D5",
"m 	c #8FA4BE",
"n 	c #93A8C1",
"o 	c #96ABC3",
"p 	c #8AA0B6",
"q 	c #3D4349",
"r 	c #BEBCB8",
"s 	c #2C2D2C",
"t 	c #C3D0DF",
"u 	c #99AEC5",
"v 	c #93A9C2",
"w 	c #96ACC5",
"x 	c #8CA0B7",
"y 	c #3D434A",
"z 	c #6A6F74",
"A 	c #BED2E8",
"B 	c #97ACC5",
"C 	c #98ADC6",
"D 	c #8DA2B8",
"E 	c #BEBBB8",
"F 	c #141517",
"G 	c #6E767F",
"H 	c #94A8BE",
"I 	c #9AB0C8",
"J 	c #8EA3BA",
"K 	c #3E444A",
"L 	c #2C2C2B",
"M 	c #545455",
"N 	c #728499",
"O 	c #9BB2C9",
"P 	c #8FA3BA",
"Q 	c #9F9E9D",
"R 	c #313131",
"S 	c #373A3E",
"T 	c #8194A9",
"U 	c #9DB2CA",
"V 	c #95AAC0",
"W 	c #424850",
"X 	c #888686",
"Y 	c #656566",
"Z 	c #C8D4DF",
"` 	c #9AAEC4",
" .	c #9BB1C8",
"..	c #9EB3CA",
"+.	c #6C7D8F",
"@.	c #111518",
"#.	c #8C8B89",
"$.	c #5B5A59",
"%.	c #919191",
"&.	c #C3CFDB",
"*.	c #9EB4CB",
"=.	c #9CB1C9",
"-.	c #9DB3CB",
";.	c #A0B5CD",
">.	c #313C49",
",.	c #817F7D",
"'.	c #3A3A3A",
").	c #030302",
"!.	c #C1C1C1",
"~.	c #434343",
"{.	c #8B8B8C",
"].	c #BDCAD8",
"^.	c #9BB1C9",
"/.	c #9DB3CA",
"(.	c #9FB4CB",
"_.	c #A2B7CD",
":.	c #303B47",
"<.	c #56585B",
"[.	c #C8D7E7",
"}.	c #17181B",
"|.	c #070605",
"1.	c #323232",
"2.	c #6C6C6C",
"3.	c #747372",
"4.	c #767B7F",
"5.	c #ABBCCC",
"6.	c #9DB2C9",
"7.	c #9EB4CC",
"8.	c #9FB5CC",
"9.	c #A0B5CC",
"0.	c #A8BFD6",
"a.	c #AEC5DF",
"b.	c #A8BFD8",
"c.	c #9EB5CC",
"d.	c #C1D4E7",
"e.	c #C4D8EA",
"f.	c #6A7887",
"g.	c #5D5C5B",
"h.	c #686868",
"i.	c #2B2929",
"j.	c #73787E",
"k.	c #7D8690",
"l.	c #6C7987",
"m.	c #8192A3",
"n.	c #96AAC0",
"o.	c #95A8BE",
"p.	c #97AABF",
"q.	c #97ACC0",
"r.	c #9AADC1",
"s.	c #9BAFC2",
"t.	c #98AEC1",
"u.	c #98ADC1",
"v.	c #A0B5C9",
"w.	c #363F48",
"x.	c #666463",
"y.	c #B4B3B2",
"z.	c #858483",
"A.	c #5D5B59",
"B.	c #1F2224",
"C.	c #5A6066",
"D.	c #565B61",
"E.	c #575C62",
"F.	c #585E63",
"G.	c #595E63",
"H.	c #595F64",
"I.	c #595F63",
"J.	c #5A6065",
"K.	c #25282B",
"L.	c #4B4A4B",
"M.	c #252524",
"N.	c #565656",
"O.	c #747373",
"P.	c #666564",
"Q.	c #424040",
"R.	c #616061",
"S.	c #898888",
"        .                                       ",
"        .                                       ",
"        .                                       ",
"                                                ",
". . .   .   . . .                               ",
"                            + @ #               ",
"        .               $ % & * =               ",
"        .   - ; > , ' ) ! ~ { ] ^               ",
"        .   / ( _ : < [ } | 1 2                 ",
"              . 3 4 5 6 7 8 9 0 a               ",
"              b c d e 7 f g h i a               ",
"                j k l m n o p q r               ",
"                  s t u v w x y r               ",
"                    z A B C D y E               ",
"                    F G H I J K E               ",
"                    L M N O P K E               ",
"                  Q R S T U V W                 ",
"                X Y Z `  ...+.@.#.    .         ",
"              $.%.&.*.=.-.;.>.,.'.. ).!..       ",
"          ~.. {.].I ^./.(._.:.. <.[.}.|.1.      ",
"          2.3.4.5.(.6.7.8.9.0.a.b.c.d.e.f.g.    ",
"          h.. i.j.k.l.m.n.o.p.q.r.s.t.u.v.w.x.y.",
"                z.. A.B.C.D.E.F.G.H.I.H.J.K.L.M.",
"                  N.O.P.                  Q.R.S."};
