/* XPM */
static const char * paint_cursor_xpm[] = {
"17 17 3 1",
" 	c None",
".	c #000000",
"+	c #FFFFFF",
"             ..  ",
"            .+.. ",
"           .+++..",
"          .+.+++.",
"         .+++.+. ",
"        .++.++.  ",
"       .++.++.   ",
"      .++.++.    ",
"     .++.++.     ",
"    .++.++.      ",
"   .++.++.       ",
"  .++.++.        ",
" .++.++.         ",
".++.++.          ",
".++++.           ",
"..++.            ",
"....             "};
