/* XPM */
static const char * paint_add_cursor_xpm[] = {
"17 17 3 1",
" 	c None",
".	c #FFFFFF",
"+	c #000000",
"            ...  ",
"       ..   .+.  ",
"      .++....+...",
"      .++..+++++.",
"     .++++...+...",
"    .++++++..+.  ",
"    .++++++....  ",
"   .++++++++.    ",
"   .++++++++.    ",
"  .++..++..++.   ",
"  .+. .++. .+.   ",
"  ..  .++.  ..   ",
"      .++.       ",
"      .++.       ",
"      .++.       ",
"      ....       ",
"                 "};
