/* XPM */
static const char * paint_create_text_xpm[] = {
"24 24 3 1",
" 	c None",
".	c #808080",
"X	c #000000",
"                        ",
"                        ",
"                        ",
"    XXXXXXXXXXXXXXXX    ",
"    XXXXXXXXXXXXXXXX    ",
"    XXXXXXXXXXXXXXXX    ",
"    X.    XXXX    .X    ",
"          XXXX          ",
"          XXXX          ",
"          XXXX          ",
"          XXXX          ",
"          XXXX          ",
"          XXXX          ",
"          XXXX          ",
"          XXXX          ",
"          XXXX          ",
"          XXXX          ",
"          XXXX          ",
"          XXXX          ",
"         .XXXX.         ",
"         XXXXXX         ",
"                        ",
"                        ",
"                        "};
