/* XPM */
static const char * paint_create_symbol_xpm[] = {
"24 24 157 2",
"  	c None",
". 	c #000000",
"+ 	c #989904",
"@ 	c #969832",
"# 	c #323303",
"$ 	c #9A9B4B",
"% 	c #AFB034",
"& 	c #353800",
"* 	c #919300",
"= 	c #434604",
"- 	c #A7A777",
"; 	c #A9AA2D",
"> 	c #A4A56C",
", 	c #464613",
"' 	c #3E3F00",
") 	c #757709",
"! 	c #9E9F79",
"~ 	c #838434",
"{ 	c #9C9E30",
"] 	c #888A3D",
"^ 	c #AFB100",
"/ 	c #515200",
"( 	c #58581F",
"_ 	c #56580F",
": 	c #535500",
"< 	c #9C9D22",
"[ 	c #555603",
"} 	c #A5A75D",
"| 	c #A7A82A",
"1 	c #727405",
"2 	c #525304",
"3 	c #8C8E0D",
"4 	c #7F8100",
"5 	c #727401",
"6 	c #999B02",
"7 	c #9EA000",
"8 	c #A8AA36",
"9 	c #282901",
"0 	c #ADAF29",
"a 	c #747511",
"b 	c #898B3B",
"c 	c #A0A163",
"d 	c #787A0E",
"e 	c #88894F",
"f 	c #808109",
"g 	c #2F310B",
"h 	c #A8A995",
"i 	c #AAAD2F",
"j 	c #80832A",
"k 	c #A0A16D",
"l 	c #9F9F59",
"m 	c #9EA05A",
"n 	c #9F9F64",
"o 	c #A4A58B",
"p 	c #6A6C2A",
"q 	c #AEB02A",
"r 	c #777810",
"s 	c #A3A475",
"t 	c #9FA05A",
"u 	c #9EA05D",
"v 	c #9FA05D",
"w 	c #9D9E65",
"x 	c #ADB06B",
"y 	c #5F6101",
"z 	c #767809",
"A 	c #75760B",
"B 	c #6F7003",
"C 	c #797B01",
"D 	c #A3A520",
"E 	c #9FA250",
"F 	c #9D9E68",
"G 	c #9F9F5F",
"H 	c #9F9F60",
"I 	c #9E9F62",
"J 	c #9E9E64",
"K 	c #9D9E66",
"L 	c #767800",
"M 	c #999B4E",
"N 	c #535300",
"O 	c #6E7006",
"P 	c #8E8F31",
"Q 	c #8F913F",
"R 	c #505100",
"S 	c #808201",
"T 	c #757702",
"U 	c #A6A808",
"V 	c #9E9E65",
"W 	c #9C9D68",
"X 	c #9E9E67",
"Y 	c #9D9E67",
"Z 	c #9D9E69",
"` 	c #949600",
" .	c #999A40",
"..	c #525300",
"+.	c #6E7003",
"@.	c #6B6D00",
"#.	c #9A9C75",
"$.	c #86881D",
"%.	c #828400",
"&.	c #A0A147",
"*.	c #9C9C34",
"=.	c #9D9E80",
"-.	c #9C9D6A",
";.	c #9B9C6D",
">.	c #9B9B6E",
",.	c #9C9C5E",
"'.	c #5A5D00",
").	c #A3A54C",
"!.	c #636403",
"~.	c #9C9C74",
"{.	c #9B9B6F",
"].	c #9B9C6F",
"^.	c #89894E",
"/.	c #777918",
"(.	c #A5A653",
"_.	c #5E5F21",
":.	c #ACAE2D",
"<.	c #92936D",
"[.	c #666709",
"}.	c #93962A",
"|.	c #57580C",
"1.	c #919514",
"2.	c #7B7C12",
"3.	c #707117",
"4.	c #9B9D3A",
"5.	c #838521",
"6.	c #454600",
"7.	c #404100",
"8.	c #666700",
"9.	c #8C8E2A",
"0.	c #8C901B",
"a.	c #7D7F00",
"b.	c #ABAD3E",
"c.	c #353701",
"d.	c #727400",
"e.	c #5C5E02",
"f.	c #979870",
"g.	c #9E9F3C",
"h.	c #9FA135",
"i.	c #9FA05E",
"j.	c #8D8F1C",
"k.	c #494A00",
"l.	c #666900",
"m.	c #7B7D05",
"n.	c #A2A364",
"o.	c #797B05",
"p.	c #A2A34A",
"q.	c #A9AD5B",
"r.	c #282802",
"s.	c #717302",
"t.	c #43440D",
"u.	c #9FA127",
"v.	c #686A00",
"w.	c #6E700D",
"x.	c #7E7F24",
"y.	c #6C6D11",
"z.	c #4B4E00",
"        .                                       ",
"        .                                       ",
"        .                                       ",
"                                                ",
". . .   .   . . .                               ",
"                            +                   ",
"        .                 @ # $                 ",
"        .       %         & * =       - ;       ",
"        .     > , ' )   ! ~ { ]   ^ / ( _       ",
"                : < [ } | 1 2 3   4 5 6 7       ",
"                8 9 0 a b     c d e f g h       ",
"                  i j   k l m n o p   q         ",
"                *   r s t u v v w x y   z       ",
"            A B C D E F G H I J K   L M N O P   ",
"          Q R S T U V W J X Y Z Z   `  ...+.@.#.",
"              $.%.&.*.=.W -.-.;.>.  / ,.'.).    ",
"                    !.  ~.{.].].  ^./.(.        ",
"                  _.:.4 <.        [.}.|.        ",
"                1.2.3.4.5.6.7.8.9.0.a.+.b.      ",
"                c.d.e.  f.g.{ h.i.j.k.l.m.      ",
"              n.o.p.    q.r.s.t.      u.v.      ",
"                          w.x.y.                ",
"                            z.                  ",
"                                                "};
