/* XPM */
static const char * paint_create_polyline_xpm[] = {
"24 24 215 2",
"  	c None",
". 	c #C3C3C2",
"+ 	c #545353",
"@ 	c #565655",
"# 	c #CECDCC",
"$ 	c #BEBDBC",
"% 	c #383736",
"& 	c #141312",
"* 	c #727272",
"= 	c #2F3030",
"- 	c #BCBBBA",
"; 	c #5E5D5D",
"> 	c #232322",
", 	c #2D2D2D",
"' 	c #CFCECD",
") 	c #201F1E",
"! 	c #2C2B29",
"~ 	c #595958",
"{ 	c #B4B9C0",
"] 	c #464A50",
"^ 	c #1D1B1A",
"/ 	c #000000",
"( 	c #BCBCBC",
"_ 	c #1D1D1D",
": 	c #D5D6D6",
"< 	c #040404",
"[ 	c #151413",
"} 	c #B8BFC6",
"| 	c #A6B2BF",
"1 	c #98A8BB",
"2 	c #9FB2C9",
"3 	c #90A2B8",
"4 	c #141C26",
"5 	c #9A9897",
"6 	c #272727",
"7 	c #060606",
"8 	c #545352",
"9 	c #BEC8D3",
"0 	c #A9B6C7",
"a 	c #96AAC2",
"b 	c #94A8C0",
"c 	c #93A8C0",
"d 	c #91A5BD",
"e 	c #1B2631",
"f 	c #ADACAB",
"g 	c #121110",
"h 	c #B9C0C8",
"i 	c #B2C0D2",
"j 	c #92A7C0",
"k 	c #93A9C1",
"l 	c #91A5BE",
"m 	c #1C2531",
"n 	c #ADACAA",
"o 	c #D5D4D3",
"p 	c #252423",
"q 	c #C1CDDA",
"r 	c #93A7C0",
"s 	c #94A9C2",
"t 	c #92A6BF",
"u 	c #1C2631",
"v 	c #1A1919",
"w 	c #B3BBC3",
"x 	c #B4C2D3",
"y 	c #91A5BF",
"z 	c #94A9C1",
"A 	c #96ABC3",
"B 	c #93A9C0",
"C 	c #1D2732",
"D 	c #DDDCDB",
"E 	c #2F2F2E",
"F 	c #BFCCDB",
"G 	c #93A9C2",
"H 	c #95AAC3",
"I 	c #96ACC4",
"J 	c #94A9C0",
"K 	c #1D2733",
"L 	c #30302F",
"M 	c #ABB1B8",
"N 	c #B5C4D7",
"O 	c #92A8C1",
"P 	c #96ABC4",
"Q 	c #97ADC6",
"R 	c #1E2833",
"S 	c #ADABAA",
"T 	c #252525",
"U 	c #C4D3E4",
"V 	c #A3B8CF",
"W 	c #99AEC7",
"X 	c #96ACC3",
"Y 	c #1E2834",
"Z 	c #52575C",
"` 	c #78828E",
" .	c #9AB1CA",
"..	c #9AB0C8",
"+.	c #97ADC4",
"@.	c #1F2934",
"#.	c #AEADAD",
"$.	c #03070C",
"%.	c #A1B8D2",
"&.	c #9AB1C8",
"*.	c #98ADC4",
"=.	c #DCDBDA",
"-.	c #42403E",
";.	c #090C0F",
">.	c #A2B9D3",
",.	c #9CB1C9",
"'.	c #9AAFC5",
").	c #202A35",
"!.	c #DBDAD9",
"~.	c #151514",
"{.	c #BFC1C2",
"].	c #96A4B2",
"^.	c #899BB0",
"/.	c #9DB3CA",
"(.	c #9EB3CA",
"_.	c #9FB5CC",
":.	c #232E3A",
"<.	c #B6B5B3",
"[.	c #323131",
"}.	c #C3C4C6",
"|.	c #BCCCDB",
"1.	c #9EB3CB",
"2.	c #9CB2CA",
"3.	c #9DB2CA",
"4.	c #9CB1C8",
"5.	c #485665",
"6.	c #C6C5C4",
"7.	c #323232",
"8.	c #0C0C0C",
"9.	c #1C1C1C",
"0.	c #DEDDDC",
"a.	c #0D0C0C",
"b.	c #C5C7C9",
"c.	c #BAC9D8",
"d.	c #9BB1C8",
"e.	c #9EB4CC",
"f.	c #2D3947",
"g.	c #AAA9A8",
"h.	c #676767",
"i.	c #050403",
"j.	c #F8F8F8",
"k.	c #5C5B5B",
"l.	c #C3C5C7",
"m.	c #BAC9D9",
"n.	c #9EB4CB",
"o.	c #A0B5CC",
"p.	c #9EB3C9",
"q.	c #3D4A57",
"r.	c #0F0E0D",
"s.	c #ACB5BF",
"t.	c #CADBEE",
"u.	c #141517",
"v.	c #020202",
"w.	c #4A4A4A",
"x.	c #C1C1C1",
"y.	c #2B2A29",
"z.	c #A5ADB5",
"A.	c #ADBFD0",
"B.	c #9FB4CB",
"C.	c #A1B6CD",
"D.	c #A4BAD1",
"E.	c #A7BDD6",
"F.	c #A7BED6",
"G.	c #A2B8CF",
"H.	c #BED0E2",
"I.	c #C0D3E4",
"J.	c #92A4B6",
"K.	c #050505",
"L.	c #C4C3C2",
"M.	c #878787",
"N.	c #0D0D0D",
"O.	c #1F1F1F",
"P.	c #060505",
"Q.	c #9FA8B1",
"R.	c #A9B5C3",
"S.	c #8C9EB2",
"T.	c #92A5B8",
"U.	c #A1B5CC",
"V.	c #A2B7CD",
"W.	c #A2B8CE",
"X.	c #A4B8CF",
"Y.	c #A5BACF",
"Z.	c #A5BBD0",
"`.	c #A4BBD0",
" +	c #A4BACF",
".+	c #A7BDD3",
"++	c #8EA0B1",
"@+	c #BFBEBD",
"#+	c #D2D3D5",
"$+	c #242323",
"%+	c #363432",
"&+	c #798897",
"*+	c #6E7D8C",
"=+	c #717E8E",
"-+	c #73808F",
";+	c #748391",
">+	c #758491",
",+	c #778593",
"'+	c #778693",
")+	c #6F7E8C",
"!+	c #010000",
"~+	c #222222",
"{+	c #353434",
"]+	c #D9D8D7",
"^+	c #BFBFBF",
"/+	c #4B4947",
"(+	c #454341",
"_+	c #403E3C",
":+	c #0B0B0B",
"<+	c #ABABAC",
"[+	c #313130",
"}+	c #565555",
"|+	c #929191",
"1+	c #555454",
"2+	c #A8A7A7",
"                        . + @ #                 ",
"                    $ % & * = -                 ",
"      ; > ,   ' ) ! ~ { ] ^ / (                 ",
"      _ : < [ [ } | 1 2 3 4 5                   ",
"      6 7 8 9 0 a a b c d e f                   ",
"        g h i j j j j k l m n                   ",
"        o p q j j r c s t u n                   ",
"          v w x y c z A B C n                   ",
"          D E F A G H I J K n                   ",
"            L M N O P Q a R S                   ",
"              T U V P W X Y S                   ",
"              / Z `  ...+.@.S                   ",
"              / #.$.%.&.*.@.S                   ",
"            =./ -.;.>.,.'.).S                   ",
"          !.~.{.].^./.(._.:.<.                  ",
"        =.[.}.|.1.2.3.4.5./ / 6.  7.8.9.        ",
"      0.a.b.c.d.d.3.e.4.f.g.h./ i./ j./         ",
"  k./ / l.m...,./.n.o.p.q./ r.s.t.u./ v.}.      ",
"  w.x.y.z.A.B.(.e._.o.C.D.E.F.D.G.H.I.J.K.L.    ",
"  M.N.O.P.Q.R.S.T.o.o.U.V.W.X.Y.Z.`. +.+++/ @+0.",
"        #+$+/ %+/ &+*+=+-+;+>+,+'+'+'+'+)+!+~+{+",
"          ]+/ ^+/ /+(+(+(+(+(+(+(+(+(+(+_+:+<+[+",
"            * }+|+                        k.1+2+",
"                                                "};
