/* XPM */
static const char * paint_create_composite_xpm[] = {
"24 24 3 1",
" 	c None",
".	c #808080",
"X	c #000000",
"                        ",
"                        ",
" XXXXXXXXX              ",
" XXXXXXXXX              ",
" XX     XX              ",
" XX     XX              ",
" XX     XX     .XX      ",
" XX     XX    .XX.      ",
" XX     XX   .XX.       ",
" XXXXXXXXX  .XX.        ",
" XXXXXXXXX .XX.         ",
"          .XX.          ",
"         .XX.           ",
"        .XX. XXXXXXXXX  ",
"       .XX.  XXXXXXXXX  ",
"      .XX.   XX     XX  ",
"     .XX.    XX     XX  ",
"     XX.     XX     XX  ",
"             XX     XX  ",
"             XX     XX  ",
"             XXXXXXXXX  ",
"             XXXXXXXXX  ",
"                        ",
"                        "};
