/* XPM */
static const char * paint_delete_xpm[] = {
"24 24 50 1",
" 	c None",
".	c #FE0000",
"+	c #D70000",
"@	c #F20000",
"#	c #CF0000",
"$	c #BB0000",
"%	c #C00000",
"&	c #E90000",
"*	c #BC0000",
"=	c #F50000",
"-	c #BF0000",
";	c #FF0000",
">	c #E10000",
",	c #F10000",
"'	c #D60000",
")	c #BD0000",
"!	c #FB0000",
"~	c #DB0000",
"{	c #EF0000",
"]	c #F00000",
"^	c #000000",
"/	c #9999FF",
"(	c #E32844",
"_	c #D30000",
":	c #EA1F34",
"<	c #D00000",
"[	c #BE0000",
"}	c #E30000",
"|	c #E70000",
"1	c #F3111D",
"2	c #CB0000",
"3	c #C20000",
"4	c #FB0509",
"5	c #9E91F2",
"6	c #C85188",
"7	c #E60000",
"8	c #DF2D4C",
"9	c #D80000",
"0	c #C50000",
"a	c #F60C15",
"b	c #C05D9B",
"c	c #ED0000",
"d	c #F70000",
"e	c #D9375D",
"f	c #DD0000",
"g	c #F3101B",
"h	c #B76CB4",
"i	c #F40000",
"j	c #D9375C",
"k	c #330000",
"                        ",
"                        ",
"                        ",
"                        ",
"                        ",
"                        ",
"         .              ",
"        .+.      @.     ",
"       .#$%.    &$*=.   ",
"        .#$-; ;>$$,     ",
"         ;'$)!~$${      ",
"          .~$$$$]       ",
"      ^^^^^.$$$>;       ",
"    ^^^///(_$$$$&       ",
"  ^^^////:<$[!}$$|      ",
"  ^/////12$3456|$$7     ",
" ^^////89$0a///bc$*d.   ",
" ^//////efg/////hi.     ",
" ^^//////j//////^k      ",
"  ^/////////////^       ",
"  ^^^/////////^^^       ",
"    ^^^/////^^^         ",
"      ^^^^^^^           ",
"                        "};
