/* XPM */
static const char * palette_xpm[] = {
"32 32 6 1",
" 	c None",
".	c #000000",
"+	c #EF0000",
"@	c #EF00EC",
"#	c #0FEF00",
"$	c #0000FF",
"................................",
".+++++++++++++++@@@@@@@@@@@@@@@.",
".+++++++++++++++@@@@@@@@@@@@@@@.",
".+++++++++++++++@@@@@@@@@@@@@@@.",
".+++++++++++++++@@@@@@@@@@@@@@@.",
".+++++++++++++++@@@@@@@@@@@@@@@.",
".+++++++++++++++@@@@@@@@@@@@@@@.",
".+++++++++++++++@@@@@@@@@@@@@@@.",
".+++++++++++++++@@@@@@@@@@@@@@@.",
".+++++++++++++++@@@@@@@@@@@@@@@.",
".+++++++++++++++@@@@@@@@@@@@@@@.",
".+++++++++++++++@@@@@@@@@@@@@@@.",
".+++++++++++++++@@@@@@@@@@@@@@@.",
".+++++++++++++++@@@@@@@@@@@@@@@.",
".+++++++++++++++@@@@@@@@@@@@@@@.",
".+++++++++++++++@@@@@@@@@@@@@@@.",
".###############$$$$$$$$$$$$$$$.",
".###############$$$$$$$$$$$$$$$.",
".###############$$$$$$$$$$$$$$$.",
".###############$$$$$$$$$$$$$$$.",
".###############$$$$$$$$$$$$$$$.",
".###############$$$$$$$$$$$$$$$.",
".###############$$$$$$$$$$$$$$$.",
".###############$$$$$$$$$$$$$$$.",
".###############$$$$$$$$$$$$$$$.",
".###############$$$$$$$$$$$$$$$.",
".###############$$$$$$$$$$$$$$$.",
".###############$$$$$$$$$$$$$$$.",
".###############$$$$$$$$$$$$$$$.",
".###############$$$$$$$$$$$$$$$.",
".###############$$$$$$$$$$$$$$$.",
"................................"};
