/* XPM */
static const char * pencil2_xpm[] = {
"32 32 6 1",
" 	c None",
".	c #FFFF00000000",
"X	c #3F3F4F4F6161",
"o	c #8B8B08080808",
"O	c #FFFFFFFF0000",
"+	c #747425250D0D",
"                                ",
"                                ",
"                                ",
"                       ..       ",
"                      ....      ",
"                      X..o      ",
"                     XXXo       ",
"                    OXX         ",
"                   OO+          ",
"                  OO+           ",
"                 OO+            ",
"                OO+             ",
"               OO+              ",
"              OO+               ",
"             OO+                ",
"            OO+                 ",
"           OO+                  ",
"          OO+                   ",
"         OO+                    ",
"        OO+                     ",
"       OO+                      ",
"      OO+                       ",
"     OO+                        ",
"    OO+                         ",
"   OO+                          ",
"   O+ XXXXXXXXXXXXXXXXXXXX      ",
"     XXXXXXXXXXXXXXXXXXXXXXX    ",
"   XXXXXXXXXXXXXXXXXXXXXXXXXXX  ",
"                                ",
"                                ",
"                                ",
"                                "};
