/* XPM */
static const char * pick_xpm[] = {
"32 32 7 1",
" 	c None",
".	c #000000000000",
"X	c #FFFF00000000",
"o	c #EFEFCACA8C8C",
"O	c #FFFF0000FFFF",
"+	c #0000FFFFFFFF",
"@	c #0000FFFF0000",
"   ......                       ",
"                                ",
"                                ",
"   ......                       ",
"   .XXXX.                       ",
"   .XXXX.  .....                ",
"   .XXXX. ..ooo..               ",
"   ...... ..oooo..              ",
"           .oooooo..            ",
"           ...ooooo..           ",
"   ......    ..ooooo..          ",
"   .OOOO.     ..ooooo.          ",
"   .OOOO.       .oooo..         ",
"   .OOOO.        .oooo..        ",
"   ......        ..oooo..       ",
"              .....ooooo...     ",
"             .ooooooooooo....   ",
"   ......    .ooooooooooo.oo..  ",
"   .++++.   ..ooooooooooo..oo.  ",
"   .++++. ....oooooooooooo.oo.. ",
"   .++++...oooooooooooooooo.oo. ",
"   .......ooooooooooooooooo.oo. ",
"         .oooooooooooooooooooo..",
"         ..oooooooooooooooooooo.",
"   ........oooooooooooooooooooo.",
"   .@@@.oooooooooooooooooooooooo",
"   .@@@.oooooooooooooooooooooooo",
"   .@@@.oooooooooooooooooooooooo",
"   .....oooooooooooooooooooooooo",
"       ..ooooooooooooooooooooooo",
"        ..oooooooooooooooooooooo",
"         ..ooooooooooooooooooooo"};
