/* XPM */
static const char * private_directory_xpm[] = {
"22 22 213 2",
"  	c None",
". 	c #D0550B",
"+ 	c #C23E00",
"@ 	c #D7611D",
"# 	c #F7965A",
"$ 	c #DA4500",
"% 	c #C63F00",
"& 	c #DE6820",
"* 	c #FB9F68",
"= 	c #F99B61",
"- 	c #D94400",
"; 	c #CA4000",
"> 	c #E46B23",
", 	c #FB995D",
"' 	c #FB9E65",
") 	c #F9975B",
"! 	c #CD4100",
"~ 	c #E76A1E",
"{ 	c #FB9150",
"] 	c #FB9557",
"^ 	c #FB9A5E",
"/ 	c #F99355",
"( 	c #D94702",
"_ 	c #D04100",
": 	c #E75800",
"< 	c #F56C17",
"[ 	c #FB8D48",
"} 	c #F98F50",
"| 	c #DB4E0D",
"1 	c #D34200",
"2 	c #F15C00",
"3 	c #FA6000",
"4 	c #FA6102",
"5 	c #FD8237",
"6 	c #FD8D48",
"7 	c #FD8B48",
"8 	c #ED6D2A",
"9 	c #E35A1B",
"0 	c #E64E00",
"a 	c #E14C00",
"b 	c #E85C07",
"c 	c #FF680A",
"d 	c #FF690D",
"e 	c #FE7A27",
"f 	c #E66024",
"g 	c #D5896A",
"h 	c #D79C83",
"i 	c #E1591F",
"j 	c #F35C06",
"k 	c #F35800",
"l 	c #DF5000",
"m 	c #F37020",
"n 	c #FF7925",
"o 	c #FC7C32",
"p 	c #DD6330",
"q 	c #DAB1A0",
"r 	c #FAFAFA",
"s 	c #FBFBFB",
"t 	c #DDC1B6",
"u 	c #DB6230",
"v 	c #FA7223",
"w 	c #FF6303",
"x 	c #FA6002",
"y 	c #FF8A41",
"z 	c #F89159",
"A 	c #D76E44",
"B 	c #E3D4CD",
"C 	c #FDFDFD",
"D 	c #FEFEFE",
"E 	c #E2DAD7",
"F 	c #D5724B",
"G 	c #F3854D",
"H 	c #FF7722",
"I 	c #D95D15",
"J 	c #E37E43",
"K 	c #FF9A5C",
"L 	c #FF9A5D",
"M 	c #EE956E",
"N 	c #D48363",
"O 	c #ECE1DB",
"P 	c #BA8F74",
"Q 	c #A78978",
"R 	c #C7AA96",
"S 	c #D8B8A4",
"T 	c #C38F6D",
"U 	c #EBD3BF",
"V 	c #E7E7E7",
"W 	c #D08C71",
"X 	c #E7885E",
"Y 	c #FF8D46",
"Z 	c #FF8A42",
"` 	c #E27435",
" .	c #E69665",
"..	c #FEAF7E",
"+.	c #E49070",
"@.	c #D7A18E",
"#.	c #F9F9F9",
"$.	c #BA8567",
"%.	c #81421B",
"&.	c #815843",
"*.	c #896653",
"=.	c #947A6B",
"-.	c #8E4F27",
";.	c #97572D",
">.	c #DFDCDA",
",.	c #CEA798",
"'.	c #DD8361",
").	c #FDA672",
"!.	c #EF9158",
"~.	c #F8BA96",
"{.	c #DB8464",
"].	c #DEC3B8",
"^.	c #CB9F85",
"/.	c #874E2A",
"(.	c #A07360",
"_.	c #B08980",
":.	c #BB9893",
"<.	c #AC653B",
"[.	c #9F653B",
"}.	c #E1E1E1",
"|.	c #E9E9E9",
"1.	c #E5E5E5",
"2.	c #CBBBB4",
"3.	c #D57D5C",
"4.	c #F6B48F",
"5.	c #D78C6A",
"6.	c #C76946",
"7.	c #E9DFDC",
"8.	c #E9D8CB",
"9.	c #CFBAAE",
"0.	c #B99E89",
"a.	c #C1A896",
"b.	c #B49683",
"c.	c #BEA699",
"d.	c #C5AA98",
"e.	c #E0E0E0",
"f.	c #E3E3E3",
"g.	c #CDCAC9",
"h.	c #C26E4E",
"i.	c #D5815D",
"j.	c #F7F7F7",
"k.	c #F5F5F5",
"l.	c #F3F3F3",
"m.	c #EFEFEF",
"n.	c #ECECEC",
"o.	c #E2E2E2",
"p.	c #E4E4E4",
"q.	c #DFDFDF",
"r.	c #DDDDDD",
"s.	c #DBDBDB",
"t.	c #E8E8E8",
"u.	c #F1F1F1",
"v.	c #E0DAD7",
"w.	c #99572E",
"x.	c #945129",
"y.	c #904F29",
"z.	c #8B502D",
"A.	c #D9D9D9",
"B.	c #D5D5D5",
"C.	c #D7D7D7",
"D.	c #EDEDED",
"E.	c #EBEBEB",
"F.	c #DAD2CF",
"G.	c #BD672A",
"H.	c #B6612A",
"I.	c #C46A2D",
"J.	c #AC5B26",
"K.	c #DEDEDE",
"L.	c #C7C7C7",
"M.	c #CDCDCD",
"N.	c #D8D0CD",
"O.	c #CC6F2C",
"P.	c #C26A2C",
"Q.	c #CE702E",
"R.	c #BB652A",
"S.	c #DADADA",
"T.	c #D3D3D3",
"U.	c #D1D1D1",
"V.	c #B8B8B8",
"W.	c #C6C6C6",
"X.	c #D4CCC9",
"Y.	c #D9792E",
"Z.	c #CF722D",
"`.	c #C4732F",
" +	c #B16426",
".+	c #D6D6D6",
"++	c #CFCFCF",
"@+	c #B2B2B2",
"#+	c #BFBFBF",
"$+	c #D1C9C6",
"%+	c #E38337",
"&+	c #DB7A2E",
"*+	c #E17E30",
"=+	c #D98444",
"-+	c #D2D2D2",
";+	c #CCCCCC",
">+	c #ADADAD",
",+	c #A3A3A3",
"'+	c #B5B5B5",
")+	c #B4B4B4",
"!+	c #B3B3B3",
"~+	c #AAA5A2",
"{+	c #C68F64",
"]+	c #C68A5B",
"^+	c #C79065",
"/+	c #BF9271",
"(+	c #ABABAB",
"_+	c #AAAAAA",
":+	c #9B9B9B",
"<+	c #AAA0A0",
"[+	c #A59999",
"}+	c #BAB0B0",
"|+	c #B6AAAA",
"                    . +                     ",
"                  @ # $ %                   ",
"                & * = $ - ;                 ",
"              > , ' ) $ - - !               ",
"            ~ { ] ^ / ( - - - _             ",
"          : < [ { ] } | - - - - 1           ",
"        2 3 4 5 6 7 8 9 0 0 0 0 0 a         ",
"      b c c c d e f g h i j k k k k l       ",
"      m n n n o p q r s t u v w w w x       ",
"      y y y z A B C D D s E F G H H H I     ",
"    J K L M N O P Q R S T U V W X Y Z `     ",
"     ...+.@.#.$.%.&.*.=.-.;.>.V ,.'.).!.    ",
"    ~.{.].C C ^./.(._.:.<.[.}.|.1.2.3.4.    ",
"  5.6.7.C s #.8.9.0.a.b.c.d.e.1.f.}.g.h.i.  ",
"      #.#.j.k.l.m.n.V V o.p.o.}.q.r.s.      ",
"      t.k.l.u.m.v.w.x.y.z.}.q.r.s.A.B.      ",
"      C.u.m.D.E.F.G.H.I.J.K.s.A.C.B.L.      ",
"      M.D.E.|.V N.O.P.Q.R.S.C.B.T.U.V.      ",
"      W.|.V 1.f.X.Y.Z.`. +.+T.U.++M.@+      ",
"      #+1.f.}.q.$+%+&+*+=+-+++M.;+;+>+      ",
"      ,+'+)+!+@+~+{+]+^+/+(+_+_+_+_+:+      ",
"                  <+[+}+|+                  "};
