/* XPM */
static const char * profet_xpm[] = {
"32 32 444 2",
"  	c #FFFFFF",
". 	c #8E8E8E",
"+ 	c #F2F2F2",
"@ 	c #DDD2C9",
"# 	c #64574C",
"$ 	c #D78F55",
"% 	c #CE8951",
"& 	c #E19559",
"* 	c #E1965A",
"= 	c #F09E5C",
"- 	c #B17544",
"; 	c #A16A3E",
"> 	c #E09456",
", 	c #CF884F",
"' 	c #AC7142",
") 	c #D78E53",
"! 	c #393939",
"~ 	c #E3E3E3",
"{ 	c #F6F4F3",
"] 	c #A68B76",
"^ 	c #17110C",
"/ 	c #A4744E",
"( 	c #AD7D56",
"_ 	c #AA7B55",
": 	c #BC8558",
"< 	c #CD8A54",
"[ 	c #855833",
"} 	c #865833",
"| 	c #A76E40",
"1 	c #644226",
"2 	c #CA8C5A",
"3 	c #EFECEA",
"4 	c #9F7A5C",
"5 	c #19110C",
"6 	c #D98F53",
"7 	c #DF9355",
"8 	c #DB955D",
"9 	c #DB9156",
"0 	c #815531",
"a 	c #E69859",
"b 	c #EF9D5C",
"c 	c #E2E2E2",
"d 	c #8C705A",
"e 	c #21170F",
"f 	c #DF9356",
"g 	c #E7995A",
"h 	c #E6995B",
"i 	c #966339",
"j 	c #734C2C",
"k 	c #EE9C5B",
"l 	c #DD955A",
"m 	c #B2B2B2",
"n 	c #161616",
"o 	c #3E3E3E",
"p 	c #F0F0F0",
"q 	c #D9D9D9",
"r 	c #747474",
"s 	c #7C5E45",
"t 	c #BF804D",
"u 	c #DD9255",
"v 	c #E69758",
"w 	c #E2975A",
"x 	c #D28E57",
"y 	c #764E2D",
"z 	c #402A19",
"A 	c #614127",
"B 	c #CB8A55",
"C 	c #EA9A5A",
"D 	c #E59758",
"E 	c #3E2918",
"F 	c #322113",
"G 	c #674427",
"H 	c #AFA5B0",
"I 	c #A2715A",
"J 	c #D48B51",
"K 	c #BB7D4B",
"L 	c #CA8954",
"M 	c #CA8B58",
"N 	c #DF9357",
"O 	c #AE7243",
"P 	c #885934",
"Q 	c #BC7C48",
"R 	c #D28A50",
"S 	c #B57D4F",
"T 	c #E8995A",
"U 	c #FDFDFD",
"V 	c #7D78AB",
"W 	c #7B5D8F",
"X 	c #CE8961",
"Y 	c #DA9258",
"Z 	c #D09464",
"` 	c #E49A5E",
" .	c #B28A6A",
"..	c #BA8F6D",
"+.	c #B68A66",
"@.	c #CC8F5E",
"#.	c #ED9D5C",
"$.	c #CF9667",
"%.	c #EF9D5B",
"&.	c #EBE8E7",
"*.	c #6F6288",
"=.	c #7164A6",
"-.	c #8A7092",
";.	c #C39571",
">.	c #DE9C66",
",.	c #B6855E",
"'.	c #E5995C",
").	c #E19659",
"!.	c #C48450",
"~.	c #DB9155",
"{.	c #E99A5B",
"].	c #DD975E",
"^.	c #D2B8A4",
"/.	c #E49D63",
"(.	c #B3AFC1",
"_.	c #7E7CC8",
":.	c #7D5B8C",
"<.	c #8A6492",
"[.	c #A3717E",
"}.	c #BD7F68",
"|.	c #E89959",
"1.	c #DB9055",
"2.	c #DF975D",
"3.	c #C88956",
"4.	c #EF9E5C",
"5.	c #C29069",
"6.	c #F1F1F6",
"7.	c #9A9ADF",
"8.	c #7E7BC6",
"9.	c #7764A2",
"0.	c #7D5C8E",
"a.	c #8E6693",
"b.	c #906793",
"c.	c #C58569",
"d.	c #E79A5C",
"e.	c #DE965C",
"f.	c #553820",
"g.	c #D69058",
"h.	c #CE9262",
"i.	c #4F3621",
"j.	c #CC8B57",
"k.	c #D6D6D6",
"l.	c #D4D4D4",
"m.	c #BABAE1",
"n.	c #9898E5",
"o.	c #7D77BE",
"p.	c #5C4C89",
"q.	c #52416B",
"r.	c #664F87",
"s.	c #916894",
"t.	c #906791",
"u.	c #D68E5F",
"v.	c #1C130B",
"w.	c #D68F57",
"x.	c #EB9C5B",
"y.	c #DA935A",
"z.	c #110E0C",
"A.	c #D4925D",
"B.	c #9F9F9F",
"C.	c #6A6A6A",
"D.	c #FAFAFB",
"E.	c #9898DC",
"F.	c #8080C1",
"G.	c #48486C",
"H.	c #0C0910",
"I.	c #1F192B",
"J.	c #785786",
"K.	c #996C7D",
"L.	c #C58B5C",
"M.	c #BA7F50",
"N.	c #2D1E11",
"O.	c #D08A52",
"P.	c #D48F57",
"Q.	c #181009",
"R.	c #D7D7D7",
"S.	c #2D2D2D",
"T.	c #FEFEFE",
"U.	c #1A1A1A",
"V.	c #E7E7E7",
"W.	c #9999A2",
"X.	c #28283C",
"Y.	c #12121B",
"Z.	c #4A4A71",
"`.	c #594B84",
" +	c #735A92",
".+	c #74568A",
"++	c #906794",
"@+	c #86679B",
"#+	c #7A669C",
"$+	c #C48857",
"%+	c #301F12",
"&+	c #DB9054",
"*+	c #CE9364",
"=+	c #130D08",
"-+	c #E19456",
";+	c #EE9D5B",
">+	c #1E1E1E",
",+	c #BABABA",
"'+	c #2B2B2B",
")+	c #101010",
"!+	c #38383D",
"~+	c #68689D",
"{+	c #9696E2",
"]+	c #9696E3",
"^+	c #6C5A99",
"/+	c #7A5B90",
"(+	c #75588F",
"_+	c #8D6693",
":+	c #7A64A0",
"<+	c #8E6587",
"[+	c #CA8A56",
"}+	c #E99A5A",
"|+	c #D28F59",
"1+	c #312013",
"2+	c #CD874E",
"3+	c #CA9367",
"4+	c #C08F67",
"5+	c #E89B5D",
"6+	c #818181",
"7+	c #1F1F1F",
"8+	c #7D7D7D",
"9+	c #FCFCFC",
"0+	c #ABABDF",
"a+	c #7E79C2",
"b+	c #7C77BF",
"c+	c #8178BD",
"d+	c #775C94",
"e+	c #7964A0",
"f+	c #92677F",
"g+	c #D48C51",
"h+	c #E99A59",
"i+	c #5B3C23",
"j+	c #714B2B",
"k+	c #271A0F",
"l+	c #C8844D",
"m+	c #D6915A",
"n+	c #E99959",
"o+	c #C17F4A",
"p+	c #170F09",
"q+	c #020101",
"r+	c #B7957A",
"s+	c #E4985B",
"t+	c #FCFCFD",
"u+	c #BCBCE0",
"v+	c #9898E2",
"w+	c #6860A6",
"x+	c #725B95",
"y+	c #6D5FA2",
"z+	c #876597",
"A+	c #A06F7C",
"B+	c #AE7343",
"C+	c #855D3D",
"D+	c #775E4A",
"E+	c #EB9B5A",
"F+	c #E5985A",
"G+	c #EB9D5D",
"H+	c #C58C5E",
"I+	c #D7D7EC",
"J+	c #9797E4",
"K+	c #8073B5",
"L+	c #7B66A3",
"M+	c #7D68A3",
"N+	c #866190",
"O+	c #8A617C",
"P+	c #CD8B57",
"Q+	c #DA9055",
"R+	c #E09A62",
"S+	c #DC9359",
"T+	c #CFB39C",
"U+	c #CA8B59",
"V+	c #FBFBFB",
"W+	c #9191DB",
"X+	c #5F5397",
"Y+	c #7B70B5",
"Z+	c #756FB7",
"`+	c #775A8F",
" @	c #8C648B",
".@	c #E5985F",
"+@	c #D4A885",
"@@	c #B8977C",
"#@	c #A0A0DE",
"$@	c #7770B8",
"%@	c #4F3E66",
"&@	c #5D456F",
"*@	c #8C6592",
"=@	c #785A8E",
"-@	c #9F6D6B",
";@	c #B07444",
">@	c #AB7143",
",@	c #DE9860",
"'@	c #E3985C",
")@	c #614025",
"!@	c #C1885A",
"~@	c #ECE7E3",
"{@	c #8282A4",
"]@	c #1D1D2D",
"^@	c #17111E",
"/@	c #584370",
"(@	c #74619F",
"_@	c #71558B",
":@	c #93698A",
"<@	c #E4975C",
"[@	c #7D5230",
"}@	c #8D5D36",
"|@	c #D79158",
"1@	c #D48F56",
"2@	c #E79859",
"3@	c #DC965F",
"4@	c #1A120B",
"5@	c #9A816D",
"6@	c #979797",
"7@	c #8B8B8B",
"8@	c #E9E9E9",
"9@	c #343434",
"0@	c #3B3B3B",
"a@	c #222229",
"b@	c #565082",
"c@	c #664F89",
"d@	c #72609E",
"e@	c #7E74B8",
"f@	c #65508C",
"g@	c #7B5B8C",
"h@	c #E49659",
"i@	c #895A35",
"j@	c #7C512F",
"k@	c #CB8D5B",
"l@	c #E5995B",
"m@	c #D28C53",
"n@	c #B3835B",
"o@	c #171311",
"p@	c #E5E1DD",
"q@	c #BFBFBF",
"r@	c #424242",
"s@	c #3F3F3F",
"t@	c #313131",
"u@	c #AEAEAE",
"v@	c #F7F7FA",
"w@	c #9589BE",
"x@	c #776CB0",
"y@	c #9393E0",
"z@	c #908EDA",
"A@	c #806196",
"B@	c #8B648F",
"C@	c #905F37",
"D@	c #6B472A",
"E@	c #D9935A",
"F@	c #D2915C",
"G@	c #BD8A61",
"H@	c #E2DFDD",
"I@	c #141414",
"J@	c #FAFAFA",
"K@	c #C7C7C7",
"L@	c #1B1B1B",
"M@	c #A5A5A5",
"N@	c #C9C9E2",
"O@	c #9494E1",
"P@	c #817DC7",
"Q@	c #867DC3",
"R@	c #886393",
"S@	c #7B5A87",
"T@	c #784F2E",
"U@	c #E3975A",
"V@	c #D2C1B4",
"W@	c #1D1D1D",
"X@	c #797979",
"Y@	c #939393",
"Z@	c #F7F7F7",
"`@	c #A4A4DD",
" #	c #7465A5",
".#	c #78629E",
"+#	c #72578F",
"@#	c #936886",
"##	c #B57846",
"$#	c #754E2E",
"%#	c #674428",
"&#	c #D88F54",
"*#	c #B48C6C",
"=#	c #A0A0A0",
"-#	c #A8A8A8",
";#	c #181818",
">#	c #F9F9F9",
",#	c #ECECF3",
"'#	c #886FA5",
")#	c #8F6693",
"!#	c #8F6793",
"~#	c #D88F60",
"{#	c #744C2C",
"]#	c #3C2717",
"^#	c #8A5B35",
"/#	c #E5E0DC",
"(#	c #AFAFAF",
"_#	c #5F5F5F",
":#	c #454545",
"<#	c #B2A0BB",
"[#	c #95676B",
"}#	c #C19D80",
"|#	c #F4F4F6",
"1#	c #866EA3",
"2#	c #865F7D",
"3#	c #EC9B5A",
"4#	c #DA9C6B",
"5#	c #F6F4F2",
"6#	c #C4C4C4",
"7#	c #515151",
"8#	c #B8B8DB",
"9#	c #877CC0",
"0#	c #856599",
"a#	c #DC915A",
"b#	c #E49657",
"c#	c #573921",
"d#	c #D89259",
"e#	c #DAD4CF",
"f#	c #BBBBBB",
"g#	c #DDDDDD",
"h#	c #333333",
"i#	c #B6B6DF",
"j#	c #8B85BF",
"k#	c #B28562",
"l#	c #D78E54",
"m#	c #D98F54",
"n#	c #221E1B",
"o#	c #D9CBBF",
"p#	c #6B6B6B",
"q#	c #ABABAB",
"r#	c #252525",
"s#	c #F5F5F5",
"t#	c #F1F1F3",
"u#	c #F0F0F2",
"v#	c #CDAE95",
"w#	c #B19A88",
"x#	c #C29C7E",
"y#	c #DBAF8C",
"z#	c #CCB9AB",
"A#	c #303030",
"B#	c #7E7E7E",
"C#	c #9C9C9C",
"D#	c #F8F8F8",
"E#	c #ECECEC",
"F#	c #808080",
"G#	c #959595",
"H#	c #FBFAFA",
"I#	c #949494",
"J#	c #766A61",
"K#	c #E29A60",
"      . +       @ # $ % & * = = = = = = - ; > = = = = = , ' ) = ",
"      ! ~     { ] ^ / ( _ : < = = = = = [ } = = = = = = | 1 2 = ",
"      ! ~     3 4 5 6 7 8 9 = = = = = = [ 0 = = = = = = | 1 a b ",
"      ! ~     c d e f = = g = = = h = = i j k l = = = = | 1 = = ",
"  m n o p     q r s t u = = v = w x = y z A B C = = D E F G = = ",
"                H I J b = b K = L M N O P Q = = = = = R S T = = ",
"              U V W X Y Z `  ...+.@.= = = = = = = = = = #.@.$.%.",
"              &.*.=.-.;.>.,.'.).!.= = = = = = = = = = ~.{.].^./.",
"              (._.:.<.[.}.= = |.1.= = 2.%.= = = = = = = 3.= 4.5.",
"            6.7.8.9.0.a.b.c.= = = = = d.e.f.4.= = = = g.h.i.= j.",
"k.l.        m.n.o.p.q.r.s.t.u.= 6 = = = = v.w.x.= = = ~.y.z.= A.",
"B.C.U .   D.E.F.G.H.I.J.s.s.K.L.M.= = = = N.O.P.= = = = = Q.= = ",
"R.S.T.U.V.W.X.Y.Z.`. +.+++@+#+$+= = = = = %+&+= = = = = *+=+-+;+",
"U >+,+'+)+!+~+{+]+^+/+(+_+:+<+[+= = }+|+= 1+2+= = = = b 3+e 4+5+",
"  6+7+8+~ 9+0+n.n.a+b+c+d+e+f+g+= = h+i+j+k+l+m+n+= = o+p+q+r+s+",
"            t+u+v+n.w+x+y+z+A+= = = b B+C+D+E+= % = = F+G+D H+;+",
"                I+J+K+L+M+N+O+= = = = |.P+Q+= = = = = = R+S+T+U+",
"                V+W+X+Y+Z+`+ @.@= = = = k b = = = = = = = = +@@@",
"                  #@$@%@&@*@=@-@= = = = = ;@>@= = ,@'@= = )@!@~@",
"                  {@]@^@/@(@_@:@<@= = = = [@}@|@= = 1@2@3@4@5@  ",
"  6@7@8@9@    ,+0@a@b@c@d@e@f@g@h@= = = = i@j@k@= = l@m@n@o@p@  ",
"  q@r@  9@7@s@t@u@v@w@x@y@z@A@B@{.= = = = C@D@E@= = F@G@H@I@    ",
"  J@n K@! L@M@U     N@O@P@Q@R@S@v = = = = C@T@= %.T U@V@  W@    ",
"    X@U.Y@Z@        J@`@ #.#+#@#= = = = ##$#%#= &#w *#=#-#;#    ",
"    9+>#              ,#'#b.)#!#~#= = = {#]#^#= = ) /#(#_#:#    ",
"                        <#s.s.s.[#D = = = = = = = }#            ",
"                        |#1#++s.2#3#= = = = = = 4#5#            ",
"      6#J@              7#8#9#0#a.a#C = = b#c#d#e#        f#g#  ",
"      h#~               W@9+i#y@j#k#l#= = m#n#o#          p#q#  ",
"      r#s#              W@    t#u#v#w#x#y#z#A#            B#C#  ",
"      L@D#              W@          T.    E#A#            F#G#H#",
"      !                 !                 E#A#            I#J#K#"};
