/* XPM */
static const  char* pm[] = {
"32 32 59 1",
" 	c None",
".	c #C6C6AD",
"+	c #B3B385",
"@	c #BABD6D",
"#	c #B8D08D",
"$	c #BCD9AF",
"%	c #C4DAC4",
"&	c #C3C3C3",
"*	c #CCCC84",
"=	c #B2B24C",
"-	c #8E8F09",
";	c #515100",
">	c #4F7603",
",	c #89B60E",
"'	c #A6C444",
")	c #ACAC05",
"!	c #171702",
"~	c #020302",
"{	c #052C04",
"]	c #303130",
"^	c #055003",
"/	c #037003",
"(	c #75AA03",
"_	c #757506",
":	c #2F2F00",
"<	c #505150",
"[	c #6D866D",
"}	c #4F8E4F",
"|	c #35D335",
"1	c #02D202",
"2	c #04B404",
"3	c #4E8E03",
"4	c #8FB442",
"5	c #171717",
"6	c #4C704C",
"7	c #374D37",
"8	c #029102",
"9	c #06FC06",
"0	c #21FF21",
"a	c #286702",
"b	c #7B9709",
"c	c #B5B5AD",
"d	c #C9C941",
"e	c #031703",
"f	c #2F712F",
"g	c #97974C",
"h	c #969682",
"i	c #6D6D6D",
"j	c #4FAF4F",
"k	c #7C7C41",
"l	c #279527",
"m	c #35B135",
"n	c #CFCF6C",
"o	c #8C8C6C",
"p	c #D3D334",
"q	c #8D8F27",
"r	c #56562E",
"s	c #B4B42F",
"t	c #CCCC06",
"             .+@@#$%%%%&&&      ",
"          *=--;;;>-,'#%%%&      ",
"       *);!~~~{]]^//^^(,#%&&    ",
"      =_:~~]<<<[[}||12^3,4&&    ",
"     .;!~~<<5~~67^82902/ab$&    ",
"    .)~~5<]~~~~67^821991^^bc&   ",
"   d;~]<~~]]~~e67/21991/}f{-g   ",
"  *_!~<]~~~~~~e67/2199/f}6e:-h  ",
"  -:~55i]~~~~~e6f/1999/j^{{~__  ",
"  ;~~<~~~~~~~~{6f/1991^^{{<~!)  ",
" *~~<]~~~~~~~~{6f899^^{{{e<<~:h ",
" d~]]]]~~~~~~~{6f891^^{{e<~<5~k ",
" )~<5~5~~~~~~~{}f21^^{{e~~~5<~_ ",
".-~<~~~~~~~~~~{}l1^^{{e~~~~~<~-c",
"*;5<~~~~~~~~~e{6m2{{{e~~~~~~<~)h",
"n;5i]]]]]]]7776j066<<77]]]]<i5)o",
"n;5i]]]]]]]]]77ml7777]]]]]]]i5)o",
"*;5<~~~~~~~~~~e67ee~~~~~~~~~<~)h",
".-~<~~~~~~~~~~~<]~~~~~~~~~~~<~-c",
" -~<5~~~~~~~~~~<]~~~~~~~~5~5]~_ ",
" =~]<~<]~~~~~~~<]~~~~~~~~5<<5~k ",
" +!~<~7~~~~~~~~<]~~~~~~~~~]<~!h ",
"  ;~~<~~~~~~~~~<]~~~~~~]5~<~!p  ",
"  -:~5~~5<~~~~~<]~~~~~~5i5~~gq  ",
"  +_!~<~<5~~~~~<]~~~~~~~5<~rsh  ",
"   =;~]<~~~~<~~<]~~~]<~~<]!sk   ",
"    c-~~5<5]~~~<]~~~~5<5~!_c    ",
"    cc_:~~<<]~~<]~~]<<~~;tc     ",
"   c  g_;~~5]<<ii<<]5~!-)g      ",
"       +--~~~~~55~~~~;t_h       ",
"          hk__--))-_kh          ",
"             choohc             "};
