/* XPM */
static const char * refresh_xpm[] = {
"24 24 76 1",
" 	c None",
".	c #27AA3A",
"+	c #3FB64F",
"@	c #38B348",
"#	c #31AF40",
"$	c #34B043",
"%	c #55C46D",
"&	c #4ABD5F",
"*	c #27AC3A",
"=	c #22A832",
"-	c #22A730",
";	c #32A03C",
">	c #4EC36B",
",	c #36B951",
"'	c #31B449",
")	c #2CB142",
"!	c #1DA42B",
"~	c #18A024",
"{	c #189422",
"]	c #44C162",
"^	c #3BBC57",
"/	c #36B850",
"(	c #30B047",
"_	c #259437",
":	c #27AB3A",
"<	c #1CA02A",
"[	c #189324",
"}	c #1F8F2B",
"|	c #46BD64",
"1	c #3FBF5D",
"2	c #3ABC57",
"3	c #2A8F3E",
"4	c #26A738",
"5	c #209C2F",
"6	c #1D942B",
"7	c #178722",
"8	c #3D9D56",
"9	c #42C362",
"0	c #2B8B40",
"a	c #1E952D",
"b	c #20972F",
"c	c #3DAD5A",
"d	c #39AC54",
"e	c #239A32",
"f	c #45C566",
"g	c #3A9E51",
"h	c #45C466",
"i	c #5BBC72",
"j	c #119918",
"k	c #0E9713",
"l	c #3CAC59",
"m	c #50C16A",
"n	c #49A950",
"o	c #318C48",
"p	c #65BD79",
"q	c #1D9F27",
"r	c #0C8511",
"s	c #3CB25A",
"t	c #3CBC58",
"u	c #52B165",
"v	c #24A12F",
"w	c #149C1E",
"x	c #3BB457",
"y	c #34B54C",
"z	c #35A547",
"A	c #31A040",
"B	c #29A538",
"C	c #0D7112",
"D	c #319F49",
"E	c #2CB042",
"F	c #179622",
"G	c #1D6B2B",
"H	c #218531",
"I	c #1E872D",
"J	c #166F21",
"K	c #0C4412",
"                        ",
"                        ",
"                        ",
"            .+          ",
"            .@+         ",
"            .#$+        ",
"          %&*=-;+       ",
"        >,')*=!~{+      ",
"       ]^/(_:=<[}       ",
"      |123  4567        ",
"     8910   .ab         ",
"     c9d    .e          ",
"     f9g                ",
"     f9                 ",
"     h9i         jk     ",
"     l9m        njk     ",
"     o91p       qjr     ",
"      s1tu     vwj      ",
"       x^/yzAB!~wC      ",
"        D/'E*=!F        ",
"          GHIJK         ",
"                        ",
"                        ",
"                        "};
