/* XPM */
static const char * remove_xpm[] = {
"24 24 338 2",
"  	c None",
". 	c #EAD8D6",
"+ 	c #EBE0DD",
"@ 	c #ECDBDC",
"# 	c #E8D6D6",
"$ 	c #AA575B",
"% 	c #A92F31",
"& 	c #AE3E40",
"* 	c #DFA0A2",
"= 	c #D48482",
"- 	c #A93331",
"; 	c #B23A37",
"> 	c #B6655F",
", 	c #B05858",
"' 	c #A4161A",
") 	c #A4150E",
"! 	c #B40D10",
"~ 	c #AA1E26",
"{ 	c #DCA6A4",
"] 	c #D17A81",
"^ 	c #A61617",
"/ 	c #B01211",
"( 	c #AF120F",
"_ 	c #A21613",
": 	c #C37575",
"< 	c #A44F51",
"[ 	c #9D1617",
"} 	c #A61210",
"| 	c #9B170F",
"1 	c #A81610",
"2 	c #AB1514",
"3 	c #991719",
"4 	c #E4A9A5",
"5 	c #CE8581",
"6 	c #AF1016",
"7 	c #AC1418",
"8 	c #A51517",
"9 	c #A31819",
"0 	c #A01817",
"a 	c #9E1B1C",
"b 	c #CBA5A3",
"c 	c #E5D4D2",
"d 	c #941E21",
"e 	c #A1100E",
"f 	c #A11511",
"g 	c #AA1016",
"h 	c #A61714",
"i 	c #A61711",
"j 	c #B21314",
"k 	c #A9171D",
"l 	c #E59FA0",
"m 	c #D07E82",
"n 	c #AA0D15",
"o 	c #B01C15",
"p 	c #B01312",
"q 	c #A81515",
"r 	c #A61515",
"s 	c #A11411",
"t 	c #AC0909",
"u 	c #C78F8F",
"v 	c #F0E6E3",
"w 	c #7E0B0C",
"x 	c #A30F0F",
"y 	c #A01211",
"z 	c #A21211",
"A 	c #A61414",
"B 	c #AA1516",
"C 	c #AC1617",
"D 	c #B01618",
"E 	c #A92125",
"F 	c #E1A1A1",
"G 	c #CD8386",
"H 	c #A9161A",
"I 	c #B21713",
"J 	c #A81716",
"K 	c #A91516",
"L 	c #A01815",
"M 	c #A51213",
"N 	c #A01412",
"O 	c #9D0F0E",
"P 	c #B58383",
"Q 	c #D9B2AE",
"R 	c #970F17",
"S 	c #9F1111",
"T 	c #A01210",
"U 	c #A31413",
"V 	c #A71414",
"W 	c #A91415",
"X 	c #A81711",
"Y 	c #B51217",
"Z 	c #A2141E",
"` 	c #E8A5A5",
" .	c #CF8887",
"..	c #A51216",
"+.	c #B51816",
"@.	c #A91712",
"#.	c #AD1316",
"$.	c #A81517",
"%.	c #9E1913",
"&.	c #A5130E",
"*.	c #A60E0E",
"=.	c #872321",
"-.	c #F1DDDC",
";.	c #D5AFAF",
">.	c #880C12",
",.	c #A01512",
"'.	c #A21512",
").	c #A41414",
"!.	c #A71515",
"~.	c #A71611",
"{.	c #A91614",
"].	c #A31C19",
"^.	c #A81C1E",
"/.	c #B2111A",
"(.	c #AF1512",
"_.	c #AA1713",
":.	c #9F1C13",
"<.	c #A71615",
"[.	c #A91215",
"}.	c #A71210",
"|.	c #A71114",
"1.	c #841317",
"2.	c #F7DCDF",
"3.	c #D6B4AE",
"4.	c #920A07",
"5.	c #A11412",
"6.	c #A51414",
"7.	c #A11614",
"8.	c #AD1115",
"9.	c #AB1414",
"0.	c #A11A13",
"a.	c #A21A14",
"b.	c #A61614",
"c.	c #AC1315",
"d.	c #AA1110",
"e.	c #9C1712",
"f.	c #A31310",
"g.	c #8A0F12",
"h.	c #EAD6D6",
"i.	c #D5B0AC",
"j.	c #8E161A",
"k.	c #A11312",
"l.	c #A31211",
"m.	c #A51514",
"n.	c #A41514",
"o.	c #A51314",
"p.	c #A21513",
"q.	c #9F1511",
"r.	c #A6130E",
"s.	c #902124",
"t.	c #F6DDE0",
"u.	c #D4ADAB",
"v.	c #900911",
"w.	c #991511",
"x.	c #A41211",
"y.	c #A21413",
"z.	c #A21313",
"A.	c #A31313",
"B.	c #9F1412",
"C.	c #9D1310",
"D.	c #861017",
"E.	c #F6DDD9",
"F.	c #D6B4AA",
"G.	c #9B0E0D",
"H.	c #9F1311",
"I.	c #9E1413",
"J.	c #9E1414",
"K.	c #9E1314",
"L.	c #9F1314",
"M.	c #A11114",
"N.	c #9F1313",
"O.	c #9C1313",
"P.	c #971110",
"Q.	c #EBD5D0",
"R.	c #CD7B83",
"S.	c #9B0F12",
"T.	c #991210",
"U.	c #9C1114",
"V.	c #991112",
"W.	c #971212",
"X.	c #DDA4A8",
"Y.	c #C47779",
"Z.	c #8E0B0C",
"`.	c #90120C",
" +	c #91110E",
".+	c #941010",
"++	c #980F14",
"@+	c #9D0C16",
"#+	c #9D0C15",
"$+	c #970F14",
"%+	c #971014",
"&+	c #960F13",
"*+	c #910E14",
"=+	c #D7A3A6",
"-+	c #C67E82",
";+	c #850C0E",
">+	c #960F0B",
",+	c #970C0B",
"'+	c #970D0F",
")+	c #940E0F",
"!+	c #8F120E",
"~+	c #930F11",
"{+	c #940F12",
"]+	c #900D12",
"^+	c #851A1C",
"/+	c #D9A1A0",
"(+	c #C37E83",
"_+	c #840607",
":+	c #920F0C",
"<+	c #861008",
"[+	c #900E0E",
"}+	c #8E0E0F",
"|+	c #8F0F0E",
"1+	c #960C0B",
"2+	c #990E0C",
"3+	c #940E0C",
"4+	c #900F11",
"5+	c #900E10",
"6+	c #8D0F13",
"7+	c #960A09",
"8+	c #861311",
"9+	c #D6A3A3",
"0+	c #BE787C",
"a+	c #7C070B",
"b+	c #880C0A",
"c+	c #8F0A0C",
"d+	c #850F0E",
"e+	c #870F0E",
"f+	c #890F0A",
"g+	c #8D0E0A",
"h+	c #8D0A0E",
"i+	c #881417",
"j+	c #811315",
"k+	c #8F0F10",
"l+	c #8D0D0D",
"m+	c #8A0D0A",
"n+	c #8E0A0D",
"o+	c #880B0F",
"p+	c #7B1112",
"q+	c #D8A29F",
"r+	c #C0787B",
"s+	c #760F0F",
"t+	c #870809",
"u+	c #820D0C",
"v+	c #8F060F",
"w+	c #8C070E",
"x+	c #890B0B",
"y+	c #880D05",
"z+	c #91090C",
"A+	c #731016",
"B+	c #ECD7D3",
"C+	c #D1B7B4",
"D+	c #78070C",
"E+	c #8E0B0F",
"F+	c #870E09",
"G+	c #8D0A0A",
"H+	c #890B07",
"I+	c #830D10",
"J+	c #800A10",
"K+	c #89080A",
"L+	c #821317",
"M+	c #E2C3C5",
"N+	c #E9DADA",
"O+	c #7E0F13",
"P+	c #830B05",
"Q+	c #800B09",
"R+	c #810C0D",
"S+	c #850A0C",
"T+	c #87090B",
"U+	c #880906",
"V+	c #8B0907",
"W+	c #7E1B1D",
"X+	c #F3E0DF",
"Y+	c #D2B0B1",
"Z+	c #810E14",
"`+	c #8A0B08",
" @	c #811005",
".@	c #840B0C",
"+@	c #84080A",
"@@	c #83090B",
"#@	c #850205",
"$@	c #B78889",
"%@	c #E7D8D5",
"&@	c #710B10",
"*@	c #8C0509",
"=@	c #840A05",
"-@	c #86070E",
";@	c #800B08",
">@	c #800B04",
",@	c #890907",
"'@	c #790710",
")@	c #F1E0DC",
"!@	c #CBB1AB",
"~@	c #780005",
"{@	c #850C07",
"]@	c #820A0A",
"^@	c #830B0C",
"/@	c #820A0B",
"(@	c #810A0B",
"_@	c #830302",
":@	c #B98A89",
"<@	c #B88F8D",
"[@	c #74070B",
"}@	c #820B0B",
"|@	c #83080D",
"1@	c #840908",
"2@	c #7B0D09",
"3@	c #600C0D",
"4@	c #EAD7D6",
"5@	c #D5AFB0",
"6@	c #770009",
"7@	c #820A0C",
"8@	c #810B0C",
"9@	c #800A0A",
"0@	c #850C0D",
"a@	c #6A100B",
"b@	c #E1D0CF",
"c@	c #B37678",
"d@	c #73070A",
"e@	c #810A0C",
"f@	c #860607",
"g@	c #7C1B1E",
"h@	c #F4E1E4",
"i@	c #CEB1AF",
"j@	c #770D0D",
"k@	c #810C0B",
"l@	c #830D0D",
"m@	c #7A0908",
"n@	c #C9A6A1",
"o@	c #BE8E92",
"p@	c #750E12",
"q@	c #712628",
"r@	c #DEBBBC",
"s@	c #C6A5A2",
"t@	c #691516",
"u@	c #6D1313",
"v@	c #D5B6B0",
"w@	c #D8DEDF",
"        . +                         @ #         ",
"      $ % & *                     = - ; >       ",
"    , ' ) ! ~ {                 ] ^ / ( _ :     ",
"  < [ } | 1 2 3 4             5 6 7 8 9 0 a b   ",
"c d e f g h i j k l         m n o p q r s t u   ",
"v w x y z A B C D E F     G H I J K L M N O P   ",
"  Q R S T U V W X Y Z `  ...+.@.#.$.%.&.*.=.-.  ",
"    ;.>.,.'.).!.~.{.].^./.(._.:.<.[.}.|.1.2.    ",
"      3.4.,.5.6.7.8.9.0.a.b.c.!.d.e.f.g.h.      ",
"        i.j.k.l._ m.n.m.).o.).p.q.r.s.t.        ",
"          u.v.w.x.y.p.p.z.A.z.B.C.D.E.          ",
"            F.G.H.I.J.K.L.M.N.O.P.Q.            ",
"            R.S.T.U.U.U.U.U.U.V.W.X.            ",
"          Y.Z.`. +.+++@+#+$+%+&+&+*+=+          ",
"        -+;+>+,+'+)+ +!+!+~+{+{+~+]+^+/+        ",
"      (+_+:+<+[+}+|+1+2+3+4+4+5+5+6+7+8+9+      ",
"    0+a+b+c+d+e+f+g+h+i+j+k+k+l+}+m+n+o+p+q+    ",
"  r+s+t+u+v+w+x+y+z+A+B+C+D+E+F+G+H+I+J+K+L+M+  ",
"N+O+P+Q+R+S+T+U+V+W+X+    Y+Z+`+ @.@S++@@@#@$@  ",
"%@&@*@=@-@;@>@,@'@)@        !@~@{@]@^@/@(@_@:@  ",
"  <@[@}@|@1@2@3@4@            5@6@7@8@9@0@a@b@  ",
"    c@d@e@f@g@h@                i@j@k@l@m@n@    ",
"      o@p@q@r@                    s@t@u@v@      ",
"                                          w@    "};
