/* XPM */
static const char * Robot_xpm[] = {
"32 32 504 2",
"  	c None",
". 	c #44361C",
"+ 	c #544525",
"@ 	c #51452B",
"# 	c #413924",
"$ 	c #7E6637",
"% 	c #A98C51",
"& 	c #B89A5B",
"* 	c #C2A769",
"= 	c #CFB87E",
"- 	c #D5C38D",
"; 	c #CFC090",
"> 	c #92835A",
", 	c #9B8047",
"' 	c #BFA162",
") 	c #C2A668",
"! 	c #C4A96D",
"~ 	c #C4AB6D",
"{ 	c #C3A96B",
"] 	c #CCB57B",
"^ 	c #E7D8A3",
"/ 	c #B3A06E",
"( 	c #705B30",
"_ 	c #C0A364",
": 	c #C4AA6E",
"< 	c #CAB276",
"[ 	c #CFB97E",
"} 	c #D2BD82",
"| 	c #D0BA7E",
"1 	c #C8B174",
"2 	c #D2BE86",
"3 	c #EADDAA",
"4 	c #847147",
"5 	c #907845",
"6 	c #C3A66C",
"7 	c #C3AB71",
"8 	c #C1AC71",
"9 	c #C0AD70",
"0 	c #BEAD6C",
"a 	c #BFAE6F",
"b 	c #C1AE73",
"c 	c #C1AC74",
"d 	c #C7B27A",
"e 	c #E0D2A4",
"f 	c #A99669",
"g 	c #8C7B38",
"h 	c #989132",
"i 	c #98952C",
"j 	c #9C9F22",
"k 	c #A4AC18",
"l 	c #ADB713",
"m 	c #B3BD13",
"n 	c #B6BF16",
"o 	c #B6BC1E",
"p 	c #CDC96A",
"q 	c #D1CD75",
"r 	c #A0933B",
"s 	c #8D7F32",
"t 	c #8B9516",
"u 	c #929D13",
"v 	c #9FAB11",
"w 	c #AEBA10",
"x 	c #BAC80E",
"y 	c #C2D20C",
"z 	c #CADB09",
"A 	c #D0E305",
"B 	c #E8F169",
"C 	c #F5FE7E",
"D 	c #B3AD2E",
"E 	c #917E3C",
"F 	c #8D931C",
"G 	c #8D9616",
"H 	c #9AA316",
"I 	c #A6B113",
"J 	c #B3C010",
"K 	c #BCCB0E",
"L 	c #C5D40C",
"M 	c #CBDB07",
"N 	c #E4ED63",
"O 	c #F2F68C",
"P 	c #B1A448",
"Q 	c #9B844E",
"R 	c #A09A35",
"S 	c #8A9214",
"T 	c #959E13",
"U 	c #A0AB11",
"V 	c #ADB80E",
"W 	c #B8C40C",
"X 	c #C0CE0A",
"Y 	c #C6D604",
"Z 	c #E0E85E",
"` 	c #E3DF95",
" .	c #BDAB75",
"..	c #2D2515",
"+.	c #A28A54",
"@.	c #C6AF70",
"#.	c #B4A754",
"$.	c #B4AA4E",
"%.	c #C0B759",
"&.	c #C8C062",
"*.	c #CBC464",
"=.	c #CCC55E",
"-.	c #C9C156",
";.	c #CDC273",
">.	c #DCD09F",
",.	c #D3C491",
"'.	c #342B16",
").	c #9F874F",
"!.	c #CEB679",
"~.	c #D4BF86",
"{.	c #DCCC94",
"].	c #C9BC88",
"^.	c #B7A979",
"/.	c #AFA275",
"(.	c #B0A477",
"_.	c #CBBD8B",
":.	c #D8C68D",
"<.	c #E8DDAC",
"[.	c #D7C692",
"}.	c #3C311A",
"|.	c #9C834C",
"1.	c #C7AD6F",
"2.	c #CEB97C",
"3.	c #C1B076",
"4.	c #A18E56",
"5.	c #BFAE73",
"6.	c #B3A46C",
"7.	c #A79C68",
"8.	c #796D43",
"9.	c #C2B078",
"0.	c #E6DAA7",
"a.	c #D9C892",
"b.	c #43371D",
"c.	c #997E47",
"d.	c #C2A567",
"e.	c #C7AE71",
"f.	c #AE975E",
"g.	c #B1985D",
"h.	c #C1AD74",
"i.	c #C6B77E",
"j.	c #C2B57C",
"k.	c #968A5A",
"l.	c #A4905D",
"m.	c #E6D8A5",
"n.	c #D7C590",
"o.	c #483A1D",
"p.	c #A0834A",
"q.	c #AD9055",
"r.	c #BCA064",
"s.	c #A88E54",
"t.	c #B09357",
"u.	c #C4AD72",
"v.	c #B7A36B",
"w.	c #CFC085",
"x.	c #8E7F52",
"y.	c #978150",
"z.	c #DCCC9A",
"A.	c #CBBA85",
"B.	c #645632",
"C.	c #AE9058",
"D.	c #C8A86C",
"E.	c #B8995E",
"F.	c #977B43",
"G.	c #A8894D",
"H.	c #BDA066",
"I.	c #BEA66C",
"J.	c #BFA96E",
"K.	c #938251",
"L.	c #8B7949",
"M.	c #DCCE96",
"N.	c #E6DDA0",
"O.	c #6C6341",
"P.	c #574520",
"Q.	c #C0A163",
"R.	c #DDBA7E",
"S.	c #CAAA70",
"T.	c #B39255",
"U.	c #BE9D61",
"V.	c #B4955B",
"W.	c #B39A61",
"X.	c #8D794B",
"Y.	c #CDBF87",
"Z.	c #D1C287",
"`.	c #9D8955",
" +	c #846D3B",
".+	c #64532D",
"++	c #90908D",
"@+	c #82724D",
"#+	c #A48A50",
"$+	c #998047",
"%+	c #978435",
"&+	c #A38A45",
"*+	c #A3874F",
"=+	c #987B43",
"-+	c #927740",
";+	c #907844",
">+	c #A28B55",
",+	c #A38C55",
"'+	c #A08954",
")+	c #A9915B",
"!+	c #B6A067",
"~+	c #D1BC7F",
"{+	c #C4B278",
"]+	c #463E27",
"^+	c #4D4D4D",
"/+	c #90908F",
"(+	c #B6AE9E",
"_+	c #AF965C",
":+	c #C7AE72",
"<+	c #B7A45D",
"[+	c #C4D810",
"}+	c #B3AD40",
"|+	c #B79E6C",
"1+	c #BBA66B",
"2+	c #BFAA6F",
"3+	c #C4AF74",
"4+	c #C6B276",
"5+	c #CBB77B",
"6+	c #E5D398",
"7+	c #F5E7AB",
"8+	c #F6E8AC",
"9+	c #FDEFB3",
"0+	c #FFF2B3",
"a+	c #90855F",
"b+	c #A6A5A4",
"c+	c #D2D2D0",
"d+	c #706F6F",
"e+	c #998D74",
"f+	c #B99F61",
"g+	c #CAB178",
"h+	c #B9AC5A",
"i+	c #C8E506",
"j+	c #BEB756",
"k+	c #CFB981",
"l+	c #D0BC7F",
"m+	c #D2BE81",
"n+	c #D3C084",
"o+	c #D4C286",
"p+	c #D5C386",
"q+	c #DACA8D",
"r+	c #F8E9AE",
"s+	c #FCEFB2",
"t+	c #FCEEB2",
"u+	c #FBECAD",
"v+	c #877D5C",
"w+	c #E1E0DF",
"x+	c #696867",
"y+	c #9B9774",
"z+	c #867A59",
"A+	c #BEA667",
"B+	c #CBB37A",
"C+	c #B8AD58",
"D+	c #BCDB0B",
"E+	c #BFB163",
"F+	c #D0BB81",
"G+	c #D0BD80",
"H+	c #D2BF82",
"I+	c #D4C185",
"J+	c #D6C588",
"K+	c #D7C68A",
"L+	c #EDDFA3",
"M+	c #FDEFB2",
"N+	c #F3E4A5",
"O+	c #6C6347",
"P+	c #6D6C6D",
"Q+	c #A2A097",
"R+	c #9B9675",
"S+	c #998F60",
"T+	c #F6F0B1",
"U+	c #AB9E69",
"V+	c #B69F64",
"W+	c #CEB67C",
"X+	c #B9AE5B",
"Y+	c #B5D40D",
"Z+	c #C3B16A",
"`+	c #D2BD83",
" @	c #D2BF83",
".@	c #D3C285",
"+@	c #D5C487",
"@@	c #D7C589",
"#@	c #D8C88B",
"$@	c #D8C98C",
"%@	c #ECDEA2",
"&@	c #FFF1B4",
"*@	c #E7D89B",
"=@	c #3B3521",
"-@	c #A49768",
";@	c #FAF1AF",
">@	c #7A7553",
",@	c #5C5333",
"'@	c #E2D597",
")@	c #C5BB84",
"!@	c #5A4E2D",
"~@	c #B49E64",
"{@	c #D1BA80",
"]@	c #BCAE61",
"^@	c #AECE0D",
"/@	c #C3B36B",
"(@	c #D4C086",
"_@	c #D6C488",
":@	c #D7C789",
"<@	c #DACA8E",
"[@	c #DACB8F",
"}@	c #FFF2B5",
"|@	c #D2C48B",
"1@	c #544A2B",
"2@	c #D6C688",
"3@	c #E9E1A5",
"4@	c #3A3624",
"5@	c #BBAA70",
"6@	c #DACA8C",
"7@	c #564D31",
"8@	c #AB965E",
"9@	c #D4BD82",
"0@	c #C1B06B",
"a@	c #A4C60F",
"b@	c #C1B466",
"c@	c #D6C28A",
"d@	c #D8C68A",
"e@	c #D9C98D",
"f@	c #DBCB8E",
"g@	c #DCCD90",
"h@	c #DCCE92",
"i@	c #EFE1A4",
"j@	c #FFF2B4",
"k@	c #B8AB76",
"l@	c #827246",
"m@	c #E8D999",
"n@	c #BFB885",
"o@	c #8D7946",
"p@	c #D4BD7D",
"q@	c #897A4D",
"r@	c #847345",
"s@	c #D5BF82",
"t@	c #C6B574",
"u@	c #9CBB14",
"v@	c #BCB75D",
"w@	c #D8C58D",
"x@	c #D8C78A",
"y@	c #DBCC8F",
"z@	c #DDCD91",
"A@	c #DDCF93",
"B@	c #DFD295",
"C@	c #F0E3A7",
"D@	c #FDEEB2",
"E@	c #FEF0B2",
"F@	c #94895C",
"G@	c #AA975F",
"H@	c #F2E4A3",
"I@	c #867F58",
"J@	c #494029",
"K@	c #A69469",
"L@	c #9F8A56",
"M@	c #CCB77B",
"N@	c #CEBC7F",
"O@	c #99B31E",
"P@	c #B6B950",
"Q@	c #DAC790",
"R@	c #DBCC90",
"S@	c #DDCE92",
"T@	c #DED093",
"U@	c #DFD296",
"V@	c #E1D498",
"W@	c #F2E5A9",
"X@	c #FEF0B3",
"Y@	c #F8E9AB",
"Z@	c #6C6340",
"`@	c #B3A16D",
" #	c #BAB48B",
".#	c #333022",
"+#	c #84837F",
"@#	c #C3C2C1",
"##	c #8B8881",
"$#	c #AD9A64",
"%#	c #D7C289",
"&#	c #9AB12A",
"*#	c #A9B73E",
"=#	c #DBC793",
"-#	c #DCCC90",
";#	c #DDCF92",
">#	c #DFD195",
",#	c #E0D297",
"'#	c #E1D598",
")#	c #E3D89B",
"!#	c #F4E7AB",
"~#	c #FFF1B5",
"{#	c #E8DB9E",
"]#	c #453E27",
"^#	c #706D67",
"/#	c #B9B9B7",
"(#	c #A7A6A1",
"_#	c #4A4947",
":#	c #999795",
"<#	c #DFDEDC",
"[#	c #C3C4C2",
"}#	c #524A35",
"|#	c #6F623B",
"1#	c #DBC48D",
"2#	c #A5B43F",
"3#	c #DAC78F",
"4#	c #DECF94",
"5#	c #DED194",
"6#	c #E0D497",
"7#	c #E2D699",
"8#	c #E3D79B",
"9#	c #E5DA9E",
"0#	c #F5E8AC",
"a#	c #CEC289",
"b#	c #423F34",
"c#	c #7F7E7E",
"d#	c #D2D1CE",
"e#	c #E0DEDC",
"f#	c #6F6E6B",
"g#	c #A7A6A3",
"h#	c #A49C8D",
"i#	c #B89D62",
"j#	c #BBA367",
"k#	c #AA9864",
"l#	c #827850",
"m#	c #766B43",
"n#	c #C6B27C",
"o#	c #B6B85A",
"p#	c #8BAC19",
"q#	c #D4C587",
"r#	c #E1D397",
"s#	c #E2D69A",
"t#	c #E5DA9D",
"u#	c #E7DDA1",
"v#	c #F8EAAE",
"w#	c #A79D6C",
"x#	c #87815B",
"y#	c #BCB684",
"z#	c #ECE8AC",
"A#	c #D3D1A0",
"B#	c #6D6C66",
"C#	c #9D9C99",
"D#	c #A3A29F",
"E#	c #383735",
"F#	c #4D3F24",
"G#	c #826B39",
"H#	c #A38A51",
"I#	c #C2AA6C",
"J#	c #DCC988",
"K#	c #D7C98D",
"L#	c #B7A672",
"M#	c #C3B872",
"N#	c #84AD0F",
"O#	c #C5BD71",
"P#	c #E4D69C",
"Q#	c #E3D69A",
"R#	c #E4D99C",
"S#	c #E5DB9E",
"T#	c #E6DCA0",
"U#	c #E9E0A3",
"V#	c #FCEDB1",
"W#	c #9A9061",
"X#	c #BCAD78",
"Y#	c #E5D493",
"Z#	c #E8D796",
"`#	c #E6D898",
" $	c #D8CE94",
".$	c #C0B984",
"+$	c #696548",
"@$	c #2C2B27",
"#$	c #5B4D2E",
"$$	c #8C7D50",
"%$	c #9C8C5B",
"&$	c #C7B87B",
"*$	c #8BAE1C",
"=$	c #ACB74D",
"-$	c #E8D8A2",
";$	c #E7DB9F",
">$	c #E8DEA0",
",$	c #E9E0A2",
"'$	c #EAE1A4",
")$	c #EEE5A9",
"!$	c #FEF2B5",
"~$	c #D7CB92",
"{$	c #867344",
"]$	c #9F834A",
"^$	c #8A723E",
"/$	c #6A5933",
"($	c #493F25",
"_$	c #948258",
":$	c #A3B23D",
"<$	c #A1B836",
"[$	c #E2D297",
"}$	c #E6DA9C",
"|$	c #E7DC9D",
"1$	c #E8DDA0",
"2$	c #EADFA1",
"3$	c #EAE0A1",
"4$	c #D8CD92",
"5$	c #726943",
"6$	c #29200E",
"7$	c #3D361F",
"8$	c #464122",
"9$	c #50492E",
"0$	c #544D32",
"a$	c #5E5638",
"b$	c #605839",
"c$	c #5E5639",
"d$	c #524C31",
"e$	c #322D1B",
"                        . + @ #                                 ",
"                    $ % & * = - ; >                             ",
"                  , ' ) ! ~ { ! ] ^ /                           ",
"                ( _ : < [ } } | 1 2 3 4                         ",
"                5 6 7 8 9 0 a b c d e f                         ",
"                g h i j k l m n o p q r                         ",
"                s t u v w x y z A B C D                         ",
"                E F G H I J K L M N O P                         ",
"                Q R S T U V W X Y Z `  ...                      ",
"                +.@.#.$.%.&.*.=.-.;.>.,.'.                      ",
"                ).!.~.{.].^./.(._.:.<.[.}.                      ",
"                |.1.2.3.4.5.6.7.8.9.0.a.b.                      ",
"                c.d.e.f.g.h.i.j.k.l.m.n.o.                      ",
"                p.q.r.s.t.u.v.w.x.y.z.A.B.                      ",
"                C.D.E.F.G.H.I.J.K.L.M.N.O.                      ",
"                P.Q.R.S.T.U.V.W.X.Y.Z.`. +.+                    ",
"            ++@+#+$+%+&+*+=+-+;+>+,+'+)+!+~+{+]+^+              ",
"          /+(+_+:+<+[+}+|+1+2+3+4+5+6+7+8+9+0+a+b+c+            ",
"          d+e+f+g+h+i+j+k+l+m+n+o+p+q+r+s+t+u+v+b+w+x+          ",
"          y+z+A+B+C+D+E+F+G+H+I+p+J+K+L+t+M+N+O+P+Q+R+          ",
"        S+T+U+V+W+X+Y+Z+`+ @.@+@@@#@$@%@t+&@*@=@  -@;@>@        ",
"      ,@'@)@!@~@{@]@^@/@(@I+_@:@$@<@[@L+t+}@|@    1@2@3@4@      ",
"      5@6@7@  8@9@0@a@b@c@+@d@e@f@g@h@i@t+j@k@      l@m@n@      ",
"    o@p@q@    r@s@t@u@v@w@x@e@y@z@A@B@C@D@E@F@        G@H@I@    ",
"  J@K@L@        M@N@O@P@Q@q+R@S@T@U@V@W@X@Y@Z@          `@ #.#  ",
"  +#@###        $#%#&#*#=#-#;#>#,#'#)#!#~#{#]#          ^#/#(#  ",
"_#:#<#[#}#      |#1#2#&#3#4#5#6#7#8#9#0#}@a#          b#c#d#e#  ",
"  f#g#h#i#j#k#l#m#n#o#p#q#r#r#s#)#t#u#v#j@w#    x#y#z#A#B#C#D#  ",
"    E#F#G#H#I#J#K#L#M#N#O#P#Q#R#S#T#U#V#!#W#X#Y#Z#`# $.$+$@$    ",
"              #$$$%$&$*$=$-$;$>$,$'$)$!$~${$]$^$/$($            ",
"                    _$:$<$[$}$|$1$2$3$4$5$6$                    ",
"                      7$8$9$0$a$b$c$d$e$                        "};
