/* XPM */
static const char *ruler[] = {
/* columns rows colors chars-per-pixel */
"32 32 233 2",
"   c #9F7813",
".  c #A27B18",
"X  c #A27D1A",
"o  c #A27C1B",
"O  c #A67F1A",
"+  c #987727",
"@  c #9B7926",
"#  c #9A7929",
"$  c #9D7B2B",
"%  c #9E7D2C",
"&  c #9E7C2E",
"*  c #9F7D2E",
"=  c #A07E31",
"-  c #A68019",
";  c #AF8619",
":  c #AA841E",
">  c #AF851E",
",  c #B38817",
"<  c #B58A17",
"1  c #B68A17",
"2  c #BB8E12",
"3  c #B08618",
"4  c #B88C19",
"5  c #A78327",
"6  c #AC8722",
"7  c #A98527",
"8  c #AD8524",
"9  c #A68128",
"0  c #A4812A",
"q  c #B28A22",
"w  c #B38D25",
"e  c #B58E25",
"r  c #B48D29",
"t  c #B89026",
"y  c #B69029",
"u  c #BF972D",
"i  c #BF952E",
"p  c #A98B3F",
"a  c #B08B31",
"s  c #B59234",
"d  c #B79334",
"f  c #B59136",
"g  c #BB9635",
"h  c #B0903A",
"j  c #B89338",
"k  c #BB9638",
"l  c #BA963A",
"z  c #C49311",
"x  c #C29215",
"c  c #C49314",
"v  c #C69514",
"b  c #C79614",
"n  c #C99715",
"m  c #CC9911",
"M  c #CD9A13",
"N  c #C3961B",
"B  c #C1931F",
"V  c #CC9A18",
"C  c #CC9B18",
"Z  c #CE9D1B",
"A  c #CE9E1C",
"S  c #D09C12",
"D  c #D19F1F",
"F  c #D6A00F",
"G  c #D8A20F",
"H  c #D9A20F",
"J  c #D4A013",
"K  c #D7A315",
"L  c #D9A210",
"P  c #DAA412",
"I  c #DCA410",
"U  c #DEA610",
"Y  c #DFA81A",
"T  c #E2A80E",
"R  c #E2A90E",
"E  c #E3A90E",
"W  c #E3AA0E",
"Q  c #E4AA0E",
"!  c #E5AB0E",
"~  c #E0A912",
"^  c #E0A813",
"/  c #E5AB10",
"(  c #E4AB11",
")  c #E5AB13",
"_  c #E1A914",
"`  c #E2A914",
"'  c #E2AA14",
"]  c #E5AC14",
"[  c #E5AC15",
"{  c #E5AC16",
"}  c #E5AD17",
"|  c #E6AD17",
" . c #E6AD18",
".. c #E6AE19",
"X. c #E5AC1A",
"o. c #E7AE1A",
"O. c #E6AE1B",
"+. c #E5AE1C",
"@. c #E6AE1C",
"#. c #E6AE1D",
"$. c #E7AF1D",
"%. c #E7AF1E",
"&. c #E7AF1F",
"*. c #C79824",
"=. c #C89A20",
"-. c #CA9E27",
";. c #C69B2A",
":. c #C4982D",
">. c #C59C2D",
",. c #C79C2F",
"<. c #C99E28",
"1. c #C39B37",
"2. c #C89D33",
"3. c #CA9F32",
"4. c #CA9E37",
"5. c #C09A3C",
"6. c #CA9E3B",
"7. c #CFA024",
"8. c #D3A122",
"9. c #D1A224",
"0. c #D5A326",
"q. c #DCA720",
"w. c #DEAA25",
"e. c #D7A62A",
"r. c #DBA829",
"t. c #DDAB2B",
"y. c #DAA92F",
"u. c #CCA13D",
"i. c #DEAC33",
"p. c #D9A934",
"a. c #DBAB34",
"s. c #D6A93E",
"d. c #D7A93E",
"f. c #DDAD38",
"g. c #D8AA3E",
"h. c #DFAF3D",
"j. c #E7AF20",
"k. c #E1AC26",
"l. c #E7B021",
"z. c #E6B023",
"x. c #E7B023",
"c. c #E6B024",
"v. c #E7B124",
"b. c #E8B124",
"n. c #E8B126",
"m. c #E8B228",
"M. c #E9B228",
"N. c #E9B229",
"B. c #E9B22A",
"V. c #E9B32A",
"C. c #E9B32B",
"Z. c #E8B22C",
"A. c #E9B32C",
"S. c #E8B32D",
"D. c #E9B32D",
"F. c #EAB42D",
"G. c #E9B42E",
"H. c #E9B42F",
"J. c #EAB42F",
"K. c #E0AE35",
"L. c #EAB430",
"P. c #EBB532",
"I. c #EAB533",
"U. c #E9B534",
"Y. c #E8B435",
"T. c #EBB635",
"R. c #EBB637",
"E. c #E6B43A",
"W. c #EBB738",
"Q. c #EBB739",
"!. c #EBB73A",
"~. c #EBB73B",
"^. c #EAB73C",
"/. c #E9B73E",
"(. c #E9B63F",
"). c #E8B73F",
"_. c #ECB83C",
"`. c #ECB83D",
"'. c #ECB83E",
"]. c #EDB93E",
"[. c #ECB93F",
"{. c #A48841",
"}. c #A58941",
"|. c #B29141",
" X c #B39347",
".X c #B79544",
"XX c #B89641",
"oX c #B99642",
"OX c #B89A57",
"+X c #BD9E5B",
"@X c #BFA15C",
"#X c #D4A943",
"$X c #D9AD42",
"%X c #C1A35D",
"&X c #C4A55D",
"*X c #C4A65F",
"=X c #E1B242",
"-X c #E3B447",
";X c #E8B640",
":X c #ECB940",
">X c #EDBA42",
",X c #EDBA43",
"<X c #ECB945",
"1X c #EDBA44",
"2X c #EDBB46",
"3X c #EDBB47",
"4X c #E5B64C",
"5X c #EEBB48",
"6X c #EEBC49",
"7X c #EEBC4A",
"8X c #EEBC4B",
"9X c #EDBD4D",
"0X c #EFBD4C",
"qX c #EFBD4D",
"wX c #ECBC4F",
"eX c #EFBD4E",
"rX c #E4B755",
"tX c #EFBD50",
"yX c #EFBE50",
"uX c #EFBE51",
"iX c #EFBE52",
"pX c #EFBE53",
"aX c #EEBF56",
"sX c #F0BF51",
"dX c #F0BF54",
"fX c #EFC059",
"gX c #EFC25B",
"hX c #EFC25E",
"jX c #EFC260",
"kX c #EDC367",
"lX c #A3A3A3",
"zX c #A4A4A4",
"xX c None",
/* pixels */
"xXxXxXxXxXxXxXxXxXxXxXxXxXxXxXxXxXxXxXxXxXxXxXxXxXxXxXxXxXxXxXxX",
"xXxXxXxXxXxXxXxXOXkXrX= xXxXxXxXxXxXxXxXxXxXxXxXxXxXxXxXxXxXxXxX",
"xXxXxXxXxXxXxX+XjXfXiX4X& xXxXxXxXxXxXxXxXxXxXxXxXxXxXxXxXxXxXxX",
"xXxXxXxXxXxX@XhXiXiXeXeX-X* xXxXxXxXxXxXxXxXxXxXxXxXxXxXxXxXxXxX",
"xXxXxXxXxX%XfXiXeXeX6X6X3X=X% xXxXxXxXxXxXxXxXxXxXxXxXxXxXxXxXxX",
"xXxXxXxX*XfXiXeXeX5X5X3X3X>Xh.$ xXxXxXxXxXxXxXxXxXxXxXxXxXxXxXxX",
"xXxXxX*XfXeXu.6X5Xd.4.>X>X].].f.# xXxXxXxXxXxXxXxXxXxXxXxXxXxXxX",
"xXxXxX XwXj 6.2Xd.0 ;X>X].Q.Q.R.a.+ xXxXxXxXxXxXxXxXxXxXxXxXxXxX",
"xXxXxXxX}.#X<Xg.a ).].].Q.Q.Q.R.I.a.@ xXxXxXxXxXxXxXxXxXxXxXxXxX",
"xXxXxXxXxX.X$Xj /./.Q.R.R.i.I.P.G.G.e.xXxXxXxXxXxXxXxXxXxXxXxXxX",
"xXxXxXxXxXxX}.).E.5 K.R.:.8 G.I.F.V.V.0.xXxXxXxXxXxXxXxXxXxXxXxX",
"xXxXxXxXxXxXxXoXf p.I.,.r G.G.G.Z.b.b.b.8.xXxXxXxXxXxXxXxXxXxXxX",
"xXxXxXxXxXxXxXxXoXY.2.:.S.Z.V.b.b.j.n.j.j.=.xXxXxXxXxXxXxXxXxXxX",
"xXxXxXxXxXxXxXxXxX|.2.Z.r.*.b.z.q Y j.j.o.o.D xXxXxXxXxXxXxXxXxX",
"xXxXxXxXxXxXxXxXxXxX5.t.7 w.z.q B #.#.#.o.o.[ V xXxXxXxXxXxXxXxX",
"xXxXxXxXxXxXxXxXxXxXxXp k.z.t *.#.#.o.[ [ [ ( ( n xXxXxXxXxXxXxX",
"xXxXxXxXxXxXxXxXxXxXxXxX1.u 9.#._ o.{ _ M ! ( ! R v xXxXxXxXxXxX",
"xXxXxXxXxXxXxXxXxXxXxXxXxXj o.A O [ _ . M R ! ! ! ! v xXxXxXxXxX",
"xXxXxXxXxXxXxXxXxXxXxXxXxXxXg w _ _ : M ! ! R ! ! ! T x xXxXxXxX",
"xXxXxXxXxXxXxXxXxXxXxXxXxXxXxX>.~ w J ! R ! ! R T ! ! ! x xXxXxX",
"xXxXxXxXxXxXxXxXxXxXxXxXxXxXxXxXh K R 2 F ! H   R ! ! ! ! O xXxX",
"xXxXxXxXxXxXxXxXxXxXxXxXxXxXxXxXxX<.N 4 R L O H ! R ! ! R . xXxX",
"xXxXxXxXxXxXxXxXxXxXxXxXxXxXxXxXxXxXd ! L 6 U ! ! ! R R 4 xXxXxX",
"xXxXxXxXxXxXxXxXxXxXxXxXxXxXxXxXxXxXxX;.y U R S ! R R 4 xXxXxXxX",
"xXxXxXxXxXxXxXxXxXxXxXxXxXxXxXxXxXxXxXxX-.R 3 z ! T , xXxXxXxXxX",
"xXxXxXxXxXxXxXxXxXxXxXxXxXxXxXxXxXxXxXxXxXf V R T 3 xXxXxXxXxXxX",
"xXxXxXxXxXxXxXxXxXxXxXxXxXxXxXxXxXxXxXxXxXxX9.R ; xXxXxXxXxXxXxX",
"xXxXxXxXxXxXxXxXxXxXxXxXxXxXxXxXxXxXxXxXxXxXxX5 xXxXxXxXxXxXxXxX",
"xXxXxXxXxXxXxXxXxXxXxXxXxXxXxXxXxXxXxXxXxXxXxXxXxXxXxXxXxXxXxXxX",
"xXxXxXxXxXxXzXzXzXzXzXzXzXzXzXzXzXzXzXzXlXlXlXlXlXlXxXxXxXxXxXxX",
"xXxXzXzXzXzXzXzXzXzXzXzXzXzXzXzXzXzXzXzXzXzXzXzXzXzXzXzXzXzXxXxX",
"xXxXxXxXxXxXxXxXxXxXxXxXxXxXxXxXxXxXxXxXxXxXxXxXxXxXxXxXxXxXxXxX"
};
