/* XPM */
static const char * sat_xpm[] = {
"32 32 4 1",
" 	c None",
".	c #000000000000",
"X	c #FFFF00000000",
"o	c #1010B0B01010",
"                                ",
"       ....         .           ",
"      .XXXX.        .           ",
"      .XXXX.        .           ",
"     .XXXXXX.       .    ..     ",
"    .XXXXXX.        .  ..       ",
"    .XXXXX.   ..... ...         ",
"   .XXXXXX.  .ooooo...          ",
"   .XXXXX.   .ooooooo..         ",
"  .XXXXX.   .oooooooooo.        ",
" .XXXXXX.   ...oooooooo.        ",
" .XXXXX. ...XXX...oooooo.       ",
".XXXXX.   .XXXXXXX.ooooo.   .   ",
".XXXXX.   .XXXXXXXX.ooo.   .X.. ",
" .XXX.   .XXXXXXXXXX.o.   .XXXX.",
"  ..X.  .XXXXXXXXXXX.     .XXXX.",
"    .   .XXXXXXXXXXX.    .XXXXX.",
"        ...XXXXXXXXX.   .XXXXXX.",
"        .oo...XXXXX. .. .XXXXX. ",
"         .oooo.XXX.    .XXXXX.  ",
"          .oooo.XX.   .XXXXXX.  ",
"          ...ooo..   .XXXXXX.   ",
" X   X    .  ...     .XXXXX.    ",
" X   X   .          .XXXXXX.    ",
" X    X             .XXXXX.     ",
"  X    X            ...XX.      ",
"  X     XXXX           .X.      ",
"   X                    .       ",
"    X                           ",
"     XX                         ",
"       XXXXX                    ",
"                                "};
