/* XPM */
static const char *session_finalize_xpm[] = {
/* columns rows colors chars-per-pixel */
"48 48 77 1",
"  c #040404",
". c #0B0B0B",
"X c #0F1010",
"o c #131414",
"O c #1C1C1C",
"+ c #232323",
"@ c #282626",
"# c #272728",
"$ c #2B2B2B",
"% c #353535",
"& c #383636",
"* c #383837",
"= c #3D3D3D",
"- c #444444",
"; c #4B4B4B",
": c #504F4E",
"> c #50504F",
", c #535353",
"< c #585756",
"1 c #5C5C5B",
"2 c #605F5F",
"3 c #62605F",
"4 c #646363",
"5 c #686666",
"6 c #696867",
"7 c #6C6C6B",
"8 c #706F6E",
"9 c #6F706F",
"0 c #71706F",
"q c #737272",
"w c #787676",
"e c #797877",
"r c #7C7B7B",
"t c #807F7E",
"y c #81807F",
"u c #848382",
"i c #898786",
"p c #898887",
"a c #8D8C8B",
"s c #918F8D",
"d c #91908F",
"f c #959493",
"g c #999796",
"h c #9C9996",
"j c #9D9B9A",
"k c #A19E9D",
"l c #A3A09F",
"z c #A4A2A1",
"x c #A9A6A5",
"c c #ABA9A7",
"v c #ADABA9",
"b c #B1AEAD",
"n c #B3B1AE",
"m c #B5B3B1",
"M c #BBB6B5",
"N c #BBB8B6",
"B c #BEBBBA",
"V c #C1BCBC",
"C c #C4C1BE",
"Z c #C6C4C2",
"A c #C9C6C4",
"S c #CCC9C6",
"D c #CECBC9",
"F c #D2CECB",
"G c #D5D1CE",
"H c #D7D4D1",
"J c #D9D6D3",
"K c #DDD9D6",
"L c #DEDBD9",
"P c #E1DEDC",
"I c #E3E0DE",
"U c #E6E3E1",
"Y c #EAE6E5",
"T c #EFEDEA",
"R c #F1EEED",
"E c #F6F3F2",
"W c None",
/* pixels */
"WWWWWWWWWWWWWWWWWWWWWWWWWWWWWWWWWWWWWWWWWWWWWWWW",
"WWWWWWWWWWWWWWWWWWWWWWWWWWWWWWWWWWWWWWWWWWWWWWWW",
"WWWWWWWWWWWWWWWWWWWWWWWWWWWWWoWWWWWWWWWWWWWWWWWW",
"WWWWWWWWWWWWWWWWWWWWWWWWWWWW4pe&WWWWWWWWWWWWWWWW",
"WWWWWWWWWWWWW$1;OWWWWWWWWWW;nMMg@WWWWWWWWWWWWWWW",
"WWWWWWWWWWWW-zNmtoWWWWWWWWWammnN1WWWWWWWWWWWWWWW",
"WWWWWWWWWWWWdMnmm6WWWWWWWW>bnnbC8WWWWWWWWWWWWWWW",
"WWWWWWWWWWW#cbnnnv=WWWWWWogmnnbV4WWWWWWWWWWWWWWW",
"WWWWWWWWWWW+vMnnnmg=$-3wtaMbbmmM;WWWWWWWWWWWWWWW",
"WWWWWWWWWWW+aDbmmmNvvnxxMNmnmnmp%WWWWWWWWWWWWWWW",
"WWWWWWWWWWW+4mmnmMMNNkiukbnnnbbf;.WWWWWWWWWWWWWW",
"WWWWWWWWWWWW-fvbmMMMMxxNMbmnbbbmb1oWWWW$6jvrWWWW",
"WWWWWWWWWWWOazjbMMMNbfairrabmbbhpz4.W#qxMMBC5WWW",
"WWWWWWWWWW+jmrecNMMvfqqqq65wlmxuuavq6lBBNBZN7WWW",
"WWW4e1$WWWgZxisxNMbxxxvcczksqgvhhnNBBBBBZSVf2oWW",
"WWaZBmxi,7SMmcMBMMNnxzjfpfjjkujbNABNVVCADmu77WWW",
"W4HZVMmMvvNMNMMNMNMvjprwqqakzvgnNMMVVVZAf7qr4WWW",
"WqYDSCVBvbMMMMMmzVmxeqwtrw4pkbkzNMVVVNze6eur*WWW",
"W<jGKHSZNMMMMMNvhCnu1euuut64jzmgNMkabZw1upr&WWWW",
"W47pxAHGANMMNNNljCcq1uq48tq1kxbfNnapbFa1i1OWWWWW",
"W8ueq9avZBMNmMBjaZxi,;O.o%-eznzfVBnNDGg=& WWWWWW",
"W1grww71mVMjranb8ZZbg-WWW$qjzBdcACAGDAf+WWWWWWWW",
"WOefirq;vAVfajbVfuJDBmsukmNbBcuCSAAAZZNr<*WWWWWW",
"WWo;rfu;kFZBMSAVZsdDLHGDADHJM2jDZBZCZSSCMnxg6WWW",
"WWW o*2-uGAAASCVZAzazBDKHDmy1hFCfpcBSFADSSFDZzWW",
"WWWWWW o,DDZAZZZASFMa05ww65wcGFvrfmDFBHJFDSASF1W",
"WWWWWWW*aASZAAASABSFSBxxbMSGGSDZNSGJV1uBHLKKLU0W",
"WWWWWWrZDZCZSASAxkCFFGJJFCNSGDFHKHGBr,7ugcMAHC1W",
"WWWWWkKDSAZADDDZbNZHFHJFBczBGFFGGJAq7qffayerur-W",
"WWWW<PSSSFFFLPHFJHJJGJGGAVZSGGHGHLa8rrgjgprere#W",
"WWWWuIDSFHKSgfFKHHHGJHFGHHLJJJHHGKc2r45rusfau- W",
"WWWW6IPKKGBa44iZHHHJJJKJPPPKSSHJHHLj<# oO*11=.WW",
"WWWW;gbxharwqwrqzSJJJJHJNzfr5fJJHGJIt WWWWWWWWWW",
"WWWW,faatuuuruaw7MPJJJLZ<447q7mKHHKKLqWWWWWWWWWW",
"WWWW;zkhffsr7adu1APKKKIZ7truu4tSKJKKLFWWWWWWWWWW",
"WWWW@jvzjj7%O;ia<FPKKLUB8iasi4uzHLJKJUqWWWWWWWWW",
"WWWWW;ffq=XWWW#1,HIKLPYhqggfp<azzZLLPTqWWWWWWWWW",
"WWWWWWo+.WWWWWW.=PUPIYUq1paq,+:jgazSFm;WWWWWWWWW",
"WWWWWWWWWWWWWWWW+mEREYg1$%$o W 4jfrq76-WWWWWWWWW",
"WWWWWWWWWWWWWWWW@qhZmrq1.WWWWWWo7gfuqq$WWWWWWWWW",
"WWWWWWWWWWWWWWWWOqqq46e-WWWWWWWWo7gfe,.WWWWWWWWW",
"WWWWWWWWWWWWWWWWW6dfprq@WWWWWWWWW.;4-.WWWWWWWWWW",
"WWWWWWWWWWWWWWWWW=ggsa<.WWWWWWWWWWWWWWWWWWWWWWWW",
"WWWWWWWWWWWWWWWWWW2ai5OWWWWWWWWWWWWWWWWWWWWWWWWW",
"WWWWWWWWWWWWWWWWWW.++.WWWWWWWWWWWWWWWWWWWWWWWWWW",
"WWWWWWWWWWWWWWWWWWWWWWWWWWWWWWWWWWWWWWWWWWWWWWWW",
"WWWWWWWWWWWWWWWWWWWWWWWWWWWWWWWWWWWWWWWWWWWWWWWW",
"WWWWWWWWWWWWWWWWWWWWWWWWWWWWWWWWWWWWWWWWWWWWWWWW"
};
