/* XPM */
static const char *session_operational_xpm[] = {
/* columns rows colors chars-per-pixel */
"47 46 256 2",
"   c black",
".  c gray3",
"X  c #101010",
"o  c #002918",
"O  c #003118",
"+  c #181818",
"@  c #002921",
"#  c #003121",
"$  c #003921",
"%  c #004221",
"&  c #083121",
"*  c gray13",
"=  c #004229",
"-  c #084229",
";  c #104229",
":  c gray16",
">  c #001031",
",  c #001039",
"<  c #001042",
"1  c #00184A",
"2  c #08184A",
"3  c #001852",
"4  c #041C41",
"5  c #003736",
"6  c #08185A",
"7  c #102142",
"8  c #18295A",
"9  c #184231",
"0  c #214239",
"q  c #29395A",
"w  c #313131",
"e  c #393939",
"r  c #004A29",
"t  c #004A31",
"y  c #104A31",
"u  c #005229",
"i  c #005231",
"p  c #005A35",
"a  c #00633D",
"s  c #06643B",
"d  c #106B42",
"f  c #086B52",
"g  c #007342",
"h  c #087342",
"j  c #08734A",
"k  c #10734A",
"l  c #087B4A",
"z  c #107B4A",
"x  c #20523D",
"c  c #2B5244",
"v  c #246650",
"b  c #316B52",
"n  c gray26",
"m  c #3D6352",
"M  c gray29",
"N  c gray32",
"B  c #187B4A",
"V  c #18844A",
"C  c #188452",
"Z  c #218452",
"A  c #268357",
"S  c #298C52",
"D  c #2D8C5A",
"F  c #35945A",
"G  c #082163",
"H  c #08216B",
"J  c #082173",
"K  c #08217B",
"L  c #003963",
"P  c #0C296F",
"I  c #083973",
"U  c #08297B",
"Y  c #082984",
"T  c #083184",
"R  c #08298C",
"E  c #08318C",
"W  c #10318C",
"Q  c #18318C",
"!  c #18398C",
"~  c #183194",
"^  c #21397B",
"/  c #183994",
"(  c #213994",
")  c #214294",
"_  c #394875",
"`  c #5A5A5A",
"'  c #29428C",
"]  c #3B508E",
"[  c #2D469A",
"{  c #315294",
"}  c #354E9C",
"|  c #39529C",
" . c #3952A5",
".. c #395AA5",
"X. c #42529C",
"o. c #4252A5",
"O. c #267C64",
"+. c #399168",
"@. c #43866D",
"#. c #40986C",
"$. c gray39",
"%. c #5A7B6F",
"&. c #549279",
"*. c #52A275",
"=. c #526390",
"-. c #425AA5",
";. c #4263A5",
":. c #4A5AA5",
">. c #4A63A5",
",. c #4E63A9",
"<. c #5765A7",
"1. c #577BA1",
"2. c #638C7B",
"3. c gray42",
"4. c #777777",
"5. c #848484",
"6. c #63A088",
"7. c #739083",
"8. c #68AA8C",
"9. c #6BAD94",
"0. c #6373A4",
"q. c #6D7BAA",
"w. c #6D7FB7",
"e. c #7685B9",
"r. c #7B94AC",
"t. c #8490C1",
"y. c #79A998",
"u. c #7CB39D",
"i. c #94847B",
"p. c #948C7B",
"a. c #9C8C84",
"s. c gray55",
"d. c #9C9484",
"f. c #9C948C",
"g. c #A5948C",
"h. c gray58",
"j. c #8C94B5",
"k. c #8C94C6",
"l. c #A59C8C",
"z. c #A59C94",
"x. c #AD9C94",
"c. c gray61",
"v. c #949CAD",
"b. c #8C9CC6",
"n. c #949CC6",
"m. c #8C9CCE",
"M. c #949CCE",
"N. c #ADA594",
"B. c #ADA59C",
"V. c #B5A59C",
"C. c #94A5A5",
"Z. c #A5A5A5",
"A. c #94A5C6",
"S. c #9CA5C6",
"D. c #94A5CE",
"F. c #9CA5CE",
"G. c #8CAD9C",
"H. c #94ADA5",
"J. c #9CADA5",
"K. c #B5ADA5",
"L. c #8CB5A5",
"P. c #88BFA4",
"I. c #95C0AD",
"U. c #9CC6B5",
"Y. c #A0ADC6",
"T. c #A2C5B7",
"R. c #A5CEB5",
"E. c #A5CEBD",
"W. c gray68",
"Q. c #ADADBD",
"!. c #ADADC6",
"~. c #ADBDB5",
"^. c #ADC6BD",
"/. c #ADCEBD",
"(. c #ADCEC6",
"). c #ADD6C1",
"_. c #BDB5AD",
"`. c gray71",
"'. c #BDBDB5",
"]. c #C6BDB5",
"[. c gray74",
"{. c #B5C6BD",
"}. c #BDC6BD",
"|. c #C6C6BD",
" X c #C6C6C6",
".X c #BDCEC6",
"XX c #B5D6BD",
"oX c #B9DAC6",
"OX c #CEC6BD",
"+X c #CEC6C6",
"@X c #CECEC6",
"#X c #D6CEC6",
"$X c #9CADCE",
"%X c #A5ADCE",
"&X c #A5ADD6",
"*X c #A5B5D6",
"=X c #ADB5CE",
"-X c #ADB5D6",
";X c #ADBDDE",
":X c #B5B5D6",
">X c #B5BDD6",
",X c #B5BDDE",
"<X c #BDBDDE",
"1X c #BDC6D6",
"2X c #BDC6DE",
"3X c #BDDECE",
"4X c #C6C6DE",
"5X c #C6CECE",
"6X c #C6D6CE",
"7X c #CECECE",
"8X c #CED6CE",
"9X c #D6CECE",
"0X c #CED2D6",
"qX c #D6D6CE",
"wX c gray84",
"eX c #CECEDE",
"rX c #C6CEE7",
"tX c #D6D6DE",
"yX c #CED6E7",
"uX c #D6D6E7",
"iX c #C6DECE",
"pX c #C6DED6",
"aX c #D6DEDE",
"sX c #CEE7DE",
"dX c #D6DEEF",
"fX c #D6E7DE",
"gX c #D6EFDE",
"hX c #DED6CE",
"jX c #DED6D6",
"kX c #DEDED6",
"lX c gray87",
"zX c #DEDEEF",
"xX c #DEE7DE",
"cX c #DEE7E7",
"vX c #DEE7EF",
"bX c #DEEFE7",
"nX c #E7DEDE",
"mX c #E7E7DE",
"MX c #E7E7E7",
"NX c #E7E7EF",
"BX c #E7E7F7",
"VX c #E7EFF7",
"CX c #E7F7EF",
"ZX c #EFE7E7",
"AX c #EFEFE7",
"SX c #EFEFEF",
"DX c #EFEFF7",
"FX c #EFF7EF",
"GX c #EFF7F7",
"HX c #F7EFEF",
"JX c #F7F7EF",
"KX c gray97",
"LX c #F7F7FF",
"PX c #F7FFF7",
"IX c #F7FFFF",
"UX c None",
/* pixels */
"UXUXUXUXUXUXUXUXUXUXUXUXUXUXUXUXUXUXUXUXUXUXUXUXUXUXUXUXUXUXUXUXUXUXUXUXUXUXUXUXUXUXUXUXUXUXUX",
"UXUXUXUXUXUXUXUXUXUXUXUXUXUXUXUXUXUXUXUXUXUXUXUXKXUXUXUXUXUXUXUXUXUXUXUXUXUXUXUXUXUXUXUXUXUXUX",
"UXUXUXUXUXUXUXUXUXUXUXUXUXUXUXUXUXDX2Xn.w.<.*.*.6.u.bXKXFXIXUXUXUXUXUXUXUXUXUXUXUXUXUXUXUXUXUX",
"UXUXUXUXUXUXUXUXUXUXUXUXUXUXKXdXuX,X-Xn.0.[ +.+.F S D u./.8.E.KXUXUXUXUXUXUXUXUXUXUXUXUXUXUXUX",
"UXUXUXUXUXUXUXUXUXUXUXUXUX>X<.| | } | ,.t.;XT.*.D D S Z +.XX+.D I.KXUXUXUXUXUXUXUXUXUXUXUXUXUX",
"UXUXUXUXUXUXUXUXUXUXUXvXw.o.:.-.:.X.X.} } [ 1.oXy.F D S Z D (.D k +.pXUXUXUXUXUXUXUXUXUXUXUXUX",
"UXUXUXUXUXUXUXUXUXUX2X:.:.,.<.,.,.:.:.X.| } ] #.R.u.F S Z Z D (.z h k E.UXUXUXUXUXUXUXUXUXUXUX",
"UXUXUXUXUXUXUXUXUX%X:.>.<.<.w.k.n.t.0.:.o.| } #.#.XX*.S A Z V 6.9.z h z NXUXUXUXUXUXUXUXUXUXUX",
"UXUXUXUXUXUXUXUX%X-.:.<.k.yX<X%XF.F.2X:X,.X.} &.#.*.R.D S Z V B ).k h g 9.(.UXUXUXUXUXUXUXUXUX",
"UXUXUXUXUXUXUX,XX.:.<.%X,Xe.t.t.e.w.q.e.2X-.| @.*.F oXF S Z Z z P.+.h h z U.L.UXUXUXUXUXUXUXUX",
"UXUXUXUXUXUXIX<.o.>.e.<Xe.t.n.&X4XdXzXBXKXyX%Xr.*.#.R.#.D Z Z B *.8.h g g U.d 6XUXUXUXUXUXUXUX",
"UXUXUXUXUXUXyX| o.<.-Xt.e.<XDXUXUXNXDXNXyXzXIXUXFXXXR.*.D S V B +.u.j h g 6.@.v GXUXUXUXUXUXUX",
"UXUXUXUXUX2X%X| :.,.-Xt.k.NXUXKX-XS.rXw.<.:.:.r.3XKXUXoX+.S Z z +.u.h h g D y.p G.IXUXUXUXUXUX",
"UXUXUXUXLX0.D.| o.,.e.2Xe.k.2XKXDXuXt.0.<.:.X.>.3XR./.PXSX8.Z B #.9.h h g k L.i s SXUXUXUXUXUX",
"UXUXUXUX,X} &X} X.:.<.%X4Xt.t.F.KXLXe.<.<.-.w.1X*.#.F *.fXUXI.C 9.*.h h g j I.i r G.UXUXUXUXUX",
"UXUXUXUX0.) >X} X.-.<.<.t.4XyXeXdXKX2X<.,.q.,X} #.F F F D R.UXoX/.B j g g k L.i t v UXUXUXUXUX",
"UXUXUXDX) ( w.k.} X.:.,.<.0.w.0.0.<XLX0.,.2Xo.[ +.#.F D Z D oXUXcXz h g g O.y.u r = aXUXUXUXUX",
"UXUXUXvX( ( ' F.t.| X.:.,.,.<.<.<.w.UXM.-X<.[ ' @.F D 6.R.E.8.u.UXT.h g a 6.@.i r = G.UXUXUXUX",
"UXUXUXDX( ! ( [ t.-X<.X.-.:.:.:.:.:.BXzXF.} [ ( @.#.XXP.F B B z P.UXP.g a U.s t r % %.UXUXUXUX",
"UXUXUXuX| ! ( ) ' -.&X>Xt.<.-.X. .| yXDXX.[ ( ) y.(.#.Z Z V z z h U.UXu.k U.i r = = m KXUXUXUX",
"UXUXUXw.b.Q ( ! ) ) [ } w.F.>X,X=XF.vXyX) ( [ %Xu.D S Z B B z k h j T.UX3X@.i r = $ m IXUXUXUX",
"UXUXUX} &X[ ! ( ( ( ) ' [ ) [ [ } :.vX2X( | >X>.O.A Z V C z k h D 9.U.FXUXy.r r = $ 2.UXUXUXUX",
"UXUXUX[ } *X! Q ! ( ( ( ) ' ( ) ) [ KXF.-.>X} Q O.Z C B B D u.).L.+.j s T.UXL.= % # ~.KXUXUXUX",
"UXUXUX} W ,.*X( ! Q ! ( ( ( ( ( ( <.UXb.>X) Q W v C B +.U.I.+.h g g a a p L.UX~.- c J.KXUXUXUX",
"UXUXUX>.W W X.;X0.~ Q ! Q ! ! ( ! D.UX2X( Q W Q f D I.U.D j h g g a a p i t 7.UXaX{.c UXUXUXUX",
"UXUXUXw.E R W Q e.;Xe.| / Q Q ! ( NXyX( W Q W W 6.(.#.k h h h g g a p p i t @. XFXLX.XUXUXUXUX",
"UXUXUXD.W W Y W W W >.k.*X*X%XD.&XUX<.W W W Q m.L.z k h j h g g a a p b L.~.%.x ; C.KXUXUXUXUX",
"UXUXUXuXE R W R W W R W W W Q [ zXdXW W W ) ;X>.f k h h h g g a s 6.T.y.x % $ # O o {.UXUXUXUX",
"UXUXUXUX} W R W Y W R W Y W W w.PXw.Y W -.-X[ Y k h h g g g d 9.^.@.y r = $ $ O o & KXUXUXUXUX",
"UXUXUXUX2XW W Y W R W E W Y / NXrXW E w.F.! R E h h g g j 6.E.@.i i r = $ $ O O o %.UXUXUXUXUX",
"UXUXUXUXUXF.T Y W R T W R W D.LX;.Q F.w.W R W T g g g #.^.&.p i t r = $ $ # O o o 5XUXUXUXUXUX",
"UXUXUXUXUX=X*X' Y Y W Y W >.LXF.-.>X..T Y Y Y I g k U.y.s p i t r = % $ # O o o m UXUXUXUXUXUX",
"UXUXUXUXUXNX] Y.b.] Y Y ! vXDX%Xb.W Y Y U U U L #.^.A p i i r r = $ $ # O o o & 8XUXUXUXUXUXUX",
"UXUXUXUXUXUXn.H ' j.%X%XeXLX=X{ U U U U J U P r.L.s i i i r = = $ $ # O o o o 7.UXUXUXUXUXUXUX",
"UXUXUXUXUXUXUX=.H H P t.PXe.P J P J P J P P S.2.p i t r r = % $ $ O O o o o c KXUXUXUXUXUXUXUX",
"UXUXUXUXUXUXUXDX_ H =.IX!.P H H H H H H P !.] t t r r = = $ $ $ # O o o o 0 MXUXUXUXUXUXUXUXUX",
"UXUXUXUXUXUXUXUXNX0.GXeXP G G G G G G G Y._ G t r = = % $ $ # O O o o o 9 aXUXUXUXUXUXUXUXUXUX",
"UXUXUXUXUXUXUXUXUXUXcXq 6 6 6 G 6 6 6 j.=.2 2 = = $ $ $ # O O o o o o c lXUXUXUXUXUXUXUXUXUXUX",
"UXUXUXUXUXUXUXUXUXUXKXq.2 6 3 2 6 2 =.q.2 2 4 % $ $ # O O o o o o o %.SXUXUXUXUXUXUXUXUXUXUXUX",
"UXUXUXUXUXUXUXUXUXUXUXUX1X_ 1 2 1 8 Q.2 4 2 @ # # O O o @ O o o 0 ~.UXUXUXUXUXUXUXUXUXUXUXUXUX",
"UXUXUXUXUXUXUXUXUXUXUXUXUXKXQ._ 4 v.q 4 < , @ # O o o o o o c C.KXUXUXUXUXUXUXUXUXUXUXUXUXUXUX",
"UXUXUXUXUXUXUXUXUXUXUXUXUXUXUXPXtX0X_ 7 > , o o o o & m 7.5XUXUXUXUXUXUXUXUXUXUXUXUXUXUXUXUXUX",
"UXUXUXUXUXUXUXUXUXUXUXUXUXUXUXUXUXUXUXKXlX5X{.{.5XaXKXUXUXUXUXUXUXUXUXUXUXUXUXUXUXUXUXUXUXUXUX",
"UXUXUXUXUXUXUXUXUXUXUXUXUXUXUXUXUXUXUXUXUXUXUXUXUXUXUXUXUXUXUXUXUXUXUXUXUXUXUXUXUXUXUXUXUXUXUX",
"UXUXUXUXUXUXUXUXUXUXUXUXUXUXUXUXUXUXUXUXUXUXUXUXUXUXUXUXUXUXUXUXUXUXUXUXUXUXUXUXUXUXUXUXUXUXUX",
"UXUXUXUXUXUXUXUXUXUXUXUXUXUXUXUXUXUXUXUXUXUXUXUXUXUXUXUXUXUXUXUXUXUXUXUXUXUXUXUXUXUXUXUXUXUXUX"
};
