/* XPM */
static const char * showall_xpm[] = {
"24 24 136 2",
"  	c None",
". 	c #DDDED8",
"+ 	c #9B9996",
"@ 	c #66655D",
"# 	c #5F5E58",
"$ 	c #7B7B76",
"% 	c #B7BAA9",
"& 	c #F6F9E3",
"* 	c #EFF1E2",
"= 	c #7A797E",
"- 	c #18181D",
"; 	c #000000",
"> 	c #050905",
", 	c #000301",
"' 	c #000004",
") 	c #000009",
"! 	c #000006",
"~ 	c #474548",
"{ 	c #B4B1B4",
"] 	c #979797",
"^ 	c #090A09",
"/ 	c #2A2933",
"( 	c #697439",
"_ 	c #738E0D",
": 	c #6B9103",
"< 	c #88B103",
"[ 	c #83AA03",
"} 	c #6F9500",
"| 	c #6B8F03",
"1 	c #6F7D41",
"2 	c #3C3C3C",
"3 	c #020102",
"4 	c #434343",
"5 	c #E2E2E2",
"6 	c #4C4C4C",
"7 	c #353534",
"8 	c #CCCEBD",
"9 	c #FFFFFF",
"0 	c #A9D12A",
"a 	c #99CF02",
"b 	c #8BBC0C",
"c 	c #70910D",
"d 	c #6B8A13",
"e 	c #90BD09",
"f 	c #98CC02",
"g 	c #9CCD1A",
"h 	c #FFFFFD",
"i 	c #E1E1DB",
"j 	c #7D7D7D",
"k 	c #121212",
"l 	c #D2D2D2",
"m 	c #B7B7B7",
"n 	c #E0EECA",
"o 	c #749F00",
"p 	c #82B005",
"q 	c #668505",
"r 	c #000003",
"s 	c #7D7A8F",
"t 	c #425709",
"u 	c #8CBB07",
"v 	c #6A9C00",
"w 	c #CBDAA8",
"x 	c #282828",
"y 	c #D6D6D6",
"z 	c #9B9B9B",
"A 	c #DBDBDB",
"B 	c #E3E3E3",
"C 	c #D0E0A8",
"D 	c #739D00",
"E 	c #82AF07",
"F 	c #192409",
"G 	c #000001",
"H 	c #636452",
"I 	c #0A0E1A",
"J 	c #8CBB0B",
"K 	c #72A300",
"L 	c #BACB89",
"M 	c #A8A8A8",
"N 	c #D1D1D1",
"O 	c #E1F0BB",
"P 	c #81AB00",
"Q 	c #7AA901",
"R 	c #67840A",
"S 	c #00000C",
"T 	c #060614",
"U 	c #38490A",
"V 	c #7CAD05",
"W 	c #77A505",
"X 	c #CFDFA0",
"Y 	c #E9E9E9",
"Z 	c #F1F9E8",
"` 	c #98C02A",
" .	c #97CC01",
"..	c #9CCD0A",
"+.	c #77970D",
"@.	c #769C00",
"#.	c #93C504",
"$.	c #9ED502",
"%.	c #95C31D",
"&.	c #E0E0E0",
"*.	c #E4E4E4",
"=.	c #DADADA",
"-.	c #989898",
";.	c #ECECEC",
">.	c #E2F2C3",
",.	c #98C609",
"'.	c #74A700",
").	c #91C014",
"!.	c #83B405",
"~.	c #76A508",
"{.	c #93C200",
"].	c #DDEDB3",
"^.	c #8C8C8C",
"/.	c #696864",
"(.	c #B4B3B4",
"_.	c #F6FEDE",
":.	c #B6CC7D",
"<.	c #9FC82C",
"[.	c #A0C138",
"}.	c #B1CE4F",
"|.	c #F2FDD7",
"1.	c #B5B5A8",
"2.	c #6C6D78",
"3.	c #EAE7F0",
"4.	c #959590",
"5.	c #4A4C46",
"6.	c #48464A",
"7.	c #5C5855",
"8.	c #6C6C7B",
"9.	c #6C6D67",
"0.	c #5E5865",
"a.	c #3F4147",
"b.	c #4B4941",
"c.	c #9894A5",
"d.	c #EAEDE4",
"e.	c #EBEBEB",
"                                                ",
"                  . + @ # $ % &                 ",
"            * = - ; ; > , ' ) ! ~ {             ",
"          ] ^ / ( _ : < [ } | 1 2 3 4 5         ",
"        6 7 8 9 0 a b c d e f g h i j k l       ",
"      6 m     n o p q r s t u v w       x y     ",
"    z A B     C D E F G H I J K L         M     ",
"    N         O P Q R S T U V W X               ",
"      Y       Z `  ...+.@.#.$.%.        &.*.    ",
"      =.-.;.    >.,.'.).!.~.{.].    ;.-.&.      ",
"        Y ^./.(.9 _.:.<.[.}.|.9 1.2.z           ",
"            3.4.5.6.7.8.9.0.a.b.c.d.            ",
"                        e.                      ",
"                                                ",
"                                                ",
"          ;           ;           ;             ",
"        ; ; ;         ;           ;             ",
"        ;   ;         ;           ;             ",
"        ;   ;         ;           ;             ",
"      ;       ;       ;           ;             ",
"      ; ; ; ; ;       ;           ;             ",
"      ;       ;       ;           ;             ",
"    ;           ;     ; ; ; ; ;   ; ; ; ; ;     ",
"                                                "};
