/* XPM */
static const char * spectrum_xpm[] = {
"32 32 6 1",
"# c #00ffff",
"a c #000000",
"b c #0000ff",
"d c None",
"c c #ff0000",
". c #00c0c0",
"................................",
".##############################.",
".###########aaaaaaaa###########.",
".#########aa###a####aa#########.",
".#######aa#####a######aa#######.",
".######a###bbbbabbbb####a######.",
".#####abbbbbbccaccbbb###aa#####.",
".####ababbbccaaaaaacbbba##a####.",
".###abbbacccaccacccacbabb##a###.",
".###abbccacacccaccccaacbbb#a###.",
".##abbccccaccccaccccaacbbb##a##.",
".##abbcccacacccacccaccabbbb#a##.",
".#abbcccacccacbabbabbbbabbb##a#.",
".#abbccaccccca#a#a##bbbbabb##a#.",
".#abcccacccccbaaa#######abb##a#.",
".#aaaaaaaaaaaaaaaaaaaaaaaaaaaa#.",
".#abcccaccccb#aaa#######a####a#.",
".#abbccacccbba#a#a######a####a#.",
".#abbccacccbab#a##a#####a####a#.",
".#abbbccaccabb#a###a###a#####a#.",
".##abbcccaabbb#a####a#a#####a##.",
".##abbbccaabbb#a#####a######a##.",
".###abbbabbabb#a####a#a####a###.",
".###adbabbbbab#a###a###a###a###.",
".####aabbbbbbaaaaaa#####a#a####.",
".#####abbbbb###a#########a#####.",
".######a#######a########a######.",
".#######aa#####a######aa#######.",
".#########aa###a####aa#########.",
".###########aaaaaaaa###########.",
".##############################.",
"................................"};
