/* XPM */
static const char * station_xpm[] = {
"32 32 7 1",
" 	c None",
".	c #282828",
"+	c #4F4F4F",
"@	c #808080",
"#	c #A0A0A0",
"$	c #000000",
"%	c #CBCBCB",
"                                ",
"                                ",
"                                ",
"             ..+                ",
"           ..+@#@               ",
"       $  .++@@#%               ",
"        $.++@@##%               ",
"        .$+@@##%                ",
"       .++$@@##%                ",
"      .++@@$##%                 ",
"      .+@@@##%                  ",
"     .+@@###%                   ",
"     .@@###%$$                  ",
"     +###%% $ $                 ",
"      @%%   $  $                ",
"            $$$$$               ",
"            $   $               ",
"            $   $               ",
"    $$$$$$$$$$$$$$$$$$$$$$$     ",
"   $@@@@@@@@@@@@@@@@@@@@@@@$    ",
"   $@@@@@@@@@@@@@@@@@@@@@@@$    ",
"   $@@$$$$$@@$$$$$@@$$$$$@@$    ",
"   $@@$%%%$@@$%%%$@@$%%%$@@$    ",
"   $@@$%%%$@@$%%%$@@$%%%$@@$    ",
"   $@@$%%%$@@$$$$$@@$$$$$@@$    ",
"   $@@$%%%$@@@@@@@@@@@@@@@@$    ",
"   $@@$%%%$@@@@@@@@@@@@@@@@$    ",
"   $@@$%%%$@@@@@@@@@@@@@@@@$    ",
" $$$$$$$$$$$$$$$$$$$$$$$$$$$$$  ",
"                                ",
"                                ",
"                                "};
