/* XPM */
static const char * stop_xpm[] = {
"24 24 5 1",
" 	c None",
".	c #000000",
"+	c #4B7040",
"@	c #9DBB90",
"#	c #F1F5F0",
"                        ",
"                        ",
"                        ",
"                        ",
"                        ",
"     ..............     ",
"     .++++++++++++.     ",
"     .+@@@@@@@@@@+.     ",
"     .+@########@+.     ",
"     .+@########@+.     ",
"     .+@########@+.     ",
"     .+@########@+.     ",
"     .+@########@+.     ",
"     .+@########@+.     ",
"     .+@########@+.     ",
"     .+@########@+.     ",
"     .+@@@@@@@@@@+.     ",
"     .++++++++++++.     ",
"     ..............     ",
"                        ",
"                        ",
"                        ",
"                        ",
"                        "};
