/* XPM */
static const char * editmode_xpm[] = {
"32 32 5 1",
" 	c None         ",
".	c #000000000000",
"X	c #FFFF7A7A0000",
"o	c #9B9B9B9B9B9B",
"O	c #B8B88D8D5C5C",
"                                ",
"                                ",
"                                ",
"                  ...           ",
"                 .XXX.          ",
"                 .XXX.          ",
"                ..XX.           ",
"                .o.X.           ",
"               .ooo.            ",
"               ..oo.            ",
"              .X...             ",
"              .XXX.             ",
"             .XXX.              ",
"             .XXX.              ",
"            .XXX.               ",
"            .XXX.               ",
"           .XXX.                ",
"           .XXX.                ",
"          .XXX.                 ",
"          .XXX.            .    ",
"         .XXX.             .    ",
"         .OOX.              .   ",
"         .OO.               .   ",
"         ...                .   ",
"         ..                 .   ",
"           .     ...        .   ",
"            .   .   .      .    ",
"             ...     ......     ",
"                                ",
"                                ",
"                                ",
"                                "};
