/* XPM */
static const char * traj_xpm[] = {
"32 32 4 1",
" 	c None",
"r	c #FFFF00000000",
"w	c #FFFFFFFFFFFF",
"b	c #00000000FFFF",
"                                ",
"                                ",
"                                ",
"              r                 ",
"              rrrr              ",
"                rrrr            ",
"              rrrrrrr           ",
"            rrrr rrr            ",
"          rrr    rr    www      ",
"         rrr     r      www     ",
"        rrr        wwwwwwwww    ",
"       rr        wwwwwwwwww     ",
"      rr       wwww    www      ",
"      rr      ww      ww        ",
"     rrr    www      ww         ",
"     rr    ww                   ",
"    rrr   ww       b            ",
"    rr   ww        bbbb         ",
"   rrr  ww           bbb        ",
"   rr   ww       bbbbbbbb       ",
"  rrr  ww     bbbbbbbbbb        ",
"  rr   ww    bbb    bbb         ",
"  rr  ww    bb     bb           ",
"  rr  ww  bbb      b            ",
"     ww  bb                     ",
"     w  bb                      ",
"       bb                       ",
"      bb                        ",
"     bb                         ",
"                                ",
"                                ",
"                                "};
