/* XPM */
static const char * trashcan_xpm[] = {
"22 22 238 2",
"  	c None",
". 	c #0B56C4",
"+ 	c #0A55C3",
"@ 	c #0953C2",
"# 	c #0752C1",
"$ 	c #064FBF",
"% 	c #054EBE",
"& 	c #054CBD",
"* 	c #0B57C5",
"= 	c #0D5DCC",
"- 	c #1976E9",
"; 	c #2E8FFA",
"> 	c #43A6FF",
", 	c #52AFFF",
"' 	c #61B9FF",
") 	c #68BAFF",
"! 	c #5CA6F1",
"~ 	c #4084D9",
"{ 	c #1155C1",
"] 	c #227CE9",
"^ 	c #2894FF",
"/ 	c #2693FF",
"( 	c #3EA2FF",
"_ 	c #53AFFF",
": 	c #59B2FF",
"< 	c #5EB3FF",
"[ 	c #61B4FF",
"} 	c #6ABAFF",
"| 	c #81CBFF",
"1 	c #8BC9F9",
"2 	c #336FCB",
"3 	c #2D81E9",
"4 	c #2C96FF",
"5 	c #3E9EFF",
"6 	c #58AFFF",
"7 	c #5BB4FF",
"8 	c #5DB3FF",
"9 	c #60B2FF",
"0 	c #63B4FB",
"a 	c #73BDFA",
"b 	c #84C8FB",
"c 	c #94C7F6",
"d 	c #1452BD",
"e 	c #3A77D1",
"f 	c #8AC8FF",
"g 	c #3A9DFF",
"h 	c #4EA6FF",
"i 	c #57AFFF",
"j 	c #5BB3FF",
"k 	c #5CB3FF",
"l 	c #5FB2FF",
"m 	c #63B4FA",
"n 	c #82C7FA",
"o 	c #92CBFA",
"p 	c #225EC2",
"q 	c #4981D5",
"r 	c #A6D7FF",
"s 	c #4AA4FF",
"t 	c #59B3FF",
"u 	c #A8D7FE",
"v 	c #205DC4",
"w 	c #3474CF",
"x 	c #FFFFFF",
"y 	c #96CEFF",
"z 	c #4CA5FF",
"A 	c #5DB2FF",
"B 	c #BEE5FF",
"C 	c #85B9F6",
"D 	c #0043BC",
"E 	c #2B6FCD",
"F 	c #E3FFFF",
"G 	c #F4FEFF",
"H 	c #AFD9FF",
"I 	c #86C6FF",
"J 	c #71BEFF",
"K 	c #5BB2FF",
"L 	c #74BDFF",
"M 	c #8BC9FF",
"N 	c #C3E5FF",
"O 	c #DAEFFF",
"P 	c #5D9FEE",
"Q 	c #0063E0",
"R 	c #0042BB",
"S 	c #2A6CCC",
"T 	c #D3FFFF",
"U 	c #C4F9FF",
"V 	c #F6FFFF",
"W 	c #FAFFFF",
"X 	c #ECFBFF",
"Y 	c #D8EEFF",
"Z 	c #A5CEFA",
"` 	c #418FEA",
" .	c #0469E0",
"..	c #0067E0",
"+.	c #0041BA",
"@.	c #296BCB",
"#.	c #F1FFFF",
"$.	c #EDFFFF",
"%.	c #D8FAFF",
"&.	c #ADE9FF",
"*.	c #81C8FC",
"=.	c #56A7F1",
"-.	c #2B87E9",
";.	c #0A6DE1",
">.	c #003FBA",
",.	c #296AC9",
"'.	c #D7FAFF",
").	c #ADE7FF",
"!.	c #81C7FC",
"~.	c #56A6F1",
"{.	c #2A86E7",
"].	c #003EB9",
"^.	c #2868C8",
"/.	c #D6FAFF",
"(.	c #ACE7FF",
"_.	c #80C6FB",
":.	c #55A5F1",
"<.	c #2A85E7",
"[.	c #0A6DE0",
"}.	c #003DB8",
"|.	c #2667C7",
"1.	c #ECFCFF",
"2.	c #D5F5FF",
"3.	c #ADE1FC",
"4.	c #84C2F1",
"5.	c #5CA3E6",
"6.	c #3384DB",
"7.	c #136FD8",
"8.	c #0669DD",
"9.	c #003CB7",
"0.	c #2566C7",
"a.	c #D6FFFF",
"b.	c #DAFFFF",
"c.	c #F4FFFF",
"d.	c #EDFCFF",
"e.	c #AEE1FB",
"f.	c #86C2F0",
"g.	c #5FA4E4",
"h.	c #3785D9",
"i.	c #1A70D0",
"j.	c #166CD0",
"k.	c #0E69D3",
"l.	c #0063DF",
"m.	c #0039B6",
"n.	c #2B68C7",
"o.	c #E6FFFF",
"p.	c #E0FFFF",
"q.	c #F5FFFF",
"r.	c #EEFEFF",
"s.	c #D3F4FF",
"t.	c #ADE0FC",
"u.	c #87C3F2",
"v.	c #61A6E9",
"w.	c #3A88DD",
"x.	c #1C71D3",
"y.	c #136AD0",
"z.	c #0E67D1",
"A.	c #0039B4",
"B.	c #3E74CC",
"C.	c #EBFFFF",
"D.	c #D9F9FF",
"E.	c #EDFBFF",
"F.	c #E6F6FF",
"G.	c #D0F0FF",
"H.	c #ACDFFE",
"I.	c #88C4F5",
"J.	c #63A8EC",
"K.	c #3F8CE4",
"L.	c #267ADF",
"M.	c #2175DC",
"N.	c #166DD3",
"O.	c #0F68D0",
"P.	c #053DA8",
"Q.	c #3E70C8",
"R.	c #CDEBFA",
"S.	c #ECFAFF",
"T.	c #E9F8FF",
"U.	c #D1F2FF",
"V.	c #AEE1FF",
"W.	c #89C5F6",
"X.	c #65A9EE",
"Y.	c #418FE5",
"Z.	c #297DE1",
"`.	c #257AE1",
" +	c #297BDC",
".+	c #6685A7",
"++	c #1C48A7",
"@+	c #3365C1",
"#+	c #E7E7F0",
"$+	c #FEFFFF",
"%+	c #F0FCFF",
"&+	c #D3F5FF",
"*+	c #AFE3FF",
"=+	c #8BC7F8",
"-+	c #67ACEF",
";+	c #4290E7",
">+	c #4B8FE0",
",+	c #739FD2",
"'+	c #A8B1BA",
")+	c #E6E7E9",
"!+	c #3660BE",
"~+	c #003DB3",
"{+	c #BDC5DF",
"]+	c #E0E0EB",
"^+	c #F0F0F7",
"/+	c #EBF9FF",
"(+	c #DDEFFF",
"_+	c #F2F2F4",
":+	c #E9EAEC",
"<+	c #F0F1F2",
"[+	c #E6EDFE",
"}+	c #0026A5",
"|+	c #003AB2",
"1+	c #2457BB",
"2+	c #B2BEDD",
"3+	c #E2E2EC",
"4+	c #E6E6F0",
"5+	c #ECECF4",
"6+	c #F6F6FA",
"7+	c #FAFAFE",
"8+	c #D5E0F7",
"9+	c #2451B8",
"0+	c #0037B0",
"a+	c #0036AF",
"b+	c #406AC1",
"c+	c #8CA3D7",
"d+	c #CDD5EB",
"e+	c #DDE4F6",
"f+	c #9CB1E1",
"g+	c #476DC4",
"h+	c #0033AD",
"i+	c #0030AC",
"j+	c #002FAA",
"k+	c #002DA9",
"l+	c #002CA8",
"m+	c #002AA7",
"n+	c #0029A6",
"o+	c #0028A5",
"                . + @ # $ % &               ",
"            * = - ; > , ' ) ! ~ {           ",
"          * ] ^ / ( _ : < [ } | 1 2         ",
"        * 3 4 ^ 5 6 7 8 < 9 0 a b c d       ",
"        e f 4 g h i j k < l m a n o p       ",
"        q r 4 s h i t k < l m a n u v       ",
"        w x y z h i t k A l m a B C D       ",
"        E F x G H I J K L M N O P Q R       ",
"        S T U V W W V X Y Z `  ...Q +.      ",
"        @.T U #.$.%.&.*.=.-.;. ...Q >.      ",
"        ,.T U #.$.'.).!.~.{.;. ...Q ].      ",
"        ^.T U #.$./.(._.:.<.[. ...Q }.      ",
"        |.T U #.1.2.3.4.5.6.7.8...Q 9.      ",
"        0.a.b.c.d.2.e.f.g.h.i.j.k.l.m.      ",
"        n.o.p.q.r.s.t.u.v.w.x.j.y.z.A.      ",
"        B.C.D.E.F.G.H.I.J.K.L.M.N.O.P.      ",
"        Q.x R.S.T.U.V.W.X.Y.Z.`. +.+++      ",
"        @+#+x $+%+&+*+=+-+;+>+,+'+)+!+      ",
"        ~+{+]+^+x x c./+(+_+:+<+x [+}+      ",
"        |+1+2+3+4+5+^+6+7+x x x 8+9+}+      ",
"          0+a+b+c+d+^+6+7+e+f+g+}+}+        ",
"              h+i+j+k+l+m+n+o+}+            "};
