/* XPM */
static const char * unsavedchanges_xpm[] = {
"24 24 52 1",
" 	c None",
".	c #3F3F3F",
"+	c #343434",
"@	c #5C5C5C",
"#	c #050505",
"$	c #000000",
"%	c #212121",
"&	c #6F6F6F",
"*	c #6C6C6C",
"=	c #7D7D7D",
"-	c #0B0B0B",
";	c #333333",
">	c #747474",
",	c #606060",
"'	c #151515",
")	c #494949",
"!	c #030303",
"~	c #090909",
"{	c #818181",
"]	c #242424",
"^	c #5F5F5F",
"/	c #919191",
"(	c #121212",
"_	c #060606",
":	c #020202",
"<	c #0D0D0D",
"[	c #1B1B1B",
"}	c #787878",
"|	c #9B9B9B",
"1	c #161616",
"2	c #0A0A0A",
"3	c #868686",
"4	c #999999",
"5	c #515151",
"6	c #BEBEBE",
"7	c #2B2B2B",
"8	c #040404",
"9	c #010101",
"0	c #757575",
"a	c #080808",
"b	c #232323",
"c	c #6E6E6E",
"d	c #171717",
"e	c #4E4E4E",
"f	c #4B4B4B",
"g	c #454545",
"h	c #555555",
"i	c #4D4D4D",
"j	c #5E5E5E",
"k	c #202020",
"l	c #323232",
"m	c #777777",
"                        ",
"                        ",
"                        ",
"                        ",
"                        ",
"                        ",
"           .+           ",
"          @#$%          ",
"       &* =-#; >,       ",
"       $$')!~{]$$^      ",
"      /]$$(_:<$$[}      ",
"        |1$$$$23        ",
"        4*:$$$56        ",
"       7$$289_$$70      ",
"      {$$ab8~cd$$e      ",
"       ff  #_g hi       ",
"          j_9k          ",
"           l7m          ",
"                        ",
"                        ",
"                        ",
"                        ",
"                        ",
"                        "};
