/* XPM */
static const char * user_xpm[] = {
"24 24 411 2",
"  	c None",
". 	c #F0EEE1",
"+ 	c #F2F1E1",
"@ 	c #F1F0E0",
"# 	c #F0EDE3",
"$ 	c #FBF9F5",
"% 	c #EEEADB",
"& 	c #E2DBB9",
"* 	c #D8D187",
"= 	c #DAD781",
"- 	c #DBD885",
"; 	c #D6CD90",
"> 	c #E4D9B5",
", 	c #E0D7C1",
"' 	c #EFECDD",
") 	c #E4DB9C",
"! 	c #EDE07F",
"~ 	c #F8F377",
"{ 	c #FAF872",
"] 	c #FDFB79",
"^ 	c #F8EF87",
"/ 	c #F0E694",
"( 	c #ECDC98",
"_ 	c #E9DEB9",
": 	c #F4F0DE",
"< 	c #E4D991",
"[ 	c #FBED7F",
"} 	c #FCEE5A",
"| 	c #F6ED40",
"1 	c #EDE932",
"2 	c #E5E230",
"3 	c #FAEE55",
"4 	c #F3E25E",
"5 	c #F9E372",
"6 	c #F3DE7F",
"7 	c #ECE0B0",
"8 	c #EFEAD7",
"9 	c #DCCD7D",
"0 	c #F5E776",
"a 	c #FEEF5C",
"b 	c #F3E02D",
"c 	c #F8EE22",
"d 	c #F4EC17",
"e 	c #FCF625",
"f 	c #F5E62B",
"g 	c #F9E83E",
"h 	c #FBE34B",
"i 	c #FAE965",
"j 	c #EDDB74",
"k 	c #E0D6A9",
"l 	c #E1D49B",
"m 	c #EBD761",
"n 	c #FBE64F",
"o 	c #FEE63B",
"p 	c #FAE121",
"q 	c #FEEC16",
"r 	c #FAEA09",
"s 	c #FBED0E",
"t 	c #FBE619",
"u 	c #FEE525",
"v 	c #FFE531",
"w 	c #FBE13E",
"x 	c #FFE864",
"y 	c #D7C266",
"z 	c #E9E2C4",
"A 	c #E0CB6A",
"B 	c #FBF05D",
"C 	c #F7DE2A",
"D 	c #F9D81F",
"E 	c #FCDA1B",
"F 	c #FBDF0D",
"G 	c #FBE307",
"H 	c #F8E005",
"I 	c #FBDD0D",
"J 	c #FCD910",
"K 	c #FCDB18",
"L 	c #F7D51D",
"M 	c #F3D53A",
"N 	c #F3D864",
"O 	c #E4D29F",
"P 	c #ECE2BE",
"Q 	c #DFC356",
"R 	c #F6D436",
"S 	c #F7D517",
"T 	c #FED61E",
"U 	c #FBCF1B",
"V 	c #F9D311",
"W 	c #F9D80D",
"X 	c #F7D50B",
"Y 	c #FAD311",
"Z 	c #FDD413",
"` 	c #F7CE0C",
" .	c #F6CF11",
"..	c #FADD38",
"+.	c #E8CA4B",
"@.	c #E6CE8B",
"#.	c #EBDEBD",
"$.	c #EBC862",
"%.	c #F4CA33",
"&.	c #FDD11D",
"*.	c #FDC91C",
"=.	c #FBC921",
"-.	c #FACC19",
";.	c #FAD118",
">.	c #F9CE18",
",.	c #FBCD1E",
"'.	c #FAC817",
").	c #FDD019",
"!.	c #FDCF17",
"~.	c #F1C725",
"{.	c #E8C345",
"].	c #E1C582",
"^.	c #F1E2C7",
"/.	c #E7BD66",
"(.	c #F8C43F",
"_.	c #F1BB1A",
":.	c #FBC423",
"<.	c #F6BF22",
"[.	c #F5C31C",
"}.	c #F7C720",
"|.	c #F5C422",
"1.	c #F8C329",
"2.	c #F9C123",
"3.	c #F3BB14",
"4.	c #F6C318",
"5.	c #FBD139",
"6.	c #E3BB44",
"7.	c #E9CA8D",
"8.	c #E4D6C6",
"9.	c #D2A765",
"0.	c #F6BE51",
"a.	c #F6B329",
"b.	c #F4B420",
"c.	c #EFB61F",
"d.	c #EEB91D",
"e.	c #F0BD22",
"f.	c #EFBA26",
"g.	c #F3B92E",
"h.	c #F6B92B",
"i.	c #FABD28",
"j.	c #EFB61B",
"k.	c #E9B62E",
"l.	c #EBBE56",
"m.	c #C7A982",
"n.	c #EAE8E7",
"o.	c #D1B989",
"p.	c #E5B455",
"q.	c #EFAC34",
"r.	c #F9B933",
"s.	c #EFB727",
"t.	c #E8B31F",
"u.	c #ECB323",
"v.	c #F6B32A",
"w.	c #F8AE27",
"x.	c #F9B531",
"y.	c #F1A82D",
"z.	c #F3B650",
"A.	c #E0AF65",
"B.	c #CABEBB",
"C.	c #D1CA9B",
"D.	c #DFC068",
"E.	c #EBB045",
"F.	c #E9AC31",
"G.	c #E6AD27",
"H.	c #E9B129",
"I.	c #EDB32A",
"J.	c #EFB127",
"K.	c #F1A820",
"L.	c #F1A220",
"M.	c #F6AA32",
"N.	c #F8B14E",
"O.	c #E3AA5F",
"P.	c #AC8E6F",
"Q.	c #F5F8F3",
"R.	c #B9C38F",
"S.	c #A29E43",
"T.	c #D0AE45",
"U.	c #E9B443",
"V.	c #F6B540",
"W.	c #F2AD3A",
"X.	c #F1AA38",
"Y.	c #F0AA35",
"Z.	c #EDAA33",
"`.	c #ECB23B",
" +	c #DEB13E",
".+	c #D4BD57",
"++	c #AFAB56",
"@+	c #C8D1AF",
"#+	c #E8F2E6",
"$+	c #F4F8F4",
"%+	c #AAC7A2",
"&+	c #8DAF6B",
"*+	c #B4CC6D",
"=+	c #B1B244",
"-+	c #CCB143",
";+	c #E3B347",
">+	c #E5AC45",
",+	c #EFAF4C",
"'+	c #F1B24F",
")+	c #E6B34B",
"!+	c #DABC4E",
"~+	c #CAC452",
"{+	c #95AC3F",
"]+	c #A0C968",
"^+	c #93C577",
"/+	c #89C183",
"(+	c #DAEBDA",
"_+	c #AACBAD",
":+	c #94CB91",
"<+	c #B8F4A5",
"[+	c #A9E47A",
"}+	c #9CC550",
"|+	c #9AAB36",
"1+	c #A8A134",
"2+	c #C3A946",
"3+	c #D7B156",
"4+	c #DAB259",
"5+	c #C5AC4E",
"6+	c #A3A43C",
"7+	c #91B040",
"8+	c #77B542",
"9+	c #92DE72",
"0+	c #ABFA9B",
"a+	c #9DE598",
"b+	c #94C78E",
"c+	c #E0EBDE",
"d+	c #AAC8AB",
"e+	c #6DAB70",
"f+	c #A3F2A4",
"g+	c #74D46B",
"h+	c #6ECE54",
"i+	c #7CD551",
"j+	c #72C23D",
"k+	c #66A528",
"l+	c #88AC40",
"m+	c #91A140",
"n+	c #989D43",
"o+	c #99A84B",
"p+	c #78A037",
"q+	c #73B742",
"r+	c #70CB4F",
"s+	c #73D35A",
"t+	c #81DB6C",
"u+	c #8DD977",
"v+	c #9FDD8D",
"w+	c #84B47A",
"x+	c #F3F7F2",
"y+	c #E4EFE3",
"z+	c #7FB67E",
"A+	c #84DB84",
"B+	c #6FDA6D",
"C+	c #60D659",
"D+	c #59D44A",
"E+	c #5BD746",
"F+	c #5BDA47",
"G+	c #54C93C",
"H+	c #81D75E",
"I+	c #93CE63",
"J+	c #9BC867",
"K+	c #9DCF6C",
"L+	c #7CC455",
"M+	c #6CCB4E",
"N+	c #59CB43",
"O+	c #61D04A",
"P+	c #64C648",
"Q+	c #84D361",
"R+	c #8ED775",
"S+	c #7ABE6F",
"T+	c #BFD8BC",
"U+	c #EFF2EF",
"V+	c #89AE87",
"W+	c #6FC36C",
"X+	c #6CD867",
"Y+	c #59D351",
"Z+	c #49CD3F",
"`+	c #42CD38",
" @	c #3FD037",
".@	c #3DD53A",
"+@	c #3BCC36",
"@@	c #5FD24F",
"#@	c #83DD68",
"$@	c #93DE73",
"%@	c #80D062",
"&@	c #60C248",
"*@	c #52C840",
"=@	c #4BCF3B",
"-@	c #4DCC39",
";@	c #56C63A",
">@	c #68C442",
",@	c #70C956",
"'@	c #77CF6E",
")@	c #65A05F",
"!@	c #E1EFE0",
"~@	c #63AB5F",
"{@	c #5CC659",
"]@	c #4CCA43",
"^@	c #39BF2A",
"/@	c #35BF25",
"(@	c #2DBE22",
"_@	c #2BC429",
":@	c #2DC62B",
"<@	c #2DBB26",
"[@	c #41BA35",
"}@	c #6FD75C",
"|@	c #7FE06C",
"1@	c #5FC54C",
"2@	c #3AB12B",
"3@	c #33B928",
"4@	c #29BC1E",
"5@	c #2EBE21",
"6@	c #34BA21",
"7@	c #38B121",
"8@	c #4ABF3B",
"9@	c #5CCA56",
"0@	c #5FAF58",
"a@	c #C5E4C0",
"b@	c #D6E8D6",
"c@	c #4CA64D",
"d@	c #3CB83C",
"e@	c #27B420",
"f@	c #1EA80B",
"g@	c #1EA70A",
"h@	c #1DAB10",
"i@	c #17AC17",
"j@	c #19A915",
"k@	c #1FA214",
"l@	c #2EA823",
"m@	c #50C445",
"n@	c #53C649",
"o@	c #34AC2A",
"p@	c #1EA013",
"q@	c #1AA910",
"r@	c #17AD0D",
"s@	c #17AE0F",
"t@	c #19AD12",
"u@	c #1EAD19",
"v@	c #26B223",
"w@	c #39BA37",
"x@	c #45A33E",
"y@	c #9AC294",
"z@	c #CEE2D0",
"A@	c #3A9F42",
"B@	c #29B230",
"C@	c #1EB319",
"D@	c #21AC0C",
"E@	c #22A60B",
"F@	c #26AB18",
"G@	c #1BA81C",
"H@	c #21A71D",
"I@	c #25A21B",
"J@	c #2BA823",
"K@	c #31B02E",
"L@	c #2BAD2A",
"M@	c #26AA22",
"N@	c #22AA1A",
"O@	c #1EAA12",
"P@	c #20AF13",
"Q@	c #18AA0F",
"R@	c #14A913",
"S@	c #1BB121",
"T@	c #1AB21F",
"U@	c #19A71A",
"V@	c #40A83A",
"W@	c #84B17E",
"X@	c #C9DFCC",
"Y@	c #269135",
"Z@	c #25B330",
"`@	c #24BA20",
" #	c #2CB619",
".#	c #33B11C",
"+#	c #34B027",
"@#	c #2DB02F",
"##	c #32B131",
"$#	c #2DAC2A",
"%#	c #2BB12F",
"&#	c #23B02D",
"*#	c #1FAE29",
"=#	c #29B72B",
"-#	c #2CB424",
";#	c #30B220",
">#	c #32B21F",
",#	c #2CAE20",
"'#	c #26AD24",
")#	c #24B22E",
"!#	c #1EB426",
"~#	c #25B926",
"{#	c #319E2B",
"]#	c #7DAD77",
"^#	c #E4F0E6",
"/#	c #67A772",
"(#	c #3C9544",
"_#	c #379536",
":#	c #3E9232",
"<#	c #459137",
"[#	c #438D3A",
"}#	c #439043",
"|#	c #3D8D3D",
"1#	c #3E9444",
"2#	c #3A9543",
"3#	c #389641",
"4#	c #3B953E",
"5#	c #3A8D35",
"6#	c #449138",
"7#	c #458E37",
"8#	c #46913C",
"9#	c #449241",
"0#	c #3C9042",
"a#	c #39953E",
"b#	c #3D993E",
"c#	c #4E914A",
"d#	c #C0DABC",
"                    . + @ # $                   ",
"                % & * = - ; > ,                 ",
"              ' ) ! ~ { ] ^ / ( _               ",
"            : < [ } | 1 2 3 4 5 6 7             ",
"          8 9 0 a b c d e f g h i j k           ",
"          l m n o p q r s t u v w x y           ",
"        z A B C D E F G H I J K L M N O         ",
"        P Q R S T U V W X Y Z `  ...+.@.        ",
"        #.$.%.&.*.=.-.;.>.,.'.).!.~.{.].        ",
"        ^./.(._.:.<.[.}.|.1.2.3.4.5.6.7.        ",
"        8.9.0.a.b.c.d.e.f.g.h.i.j.k.l.m.        ",
"        n.o.p.q.r.s.t.t.u.v.w.x.y.z.A.B.        ",
"          C.D.E.F.G.H.I.J.K.L.M.N.O.P.          ",
"        Q.R.S.T.U.V.W.X.Y.Z.`. +.+++@+#+        ",
"      $+%+&+*+=+-+;+>+,+'+)+!+~+{+]+^+/+(+      ",
"      _+:+<+[+}+|+1+2+3+4+5+6+7+8+9+0+a+b+c+    ",
"    d+e+f+g+h+i+j+k+l+m+n+o+p+q+r+s+t+u+v+w+x+  ",
"  y+z+A+B+C+D+E+F+G+H+I+J+K+L+M+N+O+P+Q+R+S+T+  ",
"U+V+W+X+Y+Z+`+ @.@+@@@#@$@%@&@*@=@-@;@>@,@'@)@  ",
"!@~@{@]@^@/@(@_@:@<@[@}@|@1@2@3@4@5@6@7@8@9@0@a@",
"b@c@d@e@f@g@h@i@j@k@l@m@n@o@p@q@r@s@t@u@v@w@x@y@",
"z@A@B@C@D@E@F@G@H@I@J@K@L@M@N@O@P@Q@R@S@T@U@V@W@",
"X@Y@Z@`@ #.#+#@###$#%#&#*#=#-#;#>#,#'#)#!#~#{#]#",
"^#/#(#_#:#<#[#}#}#|#1#2#3#4#5#6#7#8#9#0#a#b#c#d#"};
