/* XPM */
static const char *user_admin_xpm[] = {
/* columns rows colors chars-per-pixel */
"48 48 230 2",
"   c #000000",
".  c #050709",
"X  c #060809",
"o  c #0E0A06",
"O  c #090B0D",
"+  c #0A0D10",
"@  c #0E1215",
"#  c #0F1519",
"$  c #0F191E",
"%  c #110B04",
"&  c #18140E",
"*  c #111314",
"=  c #11171C",
"-  c #13191D",
";  c #1A1714",
":  c #0F1F26",
">  c #161E24",
",  c #0F252C",
"<  c #0F2E37",
"1  c #0F353F",
"2  c #172026",
"3  c #142329",
"4  c #1B252C",
"5  c #152B33",
"6  c #152E38",
"7  c #1B2B32",
"8  c #16323C",
"9  c #1B313B",
"0  c #2A1C0B",
"q  c #2A241C",
"w  c #38260F",
"e  c #222325",
"r  c #232A2E",
"t  c #2A2A2A",
"y  c #202A32",
"u  c #24313A",
"i  c #2E3237",
"p  c #28353F",
"a  c #32322F",
"s  c #3A3126",
"d  c #3C3C3C",
"f  c #0F3640",
"g  c #0F3B47",
"h  c #0F3E4A",
"j  c #133742",
"k  c #173B46",
"l  c #133C49",
"z  c #293741",
"x  c #2C3A45",
"c  c #2E3D48",
"v  c #3B3E42",
"b  c #0F404D",
"n  c #13414E",
"m  c #134654",
"M  c #31424D",
"N  c #3C4044",
"B  c #344450",
"V  c #3C4D5A",
"C  c #5E0D0D",
"Z  c #402A0F",
"A  c #4C3314",
"S  c #4D381F",
"D  c #483928",
"F  c #413A30",
"G  c #601414",
"H  c #641A1A",
"J  c #632121",
"K  c #4D4033",
"L  c #5D4324",
"P  c #53483A",
"I  c #584835",
"U  c #66451C",
"Y  c #6A471C",
"T  c #6E4A1E",
"R  c #604F3C",
"E  c #734F22",
"W  c #4B4C4F",
"Q  c #4C4E50",
"!  c #42525E",
"~  c #58595A",
"^  c #475762",
"/  c #565E68",
"(  c #53626D",
")  c #5B6974",
"_  c #685541",
"`  c #685844",
"'  c #715D47",
"]  c #706559",
"[  c #646464",
"{  c #656E7A",
"}  c #6F7070",
"|  c #707171",
" . c #76787C",
".. c #787A7D",
"X. c #707D86",
"o. c #7D7E80",
"O. c #7A828B",
"+. c #AB0101",
"@. c #AD0A0A",
"#. c #BD0101",
"$. c #82561F",
"%. c #835823",
"&. c #825B2B",
"*. c #926024",
"=. c #9D6C2F",
"-. c #8D7356",
";. c #9A7B5A",
":. c #897760",
">. c #A17E54",
",. c #B77678",
"<. c #C00D0D",
"1. c #C11212",
"2. c #C41A1A",
"3. c #C72323",
"4. c #C82A2A",
"5. c #CC3636",
"6. c #CC3C3C",
"7. c #CF4444",
"8. c #CF5152",
"9. c #D05556",
"0. c #C26366",
"q. c #D2696A",
"w. c #D17E80",
"e. c #AF8046",
"r. c #A68052",
"t. c #A38B6E",
"y. c #CE8832",
"u. c #CB8B3D",
"i. c #D38F3C",
"p. c #D5913D",
"a. c #E1973C",
"s. c #F4A13A",
"d. c #FFA83D",
"f. c #C38A45",
"g. c #C38F50",
"h. c #C69455",
"j. c #CC9A5D",
"k. c #D69443",
"l. c #DD9741",
"z. c #DD9843",
"x. c #C99A67",
"c. c #C19C73",
"v. c #D5A56B",
"b. c #D6A775",
"n. c #E79E46",
"m. c #EC9441",
"M. c #EFA447",
"N. c #EFA449",
"B. c #E2A152",
"V. c #E8A85A",
"C. c #F2A64A",
"Z. c #FEA942",
"A. c #FCAC4B",
"S. c #FDAF50",
"D. c #FEB153",
"F. c #FFB55C",
"G. c #EEAF63",
"H. c #E3B072",
"J. c #E3B37A",
"K. c #ECB472",
"L. c #EFB67B",
"P. c #FFB760",
"I. c #FFB965",
"U. c #FEBB6B",
"Y. c #FEBE72",
"T. c #FFC176",
"R. c #FEC279",
"E. c #868686",
"W. c #818994",
"Q. c #848D98",
"!. c #8D979E",
"~. c #8E989F",
"^. c #949BA4",
"/. c #989DA3",
"(. c #9AA1AA",
"). c #BEA484",
"_. c #A0A6AD",
"`. c #A3A8AF",
"'. c #A2A9B1",
"]. c #AAAFB6",
"[. c #AAB2B7",
"{. c #ADB2B9",
"}. c #B1B6BD",
"|. c #B5BBC0",
" X c #B9BEC4",
".X c #BCC0C6",
"XX c #BDC2C8",
"oX c #C78B8C",
"OX c #D6B58C",
"+X c #C4BBB0",
"@X c #EBB782",
"#X c #D3BEC1",
"$X c #F4C48C",
"%X c #FFC682",
"&X c #FEC68C",
"*X c #FFC885",
"=X c #FFCB8B",
"-X c #F7CB96",
";X c #FFCD92",
":X c #FFCF98",
">X c #FFD096",
",X c #FFD19B",
"<X c #FFD5A3",
"1X c #FFD8A7",
"2X c #FFD9AC",
"3X c #FFDCB3",
"4X c #FFDFB8",
"5X c #FFE1BD",
"6X c #C1C5CA",
"7X c #C6CACF",
"8X c #C7CAD0",
"9X c #CACED3",
"0X c #CCD0D4",
"qX c #D4CED1",
"wX c #D4D5D6",
"eX c #D2D5D8",
"rX c #D6D9DC",
"tX c #D9DBDE",
"yX c #DADCE0",
"uX c #DEE0E3",
"iX c #FFE2C0",
"pX c #E1E3E5",
"aX c #E5E6E8",
"sX c #EAEBED",
"dX c #EDEEF0",
"fX c #EFF0F1",
"gX c #F2F3F4",
"hX c #F7F8F9",
"jX c #FBFBFB",
"kX c None",
/* pixels */
"kXkXkXkXkXkXkXkXkXkXkXkXkXkXkXkXkX                            kXkXkX        kXkXkXkXkXkXkXkXkXkX",
"kXkXkXkXkXkXkXkXkXkXkXkXkXkXkX          @ > 4 7 7 r > @                         kXkXkXkXkXkXkXkX",
"kXkXkXkXkXkXkXkXkXkXkXkXkX        $ p ^ X.^.[.|.|.[.^.X.^ u -     > p M u       kXkXkXkXkXkXkXkX",
"kXkXkXkXkXkXkXkXkXkXkXkX      = M ( O.!.~.~.~.~.~.~.~.~.!.O.( M z c c y       kXkXkXkXkXkXkXkXkX",
"kXkXkXkXkXkXkXkXkXkXkX    . p V ( ) ) ) ) ) ) ) ) ) ) ) ) ) ) ( V M c .     kXkXkXkXkXkXkXkXkXkX",
"kXkXkXkXkXkXkXkXkXkX    O c V ! ! ! ! ^ ! ! ! ^ ! ! ^ ^ ! ! ! ! ^ V B O     kXkXkXkXkXkXkXkXkXkX",
"kXkXkXkXkXkXkXkXkX    X x B B B M M M M M B B B B B M B B B M B M M M c X     kXkXkXkXkXkXkXkXkX",
"kXkXkXkXkXkXkXkX    . p c c c c c c M c c c c c c c c c c c c c c c c c p .     kXkXkXkXkXkXkXkX",
"kXkXkXkXkXkXkXkX    4 z z z z z z z z z z z z z z z p z z z z z p p x p p 7     kXkXkXkXkXkXkXkX",
"kXkXkXkXkXkXkX    @ u u u u u u u u u i u u u u u u u u u u u u u u u u u u @     kXkXkXkXkXkXkX",
"kXkXkXkXkXkXkX    4 7 7 y y y 7 y y 7 y y y 7 7 7 7 y y y y r y u 7 7 r r r 4     kXkXkXkXkXkXkX",
"kXkXkXkXkXkX    O 4 4 e 4 4 4 4 4 4 4 4 4 4 4 4 7 7 9 7 4 y ` 4 9 7 4 4 4 4 4 O     kXkXkXkXkXkX",
"kXkXkXkXkXkX    # > > > > > > > > > > 2 3 7 6 8 k 9 3 > a x.Y.P > 8 6 2 > > > *     kXkXkXkXkXkX",
"kXkXkXkXkXkX    = > : > > > 3 , 5 6 j l n m l 6 > = > ' L.&X&XK.d = 3 5 > > - =     kXkXkXkXkXkX",
"kXkXkXkXkXkX  . + > : , < f h h h g f < 3 = @ @ ; _ b.&X,X,X,X=XL.I @ @ # # @ #     kXkXkXkXkXkX",
"kXkXkXkX        + + O + + + + + + + + + + = F ;.@X&X<X2X2X<X,X;X&XR.r.q + + + O .       kXkXkXkX",
"kXkXkX    q t.-.X X X X X X X O ; s I -.c.$X:X<X2X4X4X3X2X2X<X:X;X*XR.U.e.L & X :.t.q     kXkXkX",
"kXkX    D -X=Xh.  %.f.g.j.v.J.$X;X:X<X2X3X4X5X5X5X5XiX4X3X2X<X<X;X=XR.T.I.D.=.  h.*X$XD     kXkX",
"kXkX  o K.I.d.y.  u.F.I.T.R.=X,X<X2X2X4X5X5XiX5X5XiXiXiX4X3X1X<X,X=XR.T.U.D.u.  y.d.U.K.o   kXkX",
"kX    L I.A.Z.p.  M.F.T.R.*X=X,X<X2X4X4X5XiX5XiXiX5XiX4X4X2X2X<X,X=X*XT.U.F.M.  a.Z.A.I.L   kXkX",
"kX    &.D.D.D.D.o C.F.T.R.=X;X,X<X2X3X4X5X5XiX5X5X5X5XiX4X3X2X<X,X=X*XR.U.F.C.% D.D.D.D.&.    kX",
"kX    E A.I.I.I.S N.F.U.R.*X;X,X1X2X4X4X5X5X5XiX5X5X5XiX4X3X2X1X,X;X*XR.U.F.M.S I.I.I.A.E     kX",
"kXkX  0 Z.U.%X%Xr.z.F.T.R.*X;X,X<X2X3X4X5XiXiXiXiXiX5XiX4X3X2X<X,X=X*XR.U.F.z.r.%XR.U.Z.0   kXkX",
"kXkX    *.Z.Y.,X-Xk.F.U.R.*X;X,X<X2X3X4X5X5XiXiXiXiX5X4X4X3X1X<X,X;X*XR.U.F.k.-X,XT.Z.*.    kXkX",
"kXkX      $.s.d.d.Z.F.U.R.%X=X,X<X2X3X3X4X5X5XiXiXiX5X4X3X2X2X<X>X=X%XR.U.D.Z.d.d.s.$.      kXkX",
"kXkXkX      % Z Z A S.U.R.%X=X>X,X<X2X3X4X4X5X4X5X5X4X3X3X2X<X,X>X=X%XT.U.S.A Z Z %       kXkXkX",
"kXkXkXkX            p.I.T.%X=X>X,X<X1X2X4X3X4X4X4X4X4X3X2X1X<X,X>X=X%XT.I.p.            kXkXkXkX",
"kXkXkXkXkXkXkXkX    U D.T.%X=X;X,X<X2X2X3X3X3X3X4X3X3X2X2X<X<X,X;X=XR.T.S.U     kXkXkXkXkXkXkXkX",
"kXkXkXkXkXkXkXkXkX    p.I.%X=X;X>X<X<X2X2X3X3X3X3X3X2X2X1X<X<X,X;X=XR.I.p.    kXkXkXkXkXkXkXkXkX",
"kXkXkXkXkXkXkXkXkX    w A.T.=X;X,X,X<X1X2X2X2X3X2X3X2X2X1X<X<X;X;X=XT.A.w     kXkXkXkXkXkXkXkXkX",
"kXkXkXkXkXkXkXkXkXkX    T D.%X>X,X,X<X2X2X2X2X2X3X2X2X2X2X<X,X,X>X%XA.T     kXkXkXkXkXkXkXkXkXkX",
"kXkXkXkXkXkXkXkXkXkX      %.D.*X<X<X1X2X2X2X3X3X3X3X2X2X2X<X<X<X*XD.%.      kXkXkXkXkXkXkXkXkXkX",
"kXkXkXkXkXkXkXkXkXkXkX      Y A.T.1X3X3X3X3X4X4X4X5X3X3X3X2X2XT.A.Y       kXkXkXkXkXkXkXkXkXkXkX",
"kXkXkXkXkXkXkXkXkX      . i / ] B.F.*X3X5X5X5X5X5X5X5X5X2X*XD.B.] / i .       kXkXkXkXkXkXkXkXkX",
"kXkXkXkXkXkXkXkX    . v O.Q.O.{ /.c.V.A.T.R.,X1X<X,X*XU.A.V.)./.{ Q.Q.X.N .     kXkXkXkXkXkXkXkX",
"kXkXkXkXkXkXkX    e O./.^.^./.O./.7X6X}.OXH.G.a.a.G.H.OX+X6X7X/.O.^.^./.^.O.e       kXkXkXkXkXkX",
"kXkXkXkXkX      W ^.'.'.]._._.^.O.yXyXyXyXyX,.+.+.,.tXyXtXyXrXW.(.'._.'.'.'.^.Q       kXkXkXkXkX",
"kXkXkXkXkX     .(.{.|.|.|.|.|.|.^.#XsXsXsXoX+.#.#.+.oXsXsXsXXX/.{.|.|.|.{.|.{.'....   kXkXkXkXkX",
"kXkXkXkX    o.7X{. XXXXXXXXX X X}.`.dXgXqX@.#.#.<.#.@.qXgXsX_.}.XXXXXXXX X X6X].6Xo.    kXkXkXkX",
"kXkXkX    W yX0X X0X9X9X9X9X9X9XqX}.7XuX}.,.2.3.2.2.0. XpX7X|.9X0X0X0X9X9X9X0X X9XyXW     kXkXkX",
"kXkXkX  O wXaXtXyXyXyXyXyXyXyXyXrXeX6X7XeX#X<.3.3.1.#XeX7X6XeXrXrXrXrXtXrXtXrX7XwXpXwXO   kXkXkX",
"kXkX    | gXsXaXyXyXaXyXyXyXuXuXpXpXyXpXpXw.#.#.#.#.w.pXuXyXpXpXpXpXpXpXpXpXpXwXyXaXsX}     kXkX",
"kXkX    wXhXgXsXdXdXdXdXsXsXsXsXsXsXsXsXsXq.<.#.#.#.q.sXsXsXsXsXsXsXsXsXsXsXsXaXsXsXgXwX    kXkX",
"kXkX  t hXhXhXhXgXdXgXgXgXgXgXgXgXgXgXhXgX9.<.<.<.#.9.gXgXgXgXhXgXgXgXgXgXgXgXgXgXhXhXhXt   kXkX",
"kXkX  [ jXjXjXjXhXpXgXhXjXjXjXjXjXjXjXjXjX7.3.2.<.<.6.hXjXjXjXjXhXjXjXjXhXgXpXhXjXjXjXjX[   kXkX",
"kX    E.jXjXjXjXhX XtXgXjXjXjXjXjXjXjXjXjX6.7.5.4.3.4.jXjXjXjXjXjXjXjXjXgXyXXXhXjXjXjXjXE.    kX",
"kX    d [ [ [ [ [ v Q ~ ( [ [ [ [ [ [ [ [ H J H G G C [ [ [ [ [ [ [ [ [ ~ W v [ [ [ [ [ d     kX",
"kX                                                                                .           kX"
};
