/* XPM */
static const char * vcross_xpm[] = {
"32 32 6 1",
". c #0000ff",
"c c None",
"# c #c0ffff",
"d c #00c000",
"b c #dcdcdc",
"a c #ff0000",
"................................",
".#a##########aaaa#####a########.",
".##a########a####a#####a#######.",
".###a##bbbbabb####a###bca######.",
".####abbbbabbbb####a#bbbca#####.",
".####babbbabbbbb#bbbabbbbca####.",
".###bbabbbabbbbbbbbbbabbbbab###.",
".##bbbabbbabbbbbbbbbbabbbbabb##.",
".#bbbbabbbabbbbaabbbbabbbbab###.",
".##bbbabbbabbbabbabbbabbbba####.",
".###bbabbbabbabbbbabbabbb#a####.",
".####babbbabbabbbbabbabb##a####.",
".#####a###abbabbbba##a####a####.",
".#####a###abbabbbba##a####a####.",
".a####a###a#babbb#a##a####a####.",
".#a###a###a##a####a##a####a####.",
".#a###a####a##a##a###a####a####.",
".#a###a#####a##aa####a####a####.",
".#a###a######a######a#####a####.",
".#a###a#######a####a#####a#####.",
".#a###a########a##a#####a#####a.",
".#a###a####dd###aa#####a#####a#.",
".#a####a##dddd########a######a#.",
".#a#####adddddd######a#######a#.",
".#a#####dddddddd####a########a#.",
".#a####dddddddddd##a#########a#.",
".##a##dddddddddddda#####dd##a##.",
".###adddddddddddddd####dddda###.",
".###dddddddddddddddd##dddddd###.",
".##dddddddddddddddddddddddddd##.",
".dddddddddddddddddddddddddddddd.",
"................................"};
