/* XPM */
static const char * vprof_normal_xpm[] = {
"15 15 25 1",
" 	c None",
".	c #E7CF00",
"+	c #F3E700",
"@	c #FFFF00",
"#	c #CFB900",
"$	c #DCC400",
"%	c #AE8E00",
"&	c #C4A300",
"*	c #987100",
"=	c #A37A00",
"-	c #8E6800",
";	c #986800",
">	c #855500",
",	c #7A4D00",
"'	c #7A4500",
")	c #713500",
"!	c #551B00",
"~	c #280000",
"{	c #713E00",
"]	c #682E00",
"^	c #451000",
"/	c #5F2800",
"(	c #350400",
"_	c #350100",
":	c #3E0700",
"               ",
"               ",
"     .+@+.     ",
"    #.+@+$#    ",
"   %&#.@.#&%   ",
"  *=%&$@.&%=*  ",
"  -;*=&@&=*--  ",
"  >>>>>@>>>>>  ",
"  ,'')!~!{{,,  ",
"  {{]!^~^!]){  ",
"   /!^(~(^!]   ",
"    ^^_~(^^    ",
"     :_~_:     ",
"               ",
"               "};
