/* XPM */
static const char * vprof_selected_xpm[] = {
"15 15 14 1",
" 	c None",
".	c #E70000",
"+	c #F30000",
"@	c #DC0000",
"#	c #C40000",
"$	c #CF0000",
"%	c #AE0000",
"&	c #A30000",
"*	c #980000",
"=	c #8E0000",
"-	c #7A0000",
";	c #5F0000",
">	c #850000",
",	c #680000",
"               ",
"               ",
"     .+++.     ",
"    @.+++.@    ",
"   #$@.++@$#   ",
"  %%#$.+.$%%%  ",
"  %%%%$+$%%%%  ",
"  &&%&&+%&%&&  ",
"  ***=-;-=***  ",
"  *=>-,;,-===  ",
"   >>,,;,,>>   ",
"    ,,,;;,,    ",
"     ,,;;,     ",
"               ",
"               "};
